<svg xmlns="http://www.w3.org/2000/svg" viewBox="0 0 880 532" role="img" aria-label="ProximaDemo — real CLI session: two semantic queries answered on device in under 3ms">
  <style>
    text { font-family: ui-monospace, 'SF Mono', SFMono-Regular, Menlo, Consolas, monospace; font-size: 13px; }
    .t   { fill: #f5f5f7; }
    .dim { fill: #86868b; }
    .tag { fill: #86868b; font-size: 12px; }
    .ms  { fill: #0A84FF; font-size: 12px; }
    .s   { opacity: 0; animation-duration: 8s; animation-timing-function: cubic-bezier(0.4, 0, 0.2, 1); animation-iteration-count: infinite; }
    .q1 { animation-name: q1; }
    .r1 { animation-name: r1; }
    .q2 { animation-name: q2; }
    .r2 { animation-name: r2; }
    @keyframes q1 { 0%, 4%  { opacity: 0; } 9%  { opacity: 1; } 90% { opacity: 1; } 96%, 100% { opacity: 0; } }
    @keyframes r1 { 0%, 13% { opacity: 0; } 19% { opacity: 1; } 90% { opacity: 1; } 96%, 100% { opacity: 0; } }
    @keyframes q2 { 0%, 44% { opacity: 0; } 50% { opacity: 1; } 90% { opacity: 1; } 96%, 100% { opacity: 0; } }
    @keyframes r2 { 0%, 53% { opacity: 0; } 59% { opacity: 1; } 90% { opacity: 1; } 96%, 100% { opacity: 0; } }
  </style>

  <rect width="880" height="532" rx="20" fill="#000000"/>

  <!-- Window chrome: monochrome dots, hairline, SF-outlined title -->
  <circle cx="40" cy="30" r="4.5" fill="#48484a"/>
  <circle cx="62" cy="30" r="4.5" fill="#48484a"/>
  <circle cx="84" cy="30" r="4.5" fill="#48484a"/>
  <line x1="0" y1="60.5" x2="880" y2="60.5" stroke="#2c2c2e" stroke-width="1"/>
  <path fill="#86868b" d="M315.68 30.98L315.68 30.04L318.07 30.04Q318.97 30.04 319.47 29.57Q319.97 29.10 319.97 28.27L319.97 28.26Q319.97 27.42 319.47 26.95Q318.97 26.48 318.07 26.48L315.68 26.48L315.68 25.54L318.34 25.54Q319.13 25.54 319.74 25.88Q320.35 26.22 320.70 26.83Q321.05 27.44 321.05 28.25L321.05 28.26Q321.05 29.06 320.70 29.68Q320.35 30.29 319.74 30.64Q319.13 30.98 318.34 30.98ZM315.15 34.00L315.15 25.54L316.20 25.54L316.20 34.00ZM322.64 34.00L322.64 27.68L323.66 27.68L323.66 28.62L323.76 28.62Q323.94 28.12 324.37 27.85Q324.80 27.57 325.44 27.57Q325.59 27.57 325.73 27.59Q325.88 27.60 325.95 27.61L325.95 28.60Q325.79 28.57 325.65 28.56Q325.50 28.54 325.33 28.54Q324.84 28.54 324.46 28.74Q324.09 28.93 323.88 29.28Q323.66 29.62 323.66 30.09L323.66 34.00ZM329.63 34.11Q328.74 34.11 328.08 33.72Q327.43 33.32 327.07 32.59Q326.72 31.86 326.72 30.85L326.72 30.84Q326.72 29.82 327.07 29.09Q327.43 28.36 328.08 27.96Q328.74 27.57 329.63 27.57Q330.53 27.57 331.19 27.96Q331.84 28.36 332.19 29.09Q332.54 29.82 332.54 30.84L332.54 30.85Q332.54 31.86 332.19 32.59Q331.84 33.32 331.19 33.72Q330.53 34.11 329.63 34.11ZM329.63 33.21Q330.23 33.21 330.65 32.93Q331.06 32.65 331.28 32.12Q331.50 31.59 331.50 30.85L331.50 30.84Q331.50 30.09 331.28 29.56Q331.06 29.03 330.65 28.75Q330.23 28.47 329.63 28.47Q329.03 28.47 328.62 28.75Q328.20 29.03 327.98 29.56Q327.76 30.09 327.76 30.84L327.76 30.85Q327.76 31.59 327.98 32.12Q328.20 32.65 328.62 32.93Q329.03 33.21 329.63 33.21ZM333.33 34.00L335.49 30.84L333.31 27.68L334.51 27.68L336.01 30.03L336.10 30.03L337.58 27.68L338.73 27.68L336.58 30.80L338.76 34.00L337.56 34.00L336.07 31.62L335.97 31.62L334.47 34.00ZM340.15 34.00L340.15 27.68L341.17 27.68L341.17 34.00ZM340.67 26.46Q340.38 26.46 340.17 26.26Q339.96 26.05 339.96 25.76Q339.96 25.47 340.17 25.26Q340.38 25.06 340.67 25.06Q340.96 25.06 341.16 25.26Q341.37 25.47 341.37 25.76Q341.37 26.05 341.16 26.26Q340.96 26.46 340.67 26.46ZM343.09 34.00L343.09 27.68L344.11 27.68L344.11 28.64L344.20 28.64Q344.42 28.13 344.85 27.85Q345.29 27.57 345.91 27.57Q346.34 27.57 346.68 27.71Q347.02 27.85 347.26 28.10Q347.51 28.35 347.66 28.68L347.75 28.68Q347.92 28.35 348.21 28.10Q348.49 27.85 348.87 27.71Q349.25 27.57 349.68 27.57Q350.33 27.57 350.78 27.81Q351.22 28.05 351.46 28.51Q351.69 28.97 351.69 29.63L351.69 34.00L350.67 34.00L350.67 29.87Q350.67 29.40 350.53 29.09Q350.39 28.79 350.09 28.63Q349.80 28.47 349.36 28.47Q348.92 28.47 348.59 28.67Q348.26 28.87 348.08 29.20Q347.90 29.54 347.90 29.94L347.90 34.00L346.88 34.00L346.88 29.71Q346.88 29.34 346.72 29.06Q346.55 28.78 346.26 28.63Q345.96 28.47 345.56 28.47Q345.15 28.47 344.82 28.69Q344.49 28.91 344.30 29.27Q344.11 29.64 344.11 30.09L344.11 34.00ZM355.27 34.11Q354.67 34.11 354.19 33.88Q353.71 33.65 353.44 33.23Q353.16 32.81 353.16 32.24L353.16 32.22Q353.16 31.66 353.43 31.26Q353.70 30.86 354.21 30.63Q354.73 30.40 355.46 30.36L357.78 30.22L357.78 31.04L355.58 31.18Q354.86 31.22 354.53 31.47Q354.20 31.73 354.20 32.20L354.20 32.21Q354.20 32.69 354.56 32.96Q354.93 33.23 355.48 33.23Q356.00 33.23 356.40 33.02Q356.81 32.81 357.04 32.45Q357.27 32.10 357.27 31.64L357.27 29.68Q357.27 29.09 356.92 28.78Q356.56 28.47 355.85 28.47Q355.28 28.47 354.92 28.68Q354.56 28.88 354.44 29.25L354.43 29.27L353.41 29.27L353.42 29.23Q353.50 28.73 353.83 28.36Q354.16 27.99 354.69 27.78Q355.21 27.57 355.89 27.57Q356.66 27.57 357.20 27.82Q357.73 28.08 358.01 28.55Q358.29 29.02 358.29 29.68L358.29 34.00L357.27 34.00L357.27 33.07L357.18 33.07Q356.98 33.40 356.69 33.64Q356.41 33.87 356.05 33.99Q355.69 34.11 355.27 34.11ZM360.28 34.00L360.28 25.54L363.18 25.54Q364.44 25.54 365.33 26.05Q366.22 26.55 366.70 27.49Q367.17 28.43 367.17 29.76L367.17 29.78Q367.17 31.11 366.70 32.05Q366.22 33.00 365.33 33.50Q364.44 34.00 363.18 34.00ZM361.34 33.05L363.11 33.05Q364.06 33.05 364.72 32.66Q365.39 32.28 365.74 31.54Q366.10 30.81 366.10 29.79L366.10 29.78Q366.10 28.74 365.74 28.01Q365.39 27.27 364.72 26.88Q364.05 26.49 363.11 26.49L361.34 26.49ZM371.45 34.11Q370.55 34.11 369.90 33.71Q369.25 33.31 368.90 32.58Q368.56 31.86 368.56 30.87L368.56 30.86Q368.56 29.88 368.90 29.14Q369.25 28.40 369.89 27.99Q370.53 27.57 371.39 27.57Q372.25 27.57 372.87 27.97Q373.48 28.37 373.82 29.08Q374.15 29.79 374.15 30.74L374.15 31.13L369.08 31.13L369.08 30.32L373.62 30.32L373.12 31.06L373.12 30.66Q373.12 29.92 372.90 29.44Q372.68 28.96 372.28 28.72Q371.89 28.48 371.38 28.48Q370.87 28.48 370.47 28.73Q370.07 28.98 369.83 29.46Q369.60 29.95 369.60 30.66L369.60 31.06Q369.60 31.74 369.83 32.22Q370.06 32.69 370.48 32.95Q370.90 33.20 371.47 33.20Q371.90 33.20 372.22 33.09Q372.53 32.97 372.74 32.79Q372.94 32.61 373.03 32.42L373.05 32.37L374.07 32.37L374.06 32.41Q373.98 32.73 373.77 33.04Q373.56 33.34 373.23 33.58Q372.90 33.82 372.46 33.97Q372.01 34.11 371.45 34.11ZM375.73 34.00L375.73 27.68L376.75 27.68L376.75 28.64L376.84 28.64Q377.05 28.13 377.49 27.85Q377.93 27.57 378.55 27.57Q378.97 27.57 379.31 27.71Q379.65 27.85 379.90 28.10Q380.15 28.35 380.29 28.68L380.39 28.68Q380.56 28.35 380.84 28.10Q381.13 27.85 381.51 27.71Q381.89 27.57 382.32 27.57Q382.96 27.57 383.41 27.81Q383.86 28.05 384.10 28.51Q384.33 28.97 384.33 29.63L384.33 34.00L383.31 34.00L383.31 29.87Q383.31 29.40 383.17 29.09Q383.02 28.79 382.73 28.63Q382.44 28.47 381.99 28.47Q381.55 28.47 381.22 28.67Q380.90 28.87 380.71 29.20Q380.53 29.54 380.53 29.94L380.53 34.00L379.51 34.00L379.51 29.71Q379.51 29.34 379.35 29.06Q379.19 28.78 378.90 28.63Q378.60 28.47 378.20 28.47Q377.79 28.47 377.46 28.69Q377.13 28.91 376.94 29.27Q376.75 29.64 376.75 30.09L376.75 34.00ZM388.77 34.11Q387.87 34.11 387.22 33.72Q386.56 33.32 386.21 32.59Q385.85 31.86 385.85 30.85L385.85 30.84Q385.85 29.82 386.21 29.09Q386.56 28.36 387.22 27.96Q387.87 27.57 388.77 27.57Q389.67 27.57 390.32 27.96Q390.97 28.36 391.32 29.09Q391.68 29.82 391.68 30.84L391.68 30.85Q391.68 31.86 391.32 32.59Q390.97 33.32 390.32 33.72Q389.67 34.11 388.77 34.11ZM388.77 33.21Q389.36 33.21 389.78 32.93Q390.19 32.65 390.41 32.12Q390.63 31.59 390.63 30.85L390.63 30.84Q390.63 30.09 390.41 29.56Q390.19 29.03 389.78 28.75Q389.36 28.47 388.77 28.47Q388.17 28.47 387.75 28.75Q387.34 29.03 387.12 29.56Q386.90 30.09 386.90 30.84L386.90 30.85Q386.90 31.59 387.12 32.12Q387.34 32.65 387.75 32.93Q388.17 33.21 388.77 33.21ZM396.16 31.07L396.16 30.12L405.70 30.12L405.70 31.07ZM412.67 34.11Q411.96 34.11 411.42 33.90Q410.88 33.68 410.56 33.30Q410.23 32.91 410.18 32.39L410.18 32.39L411.22 32.39L411.22 32.39Q411.35 32.78 411.72 33.02Q412.10 33.26 412.70 33.26Q413.13 33.26 413.45 33.14Q413.78 33.01 413.97 32.79Q414.15 32.57 414.15 32.28L414.15 32.27Q414.15 31.95 413.90 31.72Q413.64 31.50 413.05 31.36L412.07 31.12Q411.48 30.98 411.10 30.76Q410.72 30.53 410.54 30.20Q410.36 29.87 410.36 29.42L410.36 29.41Q410.36 28.88 410.66 28.47Q410.97 28.05 411.51 27.81Q412.04 27.57 412.71 27.57Q413.37 27.57 413.88 27.78Q414.39 27.99 414.71 28.37Q415.02 28.75 415.09 29.27L415.09 29.27L414.09 29.27L414.09 29.27Q413.99 28.89 413.63 28.66Q413.28 28.42 412.70 28.42Q412.33 28.42 412.03 28.54Q411.74 28.66 411.57 28.87Q411.40 29.08 411.40 29.37L411.40 29.38Q411.40 29.59 411.51 29.75Q411.62 29.92 411.86 30.04Q412.09 30.16 412.46 30.26L413.43 30.49Q414.03 30.63 414.42 30.86Q414.81 31.09 415.00 31.42Q415.20 31.74 415.20 32.20L415.20 32.21Q415.20 32.77 414.86 33.20Q414.53 33.63 413.96 33.87Q413.39 34.11 412.67 34.11ZM419.36 34.11Q418.45 34.11 417.81 33.71Q417.16 33.31 416.81 32.58Q416.46 31.86 416.46 30.87L416.46 30.86Q416.46 29.88 416.81 29.14Q417.16 28.40 417.80 27.99Q418.44 27.57 419.29 27.57Q420.15 27.57 420.77 27.97Q421.39 28.37 421.72 29.08Q422.05 29.79 422.05 30.74L422.05 31.13L416.99 31.13L416.99 30.32L421.53 30.32L421.03 31.06L421.03 30.66Q421.03 29.92 420.80 29.44Q420.58 28.96 420.19 28.72Q419.80 28.48 419.29 28.48Q418.78 28.48 418.38 28.73Q417.97 28.98 417.74 29.46Q417.51 29.95 417.51 30.66L417.51 31.06Q417.51 31.74 417.73 32.22Q417.96 32.69 418.38 32.95Q418.81 33.20 419.38 33.20Q419.81 33.20 420.12 33.09Q420.44 32.97 420.65 32.79Q420.85 32.61 420.93 32.42L420.96 32.37L421.98 32.37L421.96 32.41Q421.88 32.73 421.67 33.04Q421.47 33.34 421.14 33.58Q420.81 33.82 420.36 33.97Q419.91 34.11 419.36 34.11ZM423.63 34.00L423.63 27.68L424.65 27.68L424.65 28.64L424.75 28.64Q424.96 28.13 425.40 27.85Q425.83 27.57 426.45 27.57Q426.88 27.57 427.22 27.71Q427.56 27.85 427.81 28.10Q428.05 28.35 428.20 28.68L428.29 28.68Q428.46 28.35 428.75 28.10Q429.04 27.85 429.41 27.71Q429.79 27.57 430.23 27.57Q430.87 27.57 431.32 27.81Q431.77 28.05 432.00 28.51Q432.24 28.97 432.24 29.63L432.24 34.00L431.22 34.00L431.22 29.87Q431.22 29.40 431.07 29.09Q430.93 28.79 430.64 28.63Q430.34 28.47 429.90 28.47Q429.46 28.47 429.13 28.67Q428.80 28.87 428.62 29.20Q428.44 29.54 428.44 29.94L428.44 34.00L427.42 34.00L427.42 29.71Q427.42 29.34 427.26 29.06Q427.10 28.78 426.80 28.63Q426.51 28.47 426.11 28.47Q425.70 28.47 425.37 28.69Q425.03 28.91 424.84 29.27Q424.65 29.64 424.65 30.09L424.65 34.00ZM435.81 34.11Q435.21 34.11 434.74 33.88Q434.26 33.65 433.98 33.23Q433.70 32.81 433.70 32.24L433.70 32.22Q433.70 31.66 433.97 31.26Q434.24 30.86 434.76 30.63Q435.27 30.40 436.00 30.36L438.32 30.22L438.32 31.04L436.13 31.18Q435.41 31.22 435.07 31.47Q434.74 31.73 434.74 32.20L434.74 32.21Q434.74 32.69 435.11 32.96Q435.47 33.23 436.02 33.23Q436.54 33.23 436.95 33.02Q437.35 32.81 437.58 32.45Q437.81 32.10 437.81 31.64L437.81 29.68Q437.81 29.09 437.46 28.78Q437.11 28.47 436.40 28.47Q435.83 28.47 435.46 28.68Q435.10 28.88 434.98 29.25L434.97 29.27L433.95 29.27L433.96 29.23Q434.04 28.73 434.37 28.36Q434.70 27.99 435.23 27.78Q435.76 27.57 436.43 27.57Q437.20 27.57 437.74 27.82Q438.28 28.08 438.56 28.55Q438.83 29.02 438.83 29.68L438.83 34.00L437.81 34.00L437.81 33.07L437.72 33.07Q437.52 33.40 437.24 33.64Q436.95 33.87 436.60 33.99Q436.24 34.11 435.81 34.11ZM440.70 34.00L440.70 27.68L441.72 27.68L441.72 28.63L441.81 28.63Q442.05 28.13 442.50 27.85Q442.95 27.57 443.65 27.57Q444.72 27.57 445.29 28.18Q445.86 28.79 445.86 29.91L445.86 34.00L444.84 34.00L444.84 30.16Q444.84 29.30 444.48 28.89Q444.12 28.47 443.36 28.47Q442.86 28.47 442.49 28.69Q442.12 28.91 441.92 29.31Q441.72 29.71 441.72 30.26L441.72 34.00ZM449.94 34.05Q448.97 34.05 448.53 33.65Q448.10 33.26 448.10 32.36L448.10 28.53L447.10 28.53L447.10 27.68L448.10 27.68L448.10 26.05L449.15 26.05L449.15 27.68L450.53 27.68L450.53 28.53L449.15 28.53L449.15 32.10Q449.15 32.66 449.36 32.90Q449.57 33.14 450.07 33.14Q450.20 33.14 450.30 33.14Q450.39 33.13 450.53 33.12L450.53 33.99Q450.39 34.01 450.24 34.03Q450.10 34.05 449.94 34.05ZM452.08 34.00L452.08 27.68L453.10 27.68L453.10 34.00ZM452.60 26.46Q452.31 26.46 452.10 26.26Q451.89 26.05 451.89 25.76Q451.89 25.47 452.10 25.26Q452.31 25.06 452.60 25.06Q452.89 25.06 453.10 25.26Q453.30 25.47 453.30 25.76Q453.30 26.05 453.10 26.26Q452.89 26.46 452.60 26.46ZM457.61 34.11Q456.72 34.11 456.07 33.71Q455.42 33.30 455.06 32.56Q454.71 31.83 454.71 30.82L454.71 30.81Q454.71 29.83 455.06 29.10Q455.42 28.38 456.07 27.97Q456.72 27.57 457.60 27.57Q458.37 27.57 458.93 27.84Q459.48 28.11 459.82 28.57Q460.15 29.02 460.24 29.58L460.25 29.62L459.24 29.62L459.23 29.60Q459.11 29.13 458.70 28.80Q458.28 28.47 457.60 28.47Q457.03 28.47 456.62 28.76Q456.20 29.05 455.98 29.57Q455.75 30.10 455.75 30.81L455.75 30.82Q455.75 31.55 455.98 32.09Q456.21 32.62 456.62 32.92Q457.04 33.21 457.60 33.21Q458.24 33.21 458.64 32.93Q459.05 32.66 459.22 32.13L459.24 32.10L460.24 32.09L460.23 32.15Q460.10 32.72 459.78 33.17Q459.45 33.61 458.91 33.86Q458.37 34.11 457.61 34.11ZM467.28 34.11Q466.58 34.11 466.04 33.90Q465.50 33.68 465.17 33.30Q464.85 32.91 464.79 32.39L464.79 32.39L465.83 32.39L465.83 32.39Q465.96 32.78 466.34 33.02Q466.71 33.26 467.32 33.26Q467.74 33.26 468.07 33.14Q468.39 33.01 468.58 32.79Q468.77 32.57 468.77 32.28L468.77 32.27Q468.77 31.95 468.51 31.72Q468.25 31.50 467.67 31.36L466.69 31.12Q466.10 30.98 465.72 30.76Q465.34 30.53 465.15 30.20Q464.97 29.87 464.97 29.42L464.97 29.41Q464.97 28.88 465.28 28.47Q465.59 28.05 466.12 27.81Q466.65 27.57 467.32 27.57Q467.98 27.57 468.50 27.78Q469.01 27.99 469.32 28.37Q469.64 28.75 469.71 29.27L469.71 29.27L468.70 29.27L468.70 29.27Q468.61 28.89 468.25 28.66Q467.89 28.42 467.32 28.42Q466.94 28.42 466.65 28.54Q466.36 28.66 466.19 28.87Q466.02 29.08 466.02 29.37L466.02 29.38Q466.02 29.59 466.13 29.75Q466.24 29.92 466.47 30.04Q466.71 30.16 467.08 30.26L468.05 30.49Q468.65 30.63 469.04 30.86Q469.43 31.09 469.62 31.42Q469.81 31.74 469.81 32.20L469.81 32.21Q469.81 32.77 469.48 33.20Q469.14 33.63 468.57 33.87Q468.00 34.11 467.28 34.11ZM473.97 34.11Q473.07 34.11 472.42 33.71Q471.78 33.31 471.43 32.58Q471.08 31.86 471.08 30.87L471.08 30.86Q471.08 29.88 471.43 29.14Q471.78 28.40 472.41 27.99Q473.05 27.57 473.91 27.57Q474.77 27.57 475.39 27.97Q476.01 28.37 476.34 29.08Q476.67 29.79 476.67 30.74L476.67 31.13L471.61 31.13L471.61 30.32L476.15 30.32L475.64 31.06L475.64 30.66Q475.64 29.92 475.42 29.44Q475.20 28.96 474.80 28.72Q474.41 28.48 473.90 28.48Q473.39 28.48 472.99 28.73Q472.59 28.98 472.36 29.46Q472.12 29.95 472.12 30.66L472.12 31.06Q472.12 31.74 472.35 32.22Q472.58 32.69 473.00 32.95Q473.42 33.20 474.00 33.20Q474.42 33.20 474.74 33.09Q475.06 32.97 475.26 32.79Q475.47 32.61 475.55 32.42L475.57 32.37L476.59 32.37L476.58 32.41Q476.50 32.73 476.29 33.04Q476.08 33.34 475.75 33.58Q475.43 33.82 474.98 33.97Q474.53 34.11 473.97 34.11ZM479.98 34.11Q479.39 34.11 478.91 33.88Q478.43 33.65 478.15 33.23Q477.87 32.81 477.87 32.24L477.87 32.22Q477.87 31.66 478.14 31.26Q478.41 30.86 478.93 30.63Q479.44 30.40 480.18 30.36L482.50 30.22L482.50 31.04L480.30 31.18Q479.58 31.22 479.25 31.47Q478.92 31.73 478.92 32.20L478.92 32.21Q478.92 32.69 479.28 32.96Q479.64 33.23 480.19 33.23Q480.72 33.23 481.12 33.02Q481.53 32.81 481.76 32.45Q481.99 32.10 481.99 31.64L481.99 29.68Q481.99 29.09 481.63 28.78Q481.28 28.47 480.57 28.47Q480.00 28.47 479.64 28.68Q479.28 28.88 479.15 29.25L479.15 29.27L478.13 29.27L478.13 29.23Q478.21 28.73 478.55 28.36Q478.88 27.99 479.40 27.78Q479.93 27.57 480.61 27.57Q481.38 27.57 481.91 27.82Q482.45 28.08 482.73 28.55Q483.01 29.02 483.01 29.68L483.01 34.00L481.99 34.00L481.99 33.07L481.89 33.07Q481.69 33.40 481.41 33.64Q481.13 33.87 480.77 33.99Q480.41 34.11 479.98 34.11ZM484.87 34.00L484.87 27.68L485.89 27.68L485.89 28.62L485.98 28.62Q486.17 28.12 486.60 27.85Q487.03 27.57 487.67 27.57Q487.82 27.57 487.96 27.59Q488.11 27.60 488.18 27.61L488.18 28.60Q488.02 28.57 487.87 28.56Q487.72 28.54 487.55 28.54Q487.07 28.54 486.69 28.74Q486.32 28.93 486.10 29.28Q485.89 29.62 485.89 30.09L485.89 34.00ZM491.85 34.11Q490.96 34.11 490.31 33.71Q489.66 33.30 489.31 32.56Q488.95 31.83 488.95 30.82L488.95 30.81Q488.95 29.83 489.30 29.10Q489.66 28.38 490.31 27.97Q490.96 27.57 491.84 27.57Q492.61 27.57 493.17 27.84Q493.72 28.11 494.06 28.57Q494.39 29.02 494.49 29.58L494.49 29.62L493.48 29.62L493.47 29.60Q493.36 29.13 492.94 28.80Q492.52 28.47 491.84 28.47Q491.28 28.47 490.86 28.76Q490.44 29.05 490.22 29.57Q489.99 30.10 489.99 30.81L489.99 30.82Q489.99 31.55 490.22 32.09Q490.45 32.62 490.86 32.92Q491.28 33.21 491.84 33.21Q492.48 33.21 492.89 32.93Q493.29 32.66 493.47 32.13L493.48 32.10L494.49 32.09L494.47 32.15Q494.35 32.72 494.02 33.17Q493.69 33.61 493.15 33.86Q492.61 34.11 491.85 34.11ZM496.04 34.00L496.04 25.18L497.06 25.18L497.06 28.63L497.15 28.63Q497.39 28.13 497.84 27.85Q498.29 27.57 498.99 27.57Q499.70 27.57 500.19 27.84Q500.69 28.12 500.94 28.64Q501.20 29.16 501.20 29.91L501.20 34.00L500.18 34.00L500.18 30.16Q500.18 29.30 499.82 28.89Q499.46 28.47 498.70 28.47Q498.20 28.47 497.83 28.69Q497.46 28.91 497.26 29.31Q497.06 29.71 497.06 30.26L497.06 34.00ZM502.78 36.15L503.29 32.82L504.46 32.82L503.54 36.15ZM512.57 34.11Q511.68 34.11 511.02 33.72Q510.37 33.32 510.02 32.59Q509.66 31.86 509.66 30.85L509.66 30.84Q509.66 29.82 510.02 29.09Q510.37 28.36 511.02 27.96Q511.68 27.57 512.57 27.57Q513.48 27.57 514.13 27.96Q514.78 28.36 515.13 29.09Q515.49 29.82 515.49 30.84L515.49 30.85Q515.49 31.86 515.13 32.59Q514.78 33.32 514.13 33.72Q513.48 34.11 512.57 34.11ZM512.57 33.21Q513.17 33.21 513.59 32.93Q514.00 32.65 514.22 32.12Q514.44 31.59 514.44 30.85L514.44 30.84Q514.44 30.09 514.22 29.56Q514.00 29.03 513.59 28.75Q513.17 28.47 512.57 28.47Q511.98 28.47 511.56 28.75Q511.14 29.03 510.92 29.56Q510.70 30.09 510.70 30.84L510.70 30.85Q510.70 31.59 510.92 32.12Q511.14 32.65 511.56 32.93Q511.98 33.21 512.57 33.21ZM517.07 34.00L517.07 27.68L518.09 27.68L518.09 28.63L518.18 28.63Q518.42 28.13 518.87 27.85Q519.32 27.57 520.02 27.57Q521.09 27.57 521.66 28.18Q522.23 28.79 522.23 29.91L522.23 34.00L521.21 34.00L521.21 30.16Q521.21 29.30 520.85 28.89Q520.49 28.47 519.73 28.47Q519.23 28.47 518.86 28.69Q518.49 28.91 518.29 29.31Q518.09 29.71 518.09 30.26L518.09 34.00ZM523.98 31.07L523.98 30.12L527.92 30.12L527.92 31.07ZM532.06 34.11Q531.27 34.11 530.67 33.71Q530.07 33.30 529.74 32.57Q529.41 31.83 529.41 30.85L529.41 30.84Q529.41 29.85 529.74 29.11Q530.07 28.38 530.66 27.98Q531.26 27.57 532.06 27.57Q532.50 27.57 532.88 27.71Q533.26 27.85 533.56 28.09Q533.86 28.34 534.03 28.68L534.12 28.68L534.12 25.18L535.14 25.18L535.14 34.00L534.12 34.00L534.12 32.99L534.03 32.99Q533.84 33.34 533.54 33.59Q533.25 33.84 532.88 33.98Q532.50 34.11 532.06 34.11ZM532.30 33.21Q532.87 33.21 533.29 32.92Q533.70 32.63 533.93 32.10Q534.15 31.57 534.15 30.85L534.15 30.84Q534.15 30.10 533.93 29.58Q533.70 29.05 533.29 28.76Q532.87 28.47 532.30 28.47Q531.72 28.47 531.31 28.76Q530.90 29.04 530.68 29.57Q530.46 30.10 530.46 30.84L530.46 30.85Q530.46 31.58 530.68 32.11Q530.90 32.64 531.31 32.92Q531.72 33.21 532.30 33.21ZM539.68 34.11Q538.78 34.11 538.13 33.71Q537.48 33.31 537.13 32.58Q536.78 31.86 536.78 30.87L536.78 30.86Q536.78 29.88 537.13 29.14Q537.48 28.40 538.12 27.99Q538.76 27.57 539.61 27.57Q540.48 27.57 541.09 27.97Q541.71 28.37 542.04 29.08Q542.37 29.79 542.37 30.74L542.37 31.13L537.31 31.13L537.31 30.32L541.85 30.32L541.35 31.06L541.35 30.66Q541.35 29.92 541.13 29.44Q540.90 28.96 540.51 28.72Q540.12 28.48 539.61 28.48Q539.10 28.48 538.70 28.73Q538.30 28.98 538.06 29.46Q537.83 29.95 537.83 30.66L537.83 31.06Q537.83 31.74 538.06 32.22Q538.28 32.69 538.71 32.95Q539.13 33.20 539.70 33.20Q540.13 33.20 540.45 33.09Q540.76 32.97 540.97 32.79Q541.17 32.61 541.26 32.42L541.28 32.37L542.30 32.37L542.29 32.41Q542.20 32.73 542.00 33.04Q541.79 33.34 541.46 33.58Q541.13 33.82 540.68 33.97Q540.24 34.11 539.68 34.11ZM545.63 34.00L543.29 27.68L544.37 27.68L546.10 32.89L546.19 32.89L547.92 27.68L549.00 27.68L546.66 34.00ZM550.37 34.00L550.37 27.68L551.39 27.68L551.39 34.00ZM550.88 26.46Q550.60 26.46 550.39 26.26Q550.18 26.05 550.18 25.76Q550.18 25.47 550.39 25.26Q550.60 25.06 550.88 25.06Q551.18 25.06 551.38 25.26Q551.59 25.47 551.59 25.76Q551.59 26.05 551.38 26.26Q551.18 26.46 550.88 26.46ZM555.89 34.11Q555.01 34.11 554.36 33.71Q553.71 33.30 553.35 32.56Q552.99 31.83 552.99 30.82L552.99 30.81Q552.99 29.83 553.35 29.10Q553.70 28.38 554.35 27.97Q555.00 27.57 555.89 27.57Q556.65 27.57 557.21 27.84Q557.77 28.11 558.10 28.57Q558.44 29.02 558.53 29.58L558.53 29.62L557.52 29.62L557.52 29.60Q557.40 29.13 556.98 28.80Q556.57 28.47 555.89 28.47Q555.32 28.47 554.90 28.76Q554.49 29.05 554.26 29.57Q554.03 30.10 554.03 30.81L554.03 30.82Q554.03 31.55 554.26 32.09Q554.49 32.62 554.91 32.92Q555.32 33.21 555.89 33.21Q556.53 33.21 556.93 32.93Q557.33 32.66 557.51 32.13L557.52 32.10L558.53 32.09L558.52 32.15Q558.39 32.72 558.06 33.17Q557.73 33.61 557.19 33.86Q556.65 34.11 555.89 34.11ZM562.60 34.11Q561.70 34.11 561.05 33.71Q560.40 33.31 560.06 32.58Q559.71 31.86 559.71 30.87L559.71 30.86Q559.71 29.88 560.06 29.14Q560.40 28.40 561.04 27.99Q561.68 27.57 562.54 27.57Q563.40 27.57 564.02 27.97Q564.63 28.37 564.97 29.08Q565.30 29.79 565.30 30.74L565.30 31.13L560.23 31.13L560.23 30.32L564.78 30.32L564.27 31.06L564.27 30.66Q564.27 29.92 564.05 29.44Q563.83 28.96 563.43 28.72Q563.04 28.48 562.53 28.48Q562.02 28.48 561.62 28.73Q561.22 28.98 560.98 29.46Q560.75 29.95 560.75 30.66L560.75 31.06Q560.75 31.74 560.98 32.22Q561.21 32.69 561.63 32.95Q562.05 33.20 562.62 33.20Q563.05 33.20 563.37 33.09Q563.69 32.97 563.89 32.79Q564.10 32.61 564.18 32.42L564.20 32.37L565.22 32.37L565.21 32.41Q565.13 32.73 564.92 33.04Q564.71 33.34 564.38 33.58Q564.05 33.82 563.61 33.97Q563.16 34.11 562.60 34.11Z"/>

  <!-- Session header (static) -->
  <text x="44" y="104" class="dim">$ swift run -c release ProximaDemo</text>
  <text x="44" y="130" class="t">Indexed 52 sentences in 207ms<tspan class="dim">  ·  NLEmbedding 512d  ·  HNSW index</tspan></text>

  <!-- Query 1 -->
  <path d="M44 163.5 l6 6 -6 6" stroke="#0A84FF" stroke-width="2" fill="none" stroke-linecap="round" stroke-linejoin="round"/>
  <text x="60" y="174" class="dim">search:</text>
  <text x="122" y="174" class="t s q1">something spicy for dinner</text>

  <g class="s r1">
    <text x="60" y="206" class="dim">1. 0.507  <tspan class="t">The chef prepared a delicious chocolate souffle</tspan></text>
    <text x="836" y="206" text-anchor="end" class="tag">Food</text>
    <text x="60" y="234" class="dim">2. 0.576  <tspan class="t">Homemade bread fills the kitchen with a wonderful aroma</tspan></text>
    <text x="836" y="234" text-anchor="end" class="tag">Food</text>
    <text x="60" y="262" class="dim">3. 0.596  <tspan class="t">A warm bowl of soup is perfect on a cold winter day</tspan></text>
    <text x="836" y="262" text-anchor="end" class="tag">Food</text>
    <text x="60" y="296" class="ms">2.9ms</text>
  </g>

  <!-- Query 2 -->
  <g class="s q2">
    <path d="M44 329.5 l6 6 -6 6" stroke="#0A84FF" stroke-width="2" fill="none" stroke-linecap="round" stroke-linejoin="round"/>
    <text x="60" y="340" class="dim">search:</text>
    <text x="122" y="340" class="t">cozy rainy day reading</text>
  </g>

  <g class="s r2">
    <text x="60" y="372" class="dim">1. 0.503  <tspan class="t">Snow covered mountains glisten in the morning sunlight</tspan></text>
    <text x="836" y="372" text-anchor="end" class="tag">Nature</text>
    <text x="60" y="400" class="dim">2. 0.555  <tspan class="t">Lightning illuminated the dark storm clouds overhead</tspan></text>
    <text x="836" y="400" text-anchor="end" class="tag">Nature</text>
    <text x="60" y="428" class="dim">3. 0.567  <tspan class="t">A warm bowl of soup is perfect on a cold winter day</tspan></text>
    <text x="836" y="428" text-anchor="end" class="tag">Food</text>
    <text x="60" y="462" class="ms">2.8ms</text>
  </g>

  <!-- Caption: SF outlines -->
  <path fill="#86868b" d="M269.24 496.00L269.24 489.68L270.26 489.68L270.26 490.62L270.35 490.62Q270.53 490.12 270.97 489.85Q271.40 489.57 272.04 489.57Q272.19 489.57 272.33 489.59Q272.47 489.60 272.55 489.61L272.55 490.60Q272.39 490.57 272.24 490.56Q272.09 490.54 271.92 490.54Q271.44 490.54 271.06 490.74Q270.69 490.93 270.47 491.28Q270.26 491.62 270.26 492.09L270.26 496.00ZM276.21 496.11Q275.31 496.11 274.66 495.71Q274.01 495.31 273.67 494.58Q273.32 493.86 273.32 492.87L273.32 492.86Q273.32 491.88 273.67 491.14Q274.01 490.40 274.65 489.99Q275.29 489.57 276.15 489.57Q277.01 489.57 277.63 489.97Q278.25 490.37 278.58 491.08Q278.91 491.79 278.91 492.74L278.91 493.13L273.84 493.13L273.84 492.32L278.39 492.32L277.88 493.06L277.88 492.66Q277.88 491.92 277.66 491.44Q277.44 490.96 277.04 490.72Q276.65 490.48 276.14 490.48Q275.63 490.48 275.23 490.73Q274.83 490.98 274.59 491.46Q274.36 491.95 274.36 492.66L274.36 493.06Q274.36 493.74 274.59 494.22Q274.82 494.69 275.24 494.95Q275.66 495.20 276.24 495.20Q276.66 495.20 276.98 495.09Q277.30 494.97 277.50 494.79Q277.71 494.61 277.79 494.42L277.81 494.37L278.83 494.37L278.82 494.41Q278.74 494.73 278.53 495.04Q278.32 495.34 277.99 495.58Q277.67 495.82 277.22 495.97Q276.77 496.11 276.21 496.11ZM282.22 496.11Q281.63 496.11 281.15 495.88Q280.67 495.65 280.39 495.23Q280.11 494.81 280.11 494.24L280.11 494.22Q280.11 493.66 280.38 493.26Q280.65 492.86 281.17 492.63Q281.68 492.40 282.42 492.36L284.74 492.22L284.74 493.04L282.54 493.18Q281.82 493.22 281.49 493.47Q281.16 493.73 281.16 494.20L281.16 494.21Q281.16 494.69 281.52 494.96Q281.88 495.23 282.43 495.23Q282.96 495.23 283.36 495.02Q283.76 494.81 284.00 494.45Q284.23 494.10 284.23 493.64L284.23 491.68Q284.23 491.09 283.87 490.78Q283.52 490.47 282.81 490.47Q282.24 490.47 281.88 490.68Q281.51 490.88 281.39 491.25L281.39 491.27L280.37 491.27L280.37 491.23Q280.45 490.73 280.79 490.36Q281.12 489.99 281.64 489.78Q282.17 489.57 282.84 489.57Q283.62 489.57 284.15 489.82Q284.69 490.08 284.97 490.55Q285.25 491.02 285.25 491.68L285.25 496.00L284.23 496.00L284.23 495.07L284.13 495.07Q283.93 495.40 283.65 495.64Q283.37 495.87 283.01 495.99Q282.65 496.11 282.22 496.11ZM287.17 496.00L287.17 487.18L288.19 487.18L288.19 496.00ZM295.69 496.11Q294.99 496.11 294.45 495.90Q293.91 495.68 293.58 495.30Q293.26 494.91 293.20 494.39L293.20 494.39L294.24 494.39L294.24 494.39Q294.37 494.78 294.75 495.02Q295.12 495.26 295.72 495.26Q296.15 495.26 296.48 495.14Q296.80 495.01 296.99 494.79Q297.18 494.57 297.18 494.28L297.18 494.27Q297.18 493.95 296.92 493.72Q296.66 493.50 296.08 493.36L295.10 493.12Q294.50 492.98 294.12 492.76Q293.74 492.53 293.56 492.20Q293.38 491.87 293.38 491.42L293.38 491.41Q293.38 490.88 293.69 490.47Q294.00 490.05 294.53 489.81Q295.06 489.57 295.73 489.57Q296.39 489.57 296.90 489.78Q297.42 489.99 297.73 490.37Q298.04 490.75 298.11 491.27L298.11 491.27L297.11 491.27L297.11 491.27Q297.01 490.89 296.66 490.66Q296.30 490.42 295.72 490.42Q295.35 490.42 295.06 490.54Q294.76 490.66 294.59 490.87Q294.42 491.08 294.42 491.37L294.42 491.38Q294.42 491.59 294.53 491.75Q294.65 491.92 294.88 492.04Q295.11 492.16 295.48 492.26L296.46 492.49Q297.05 492.63 297.44 492.86Q297.83 493.09 298.03 493.42Q298.22 493.74 298.22 494.20L298.22 494.21Q298.22 494.77 297.89 495.20Q297.55 495.63 296.98 495.87Q296.41 496.11 295.69 496.11ZM302.38 496.11Q301.48 496.11 300.83 495.71Q300.18 495.31 299.83 494.58Q299.49 493.86 299.49 492.87L299.49 492.86Q299.49 491.88 299.83 491.14Q300.18 490.40 300.82 489.99Q301.46 489.57 302.32 489.57Q303.18 489.57 303.79 489.97Q304.41 490.37 304.74 491.08Q305.08 491.79 305.08 492.74L305.08 493.13L300.01 493.13L300.01 492.32L304.55 492.32L304.05 493.06L304.05 492.66Q304.05 491.92 303.83 491.44Q303.60 490.96 303.21 490.72Q302.82 490.48 302.31 490.48Q301.80 490.48 301.40 490.73Q301.00 490.98 300.76 491.46Q300.53 491.95 300.53 492.66L300.53 493.06Q300.53 493.74 300.76 494.22Q300.99 494.69 301.41 494.95Q301.83 495.20 302.40 495.20Q302.83 495.20 303.15 495.09Q303.46 494.97 303.67 494.79Q303.87 494.61 303.96 494.42L303.98 494.37L305.00 494.37L304.99 494.41Q304.91 494.73 304.70 495.04Q304.49 495.34 304.16 495.58Q303.83 495.82 303.38 495.97Q302.94 496.11 302.38 496.11ZM308.83 496.11Q308.12 496.11 307.58 495.90Q307.04 495.68 306.72 495.30Q306.39 494.91 306.33 494.39L306.33 494.39L307.38 494.39L307.38 494.39Q307.51 494.78 307.88 495.02Q308.26 495.26 308.86 495.26Q309.29 495.26 309.61 495.14Q309.94 495.01 310.13 494.79Q310.31 494.57 310.31 494.28L310.31 494.27Q310.31 493.95 310.06 493.72Q309.80 493.50 309.21 493.36L308.23 493.12Q307.64 492.98 307.26 492.76Q306.88 492.53 306.70 492.20Q306.52 491.87 306.52 491.42L306.52 491.41Q306.52 490.88 306.82 490.47Q307.13 490.05 307.67 489.81Q308.20 489.57 308.87 489.57Q309.53 489.57 310.04 489.78Q310.55 489.99 310.87 490.37Q311.18 490.75 311.25 491.27L311.25 491.27L310.25 491.27L310.25 491.27Q310.15 490.89 309.79 490.66Q309.43 490.42 308.86 490.42Q308.49 490.42 308.19 490.54Q307.90 490.66 307.73 490.87Q307.56 491.08 307.56 491.37L307.56 491.38Q307.56 491.59 307.67 491.75Q307.78 491.92 308.02 492.04Q308.25 492.16 308.62 492.26L309.59 492.49Q310.19 492.63 310.58 492.86Q310.97 493.09 311.16 493.42Q311.36 493.74 311.36 494.20L311.36 494.21Q311.36 494.77 311.02 495.20Q310.69 495.63 310.12 495.87Q309.55 496.11 308.83 496.11ZM314.99 496.11Q314.29 496.11 313.75 495.90Q313.21 495.68 312.88 495.30Q312.56 494.91 312.50 494.39L312.50 494.39L313.54 494.39L313.54 494.39Q313.67 494.78 314.05 495.02Q314.42 495.26 315.02 495.26Q315.45 495.26 315.78 495.14Q316.10 495.01 316.29 494.79Q316.48 494.57 316.48 494.28L316.48 494.27Q316.48 493.95 316.22 493.72Q315.96 493.50 315.38 493.36L314.40 493.12Q313.81 492.98 313.42 492.76Q313.04 492.53 312.86 492.20Q312.68 491.87 312.68 491.42L312.68 491.41Q312.68 490.88 312.99 490.47Q313.30 490.05 313.83 489.81Q314.36 489.57 315.03 489.57Q315.69 489.57 316.21 489.78Q316.72 489.99 317.03 490.37Q317.34 490.75 317.42 491.27L317.42 491.27L316.41 491.27L316.41 491.27Q316.31 490.89 315.96 490.66Q315.60 490.42 315.02 490.42Q314.65 490.42 314.36 490.54Q314.06 490.66 313.89 490.87Q313.72 491.08 313.72 491.37L313.72 491.38Q313.72 491.59 313.83 491.75Q313.95 491.92 314.18 492.04Q314.42 492.16 314.78 492.26L315.76 492.49Q316.35 492.63 316.74 492.86Q317.13 493.09 317.33 493.42Q317.52 493.74 317.52 494.20L317.52 494.21Q317.52 494.77 317.19 495.20Q316.85 495.63 316.28 495.87Q315.71 496.11 314.99 496.11ZM319.13 496.00L319.13 489.68L320.15 489.68L320.15 496.00ZM319.64 488.46Q319.35 488.46 319.15 488.26Q318.94 488.05 318.94 487.76Q318.94 487.47 319.15 487.26Q319.35 487.06 319.64 487.06Q319.93 487.06 320.14 487.26Q320.34 487.47 320.34 487.76Q320.34 488.05 320.14 488.26Q319.93 488.46 319.64 488.46ZM324.66 496.11Q323.77 496.11 323.11 495.72Q322.46 495.32 322.11 494.59Q321.75 493.86 321.75 492.85L321.75 492.84Q321.75 491.82 322.11 491.09Q322.46 490.36 323.11 489.96Q323.77 489.57 324.66 489.57Q325.57 489.57 326.22 489.96Q326.87 490.36 327.22 491.09Q327.58 491.82 327.58 492.84L327.58 492.85Q327.58 493.86 327.22 494.59Q326.87 495.32 326.22 495.72Q325.57 496.11 324.66 496.11ZM324.66 495.21Q325.26 495.21 325.68 494.93Q326.09 494.65 326.31 494.12Q326.53 493.59 326.53 492.85L326.53 492.84Q326.53 492.09 326.31 491.56Q326.09 491.03 325.68 490.75Q325.26 490.47 324.66 490.47Q324.07 490.47 323.65 490.75Q323.23 491.03 323.01 491.56Q322.79 492.09 322.79 492.84L322.79 492.85Q322.79 493.59 323.01 494.12Q323.23 494.65 323.65 494.93Q324.07 495.21 324.66 495.21ZM329.16 496.00L329.16 489.68L330.18 489.68L330.18 490.63L330.27 490.63Q330.51 490.13 330.96 489.85Q331.41 489.57 332.11 489.57Q333.18 489.57 333.75 490.18Q334.32 490.79 334.32 491.91L334.32 496.00L333.30 496.00L333.30 492.16Q333.30 491.30 332.94 490.89Q332.58 490.47 331.82 490.47Q331.32 490.47 330.95 490.69Q330.58 490.91 330.38 491.31Q330.18 491.71 330.18 492.26L330.18 496.00ZM342.13 496.11Q341.23 496.11 340.58 495.72Q339.93 495.32 339.57 494.59Q339.22 493.86 339.22 492.85L339.22 492.84Q339.22 491.82 339.57 491.09Q339.93 490.36 340.58 489.96Q341.23 489.57 342.13 489.57Q343.03 489.57 343.68 489.96Q344.33 490.36 344.69 491.09Q345.04 491.82 345.04 492.84L345.04 492.85Q345.04 493.86 344.69 494.59Q344.33 495.32 343.68 495.72Q343.03 496.11 342.13 496.11ZM342.13 495.21Q342.73 495.21 343.14 494.93Q343.56 494.65 343.78 494.12Q344.00 493.59 344.00 492.85L344.00 492.84Q344.00 492.09 343.78 491.56Q343.56 491.03 343.14 490.75Q342.73 490.47 342.13 490.47Q341.53 490.47 341.12 490.75Q340.70 491.03 340.48 491.56Q340.26 492.09 340.26 492.84L340.26 492.85Q340.26 493.59 340.48 494.12Q340.70 494.65 341.12 494.93Q341.53 495.21 342.13 495.21ZM348.74 496.11Q348.02 496.11 347.54 495.84Q347.05 495.57 346.81 495.04Q346.57 494.52 346.57 493.77L346.57 489.68L347.58 489.68L347.58 493.53Q347.58 494.38 347.92 494.79Q348.25 495.21 349.00 495.21Q349.42 495.21 349.74 495.09Q350.06 494.96 350.27 494.73Q350.49 494.50 350.60 494.17Q350.71 493.84 350.71 493.42L350.71 489.68L351.73 489.68L351.73 496.00L350.71 496.00L350.71 495.06L350.61 495.06Q350.46 495.39 350.20 495.63Q349.93 495.87 349.57 495.99Q349.20 496.11 348.74 496.11ZM355.87 496.05Q354.90 496.05 354.46 495.65Q354.02 495.26 354.02 494.36L354.02 490.53L353.03 490.53L353.03 489.68L354.02 489.68L354.02 488.05L355.08 488.05L355.08 489.68L356.46 489.68L356.46 490.53L355.08 490.53L355.08 494.10Q355.08 494.66 355.29 494.90Q355.50 495.14 355.99 495.14Q356.13 495.14 356.22 495.14Q356.32 495.13 356.46 495.12L356.46 495.99Q356.32 496.01 356.17 496.03Q356.02 496.05 355.87 496.05ZM357.99 498.11L357.99 489.68L359.00 489.68L359.00 490.69L359.10 490.69Q359.29 490.34 359.58 490.09Q359.88 489.84 360.25 489.71Q360.63 489.57 361.07 489.57Q361.87 489.57 362.46 489.98Q363.06 490.39 363.39 491.12Q363.72 491.85 363.72 492.84L363.72 492.85Q363.72 493.84 363.39 494.57Q363.06 495.30 362.46 495.71Q361.87 496.11 361.07 496.11Q360.63 496.11 360.25 495.97Q359.87 495.84 359.57 495.59Q359.27 495.34 359.10 495.00L359.00 495.00L359.00 498.11ZM360.83 495.21Q361.41 495.21 361.82 494.92Q362.23 494.64 362.45 494.11Q362.67 493.58 362.67 492.85L362.67 492.84Q362.67 492.10 362.45 491.57Q362.23 491.04 361.82 490.76Q361.41 490.47 360.83 490.47Q360.26 490.47 359.84 490.76Q359.43 491.05 359.20 491.58Q358.98 492.10 358.98 492.84L358.98 492.85Q358.98 493.57 359.20 494.10Q359.43 494.63 359.84 494.92Q360.26 495.21 360.83 495.21ZM367.42 496.11Q366.71 496.11 366.22 495.84Q365.74 495.57 365.49 495.04Q365.25 494.52 365.25 493.77L365.25 489.68L366.27 489.68L366.27 493.53Q366.27 494.38 366.60 494.79Q366.93 495.21 367.69 495.21Q368.10 495.21 368.42 495.09Q368.74 494.96 368.96 494.73Q369.18 494.50 369.29 494.17Q369.39 493.84 369.39 493.42L369.39 489.68L370.41 489.68L370.41 496.00L369.39 496.00L369.39 495.06L369.30 495.06Q369.15 495.39 368.88 495.63Q368.62 495.87 368.25 495.99Q367.89 496.11 367.42 496.11ZM374.56 496.05Q373.58 496.05 373.15 495.65Q372.71 495.26 372.71 494.36L372.71 490.53L371.71 490.53L371.71 489.68L372.71 489.68L372.71 488.05L373.76 488.05L373.76 489.68L375.15 489.68L375.15 490.53L373.76 490.53L373.76 494.10Q373.76 494.66 373.98 494.90Q374.19 495.14 374.68 495.14Q374.81 495.14 374.91 495.14Q375.01 495.13 375.15 495.12L375.15 495.99Q375.00 496.01 374.85 496.03Q374.71 496.05 374.56 496.05ZM380.88 493.36Q380.57 493.36 380.34 493.13Q380.12 492.91 380.12 492.60Q380.12 492.28 380.34 492.06Q380.57 491.83 380.88 491.83Q381.19 491.83 381.42 492.06Q381.64 492.28 381.64 492.60Q381.64 492.91 381.42 493.13Q381.19 493.36 380.88 493.36ZM386.84 496.00L386.84 495.26L390.48 490.62L390.48 490.53L386.84 490.53L386.84 489.68L391.68 489.68L391.68 490.44L388.06 495.06L388.06 495.16L391.70 495.16L391.70 496.00ZM395.85 496.11Q394.95 496.11 394.30 495.71Q393.66 495.31 393.31 494.58Q392.96 493.86 392.96 492.87L392.96 492.86Q392.96 491.88 393.31 491.14Q393.66 490.40 394.30 489.99Q394.93 489.57 395.79 489.57Q396.65 489.57 397.27 489.97Q397.89 490.37 398.22 491.08Q398.55 491.79 398.55 492.74L398.55 493.13L393.49 493.13L393.49 492.32L398.03 492.32L397.52 493.06L397.52 492.66Q397.52 491.92 397.30 491.44Q397.08 490.96 396.69 490.72Q396.29 490.48 395.78 490.48Q395.27 490.48 394.87 490.73Q394.47 490.98 394.24 491.46Q394.00 491.95 394.00 492.66L394.00 493.06Q394.00 493.74 394.23 494.22Q394.46 494.69 394.88 494.95Q395.30 495.20 395.88 495.20Q396.31 495.20 396.62 495.09Q396.94 494.97 397.14 494.79Q397.35 494.61 397.43 494.42L397.45 494.37L398.47 494.37L398.46 494.41Q398.38 494.73 398.17 495.04Q397.96 495.34 397.64 495.58Q397.31 495.82 396.86 495.97Q396.41 496.11 395.85 496.11ZM400.13 496.00L400.13 489.68L401.15 489.68L401.15 490.62L401.25 490.62Q401.43 490.12 401.86 489.85Q402.29 489.57 402.93 489.57Q403.08 489.57 403.22 489.59Q403.37 489.60 403.44 489.61L403.44 490.60Q403.28 490.57 403.13 490.56Q402.99 490.54 402.82 490.54Q402.33 490.54 401.95 490.74Q401.58 490.93 401.37 491.28Q401.15 491.62 401.15 492.09L401.15 496.00ZM407.12 496.11Q406.23 496.11 405.57 495.72Q404.92 495.32 404.56 494.59Q404.21 493.86 404.21 492.85L404.21 492.84Q404.21 491.82 404.56 491.09Q404.92 490.36 405.57 489.96Q406.23 489.57 407.12 489.57Q408.02 489.57 408.67 489.96Q409.33 490.36 409.68 491.09Q410.03 491.82 410.03 492.84L410.03 492.85Q410.03 493.86 409.68 494.59Q409.33 495.32 408.67 495.72Q408.02 496.11 407.12 496.11ZM407.12 495.21Q407.72 495.21 408.14 494.93Q408.55 494.65 408.77 494.12Q408.99 493.59 408.99 492.85L408.99 492.84Q408.99 492.09 408.77 491.56Q408.55 491.03 408.14 490.75Q407.72 490.47 407.12 490.47Q406.52 490.47 406.11 490.75Q405.69 491.03 405.47 491.56Q405.25 492.09 405.25 492.84L405.25 492.85Q405.25 493.59 405.47 494.12Q405.69 494.65 406.11 494.93Q406.52 495.21 407.12 495.21ZM415.05 496.00L415.05 487.18L416.07 487.18L416.07 496.00ZM419.03 496.00L416.56 492.91L417.31 492.26L420.31 496.00ZM415.94 493.73L415.89 492.44L416.16 492.44L418.89 489.68L420.13 489.68L417.13 492.58L416.88 492.82ZM423.79 496.11Q422.89 496.11 422.24 495.71Q421.59 495.31 421.25 494.58Q420.90 493.86 420.90 492.87L420.90 492.86Q420.90 491.88 421.25 491.14Q421.59 490.40 422.23 489.99Q422.87 489.57 423.73 489.57Q424.59 489.57 425.21 489.97Q425.83 490.37 426.16 491.08Q426.49 491.79 426.49 492.74L426.49 493.13L421.42 493.13L421.42 492.32L425.97 492.32L425.46 493.06L425.46 492.66Q425.46 491.92 425.24 491.44Q425.02 490.96 424.62 490.72Q424.23 490.48 423.72 490.48Q423.21 490.48 422.81 490.73Q422.41 490.98 422.17 491.46Q421.94 491.95 421.94 492.66L421.94 493.06Q421.94 493.74 422.17 494.22Q422.40 494.69 422.82 494.95Q423.24 495.20 423.82 495.20Q424.24 495.20 424.56 495.09Q424.88 494.97 425.08 494.79Q425.29 494.61 425.37 494.42L425.39 494.37L426.41 494.37L426.40 494.41Q426.32 494.73 426.11 495.04Q425.90 495.34 425.57 495.58Q425.25 495.82 424.80 495.97Q424.35 496.11 423.79 496.11ZM428.49 498.21Q428.39 498.21 428.27 498.21Q428.15 498.20 428.04 498.18L428.04 497.34Q428.13 497.36 428.25 497.37Q428.36 497.37 428.46 497.37Q428.90 497.37 429.17 497.15Q429.45 496.93 429.62 496.38L429.74 496.01L427.40 489.68L428.49 489.68L430.44 495.52L430.03 494.88L430.51 494.88L430.11 495.52L432.05 489.68L433.12 489.68L430.65 496.39Q430.40 497.10 430.11 497.49Q429.82 497.89 429.44 498.05Q429.05 498.21 428.49 498.21ZM435.69 496.00L433.92 489.68L434.94 489.68L436.18 494.73L436.27 494.73L437.68 489.68L438.65 489.68L440.06 494.73L440.16 494.73L441.40 489.68L442.41 489.68L440.64 496.00L439.62 496.00L438.21 491.11L438.11 491.11L436.71 496.00ZM446.12 496.11Q445.23 496.11 444.57 495.72Q443.92 495.32 443.56 494.59Q443.21 493.86 443.21 492.85L443.21 492.84Q443.21 491.82 443.56 491.09Q443.92 490.36 444.57 489.96Q445.23 489.57 446.12 489.57Q447.02 489.57 447.67 489.96Q448.33 490.36 448.68 491.09Q449.03 491.82 449.03 492.84L449.03 492.85Q449.03 493.86 448.68 494.59Q448.33 495.32 447.67 495.72Q447.02 496.11 446.12 496.11ZM446.12 495.21Q446.72 495.21 447.14 494.93Q447.55 494.65 447.77 494.12Q447.99 493.59 447.99 492.85L447.99 492.84Q447.99 492.09 447.77 491.56Q447.55 491.03 447.14 490.75Q446.72 490.47 446.12 490.47Q445.52 490.47 445.11 490.75Q444.69 491.03 444.47 491.56Q444.25 492.09 444.25 492.84L444.25 492.85Q444.25 493.59 444.47 494.12Q444.69 494.65 445.11 494.93Q445.52 495.21 446.12 495.21ZM450.62 496.00L450.62 489.68L451.64 489.68L451.64 490.62L451.73 490.62Q451.91 490.12 452.34 489.85Q452.78 489.57 453.42 489.57Q453.56 489.57 453.71 489.59Q453.85 489.60 453.93 489.61L453.93 490.60Q453.77 490.57 453.62 490.56Q453.47 490.54 453.30 490.54Q452.81 490.54 452.44 490.74Q452.06 490.93 451.85 491.28Q451.64 491.62 451.64 492.09L451.64 496.00ZM457.34 496.11Q456.55 496.11 455.95 495.71Q455.35 495.30 455.02 494.57Q454.69 493.83 454.69 492.85L454.69 492.84Q454.69 491.85 455.02 491.11Q455.35 490.38 455.95 489.98Q456.54 489.57 457.34 489.57Q457.78 489.57 458.16 489.71Q458.54 489.85 458.84 490.09Q459.14 490.34 459.31 490.68L459.41 490.68L459.41 487.18L460.42 487.18L460.42 496.00L459.41 496.00L459.41 494.99L459.31 494.99Q459.12 495.34 458.83 495.59Q458.53 495.84 458.16 495.98Q457.78 496.11 457.34 496.11ZM457.58 495.21Q458.15 495.21 458.57 494.92Q458.98 494.63 459.21 494.10Q459.43 493.57 459.43 492.85L459.43 492.84Q459.43 492.10 459.21 491.58Q458.98 491.05 458.57 490.76Q458.15 490.47 457.58 490.47Q457.00 490.47 456.59 490.76Q456.18 491.04 455.96 491.57Q455.74 492.10 455.74 492.84L455.74 492.85Q455.74 493.58 455.96 494.11Q456.18 494.64 456.59 494.92Q457.00 495.21 457.58 495.21ZM468.35 496.11Q467.46 496.11 466.80 495.72Q466.15 495.32 465.79 494.59Q465.44 493.86 465.44 492.85L465.44 492.84Q465.44 491.82 465.79 491.09Q466.15 490.36 466.80 489.96Q467.46 489.57 468.35 489.57Q469.25 489.57 469.91 489.96Q470.56 490.36 470.91 491.09Q471.26 491.82 471.26 492.84L471.26 492.85Q471.26 493.86 470.91 494.59Q470.56 495.32 469.91 495.72Q469.25 496.11 468.35 496.11ZM468.35 495.21Q468.95 495.21 469.37 494.93Q469.78 494.65 470.00 494.12Q470.22 493.59 470.22 492.85L470.22 492.84Q470.22 492.09 470.00 491.56Q469.78 491.03 469.37 490.75Q468.95 490.47 468.35 490.47Q467.75 490.47 467.34 490.75Q466.92 491.03 466.70 491.56Q466.48 492.09 466.48 492.84L466.48 492.85Q466.48 493.59 466.70 494.12Q466.92 494.65 467.34 494.93Q467.75 495.21 468.35 495.21ZM474.40 496.00L472.06 489.68L473.14 489.68L474.87 494.89L474.96 494.89L476.69 489.68L477.77 489.68L475.43 496.00ZM481.46 496.11Q480.56 496.11 479.91 495.71Q479.26 495.31 478.91 494.58Q478.57 493.86 478.57 492.87L478.57 492.86Q478.57 491.88 478.91 491.14Q479.26 490.40 479.90 489.99Q480.54 489.57 481.40 489.57Q482.26 489.57 482.87 489.97Q483.49 490.37 483.82 491.08Q484.16 491.79 484.16 492.74L484.16 493.13L479.09 493.13L479.09 492.32L483.63 492.32L483.13 493.06L483.13 492.66Q483.13 491.92 482.91 491.44Q482.68 490.96 482.29 490.72Q481.90 490.48 481.39 490.48Q480.88 490.48 480.48 490.73Q480.08 490.98 479.84 491.46Q479.61 491.95 479.61 492.66L479.61 493.06Q479.61 493.74 479.84 494.22Q480.07 494.69 480.49 494.95Q480.91 495.20 481.48 495.20Q481.91 495.20 482.23 495.09Q482.54 494.97 482.75 494.79Q482.95 494.61 483.04 494.42L483.06 494.37L484.08 494.37L484.07 494.41Q483.99 494.73 483.78 495.04Q483.57 495.34 483.24 495.58Q482.91 495.82 482.46 495.97Q482.02 496.11 481.46 496.11ZM485.74 496.00L485.74 489.68L486.76 489.68L486.76 490.62L486.85 490.62Q487.03 490.12 487.47 489.85Q487.90 489.57 488.54 489.57Q488.68 489.57 488.83 489.59Q488.97 489.60 489.05 489.61L489.05 490.60Q488.89 490.57 488.74 490.56Q488.59 490.54 488.42 490.54Q487.93 490.54 487.56 490.74Q487.18 490.93 486.97 491.28Q486.76 491.62 486.76 492.09L486.76 496.00ZM490.37 496.00L490.37 487.18L491.39 487.18L491.39 496.00ZM495.08 496.11Q494.48 496.11 494.00 495.88Q493.52 495.65 493.25 495.23Q492.97 494.81 492.97 494.24L492.97 494.22Q492.97 493.66 493.24 493.26Q493.51 492.86 494.02 492.63Q494.54 492.40 495.27 492.36L497.59 492.22L497.59 493.04L495.39 493.18Q494.67 493.22 494.34 493.47Q494.01 493.73 494.01 494.20L494.01 494.21Q494.01 494.69 494.37 494.96Q494.74 495.23 495.29 495.23Q495.81 495.23 496.21 495.02Q496.62 494.81 496.85 494.45Q497.08 494.10 497.08 493.64L497.08 491.68Q497.08 491.09 496.73 490.78Q496.37 490.47 495.66 490.47Q495.09 490.47 494.73 490.68Q494.37 490.88 494.25 491.25L494.24 491.27L493.22 491.27L493.23 491.23Q493.31 490.73 493.64 490.36Q493.97 489.99 494.50 489.78Q495.02 489.57 495.70 489.57Q496.47 489.57 497.01 489.82Q497.54 490.08 497.82 490.55Q498.10 491.02 498.10 491.68L498.10 496.00L497.08 496.00L497.08 495.07L496.99 495.07Q496.79 495.40 496.50 495.64Q496.22 495.87 495.86 495.99Q495.50 496.11 495.08 496.11ZM499.96 498.11L499.96 489.68L500.98 489.68L500.98 490.69L501.08 490.69Q501.27 490.34 501.56 490.09Q501.86 489.84 502.23 489.71Q502.61 489.57 503.05 489.57Q503.85 489.57 504.44 489.98Q505.04 490.39 505.37 491.12Q505.69 491.85 505.69 492.84L505.69 492.85Q505.69 493.84 505.37 494.57Q505.04 495.30 504.44 495.71Q503.85 496.11 503.05 496.11Q502.61 496.11 502.23 495.97Q501.84 495.84 501.55 495.59Q501.25 495.34 501.08 495.00L500.98 495.00L500.98 498.11ZM502.81 495.21Q503.39 495.21 503.80 494.92Q504.21 494.64 504.43 494.11Q504.65 493.58 504.65 492.85L504.65 492.84Q504.65 492.10 504.43 491.57Q504.21 491.04 503.80 490.76Q503.39 490.47 502.81 490.47Q502.24 490.47 501.82 490.76Q501.41 491.05 501.18 491.58Q500.96 492.10 500.96 492.84L500.96 492.85Q500.96 493.57 501.18 494.10Q501.41 494.63 501.82 494.92Q502.24 495.21 502.81 495.21ZM511.50 493.36Q511.18 493.36 510.96 493.13Q510.73 492.91 510.73 492.60Q510.73 492.28 510.96 492.06Q511.18 491.83 511.50 491.83Q511.81 491.83 512.03 492.06Q512.26 492.28 512.26 492.60Q512.26 492.91 512.03 493.13Q511.81 493.36 511.50 493.36ZM519.84 496.05Q518.87 496.05 518.44 495.65Q518.00 495.26 518.00 494.36L518.00 490.53L517.00 490.53L517.00 489.68L518.00 489.68L518.00 488.05L519.05 488.05L519.05 489.68L520.44 489.68L520.44 490.53L519.05 490.53L519.05 494.10Q519.05 494.66 519.26 494.90Q519.48 495.14 519.97 495.14Q520.10 495.14 520.20 495.14Q520.30 495.13 520.44 495.12L520.44 495.99Q520.29 496.01 520.14 496.03Q520.00 496.05 519.84 496.05ZM524.47 496.11Q523.57 496.11 522.92 495.72Q522.26 495.32 521.91 494.59Q521.56 493.86 521.56 492.85L521.56 492.84Q521.56 491.82 521.91 491.09Q522.26 490.36 522.92 489.96Q523.57 489.57 524.47 489.57Q525.37 489.57 526.02 489.96Q526.67 490.36 527.03 491.09Q527.38 491.82 527.38 492.84L527.38 492.85Q527.38 493.86 527.03 494.59Q526.67 495.32 526.02 495.72Q525.37 496.11 524.47 496.11ZM524.47 495.21Q525.07 495.21 525.48 494.93Q525.90 494.65 526.12 494.12Q526.34 493.59 526.34 492.85L526.34 492.84Q526.34 492.09 526.12 491.56Q525.90 491.03 525.48 490.75Q525.07 490.47 524.47 490.47Q523.87 490.47 523.45 490.75Q523.04 491.03 522.82 491.56Q522.60 492.09 522.60 492.84L522.60 492.85Q522.60 493.59 522.82 494.12Q523.04 494.65 523.45 494.93Q523.87 495.21 524.47 495.21ZM528.96 498.11L528.96 489.68L529.98 489.68L529.98 490.69L530.08 490.69Q530.27 490.34 530.56 490.09Q530.85 489.84 531.23 489.71Q531.60 489.57 532.04 489.57Q532.85 489.57 533.44 489.98Q534.04 490.39 534.36 491.12Q534.69 491.85 534.69 492.84L534.69 492.85Q534.69 493.84 534.36 494.57Q534.04 495.30 533.44 495.71Q532.85 496.11 532.04 496.11Q531.61 496.11 531.23 495.97Q530.84 495.84 530.55 495.59Q530.25 495.34 530.08 495.00L529.98 495.00L529.98 498.11ZM531.81 495.21Q532.39 495.21 532.80 494.92Q533.21 494.64 533.43 494.11Q533.65 493.58 533.65 492.85L533.65 492.84Q533.65 492.10 533.43 491.57Q533.21 491.04 532.80 490.76Q532.39 490.47 531.81 490.47Q531.24 490.47 530.82 490.76Q530.40 491.05 530.18 491.58Q529.96 492.10 529.96 492.84L529.96 492.85Q529.96 493.57 530.18 494.10Q530.40 494.63 530.82 494.92Q531.24 495.21 531.81 495.21ZM542.53 496.14Q541.66 496.14 541.01 495.84Q540.36 495.54 539.98 495.02Q539.60 494.50 539.54 493.83L539.54 493.76L540.55 493.76L540.56 493.82Q540.60 494.24 540.85 494.55Q541.11 494.87 541.54 495.05Q541.97 495.23 542.53 495.23Q543.09 495.23 543.51 495.03Q543.93 494.84 544.16 494.50Q544.40 494.15 544.40 493.71L544.40 493.70Q544.40 492.92 543.88 492.50Q543.36 492.08 542.47 492.08L541.41 492.08L541.41 491.19L542.42 491.19Q542.92 491.19 543.31 491.00Q543.70 490.81 543.91 490.48Q544.13 490.15 544.13 489.72L544.13 489.71Q544.13 489.27 543.94 488.96Q543.76 488.65 543.40 488.48Q543.04 488.32 542.52 488.32Q542.02 488.32 541.63 488.49Q541.24 488.65 541.01 488.96Q540.77 489.27 540.73 489.70L540.72 489.76L539.71 489.76L539.71 489.70Q539.78 489.01 540.15 488.49Q540.52 487.98 541.12 487.69Q541.73 487.40 542.52 487.40Q543.33 487.40 543.93 487.68Q544.53 487.96 544.86 488.45Q545.19 488.94 545.19 489.58L545.19 489.60Q545.19 490.12 544.96 490.52Q544.74 490.93 544.33 491.20Q543.93 491.46 543.40 491.58L543.40 491.60Q544.33 491.68 544.90 492.22Q545.47 492.77 545.47 493.67L545.47 493.69Q545.47 494.39 545.09 494.95Q544.71 495.50 544.04 495.82Q543.38 496.14 542.53 496.14ZM553.16 496.11Q552.26 496.11 551.61 495.72Q550.95 495.32 550.60 494.59Q550.24 493.86 550.24 492.85L550.24 492.84Q550.24 491.82 550.60 491.09Q550.95 490.36 551.61 489.96Q552.26 489.57 553.16 489.57Q554.06 489.57 554.71 489.96Q555.36 490.36 555.71 491.09Q556.07 491.82 556.07 492.84L556.07 492.85Q556.07 493.86 555.71 494.59Q555.36 495.32 554.71 495.72Q554.06 496.11 553.16 496.11ZM553.16 495.21Q553.75 495.21 554.17 494.93Q554.58 494.65 554.80 494.12Q555.02 493.59 555.02 492.85L555.02 492.84Q555.02 492.09 554.80 491.56Q554.58 491.03 554.17 490.75Q553.75 490.47 553.16 490.47Q552.56 490.47 552.14 490.75Q551.73 491.03 551.51 491.56Q551.29 492.09 551.29 492.84L551.29 492.85Q551.29 493.59 551.51 494.12Q551.73 494.65 552.14 494.93Q552.56 495.21 553.16 495.21ZM558.07 496.00L558.07 490.53L557.02 490.53L557.02 489.68L558.07 489.68L558.07 488.98Q558.07 488.35 558.28 487.93Q558.49 487.52 558.90 487.32Q559.31 487.12 559.91 487.12Q560.09 487.12 560.26 487.13Q560.43 487.15 560.58 487.18L560.58 487.99Q560.49 487.97 560.37 487.97Q560.25 487.96 560.11 487.96Q559.57 487.96 559.33 488.22Q559.09 488.49 559.09 489.01L559.09 489.68L560.53 489.68L560.53 490.53L559.09 490.53L559.09 496.00ZM568.14 496.20Q567.35 496.20 566.74 495.89Q566.12 495.58 565.75 495.04Q565.38 494.51 565.31 493.83L565.31 493.77L566.32 493.77L566.33 493.81Q566.38 494.22 566.62 494.55Q566.87 494.88 567.26 495.07Q567.66 495.27 568.15 495.27Q568.71 495.27 569.14 495.02Q569.57 494.77 569.81 494.33Q570.05 493.89 570.05 493.32L570.05 493.31Q570.05 492.75 569.80 492.31Q569.56 491.88 569.14 491.63Q568.72 491.38 568.17 491.38Q567.75 491.38 567.39 491.51Q567.04 491.64 566.76 491.90Q566.65 492.00 566.55 492.13Q566.46 492.25 566.37 492.40L565.46 492.40L565.91 487.54L570.61 487.54L570.61 488.49L566.74 488.49L566.45 491.35L566.54 491.35Q566.73 491.06 567.01 490.87Q567.28 490.67 567.62 490.57Q567.97 490.47 568.35 490.47Q569.15 490.47 569.76 490.83Q570.38 491.20 570.73 491.84Q571.08 492.47 571.08 493.29L571.08 493.30Q571.08 494.15 570.70 494.81Q570.32 495.46 569.66 495.83Q569.00 496.20 568.14 496.20ZM578.33 496.11Q577.62 496.11 577.08 495.90Q576.55 495.68 576.22 495.30Q575.90 494.91 575.84 494.39L575.84 494.39L576.88 494.39L576.88 494.39Q577.01 494.78 577.38 495.02Q577.76 495.26 578.36 495.26Q578.79 495.26 579.12 495.14Q579.44 495.01 579.63 494.79Q579.82 494.57 579.82 494.28L579.82 494.27Q579.82 493.95 579.56 493.72Q579.30 493.50 578.71 493.36L577.74 493.12Q577.14 492.98 576.76 492.76Q576.38 492.53 576.20 492.20Q576.02 491.87 576.02 491.42L576.02 491.41Q576.02 490.88 576.33 490.47Q576.63 490.05 577.17 489.81Q577.70 489.57 578.37 489.57Q579.03 489.57 579.54 489.78Q580.06 489.99 580.37 490.37Q580.68 490.75 580.75 491.27L580.75 491.27L579.75 491.27L579.75 491.27Q579.65 490.89 579.29 490.66Q578.94 490.42 578.36 490.42Q577.99 490.42 577.69 490.54Q577.40 490.66 577.23 490.87Q577.06 491.08 577.06 491.37L577.06 491.38Q577.06 491.59 577.17 491.75Q577.28 491.92 577.52 492.04Q577.75 492.16 578.12 492.26L579.09 492.49Q579.69 492.63 580.08 492.86Q580.47 493.09 580.66 493.42Q580.86 493.74 580.86 494.20L580.86 494.21Q580.86 494.77 580.52 495.20Q580.19 495.63 579.62 495.87Q579.05 496.11 578.33 496.11ZM582.50 496.00L582.50 487.18L583.52 487.18L583.52 490.63L583.61 490.63Q583.85 490.13 584.30 489.85Q584.75 489.57 585.45 489.57Q586.16 489.57 586.65 489.84Q587.15 490.12 587.40 490.64Q587.66 491.16 587.66 491.91L587.66 496.00L586.64 496.00L586.64 492.16Q586.64 491.30 586.28 490.89Q585.92 490.47 585.16 490.47Q584.66 490.47 584.29 490.69Q583.92 490.91 583.72 491.31Q583.52 491.71 583.52 492.26L583.52 496.00ZM592.10 496.11Q591.20 496.11 590.55 495.72Q589.89 495.32 589.54 494.59Q589.18 493.86 589.18 492.85L589.18 492.84Q589.18 491.82 589.54 491.09Q589.89 490.36 590.55 489.96Q591.20 489.57 592.10 489.57Q593.00 489.57 593.65 489.96Q594.30 490.36 594.65 491.09Q595.01 491.82 595.01 492.84L595.01 492.85Q595.01 493.86 594.65 494.59Q594.30 495.32 593.65 495.72Q593.00 496.11 592.10 496.11ZM592.10 495.21Q592.69 495.21 593.11 494.93Q593.53 494.65 593.75 494.12Q593.97 493.59 593.97 492.85L593.97 492.84Q593.97 492.09 593.75 491.56Q593.53 491.03 593.11 490.75Q592.69 490.47 592.10 490.47Q591.50 490.47 591.08 490.75Q590.67 491.03 590.45 491.56Q590.23 492.09 590.23 492.84L590.23 492.85Q590.23 493.59 590.45 494.12Q590.67 494.65 591.08 494.93Q591.50 495.21 592.10 495.21ZM597.58 496.00L595.81 489.68L596.83 489.68L598.07 494.73L598.16 494.73L599.57 489.68L600.54 489.68L601.95 494.73L602.05 494.73L603.29 489.68L604.30 489.68L602.53 496.00L601.51 496.00L600.09 491.11L600.00 491.11L598.59 496.00ZM605.65 496.00L605.65 489.68L606.67 489.68L606.67 490.63L606.76 490.63Q607.00 490.13 607.45 489.85Q607.91 489.57 608.60 489.57Q609.67 489.57 610.24 490.18Q610.81 490.79 610.81 491.91L610.81 496.00L609.79 496.00L609.79 492.16Q609.79 491.30 609.43 490.89Q609.07 490.47 608.32 490.47Q607.81 490.47 607.44 490.69Q607.07 490.91 606.87 491.31Q606.67 491.71 606.67 492.26L606.67 496.00Z"/>
</svg>
