<svg xmlns="http://www.w3.org/2000/svg" viewBox="0 0 880 500" role="img" aria-label="HNSW search — greedy descent across two sparse layers, then beam search on layer 0 to the nearest neighbor">
  <rect width="880" height="500" rx="20" fill="#000000"/>

  <!-- Title: genuine SF Pro (.SFNS-Semibold) outlines via CoreText -->
  <path fill="#f5f5f7" d="M49.62 60.00L49.62 45.91L52.14 45.91L52.14 51.77L58.99 51.77L58.99 45.91L61.50 45.91L61.50 60.00L58.99 60.00L58.99 53.89L52.14 53.89L52.14 60.00ZM64.30 60.00L64.30 45.91L66.51 45.91L74.22 56.80L72.33 55.66L73.55 55.66L73.55 45.91L75.99 45.91L75.99 60.00L73.80 60.00L66.07 49.09L67.96 50.24L66.74 50.24L66.74 60.00ZM83.69 60.32Q82.06 60.32 80.85 59.82Q79.64 59.32 78.95 58.41Q78.25 57.51 78.16 56.28L78.15 56.14L80.59 56.14L80.60 56.25Q80.67 56.84 81.09 57.28Q81.50 57.72 82.19 57.97Q82.88 58.21 83.77 58.21Q84.63 58.21 85.28 57.95Q85.93 57.70 86.30 57.23Q86.67 56.77 86.67 56.17L86.67 56.16Q86.67 55.39 86.08 54.91Q85.48 54.43 84.12 54.14L82.60 53.83Q81.18 53.53 80.26 52.98Q79.35 52.43 78.91 51.64Q78.47 50.84 78.47 49.79L78.47 49.78Q78.47 48.53 79.14 47.58Q79.81 46.64 80.99 46.11Q82.17 45.58 83.69 45.58Q85.24 45.58 86.38 46.10Q87.53 46.62 88.18 47.52Q88.84 48.42 88.92 49.57L88.93 49.71L86.53 49.71L86.51 49.59Q86.42 49.02 86.05 48.60Q85.68 48.17 85.08 47.93Q84.47 47.69 83.67 47.70Q82.88 47.70 82.28 47.93Q81.68 48.17 81.33 48.60Q80.99 49.03 80.99 49.63L80.99 49.64Q80.99 50.13 81.25 50.51Q81.50 50.89 82.05 51.16Q82.60 51.43 83.47 51.61L84.98 51.94Q86.46 52.24 87.39 52.76Q88.32 53.28 88.76 54.05Q89.19 54.82 89.19 55.90L89.19 55.91Q89.19 57.26 88.53 58.25Q87.86 59.24 86.62 59.78Q85.39 60.32 83.69 60.32ZM94.02 60.00L90.25 45.91L92.86 45.91L95.29 56.50L95.41 56.50L98.20 45.91L100.45 45.91L103.26 56.50L103.38 56.50L105.80 45.91L108.40 45.91L104.63 60.00L102.25 60.00L99.39 49.90L99.26 49.90L96.41 60.00ZM118.68 60.21Q117.33 60.21 116.35 59.82Q115.37 59.43 114.81 58.73Q114.25 58.04 114.15 57.12L114.14 57.08L116.55 57.08L116.56 57.12Q116.74 57.70 117.28 58.06Q117.81 58.42 118.72 58.42Q119.32 58.42 119.77 58.25Q120.22 58.08 120.48 57.79Q120.73 57.49 120.73 57.09L120.73 57.08Q120.73 56.61 120.37 56.30Q120.00 55.99 119.14 55.79L117.41 55.41Q116.40 55.18 115.74 54.79Q115.07 54.39 114.75 53.80Q114.42 53.22 114.42 52.44L114.42 52.43Q114.42 51.47 114.96 50.74Q115.49 50.01 116.45 49.60Q117.41 49.19 118.66 49.19Q119.96 49.19 120.89 49.60Q121.83 50.00 122.35 50.69Q122.87 51.38 122.94 52.25L122.94 52.30L120.66 52.30L120.65 52.26Q120.53 51.72 120.03 51.35Q119.52 50.99 118.66 50.99Q118.12 50.99 117.71 51.15Q117.29 51.31 117.06 51.60Q116.82 51.90 116.82 52.29L116.82 52.31Q116.82 52.61 116.98 52.85Q117.14 53.08 117.48 53.26Q117.83 53.43 118.40 53.57L120.12 53.95Q121.17 54.18 121.85 54.56Q122.52 54.95 122.85 55.51Q123.17 56.06 123.17 56.84L123.17 56.85Q123.17 57.86 122.59 58.62Q122.01 59.37 121.00 59.79Q119.99 60.21 118.68 60.21ZM129.52 60.21Q127.94 60.21 126.81 59.54Q125.67 58.87 125.06 57.64Q124.45 56.41 124.45 54.73L124.45 54.72Q124.45 53.05 125.06 51.81Q125.67 50.57 126.79 49.88Q127.90 49.19 129.41 49.19Q130.92 49.19 132.01 49.86Q133.11 50.52 133.70 51.72Q134.29 52.91 134.29 54.51L134.29 55.31L125.67 55.31L125.67 53.68L133.11 53.68L131.95 55.20L131.95 54.24Q131.95 53.19 131.63 52.49Q131.31 51.79 130.74 51.45Q130.18 51.10 129.44 51.10Q128.69 51.10 128.12 51.46Q127.54 51.82 127.21 52.52Q126.87 53.23 126.87 54.24L126.87 55.21Q126.87 56.19 127.20 56.88Q127.53 57.57 128.14 57.94Q128.74 58.31 129.57 58.31Q130.22 58.31 130.69 58.12Q131.16 57.93 131.45 57.65Q131.75 57.38 131.86 57.11L131.89 57.04L134.19 57.04L134.16 57.13Q134.04 57.67 133.70 58.21Q133.36 58.75 132.79 59.21Q132.22 59.66 131.40 59.94Q130.59 60.21 129.52 60.21ZM139.02 60.18Q138.00 60.18 137.21 59.78Q136.42 59.39 135.97 58.67Q135.52 57.96 135.52 57.00L135.52 56.98Q135.52 56.03 135.99 55.35Q136.46 54.67 137.36 54.29Q138.25 53.90 139.54 53.82L143.49 53.58L143.49 55.18L139.88 55.42Q138.89 55.47 138.41 55.84Q137.92 56.22 137.92 56.87L137.92 56.89Q137.92 57.55 138.43 57.94Q138.94 58.32 139.75 58.32Q140.48 58.32 141.05 58.02Q141.62 57.73 141.95 57.23Q142.28 56.73 142.28 56.10L142.28 52.79Q142.28 51.99 141.77 51.56Q141.27 51.13 140.29 51.13Q139.45 51.13 138.93 51.43Q138.40 51.74 138.23 52.28L138.22 52.33L135.93 52.33L135.94 52.24Q136.05 51.33 136.63 50.65Q137.20 49.96 138.16 49.58Q139.13 49.19 140.40 49.19Q141.76 49.19 142.72 49.62Q143.68 50.05 144.18 50.85Q144.69 51.64 144.69 52.75L144.69 60.00L142.28 60.00L142.28 58.50L142.14 58.50Q141.84 59.02 141.38 59.40Q140.91 59.78 140.32 59.98Q139.72 60.18 139.02 60.18ZM146.92 60.00L146.92 49.40L149.35 49.40L149.35 51.07L149.49 51.07Q149.76 50.20 150.44 49.71Q151.13 49.22 152.15 49.22Q152.41 49.22 152.66 49.25Q152.91 49.28 153.08 49.33L153.08 51.51Q152.82 51.45 152.53 51.41Q152.24 51.37 151.92 51.37Q151.14 51.37 150.56 51.67Q149.98 51.97 149.67 52.53Q149.35 53.08 149.35 53.84L149.35 60.00ZM158.72 60.21Q157.13 60.21 155.99 59.55Q154.85 58.89 154.24 57.65Q153.64 56.41 153.64 54.68L153.64 54.67Q153.64 52.96 154.24 51.74Q154.85 50.51 155.99 49.85Q157.13 49.19 158.71 49.19Q160.08 49.19 161.07 49.68Q162.06 50.16 162.64 51.01Q163.22 51.85 163.34 52.94L163.34 52.99L161.05 52.99L161.04 52.95Q160.88 52.17 160.29 51.67Q159.71 51.16 158.72 51.16Q157.90 51.16 157.32 51.58Q156.73 52.00 156.42 52.78Q156.11 53.57 156.11 54.67L156.11 54.69Q156.11 55.81 156.42 56.61Q156.74 57.40 157.33 57.82Q157.91 58.24 158.72 58.24Q159.67 58.24 160.24 57.80Q160.82 57.35 161.03 56.52L161.05 56.47L163.34 56.46L163.33 56.54Q163.18 57.62 162.59 58.45Q162.01 59.28 161.04 59.75Q160.06 60.21 158.72 60.21ZM165.10 60.00L165.10 45.36L167.53 45.36L167.53 51.06L167.67 51.06Q168.06 50.18 168.84 49.69Q169.62 49.19 170.77 49.19Q171.95 49.19 172.77 49.67Q173.59 50.15 174.02 51.04Q174.45 51.94 174.45 53.21L174.45 60.00L172.02 60.00L172.02 53.75Q172.02 52.51 171.48 51.88Q170.95 51.24 169.86 51.24Q169.14 51.24 168.62 51.56Q168.10 51.89 167.81 52.47Q167.53 53.05 167.53 53.84L167.53 60.00Z"/>

  <!-- Layer planes: hairline-outlined bands -->
  <rect x="48" y="92"  width="784" height="96"  rx="12" fill="none" stroke="#2c2c2e" stroke-width="1"/>
  <rect x="48" y="212" width="784" height="96"  rx="12" fill="none" stroke="#2c2c2e" stroke-width="1"/>
  <rect x="48" y="332" width="784" height="128" rx="12" fill="none" stroke="#2c2c2e" stroke-width="1"/>

  <!-- Layer captions: .SFNS-Regular outlines -->
  <path fill="#86868b" d="M65.08 118.00L65.08 109.54L66.13 109.54L66.13 117.05L70.21 117.05L70.21 118.00ZM73.50 118.11Q72.90 118.11 72.42 117.88Q71.95 117.65 71.67 117.23Q71.39 116.81 71.39 116.24L71.39 116.22Q71.39 115.66 71.66 115.26Q71.93 114.86 72.44 114.63Q72.96 114.40 73.69 114.36L76.01 114.22L76.01 115.04L73.81 115.18Q73.09 115.22 72.76 115.47Q72.43 115.73 72.43 116.20L72.43 116.21Q72.43 116.69 72.79 116.96Q73.16 117.23 73.71 117.23Q74.23 117.23 74.63 117.02Q75.04 116.81 75.27 116.45Q75.50 116.10 75.50 115.64L75.50 113.68Q75.50 113.09 75.15 112.78Q74.79 112.47 74.08 112.47Q73.52 112.47 73.15 112.68Q72.79 112.88 72.67 113.25L72.66 113.27L71.64 113.27L71.65 113.23Q71.73 112.73 72.06 112.36Q72.39 111.99 72.92 111.78Q73.45 111.57 74.12 111.57Q74.89 111.57 75.43 111.82Q75.96 112.08 76.24 112.55Q76.52 113.02 76.52 113.68L76.52 118.00L75.50 118.00L75.50 117.07L75.41 117.07Q75.21 117.40 74.92 117.64Q74.64 117.87 74.28 117.99Q73.93 118.11 73.50 118.11ZM78.69 120.21Q78.59 120.21 78.47 120.21Q78.34 120.20 78.24 120.18L78.24 119.34Q78.33 119.36 78.44 119.37Q78.55 119.37 78.66 119.37Q79.09 119.37 79.37 119.15Q79.65 118.93 79.82 118.38L79.94 118.01L77.60 111.68L78.69 111.68L80.63 117.52L80.23 116.88L80.71 116.88L80.31 117.52L82.25 111.68L83.32 111.68L80.85 118.39Q80.59 119.10 80.31 119.49Q80.02 119.89 79.64 120.05Q79.25 120.21 78.69 120.21ZM87.01 118.11Q86.11 118.11 85.46 117.71Q84.81 117.31 84.46 116.58Q84.12 115.86 84.12 114.87L84.12 114.86Q84.12 113.88 84.46 113.14Q84.81 112.40 85.45 111.99Q86.09 111.57 86.95 111.57Q87.81 111.57 88.42 111.97Q89.04 112.37 89.37 113.08Q89.71 113.79 89.71 114.74L89.71 115.13L84.64 115.13L84.64 114.32L89.18 114.32L88.68 115.06L88.68 114.66Q88.68 113.92 88.46 113.44Q88.23 112.96 87.84 112.72Q87.45 112.48 86.94 112.48Q86.43 112.48 86.03 112.73Q85.63 112.98 85.39 113.46Q85.16 113.95 85.16 114.66L85.16 115.06Q85.16 115.74 85.39 116.22Q85.62 116.69 86.04 116.95Q86.46 117.20 87.03 117.20Q87.46 117.20 87.78 117.09Q88.09 116.97 88.30 116.79Q88.50 116.61 88.59 116.42L88.61 116.37L89.63 116.37L89.62 116.41Q89.54 116.73 89.33 117.04Q89.12 117.34 88.79 117.58Q88.46 117.82 88.01 117.97Q87.57 118.11 87.01 118.11ZM91.29 118.00L91.29 111.68L92.31 111.68L92.31 112.62L92.40 112.62Q92.58 112.12 93.02 111.85Q93.45 111.57 94.09 111.57Q94.23 111.57 94.38 111.59Q94.52 111.60 94.60 111.61L94.60 112.60Q94.44 112.57 94.29 112.56Q94.14 112.54 93.97 112.54Q93.48 112.54 93.11 112.74Q92.73 112.93 92.52 113.28Q92.31 113.62 92.31 114.09L92.31 118.00ZM99.23 118.00L99.23 117.27L102.09 114.18Q102.62 113.59 102.93 113.21Q103.23 112.83 103.36 112.52Q103.48 112.21 103.48 111.84L103.48 111.82Q103.48 111.38 103.29 111.03Q103.09 110.68 102.74 110.47Q102.38 110.27 101.88 110.27Q101.38 110.27 101.00 110.47Q100.62 110.68 100.40 111.05Q100.19 111.43 100.19 111.92L100.19 111.94L99.18 111.93L99.17 111.92Q99.17 111.17 99.53 110.59Q99.89 110.01 100.52 109.68Q101.14 109.35 101.95 109.35Q102.69 109.35 103.28 109.65Q103.87 109.96 104.22 110.49Q104.56 111.03 104.56 111.71L104.56 111.72Q104.56 112.21 104.39 112.65Q104.22 113.10 103.80 113.64Q103.38 114.18 102.61 114.97L100.43 117.23L100.69 116.74L100.69 117.23L100.43 117.05L104.70 117.05L104.70 118.00ZM109.38 115.07L109.38 114.12L118.91 114.12L118.91 115.07ZM126.31 120.23Q125.55 120.23 124.98 120.01Q124.42 119.80 124.08 119.41Q123.74 119.02 123.66 118.50L123.67 118.50L124.73 118.50L124.73 118.50Q124.81 118.86 125.22 119.09Q125.63 119.32 126.31 119.32Q127.16 119.32 127.64 118.94Q128.12 118.56 128.12 117.86L128.12 116.58L128.03 116.58Q127.83 116.93 127.53 117.17Q127.23 117.42 126.85 117.55Q126.48 117.67 126.04 117.67Q125.23 117.67 124.64 117.28Q124.04 116.89 123.72 116.21Q123.40 115.52 123.40 114.64L123.40 114.62Q123.40 113.74 123.72 113.05Q124.05 112.36 124.64 111.97Q125.24 111.57 126.07 111.57Q126.51 111.57 126.89 111.71Q127.26 111.85 127.55 112.11Q127.84 112.37 128.04 112.73L128.11 112.73L128.11 111.68L129.13 111.68L129.13 117.91Q129.13 118.62 128.78 119.14Q128.44 119.66 127.81 119.94Q127.18 120.23 126.31 120.23ZM126.27 116.77Q126.85 116.77 127.27 116.50Q127.69 116.22 127.92 115.74Q128.14 115.26 128.14 114.64L128.14 114.62Q128.14 114.00 127.92 113.51Q127.69 113.03 127.27 112.75Q126.85 112.47 126.27 112.47Q125.68 112.47 125.27 112.75Q124.87 113.03 124.65 113.51Q124.44 114.00 124.44 114.62L124.44 114.64Q124.44 115.26 124.65 115.74Q124.87 116.22 125.27 116.50Q125.68 116.77 126.27 116.77ZM131.03 118.00L131.03 111.68L132.04 111.68L132.04 112.62L132.14 112.62Q132.32 112.12 132.75 111.85Q133.19 111.57 133.83 111.57Q133.97 111.57 134.12 111.59Q134.26 111.60 134.34 111.61L134.34 112.60Q134.18 112.57 134.03 112.56Q133.88 112.54 133.71 112.54Q133.22 112.54 132.85 112.74Q132.47 112.93 132.26 113.28Q132.04 113.62 132.04 114.09L132.04 118.00ZM138.00 118.11Q137.10 118.11 136.45 117.71Q135.80 117.31 135.45 116.58Q135.10 115.86 135.10 114.87L135.10 114.86Q135.10 113.88 135.45 113.14Q135.80 112.40 136.44 111.99Q137.08 111.57 137.93 111.57Q138.79 111.57 139.41 111.97Q140.03 112.37 140.36 113.08Q140.69 113.79 140.69 114.74L140.69 115.13L135.63 115.13L135.63 114.32L140.17 114.32L139.67 115.06L139.67 114.66Q139.67 113.92 139.45 113.44Q139.22 112.96 138.83 112.72Q138.44 112.48 137.93 112.48Q137.42 112.48 137.02 112.73Q136.62 112.98 136.38 113.46Q136.15 113.95 136.15 114.66L136.15 115.06Q136.15 115.74 136.38 116.22Q136.60 116.69 137.03 116.95Q137.45 117.20 138.02 117.20Q138.45 117.20 138.77 117.09Q139.08 116.97 139.29 116.79Q139.49 116.61 139.57 116.42L139.60 116.37L140.62 116.37L140.61 116.41Q140.52 116.73 140.32 117.04Q140.11 117.34 139.78 117.58Q139.45 117.82 139.00 117.97Q138.55 118.11 138.00 118.11ZM144.85 118.11Q143.95 118.11 143.30 117.71Q142.66 117.31 142.31 116.58Q141.96 115.86 141.96 114.87L141.96 114.86Q141.96 113.88 142.31 113.14Q142.66 112.40 143.29 111.99Q143.93 111.57 144.79 111.57Q145.65 111.57 146.27 111.97Q146.89 112.37 147.22 113.08Q147.55 113.79 147.55 114.74L147.55 115.13L142.49 115.13L142.49 114.32L147.03 114.32L146.52 115.06L146.52 114.66Q146.52 113.92 146.30 113.44Q146.08 112.96 145.69 112.72Q145.29 112.48 144.78 112.48Q144.27 112.48 143.87 112.73Q143.47 112.98 143.24 113.46Q143.00 113.95 143.00 114.66L143.00 115.06Q143.00 115.74 143.23 116.22Q143.46 116.69 143.88 116.95Q144.30 117.20 144.88 117.20Q145.30 117.20 145.62 117.09Q145.94 116.97 146.14 116.79Q146.35 116.61 146.43 116.42L146.45 116.37L147.47 116.37L147.46 116.41Q147.38 116.73 147.17 117.04Q146.96 117.34 146.63 117.58Q146.31 117.82 145.86 117.97Q145.41 118.11 144.85 118.11ZM151.46 118.11Q150.67 118.11 150.07 117.71Q149.47 117.30 149.14 116.57Q148.81 115.83 148.81 114.85L148.81 114.84Q148.81 113.85 149.14 113.11Q149.47 112.38 150.07 111.98Q150.66 111.57 151.46 111.57Q151.90 111.57 152.28 111.71Q152.66 111.85 152.96 112.09Q153.26 112.34 153.43 112.68L153.53 112.68L153.53 109.18L154.54 109.18L154.54 118.00L153.53 118.00L153.53 116.99L153.43 116.99Q153.24 117.34 152.95 117.59Q152.65 117.84 152.28 117.98Q151.90 118.11 151.46 118.11ZM151.70 117.21Q152.27 117.21 152.69 116.92Q153.10 116.63 153.33 116.10Q153.55 115.57 153.55 114.85L153.55 114.84Q153.55 114.10 153.33 113.58Q153.10 113.05 152.69 112.76Q152.27 112.47 151.70 112.47Q151.12 112.47 150.71 112.76Q150.30 113.04 150.08 113.57Q149.86 114.10 149.86 114.84L149.86 114.85Q149.86 115.58 150.08 116.11Q150.30 116.64 150.71 116.92Q151.12 117.21 151.70 117.21ZM157.04 120.21Q156.94 120.21 156.82 120.21Q156.70 120.20 156.59 120.18L156.59 119.34Q156.68 119.36 156.79 119.37Q156.91 119.37 157.01 119.37Q157.45 119.37 157.72 119.15Q158.00 118.93 158.17 118.38L158.29 118.01L155.95 111.68L157.04 111.68L158.99 117.52L158.58 116.88L159.06 116.88L158.66 117.52L160.60 111.68L161.67 111.68L159.20 118.39Q158.95 119.10 158.66 119.49Q158.37 119.89 157.99 120.05Q157.60 120.21 157.04 120.21ZM161.88 120.15L162.39 116.82L163.56 116.82L162.64 120.15ZM171.65 118.11Q170.75 118.11 170.10 117.71Q169.46 117.31 169.11 116.58Q168.76 115.86 168.76 114.87L168.76 114.86Q168.76 113.88 169.11 113.14Q169.46 112.40 170.10 111.99Q170.73 111.57 171.59 111.57Q172.45 111.57 173.07 111.97Q173.69 112.37 174.02 113.08Q174.35 113.79 174.35 114.74L174.35 115.13L169.29 115.13L169.29 114.32L173.83 114.32L173.32 115.06L173.32 114.66Q173.32 113.92 173.10 113.44Q172.88 112.96 172.49 112.72Q172.09 112.48 171.58 112.48Q171.07 112.48 170.67 112.73Q170.27 112.98 170.04 113.46Q169.80 113.95 169.80 114.66L169.80 115.06Q169.80 115.74 170.03 116.22Q170.26 116.69 170.68 116.95Q171.10 117.20 171.68 117.20Q172.11 117.20 172.42 117.09Q172.74 116.97 172.94 116.79Q173.15 116.61 173.23 116.42L173.25 116.37L174.27 116.37L174.26 116.41Q174.18 116.73 173.97 117.04Q173.76 117.34 173.44 117.58Q173.11 117.82 172.66 117.97Q172.21 118.11 171.65 118.11ZM176.35 118.00L176.35 112.53L175.30 112.53L175.30 111.68L176.35 111.68L176.35 110.98Q176.35 110.35 176.56 109.93Q176.77 109.52 177.18 109.32Q177.59 109.12 178.19 109.12Q178.38 109.12 178.54 109.13Q178.71 109.15 178.87 109.18L178.87 109.99Q178.77 109.97 178.65 109.97Q178.53 109.96 178.39 109.96Q177.85 109.96 177.61 110.22Q177.37 110.49 177.37 111.01L177.37 111.68L178.81 111.68L178.81 112.53L177.37 112.53L177.37 118.00ZM183.46 116.65L183.46 115.70L189.50 115.70L189.50 116.65ZM183.46 113.49L183.46 112.54L189.50 112.54L189.50 113.49ZM196.64 118.00L196.64 110.72L196.55 110.72L194.40 112.28L194.40 111.16L196.65 109.54L197.70 109.54L197.70 118.00Z"/>
  <path fill="#86868b" d="M65.08 238.00L65.08 229.54L66.13 229.54L66.13 237.05L70.21 237.05L70.21 238.00ZM73.50 238.11Q72.90 238.11 72.42 237.88Q71.95 237.65 71.67 237.23Q71.39 236.81 71.39 236.24L71.39 236.22Q71.39 235.66 71.66 235.26Q71.93 234.86 72.44 234.63Q72.96 234.40 73.69 234.36L76.01 234.22L76.01 235.04L73.81 235.18Q73.09 235.22 72.76 235.47Q72.43 235.73 72.43 236.20L72.43 236.21Q72.43 236.69 72.79 236.96Q73.16 237.23 73.71 237.23Q74.23 237.23 74.63 237.02Q75.04 236.81 75.27 236.45Q75.50 236.10 75.50 235.64L75.50 233.68Q75.50 233.09 75.15 232.78Q74.79 232.47 74.08 232.47Q73.52 232.47 73.15 232.68Q72.79 232.88 72.67 233.25L72.66 233.27L71.64 233.27L71.65 233.23Q71.73 232.73 72.06 232.36Q72.39 231.99 72.92 231.78Q73.45 231.57 74.12 231.57Q74.89 231.57 75.43 231.82Q75.96 232.08 76.24 232.55Q76.52 233.02 76.52 233.68L76.52 238.00L75.50 238.00L75.50 237.07L75.41 237.07Q75.21 237.40 74.92 237.64Q74.64 237.87 74.28 237.99Q73.93 238.11 73.50 238.11ZM78.69 240.21Q78.59 240.21 78.47 240.21Q78.34 240.20 78.24 240.18L78.24 239.34Q78.33 239.36 78.44 239.37Q78.55 239.37 78.66 239.37Q79.09 239.37 79.37 239.15Q79.65 238.93 79.82 238.38L79.94 238.01L77.60 231.68L78.69 231.68L80.63 237.52L80.23 236.88L80.71 236.88L80.31 237.52L82.25 231.68L83.32 231.68L80.85 238.39Q80.59 239.10 80.31 239.49Q80.02 239.89 79.64 240.05Q79.25 240.21 78.69 240.21ZM87.01 238.11Q86.11 238.11 85.46 237.71Q84.81 237.31 84.46 236.58Q84.12 235.86 84.12 234.87L84.12 234.86Q84.12 233.88 84.46 233.14Q84.81 232.40 85.45 231.99Q86.09 231.57 86.95 231.57Q87.81 231.57 88.42 231.97Q89.04 232.37 89.37 233.08Q89.71 233.79 89.71 234.74L89.71 235.13L84.64 235.13L84.64 234.32L89.18 234.32L88.68 235.06L88.68 234.66Q88.68 233.92 88.46 233.44Q88.23 232.96 87.84 232.72Q87.45 232.48 86.94 232.48Q86.43 232.48 86.03 232.73Q85.63 232.98 85.39 233.46Q85.16 233.95 85.16 234.66L85.16 235.06Q85.16 235.74 85.39 236.22Q85.62 236.69 86.04 236.95Q86.46 237.20 87.03 237.20Q87.46 237.20 87.78 237.09Q88.09 236.97 88.30 236.79Q88.50 236.61 88.59 236.42L88.61 236.37L89.63 236.37L89.62 236.41Q89.54 236.73 89.33 237.04Q89.12 237.34 88.79 237.58Q88.46 237.82 88.01 237.97Q87.57 238.11 87.01 238.11ZM91.29 238.00L91.29 231.68L92.31 231.68L92.31 232.62L92.40 232.62Q92.58 232.12 93.02 231.85Q93.45 231.57 94.09 231.57Q94.23 231.57 94.38 231.59Q94.52 231.60 94.60 231.61L94.60 232.60Q94.44 232.57 94.29 232.56Q94.14 232.54 93.97 232.54Q93.48 232.54 93.11 232.74Q92.73 232.93 92.52 233.28Q92.31 233.62 92.31 234.09L92.31 238.00ZM101.29 238.00L101.29 230.72L101.20 230.72L99.05 232.28L99.05 231.16L101.30 229.54L102.35 229.54L102.35 238.00ZM107.70 235.07L107.70 234.12L117.24 234.12L117.24 235.07ZM124.64 240.23Q123.88 240.23 123.31 240.01Q122.74 239.80 122.40 239.41Q122.07 239.02 121.98 238.50L122.00 238.50L123.05 238.50L123.06 238.50Q123.14 238.86 123.55 239.09Q123.96 239.32 124.64 239.32Q125.49 239.32 125.97 238.94Q126.44 238.56 126.44 237.86L126.44 236.58L126.35 236.58Q126.15 236.93 125.85 237.17Q125.55 237.42 125.18 237.55Q124.80 237.67 124.37 237.67Q123.55 237.67 122.96 237.28Q122.37 236.89 122.04 236.21Q121.72 235.52 121.72 234.64L121.72 234.62Q121.72 233.74 122.05 233.05Q122.37 232.36 122.97 231.97Q123.57 231.57 124.39 231.57Q124.84 231.57 125.21 231.71Q125.59 231.85 125.88 232.11Q126.17 232.37 126.36 232.73L126.43 232.73L126.43 231.68L127.45 231.68L127.45 237.91Q127.45 238.62 127.11 239.14Q126.77 239.66 126.13 239.94Q125.50 240.23 124.64 240.23ZM124.59 236.77Q125.18 236.77 125.60 236.50Q126.02 236.22 126.24 235.74Q126.47 235.26 126.47 234.64L126.47 234.62Q126.47 234.00 126.24 233.51Q126.02 233.03 125.60 232.75Q125.18 232.47 124.59 232.47Q124.01 232.47 123.60 232.75Q123.19 233.03 122.98 233.51Q122.76 234.00 122.76 234.62L122.76 234.64Q122.76 235.26 122.98 235.74Q123.19 236.22 123.60 236.50Q124.01 236.77 124.59 236.77ZM129.35 238.00L129.35 231.68L130.37 231.68L130.37 232.62L130.46 232.62Q130.64 232.12 131.08 231.85Q131.51 231.57 132.15 231.57Q132.30 231.57 132.44 231.59Q132.58 231.60 132.66 231.61L132.66 232.60Q132.50 232.57 132.35 232.56Q132.20 232.54 132.03 232.54Q131.55 232.54 131.17 232.74Q130.80 232.93 130.58 233.28Q130.37 233.62 130.37 234.09L130.37 238.00ZM136.32 238.11Q135.42 238.11 134.77 237.71Q134.12 237.31 133.78 236.58Q133.43 235.86 133.43 234.87L133.43 234.86Q133.43 233.88 133.78 233.14Q134.12 232.40 134.76 231.99Q135.40 231.57 136.26 231.57Q137.12 231.57 137.74 231.97Q138.36 232.37 138.69 233.08Q139.02 233.79 139.02 234.74L139.02 235.13L133.96 235.13L133.96 234.32L138.50 234.32L137.99 235.06L137.99 234.66Q137.99 233.92 137.77 233.44Q137.55 232.96 137.15 232.72Q136.76 232.48 136.25 232.48Q135.74 232.48 135.34 232.73Q134.94 232.98 134.71 233.46Q134.47 233.95 134.47 234.66L134.47 235.06Q134.47 235.74 134.70 236.22Q134.93 236.69 135.35 236.95Q135.77 237.20 136.35 237.20Q136.77 237.20 137.09 237.09Q137.41 236.97 137.61 236.79Q137.82 236.61 137.90 236.42L137.92 236.37L138.94 236.37L138.93 236.41Q138.85 236.73 138.64 237.04Q138.43 237.34 138.10 237.58Q137.78 237.82 137.33 237.97Q136.88 238.11 136.32 238.11ZM143.18 238.11Q142.28 238.11 141.63 237.71Q140.98 237.31 140.63 236.58Q140.28 235.86 140.28 234.87L140.28 234.86Q140.28 233.88 140.63 233.14Q140.98 232.40 141.62 231.99Q142.26 231.57 143.11 231.57Q143.97 231.57 144.59 231.97Q145.21 232.37 145.54 233.08Q145.87 233.79 145.87 234.74L145.87 235.13L140.81 235.13L140.81 234.32L145.35 234.32L144.85 235.06L144.85 234.66Q144.85 233.92 144.62 233.44Q144.40 232.96 144.01 232.72Q143.62 232.48 143.11 232.48Q142.60 232.48 142.20 232.73Q141.79 232.98 141.56 233.46Q141.33 233.95 141.33 234.66L141.33 235.06Q141.33 235.74 141.55 236.22Q141.78 236.69 142.21 236.95Q142.63 237.20 143.20 237.20Q143.63 237.20 143.95 237.09Q144.26 236.97 144.47 236.79Q144.67 236.61 144.75 236.42L144.78 236.37L145.80 236.37L145.79 236.41Q145.70 236.73 145.50 237.04Q145.29 237.34 144.96 237.58Q144.63 237.82 144.18 237.97Q143.73 238.11 143.18 238.11ZM149.79 238.11Q148.99 238.11 148.39 237.71Q147.79 237.30 147.47 236.57Q147.14 235.83 147.14 234.85L147.14 234.84Q147.14 233.85 147.47 233.11Q147.79 232.38 148.39 231.98Q148.98 231.57 149.79 231.57Q150.22 231.57 150.60 231.71Q150.99 231.85 151.29 232.09Q151.59 232.34 151.76 232.68L151.85 232.68L151.85 229.18L152.87 229.18L152.87 238.00L151.85 238.00L151.85 236.99L151.76 236.99Q151.56 237.34 151.27 237.59Q150.98 237.84 150.60 237.98Q150.23 238.11 149.79 238.11ZM150.02 237.21Q150.60 237.21 151.01 236.92Q151.43 236.63 151.65 236.10Q151.87 235.57 151.87 234.85L151.87 234.84Q151.87 234.10 151.65 233.58Q151.43 233.05 151.01 232.76Q150.60 232.47 150.02 232.47Q149.45 232.47 149.03 232.76Q148.62 233.04 148.40 233.57Q148.18 234.10 148.18 234.84L148.18 234.85Q148.18 235.58 148.40 236.11Q148.62 236.64 149.03 236.92Q149.45 237.21 150.02 237.21ZM155.37 240.21Q155.27 240.21 155.14 240.21Q155.02 240.20 154.91 240.18L154.91 239.34Q155.01 239.36 155.12 239.37Q155.23 239.37 155.34 239.37Q155.77 239.37 156.05 239.15Q156.33 238.93 156.50 238.38L156.61 238.01L154.28 231.68L155.37 231.68L157.31 237.52L156.91 236.88L157.39 236.88L156.98 237.52L158.92 231.68L159.99 231.68L157.53 238.39Q157.27 239.10 156.98 239.49Q156.70 239.89 156.31 240.05Q155.93 240.21 155.37 240.21ZM160.21 240.15L160.71 236.82L161.88 236.82L160.96 240.15ZM169.98 238.11Q169.08 238.11 168.43 237.71Q167.78 237.31 167.43 236.58Q167.08 235.86 167.08 234.87L167.08 234.86Q167.08 233.88 167.43 233.14Q167.78 232.40 168.42 231.99Q169.06 231.57 169.91 231.57Q170.78 231.57 171.39 231.97Q172.01 232.37 172.34 233.08Q172.67 233.79 172.67 234.74L172.67 235.13L167.61 235.13L167.61 234.32L172.15 234.32L171.65 235.06L171.65 234.66Q171.65 233.92 171.43 233.44Q171.20 232.96 170.81 232.72Q170.42 232.48 169.91 232.48Q169.40 232.48 169.00 232.73Q168.60 232.98 168.36 233.46Q168.13 233.95 168.13 234.66L168.13 235.06Q168.13 235.74 168.36 236.22Q168.58 236.69 169.01 236.95Q169.43 237.20 170.00 237.20Q170.43 237.20 170.75 237.09Q171.06 236.97 171.27 236.79Q171.47 236.61 171.55 236.42L171.58 236.37L172.60 236.37L172.59 236.41Q172.50 236.73 172.30 237.04Q172.09 237.34 171.76 237.58Q171.43 237.82 170.98 237.97Q170.54 238.11 169.98 238.11ZM174.68 238.00L174.68 232.53L173.63 232.53L173.63 231.68L174.68 231.68L174.68 230.98Q174.68 230.35 174.89 229.93Q175.09 229.52 175.50 229.32Q175.91 229.12 176.51 229.12Q176.70 229.12 176.87 229.13Q177.03 229.15 177.19 229.18L177.19 229.99Q177.10 229.97 176.97 229.97Q176.85 229.96 176.72 229.96Q176.17 229.96 175.93 230.22Q175.70 230.49 175.70 231.01L175.70 231.68L177.13 231.68L177.13 232.53L175.70 232.53L175.70 238.00ZM181.78 236.65L181.78 235.70L187.83 235.70L187.83 236.65ZM181.78 233.49L181.78 232.54L187.83 232.54L187.83 233.49ZM194.97 238.00L194.97 230.72L194.88 230.72L192.72 232.28L192.72 231.16L194.97 229.54L196.02 229.54L196.02 238.00Z"/>
  <path fill="#86868b" d="M65.08 358.00L65.08 349.54L66.13 349.54L66.13 357.05L70.21 357.05L70.21 358.00ZM73.50 358.11Q72.90 358.11 72.42 357.88Q71.95 357.65 71.67 357.23Q71.39 356.81 71.39 356.24L71.39 356.22Q71.39 355.66 71.66 355.26Q71.93 354.86 72.44 354.63Q72.96 354.40 73.69 354.36L76.01 354.22L76.01 355.04L73.81 355.18Q73.09 355.22 72.76 355.47Q72.43 355.73 72.43 356.20L72.43 356.21Q72.43 356.69 72.79 356.96Q73.16 357.23 73.71 357.23Q74.23 357.23 74.63 357.02Q75.04 356.81 75.27 356.45Q75.50 356.10 75.50 355.64L75.50 353.68Q75.50 353.09 75.15 352.78Q74.79 352.47 74.08 352.47Q73.52 352.47 73.15 352.68Q72.79 352.88 72.67 353.25L72.66 353.27L71.64 353.27L71.65 353.23Q71.73 352.73 72.06 352.36Q72.39 351.99 72.92 351.78Q73.45 351.57 74.12 351.57Q74.89 351.57 75.43 351.82Q75.96 352.08 76.24 352.55Q76.52 353.02 76.52 353.68L76.52 358.00L75.50 358.00L75.50 357.07L75.41 357.07Q75.21 357.40 74.92 357.64Q74.64 357.87 74.28 357.99Q73.93 358.11 73.50 358.11ZM78.69 360.21Q78.59 360.21 78.47 360.21Q78.34 360.20 78.24 360.18L78.24 359.34Q78.33 359.36 78.44 359.37Q78.55 359.37 78.66 359.37Q79.09 359.37 79.37 359.15Q79.65 358.93 79.82 358.38L79.94 358.01L77.60 351.68L78.69 351.68L80.63 357.52L80.23 356.88L80.71 356.88L80.31 357.52L82.25 351.68L83.32 351.68L80.85 358.39Q80.59 359.10 80.31 359.49Q80.02 359.89 79.64 360.05Q79.25 360.21 78.69 360.21ZM87.01 358.11Q86.11 358.11 85.46 357.71Q84.81 357.31 84.46 356.58Q84.12 355.86 84.12 354.87L84.12 354.86Q84.12 353.88 84.46 353.14Q84.81 352.40 85.45 351.99Q86.09 351.57 86.95 351.57Q87.81 351.57 88.42 351.97Q89.04 352.37 89.37 353.08Q89.71 353.79 89.71 354.74L89.71 355.13L84.64 355.13L84.64 354.32L89.18 354.32L88.68 355.06L88.68 354.66Q88.68 353.92 88.46 353.44Q88.23 352.96 87.84 352.72Q87.45 352.48 86.94 352.48Q86.43 352.48 86.03 352.73Q85.63 352.98 85.39 353.46Q85.16 353.95 85.16 354.66L85.16 355.06Q85.16 355.74 85.39 356.22Q85.62 356.69 86.04 356.95Q86.46 357.20 87.03 357.20Q87.46 357.20 87.78 357.09Q88.09 356.97 88.30 356.79Q88.50 356.61 88.59 356.42L88.61 356.37L89.63 356.37L89.62 356.41Q89.54 356.73 89.33 357.04Q89.12 357.34 88.79 357.58Q88.46 357.82 88.01 357.97Q87.57 358.11 87.01 358.11ZM91.29 358.00L91.29 351.68L92.31 351.68L92.31 352.62L92.40 352.62Q92.58 352.12 93.02 351.85Q93.45 351.57 94.09 351.57Q94.23 351.57 94.38 351.59Q94.52 351.60 94.60 351.61L94.60 352.60Q94.44 352.57 94.29 352.56Q94.14 352.54 93.97 352.54Q93.48 352.54 93.11 352.74Q92.73 352.93 92.52 353.28Q92.31 353.62 92.31 354.09L92.31 358.00ZM102.06 358.20Q101.12 358.20 100.45 357.66Q99.79 357.12 99.43 356.13Q99.07 355.13 99.07 353.78L99.07 353.76Q99.07 352.40 99.43 351.41Q99.79 350.42 100.45 349.88Q101.12 349.35 102.06 349.35Q102.99 349.35 103.66 349.88Q104.33 350.42 104.69 351.41Q105.05 352.40 105.05 353.76L105.05 353.78Q105.05 355.13 104.69 356.13Q104.33 357.12 103.66 357.66Q102.99 358.20 102.06 358.20ZM102.06 357.28Q102.67 357.28 103.10 356.85Q103.53 356.42 103.76 355.64Q103.99 354.85 103.99 353.78L103.99 353.76Q103.99 352.69 103.76 351.90Q103.53 351.12 103.10 350.70Q102.67 350.27 102.06 350.27Q101.45 350.27 101.02 350.70Q100.59 351.12 100.36 351.90Q100.13 352.69 100.13 353.76L100.13 353.78Q100.13 354.85 100.36 355.64Q100.59 356.42 101.02 356.85Q101.45 357.28 102.06 357.28ZM109.69 355.07L109.69 354.12L119.23 354.12L119.23 355.07ZM127.17 358.11Q126.73 358.11 126.36 357.98Q125.98 357.84 125.69 357.59Q125.39 357.34 125.20 356.99L125.11 356.99L125.11 358.00L124.09 358.00L124.09 349.18L125.11 349.18L125.11 352.68L125.20 352.68Q125.38 352.34 125.67 352.09Q125.97 351.85 126.35 351.71Q126.74 351.57 127.17 351.57Q127.97 351.57 128.57 351.98Q129.16 352.38 129.49 353.11Q129.82 353.85 129.82 354.84L129.82 354.85Q129.82 355.83 129.49 356.57Q129.16 357.30 128.57 357.71Q127.97 358.11 127.17 358.11ZM126.94 357.21Q127.52 357.21 127.93 356.92Q128.34 356.64 128.56 356.11Q128.78 355.58 128.78 354.85L128.78 354.84Q128.78 354.10 128.56 353.57Q128.34 353.04 127.93 352.76Q127.52 352.47 126.94 352.47Q126.36 352.47 125.95 352.76Q125.53 353.05 125.31 353.58Q125.08 354.10 125.08 354.84L125.08 354.85Q125.08 355.57 125.31 356.10Q125.53 356.63 125.95 356.92Q126.36 357.21 126.94 357.21ZM133.98 358.11Q133.08 358.11 132.43 357.71Q131.78 357.31 131.43 356.58Q131.08 355.86 131.08 354.87L131.08 354.86Q131.08 353.88 131.43 353.14Q131.78 352.40 132.42 351.99Q133.06 351.57 133.91 351.57Q134.78 351.57 135.39 351.97Q136.01 352.37 136.34 353.08Q136.67 353.79 136.67 354.74L136.67 355.13L131.61 355.13L131.61 354.32L136.15 354.32L135.65 355.06L135.65 354.66Q135.65 353.92 135.43 353.44Q135.20 352.96 134.81 352.72Q134.42 352.48 133.91 352.48Q133.40 352.48 133.00 352.73Q132.60 352.98 132.36 353.46Q132.13 353.95 132.13 354.66L132.13 355.06Q132.13 355.74 132.36 356.22Q132.58 356.69 133.01 356.95Q133.43 357.20 134.00 357.20Q134.43 357.20 134.75 357.09Q135.06 356.97 135.27 356.79Q135.47 356.61 135.55 356.42L135.58 356.37L136.60 356.37L136.59 356.41Q136.50 356.73 136.30 357.04Q136.09 357.34 135.76 357.58Q135.43 357.82 134.98 357.97Q134.54 358.11 133.98 358.11ZM139.99 358.11Q139.39 358.11 138.92 357.88Q138.44 357.65 138.16 357.23Q137.88 356.81 137.88 356.24L137.88 356.22Q137.88 355.66 138.15 355.26Q138.42 354.86 138.94 354.63Q139.45 354.40 140.18 354.36L142.50 354.22L142.50 355.04L140.31 355.18Q139.59 355.22 139.25 355.47Q138.92 355.73 138.92 356.20L138.92 356.21Q138.92 356.69 139.29 356.96Q139.65 357.23 140.20 357.23Q140.72 357.23 141.13 357.02Q141.53 356.81 141.76 356.45Q141.99 356.10 141.99 355.64L141.99 353.68Q141.99 353.09 141.64 352.78Q141.29 352.47 140.58 352.47Q140.01 352.47 139.64 352.68Q139.28 352.88 139.16 353.25L139.15 353.27L138.13 353.27L138.14 353.23Q138.22 352.73 138.55 352.36Q138.88 351.99 139.41 351.78Q139.94 351.57 140.61 351.57Q141.38 351.57 141.92 351.82Q142.46 352.08 142.74 352.55Q143.01 353.02 143.01 353.68L143.01 358.00L141.99 358.00L141.99 357.07L141.90 357.07Q141.70 357.40 141.42 357.64Q141.13 357.87 140.78 357.99Q140.42 358.11 139.99 358.11ZM144.88 358.00L144.88 351.68L145.90 351.68L145.90 352.64L145.99 352.64Q146.20 352.13 146.64 351.85Q147.07 351.57 147.70 351.57Q148.12 351.57 148.46 351.71Q148.80 351.85 149.05 352.10Q149.29 352.35 149.44 352.68L149.54 352.68Q149.71 352.35 149.99 352.10Q150.28 351.85 150.66 351.71Q151.04 351.57 151.47 351.57Q152.11 351.57 152.56 351.81Q153.01 352.05 153.24 352.51Q153.48 352.97 153.48 353.63L153.48 358.00L152.46 358.00L152.46 353.87Q152.46 353.40 152.32 353.09Q152.17 352.79 151.88 352.63Q151.59 352.47 151.14 352.47Q150.70 352.47 150.37 352.67Q150.04 352.87 149.86 353.20Q149.68 353.54 149.68 353.94L149.68 358.00L148.66 358.00L148.66 353.71Q148.66 353.34 148.50 353.06Q148.34 352.78 148.04 352.63Q147.75 352.47 147.35 352.47Q146.94 352.47 146.61 352.69Q146.28 352.91 146.09 353.27Q145.90 353.64 145.90 354.09L145.90 358.00ZM160.86 358.11Q160.16 358.11 159.62 357.90Q159.08 357.68 158.75 357.30Q158.43 356.91 158.37 356.39L158.37 356.39L159.41 356.39L159.41 356.39Q159.54 356.78 159.92 357.02Q160.29 357.26 160.90 357.26Q161.32 357.26 161.65 357.14Q161.97 357.01 162.16 356.79Q162.35 356.57 162.35 356.28L162.35 356.27Q162.35 355.95 162.09 355.72Q161.83 355.50 161.25 355.36L160.27 355.12Q159.68 354.98 159.30 354.76Q158.92 354.53 158.73 354.20Q158.55 353.87 158.55 353.42L158.55 353.41Q158.55 352.88 158.86 352.47Q159.17 352.05 159.70 351.81Q160.23 351.57 160.90 351.57Q161.56 351.57 162.08 351.78Q162.59 351.99 162.90 352.37Q163.22 352.75 163.29 353.27L163.29 353.27L162.29 353.27L162.29 353.27Q162.19 352.89 161.83 352.66Q161.47 352.42 160.90 352.42Q160.52 352.42 160.23 352.54Q159.94 352.66 159.77 352.87Q159.60 353.08 159.60 353.37L159.60 353.38Q159.60 353.59 159.71 353.75Q159.82 353.92 160.05 354.04Q160.29 354.16 160.66 354.26L161.63 354.49Q162.23 354.63 162.62 354.86Q163.01 355.09 163.20 355.42Q163.39 355.74 163.39 356.20L163.39 356.21Q163.39 356.77 163.06 357.20Q162.72 357.63 162.15 357.87Q161.58 358.11 160.86 358.11ZM167.55 358.11Q166.65 358.11 166.00 357.71Q165.36 357.31 165.01 356.58Q164.66 355.86 164.66 354.87L164.66 354.86Q164.66 353.88 165.01 353.14Q165.36 352.40 165.99 351.99Q166.63 351.57 167.49 351.57Q168.35 351.57 168.97 351.97Q169.59 352.37 169.92 353.08Q170.25 353.79 170.25 354.74L170.25 355.13L165.19 355.13L165.19 354.32L169.73 354.32L169.22 355.06L169.22 354.66Q169.22 353.92 169.00 353.44Q168.78 352.96 168.38 352.72Q167.99 352.48 167.48 352.48Q166.97 352.48 166.57 352.73Q166.17 352.98 165.94 353.46Q165.70 353.95 165.70 354.66L165.70 355.06Q165.70 355.74 165.93 356.22Q166.16 356.69 166.58 356.95Q167.00 357.20 167.58 357.20Q168.00 357.20 168.32 357.09Q168.64 356.97 168.84 356.79Q169.05 356.61 169.13 356.42L169.15 356.37L170.17 356.37L170.16 356.41Q170.08 356.73 169.87 357.04Q169.66 357.34 169.33 357.58Q169.01 357.82 168.56 357.97Q168.11 358.11 167.55 358.11ZM173.56 358.11Q172.97 358.11 172.49 357.88Q172.01 357.65 171.73 357.23Q171.46 356.81 171.46 356.24L171.46 356.22Q171.46 355.66 171.72 355.26Q171.99 354.86 172.51 354.63Q173.03 354.40 173.76 354.36L176.08 354.22L176.08 355.04L173.88 355.18Q173.16 355.22 172.83 355.47Q172.50 355.73 172.50 356.20L172.50 356.21Q172.50 356.69 172.86 356.96Q173.22 357.23 173.78 357.23Q174.30 357.23 174.70 357.02Q175.11 356.81 175.34 356.45Q175.57 356.10 175.57 355.64L175.57 353.68Q175.57 353.09 175.21 352.78Q174.86 352.47 174.15 352.47Q173.58 352.47 173.22 352.68Q172.86 352.88 172.73 353.25L172.73 353.27L171.71 353.27L171.71 353.23Q171.79 352.73 172.13 352.36Q172.46 351.99 172.98 351.78Q173.51 351.57 174.19 351.57Q174.96 351.57 175.50 351.82Q176.03 352.08 176.31 352.55Q176.59 353.02 176.59 353.68L176.59 358.00L175.57 358.00L175.57 357.07L175.47 357.07Q175.28 357.40 174.99 357.64Q174.71 357.87 174.35 357.99Q173.99 358.11 173.56 358.11ZM178.45 358.00L178.45 351.68L179.47 351.68L179.47 352.62L179.56 352.62Q179.75 352.12 180.18 351.85Q180.61 351.57 181.25 351.57Q181.40 351.57 181.54 351.59Q181.69 351.60 181.76 351.61L181.76 352.60Q181.60 352.57 181.45 352.56Q181.30 352.54 181.13 352.54Q180.65 352.54 180.27 352.74Q179.90 352.93 179.68 353.28Q179.47 353.62 179.47 354.09L179.47 358.00ZM185.43 358.11Q184.54 358.11 183.89 357.71Q183.24 357.30 182.89 356.56Q182.53 355.83 182.53 354.82L182.53 354.81Q182.53 353.83 182.88 353.10Q183.24 352.38 183.89 351.97Q184.54 351.57 185.42 351.57Q186.19 351.57 186.75 351.84Q187.30 352.11 187.64 352.57Q187.97 353.02 188.07 353.58L188.07 353.62L187.06 353.62L187.05 353.60Q186.94 353.13 186.52 352.80Q186.10 352.47 185.42 352.47Q184.86 352.47 184.44 352.76Q184.02 353.05 183.80 353.57Q183.57 354.10 183.57 354.81L183.57 354.82Q183.57 355.55 183.80 356.09Q184.03 356.62 184.45 356.92Q184.86 357.21 185.42 357.21Q186.06 357.21 186.47 356.93Q186.87 356.66 187.05 356.13L187.06 356.10L188.07 356.09L188.05 356.15Q187.93 356.72 187.60 357.17Q187.27 357.61 186.73 357.86Q186.19 358.11 185.43 358.11ZM189.62 358.00L189.62 349.18L190.64 349.18L190.64 352.63L190.73 352.63Q190.97 352.13 191.42 351.85Q191.88 351.57 192.57 351.57Q193.28 351.57 193.77 351.84Q194.27 352.12 194.52 352.64Q194.78 353.16 194.78 353.91L194.78 358.00L193.76 358.00L193.76 354.16Q193.76 353.30 193.40 352.89Q193.04 352.47 192.29 352.47Q191.78 352.47 191.41 352.69Q191.04 352.91 190.84 353.31Q190.64 353.71 190.64 354.26L190.64 358.00ZM196.36 360.15L196.87 356.82L198.04 356.82L197.12 360.15ZM206.14 358.11Q205.23 358.11 204.59 357.71Q203.94 357.31 203.59 356.58Q203.24 355.86 203.24 354.87L203.24 354.86Q203.24 353.88 203.59 353.14Q203.94 352.40 204.58 351.99Q205.22 351.57 206.07 351.57Q206.93 351.57 207.55 351.97Q208.17 352.37 208.50 353.08Q208.83 353.79 208.83 354.74L208.83 355.13L203.77 355.13L203.77 354.32L208.31 354.32L207.81 355.06L207.81 354.66Q207.81 353.92 207.58 353.44Q207.36 352.96 206.97 352.72Q206.58 352.48 206.07 352.48Q205.56 352.48 205.16 352.73Q204.75 352.98 204.52 353.46Q204.29 353.95 204.29 354.66L204.29 355.06Q204.29 355.74 204.51 356.22Q204.74 356.69 205.16 356.95Q205.59 357.20 206.16 357.20Q206.59 357.20 206.90 357.09Q207.22 356.97 207.43 356.79Q207.63 356.61 207.71 356.42L207.74 356.37L208.76 356.37L208.74 356.41Q208.66 356.73 208.45 357.04Q208.25 357.34 207.92 357.58Q207.59 357.82 207.14 357.97Q206.69 358.11 206.14 358.11ZM210.84 358.00L210.84 352.53L209.79 352.53L209.79 351.68L210.84 351.68L210.84 350.98Q210.84 350.35 211.04 349.93Q211.25 349.52 211.66 349.32Q212.07 349.12 212.67 349.12Q212.86 349.12 213.02 349.13Q213.19 349.15 213.35 349.18L213.35 349.99Q213.26 349.97 213.13 349.97Q213.01 349.96 212.88 349.96Q212.33 349.96 212.09 350.22Q211.86 350.49 211.86 351.01L211.86 351.68L213.29 351.68L213.29 352.53L211.86 352.53L211.86 358.00ZM217.94 356.65L217.94 355.70L223.98 355.70L223.98 356.65ZM217.94 353.49L217.94 352.54L223.98 352.54L223.98 353.49ZM231.64 358.11Q230.74 358.11 230.09 357.71Q229.45 357.31 229.10 356.58Q228.75 355.86 228.75 354.87L228.75 354.86Q228.75 353.88 229.10 353.14Q229.45 352.40 230.08 351.99Q230.72 351.57 231.58 351.57Q232.44 351.57 233.06 351.97Q233.68 352.37 234.01 353.08Q234.34 353.79 234.34 354.74L234.34 355.13L229.28 355.13L229.28 354.32L233.82 354.32L233.31 355.06L233.31 354.66Q233.31 353.92 233.09 353.44Q232.87 352.96 232.47 352.72Q232.08 352.48 231.57 352.48Q231.06 352.48 230.66 352.73Q230.26 352.98 230.03 353.46Q229.79 353.95 229.79 354.66L229.79 355.06Q229.79 355.74 230.02 356.22Q230.25 356.69 230.67 356.95Q231.09 357.20 231.67 357.20Q232.09 357.20 232.41 357.09Q232.73 356.97 232.93 356.79Q233.14 356.61 233.22 356.42L233.24 356.37L234.26 356.37L234.25 356.41Q234.17 356.73 233.96 357.04Q233.75 357.34 233.42 357.58Q233.10 357.82 232.65 357.97Q232.20 358.11 231.64 358.11ZM236.34 358.00L236.34 352.53L235.29 352.53L235.29 351.68L236.34 351.68L236.34 350.98Q236.34 350.35 236.55 349.93Q236.76 349.52 237.17 349.32Q237.58 349.12 238.18 349.12Q238.36 349.12 238.53 349.13Q238.70 349.15 238.86 349.18L238.86 349.99Q238.76 349.97 238.64 349.97Q238.52 349.96 238.38 349.96Q237.84 349.96 237.60 350.22Q237.36 350.49 237.36 351.01L237.36 351.68L238.80 351.68L238.80 352.53L237.36 352.53L237.36 358.00ZM243.16 358.20Q242.24 358.20 241.55 357.90Q240.86 357.60 240.46 357.07Q240.06 356.54 239.99 355.85L239.99 355.79L241.04 355.79L241.05 355.85Q241.09 356.27 241.37 356.58Q241.66 356.89 242.13 357.06Q242.61 357.23 243.22 357.23Q243.79 357.23 244.24 357.04Q244.69 356.86 244.95 356.53Q245.21 356.20 245.21 355.77L245.21 355.77Q245.21 355.24 244.82 354.88Q244.43 354.52 243.56 354.33L242.62 354.12Q241.78 353.93 241.24 353.61Q240.71 353.28 240.45 352.82Q240.20 352.35 240.20 351.74L240.20 351.74Q240.20 351.03 240.58 350.49Q240.96 349.96 241.63 349.65Q242.30 349.35 243.17 349.35Q244.02 349.35 244.67 349.65Q245.32 349.95 245.70 350.46Q246.09 350.97 246.13 351.60L246.13 351.68L245.08 351.68L245.07 351.61Q245.01 351.23 244.76 350.94Q244.52 350.65 244.11 350.48Q243.70 350.31 243.14 350.32Q242.62 350.32 242.20 350.48Q241.77 350.65 241.52 350.95Q241.28 351.26 241.28 351.71L241.28 351.71Q241.28 352.05 241.44 352.31Q241.60 352.58 241.96 352.77Q242.31 352.97 242.89 353.10L243.82 353.31Q244.71 353.50 245.25 353.81Q245.79 354.12 246.04 354.57Q246.29 355.02 246.29 355.63L246.29 355.63Q246.29 356.42 245.90 357.00Q245.51 357.57 244.81 357.89Q244.11 358.20 243.16 358.20ZM250.49 358.11Q249.58 358.11 248.94 357.71Q248.29 357.31 247.94 356.58Q247.59 355.86 247.59 354.87L247.59 354.86Q247.59 353.88 247.94 353.14Q248.29 352.40 248.93 351.99Q249.57 351.57 250.42 351.57Q251.28 351.57 251.90 351.97Q252.52 352.37 252.85 353.08Q253.18 353.79 253.18 354.74L253.18 355.13L248.12 355.13L248.12 354.32L252.66 354.32L252.16 355.06L252.16 354.66Q252.16 353.92 251.93 353.44Q251.71 352.96 251.32 352.72Q250.93 352.48 250.42 352.48Q249.91 352.48 249.50 352.73Q249.10 352.98 248.87 353.46Q248.63 353.95 248.63 354.66L248.63 355.06Q248.63 355.74 248.86 356.22Q249.09 356.69 249.51 356.95Q249.94 357.20 250.51 357.20Q250.94 357.20 251.25 357.09Q251.57 356.97 251.78 356.79Q251.98 356.61 252.06 356.42L252.09 356.37L253.11 356.37L253.09 356.41Q253.01 356.73 252.80 357.04Q252.60 357.34 252.27 357.58Q251.94 357.82 251.49 357.97Q251.04 358.11 250.49 358.11ZM256.50 358.11Q255.90 358.11 255.42 357.88Q254.95 357.65 254.67 357.23Q254.39 356.81 254.39 356.24L254.39 356.22Q254.39 355.66 254.66 355.26Q254.93 354.86 255.44 354.63Q255.96 354.40 256.69 354.36L259.01 354.22L259.01 355.04L256.81 355.18Q256.09 355.22 255.76 355.47Q255.43 355.73 255.43 356.20L255.43 356.21Q255.43 356.69 255.79 356.96Q256.16 357.23 256.71 357.23Q257.23 357.23 257.63 357.02Q258.04 356.81 258.27 356.45Q258.50 356.10 258.50 355.64L258.50 353.68Q258.50 353.09 258.15 352.78Q257.79 352.47 257.08 352.47Q256.52 352.47 256.15 352.68Q255.79 352.88 255.67 353.25L255.66 353.27L254.64 353.27L254.65 353.23Q254.73 352.73 255.06 352.36Q255.39 351.99 255.92 351.78Q256.45 351.57 257.12 351.57Q257.89 351.57 258.43 351.82Q258.96 352.08 259.24 352.55Q259.52 353.02 259.52 353.68L259.52 358.00L258.50 358.00L258.50 357.07L258.41 357.07Q258.21 357.40 257.92 357.64Q257.64 357.87 257.28 357.99Q256.93 358.11 256.50 358.11ZM261.38 358.00L261.38 351.68L262.40 351.68L262.40 352.62L262.50 352.62Q262.68 352.12 263.11 351.85Q263.55 351.57 264.19 351.57Q264.33 351.57 264.48 351.59Q264.62 351.60 264.70 351.61L264.70 352.60Q264.54 352.57 264.39 352.56Q264.24 352.54 264.07 352.54Q263.58 352.54 263.21 352.74Q262.83 352.93 262.62 353.28Q262.40 353.62 262.40 354.09L262.40 358.00ZM268.36 358.11Q267.48 358.11 266.83 357.71Q266.18 357.30 265.82 356.56Q265.46 355.83 265.46 354.82L265.46 354.81Q265.46 353.83 265.82 353.10Q266.17 352.38 266.82 351.97Q267.47 351.57 268.36 351.57Q269.12 351.57 269.68 351.84Q270.24 352.11 270.57 352.57Q270.91 353.02 271.00 353.58L271.01 353.62L269.99 353.62L269.99 353.60Q269.87 353.13 269.45 352.80Q269.04 352.47 268.36 352.47Q267.79 352.47 267.37 352.76Q266.96 353.05 266.73 353.57Q266.51 354.10 266.51 354.81L266.51 354.82Q266.51 355.55 266.73 356.09Q266.96 356.62 267.38 356.92Q267.79 357.21 268.36 357.21Q269.00 357.21 269.40 356.93Q269.80 356.66 269.98 356.13L269.99 356.10L271.00 356.09L270.99 356.15Q270.86 356.72 270.53 357.17Q270.20 357.61 269.66 357.86Q269.12 358.11 268.36 358.11ZM272.55 358.00L272.55 349.18L273.57 349.18L273.57 352.63L273.67 352.63Q273.91 352.13 274.36 351.85Q274.81 351.57 275.51 351.57Q276.21 351.57 276.71 351.84Q277.20 352.12 277.46 352.64Q277.71 353.16 277.71 353.91L277.71 358.00L276.70 358.00L276.70 354.16Q276.70 353.30 276.33 352.89Q275.97 352.47 275.22 352.47Q274.71 352.47 274.35 352.69Q273.98 352.91 273.77 353.31Q273.57 353.71 273.57 354.26L273.57 358.00Z"/>

  <!-- Graph edges -->
  <g stroke="#2c2c2e" stroke-width="1" fill="none">
    <path d="M150 158 L430 144 L700 162"/>
    <path d="M120 290 L280 264 L430 292 L570 266 L740 294"/>
    <path d="M280 264 L570 266"/>
    <path d="M110 408 L210 438 L310 394 L410 440 L510 400 L620 436 L700 392 L760 430"/>
    <path d="M310 394 L510 400"/>
    <path d="M510 400 L700 392"/>
    <path d="M430 144 L430 292"/>
    <path d="M570 266 L510 400"/>
  </g>

  <!-- Nodes -->
  <g fill="#48484a">
    <circle cx="150" cy="158" r="4"/><circle cx="430" cy="144" r="4"/><circle cx="700" cy="162" r="4"/>
    <circle cx="120" cy="290" r="4"/><circle cx="280" cy="264" r="4"/><circle cx="430" cy="292" r="4"/><circle cx="570" cy="266" r="4"/><circle cx="740" cy="294" r="4"/>
    <circle cx="110" cy="408" r="4"/><circle cx="210" cy="438" r="4"/><circle cx="310" cy="394" r="4"/><circle cx="410" cy="440" r="4"/><circle cx="510" cy="400" r="4"/><circle cx="620" cy="436" r="4"/><circle cx="760" cy="430" r="4"/>
  </g>

  <!-- Captions -->
  <path fill="#86868b" d="M122.83 182.11Q121.92 182.11 121.28 181.71Q120.63 181.31 120.28 180.58Q119.93 179.86 119.93 178.87L119.93 178.86Q119.93 177.88 120.28 177.14Q120.63 176.40 121.27 175.99Q121.91 175.57 122.76 175.57Q123.62 175.57 124.24 175.97Q124.86 176.37 125.19 177.08Q125.52 177.79 125.52 178.74L125.52 179.13L120.46 179.13L120.46 178.32L125.00 178.32L124.50 179.06L124.50 178.66Q124.50 177.92 124.27 177.44Q124.05 176.96 123.66 176.72Q123.27 176.48 122.76 176.48Q122.25 176.48 121.85 176.73Q121.44 176.98 121.21 177.46Q120.98 177.95 120.98 178.66L120.98 179.06Q120.98 179.74 121.20 180.22Q121.43 180.69 121.85 180.95Q122.28 181.20 122.85 181.20Q123.28 181.20 123.59 181.09Q123.91 180.97 124.12 180.79Q124.32 180.61 124.40 180.42L124.43 180.37L125.45 180.37L125.43 180.41Q125.35 180.73 125.14 181.04Q124.94 181.34 124.61 181.58Q124.28 181.82 123.83 181.97Q123.38 182.11 122.83 182.11ZM127.10 182.00L127.10 175.68L128.12 175.68L128.12 176.63L128.22 176.63Q128.46 176.13 128.91 175.85Q129.36 175.57 130.06 175.57Q131.12 175.57 131.70 176.18Q132.27 176.79 132.27 177.91L132.27 182.00L131.25 182.00L131.25 178.16Q131.25 177.30 130.89 176.89Q130.53 176.47 129.77 176.47Q129.27 176.47 128.90 176.69Q128.53 176.91 128.33 177.31Q128.12 177.71 128.12 178.26L128.12 182.00ZM136.35 182.05Q135.38 182.05 134.94 181.65Q134.51 181.26 134.51 180.36L134.51 176.53L133.51 176.53L133.51 175.68L134.51 175.68L134.51 174.05L135.56 174.05L135.56 175.68L136.94 175.68L136.94 176.53L135.56 176.53L135.56 180.10Q135.56 180.66 135.77 180.90Q135.98 181.14 136.47 181.14Q136.61 181.14 136.71 181.14Q136.80 181.13 136.94 181.12L136.94 181.99Q136.80 182.01 136.65 182.03Q136.50 182.05 136.35 182.05ZM138.47 182.00L138.47 175.68L139.49 175.68L139.49 176.62L139.58 176.62Q139.76 176.12 140.19 175.85Q140.63 175.57 141.27 175.57Q141.41 175.57 141.56 175.59Q141.70 175.60 141.78 175.61L141.78 176.60Q141.62 176.57 141.47 176.56Q141.32 176.54 141.15 176.54Q140.66 176.54 140.29 176.74Q139.91 176.93 139.70 177.28Q139.49 177.62 139.49 178.09L139.49 182.00ZM143.63 184.21Q143.53 184.21 143.41 184.21Q143.29 184.20 143.18 184.18L143.18 183.34Q143.28 183.36 143.39 183.37Q143.50 183.37 143.60 183.37Q144.04 183.37 144.32 183.15Q144.59 182.93 144.76 182.38L144.88 182.01L142.54 175.68L143.63 175.68L145.58 181.52L145.18 180.88L145.66 180.88L145.25 181.52L147.19 175.68L148.26 175.68L145.80 182.39Q145.54 183.10 145.25 183.49Q144.96 183.89 144.58 184.05Q144.20 184.21 143.63 184.21ZM152.99 184.11L152.99 175.68L154.01 175.68L154.01 176.69L154.10 176.69Q154.29 176.34 154.59 176.09Q154.88 175.84 155.25 175.71Q155.63 175.57 156.07 175.57Q156.87 175.57 157.47 175.98Q158.06 176.39 158.39 177.12Q158.72 177.85 158.72 178.84L158.72 178.85Q158.72 179.84 158.39 180.57Q158.06 181.30 157.47 181.71Q156.87 182.11 156.07 182.11Q155.63 182.11 155.25 181.97Q154.87 181.84 154.57 181.59Q154.27 181.34 154.10 181.00L154.01 181.00L154.01 184.11ZM155.83 181.21Q156.41 181.21 156.82 180.92Q157.23 180.64 157.45 180.11Q157.67 179.58 157.67 178.85L157.67 178.84Q157.67 178.10 157.45 177.57Q157.23 177.04 156.82 176.76Q156.41 176.47 155.83 176.47Q155.26 176.47 154.84 176.76Q154.43 177.05 154.20 177.58Q153.98 178.10 153.98 178.84L153.98 178.85Q153.98 179.57 154.20 180.10Q154.43 180.63 154.84 180.92Q155.26 181.21 155.83 181.21ZM162.91 182.11Q162.01 182.11 161.36 181.72Q160.70 181.32 160.35 180.59Q159.99 179.86 159.99 178.85L159.99 178.84Q159.99 177.82 160.35 177.09Q160.70 176.36 161.36 175.96Q162.01 175.57 162.91 175.57Q163.81 175.57 164.46 175.96Q165.11 176.36 165.46 177.09Q165.82 177.82 165.82 178.84L165.82 178.85Q165.82 179.86 165.46 180.59Q165.11 181.32 164.46 181.72Q163.81 182.11 162.91 182.11ZM162.91 181.21Q163.50 181.21 163.92 180.93Q164.34 180.65 164.55 180.12Q164.77 179.59 164.77 178.85L164.77 178.84Q164.77 178.09 164.55 177.56Q164.34 177.03 163.92 176.75Q163.50 176.47 162.91 176.47Q162.31 176.47 161.89 176.75Q161.48 177.03 161.26 177.56Q161.04 178.09 161.04 178.84L161.04 178.85Q161.04 179.59 161.26 180.12Q161.48 180.65 161.89 180.93Q162.31 181.21 162.91 181.21ZM167.42 182.00L167.42 175.68L168.44 175.68L168.44 182.00ZM167.94 174.46Q167.65 174.46 167.44 174.26Q167.24 174.05 167.24 173.76Q167.24 173.47 167.44 173.26Q167.65 173.06 167.94 173.06Q168.23 173.06 168.44 173.26Q168.64 173.47 168.64 173.76Q168.64 174.05 168.44 174.26Q168.23 174.46 167.94 174.46ZM170.36 182.00L170.36 175.68L171.38 175.68L171.38 176.63L171.48 176.63Q171.72 176.13 172.17 175.85Q172.62 175.57 173.32 175.57Q174.38 175.57 174.96 176.18Q175.53 176.79 175.53 177.91L175.53 182.00L174.51 182.00L174.51 178.16Q174.51 177.30 174.15 176.89Q173.79 176.47 173.03 176.47Q172.53 176.47 172.16 176.69Q171.79 176.91 171.59 177.31Q171.38 177.71 171.38 178.26L171.38 182.00ZM179.61 182.05Q178.64 182.05 178.20 181.65Q177.76 181.26 177.76 180.36L177.76 176.53L176.77 176.53L176.77 175.68L177.76 175.68L177.76 174.05L178.82 174.05L178.82 175.68L180.20 175.68L180.20 176.53L178.82 176.53L178.82 180.10Q178.82 180.66 179.03 180.90Q179.24 181.14 179.73 181.14Q179.87 181.14 179.97 181.14Q180.06 181.13 180.20 181.12L180.20 181.99Q180.06 182.01 179.91 182.03Q179.76 182.05 179.61 182.05Z"/>
  <path fill="#86868b" d="M652.95 448.00L652.95 441.68L653.97 441.68L653.97 442.63L654.06 442.63Q654.30 442.13 654.75 441.85Q655.21 441.57 655.90 441.57Q656.97 441.57 657.54 442.18Q658.11 442.79 658.11 443.91L658.11 448.00L657.09 448.00L657.09 444.16Q657.09 443.30 656.73 442.89Q656.37 442.47 655.62 442.47Q655.11 442.47 654.74 442.69Q654.37 442.91 654.17 443.31Q653.97 443.71 653.97 444.26L653.97 448.00ZM662.53 448.11Q661.63 448.11 660.98 447.71Q660.33 447.31 659.98 446.58Q659.63 445.86 659.63 444.87L659.63 444.86Q659.63 443.88 659.98 443.14Q660.33 442.40 660.97 441.99Q661.61 441.57 662.46 441.57Q663.33 441.57 663.94 441.97Q664.56 442.37 664.89 443.08Q665.22 443.79 665.22 444.74L665.22 445.13L660.16 445.13L660.16 444.32L664.70 444.32L664.20 445.06L664.20 444.66Q664.20 443.92 663.98 443.44Q663.75 442.96 663.36 442.72Q662.97 442.48 662.46 442.48Q661.95 442.48 661.55 442.73Q661.15 442.98 660.91 443.46Q660.68 443.95 660.68 444.66L660.68 445.06Q660.68 445.74 660.91 446.22Q661.13 446.69 661.56 446.95Q661.98 447.20 662.55 447.20Q662.98 447.20 663.30 447.09Q663.61 446.97 663.82 446.79Q664.02 446.61 664.11 446.42L664.13 446.37L665.15 446.37L665.14 446.41Q665.05 446.73 664.85 447.04Q664.64 447.34 664.31 447.58Q663.98 447.82 663.53 447.97Q663.09 448.11 662.53 448.11ZM668.54 448.11Q667.94 448.11 667.47 447.88Q666.99 447.65 666.71 447.23Q666.43 446.81 666.43 446.24L666.43 446.22Q666.43 445.66 666.70 445.26Q666.97 444.86 667.49 444.63Q668.00 444.40 668.73 444.36L671.05 444.22L671.05 445.04L668.86 445.18Q668.14 445.22 667.81 445.47Q667.47 445.73 667.47 446.20L667.47 446.21Q667.47 446.69 667.84 446.96Q668.20 447.23 668.75 447.23Q669.27 447.23 669.68 447.02Q670.08 446.81 670.31 446.45Q670.54 446.10 670.54 445.64L670.54 443.68Q670.54 443.09 670.19 442.78Q669.84 442.47 669.13 442.47Q668.56 442.47 668.20 442.68Q667.83 442.88 667.71 443.25L667.70 443.27L666.68 443.27L666.69 443.23Q666.77 442.73 667.10 442.36Q667.43 441.99 667.96 441.78Q668.49 441.57 669.16 441.57Q669.94 441.57 670.47 441.82Q671.01 442.08 671.29 442.55Q671.56 443.02 671.56 443.68L671.56 448.00L670.54 448.00L670.54 447.07L670.45 447.07Q670.25 447.40 669.97 447.64Q669.68 447.87 669.33 447.99Q668.97 448.11 668.54 448.11ZM673.43 448.00L673.43 441.68L674.45 441.68L674.45 442.62L674.54 442.62Q674.72 442.12 675.16 441.85Q675.59 441.57 676.23 441.57Q676.38 441.57 676.52 441.59Q676.66 441.60 676.74 441.61L676.74 442.60Q676.58 442.57 676.43 442.56Q676.28 442.54 676.11 442.54Q675.62 442.54 675.25 442.74Q674.88 442.93 674.66 443.28Q674.45 443.62 674.45 444.09L674.45 448.00ZM680.40 448.11Q679.50 448.11 678.85 447.71Q678.20 447.31 677.85 446.58Q677.51 445.86 677.51 444.87L677.51 444.86Q677.51 443.88 677.85 443.14Q678.20 442.40 678.84 441.99Q679.48 441.57 680.34 441.57Q681.20 441.57 681.82 441.97Q682.43 442.37 682.76 443.08Q683.10 443.79 683.10 444.74L683.10 445.13L678.03 445.13L678.03 444.32L682.57 444.32L682.07 445.06L682.07 444.66Q682.07 443.92 681.85 443.44Q681.62 442.96 681.23 442.72Q680.84 442.48 680.33 442.48Q679.82 442.48 679.42 442.73Q679.02 442.98 678.78 443.46Q678.55 443.95 678.55 444.66L678.55 445.06Q678.55 445.74 678.78 446.22Q679.01 446.69 679.43 446.95Q679.85 447.20 680.42 447.20Q680.85 447.20 681.17 447.09Q681.48 446.97 681.69 446.79Q681.89 446.61 681.98 446.42L682.00 446.37L683.02 446.37L683.01 446.41Q682.93 446.73 682.72 447.04Q682.51 447.34 682.18 447.58Q681.85 447.82 681.41 447.97Q680.96 448.11 680.40 448.11ZM686.85 448.11Q686.14 448.11 685.60 447.90Q685.06 447.68 684.74 447.30Q684.41 446.91 684.36 446.39L684.36 446.39L685.40 446.39L685.40 446.39Q685.53 446.78 685.90 447.02Q686.28 447.26 686.88 447.26Q687.31 447.26 687.63 447.14Q687.96 447.01 688.15 446.79Q688.33 446.57 688.33 446.28L688.33 446.27Q688.33 445.95 688.08 445.72Q687.82 445.50 687.23 445.36L686.25 445.12Q685.66 444.98 685.28 444.76Q684.90 444.53 684.72 444.20Q684.54 443.87 684.54 443.42L684.54 443.41Q684.54 442.88 684.84 442.47Q685.15 442.05 685.69 441.81Q686.22 441.57 686.89 441.57Q687.55 441.57 688.06 441.78Q688.57 441.99 688.89 442.37Q689.20 442.75 689.27 443.27L689.27 443.27L688.27 443.27L688.27 443.27Q688.17 442.89 687.81 442.66Q687.46 442.42 686.88 442.42Q686.51 442.42 686.21 442.54Q685.92 442.66 685.75 442.87Q685.58 443.08 685.58 443.37L685.58 443.38Q685.58 443.59 685.69 443.75Q685.80 443.92 686.04 444.04Q686.27 444.16 686.64 444.26L687.61 444.49Q688.21 444.63 688.60 444.86Q688.99 445.09 689.18 445.42Q689.38 445.74 689.38 446.20L689.38 446.21Q689.38 446.77 689.04 447.20Q688.71 447.63 688.14 447.87Q687.57 448.11 686.85 448.11ZM693.14 448.05Q692.17 448.05 691.74 447.65Q691.30 447.26 691.30 446.36L691.30 442.53L690.30 442.53L690.30 441.68L691.30 441.68L691.30 440.05L692.35 440.05L692.35 441.68L693.74 441.68L693.74 442.53L692.35 442.53L692.35 446.10Q692.35 446.66 692.56 446.90Q692.78 447.14 693.27 447.14Q693.40 447.14 693.50 447.14Q693.60 447.13 693.74 447.12L693.74 447.99Q693.59 448.01 693.44 448.03Q693.30 448.05 693.14 448.05ZM698.63 448.00L698.63 441.68L699.65 441.68L699.65 442.63L699.75 442.63Q699.99 442.13 700.44 441.85Q700.89 441.57 701.59 441.57Q702.65 441.57 703.23 442.18Q703.80 442.79 703.80 443.91L703.80 448.00L702.78 448.00L702.78 444.16Q702.78 443.30 702.42 442.89Q702.06 442.47 701.30 442.47Q700.80 442.47 700.43 442.69Q700.06 442.91 699.86 443.31Q699.65 443.71 699.65 444.26L699.65 448.00ZM708.21 448.11Q707.31 448.11 706.67 447.71Q706.02 447.31 705.67 446.58Q705.32 445.86 705.32 444.87L705.32 444.86Q705.32 443.88 705.67 443.14Q706.02 442.40 706.66 441.99Q707.29 441.57 708.15 441.57Q709.01 441.57 709.63 441.97Q710.25 442.37 710.58 443.08Q710.91 443.79 710.91 444.74L710.91 445.13L705.85 445.13L705.85 444.32L710.39 444.32L709.88 445.06L709.88 444.66Q709.88 443.92 709.66 443.44Q709.44 442.96 709.05 442.72Q708.65 442.48 708.14 442.48Q707.63 442.48 707.23 442.73Q706.83 442.98 706.60 443.46Q706.36 443.95 706.36 444.66L706.36 445.06Q706.36 445.74 706.59 446.22Q706.82 446.69 707.24 446.95Q707.66 447.20 708.24 447.20Q708.67 447.20 708.98 447.09Q709.30 446.97 709.50 446.79Q709.71 446.61 709.79 446.42L709.81 446.37L710.83 446.37L710.82 446.41Q710.74 446.73 710.53 447.04Q710.32 447.34 710.00 447.58Q709.67 447.82 709.22 447.97Q708.77 448.11 708.21 448.11ZM712.52 448.00L712.52 441.68L713.54 441.68L713.54 448.00ZM713.03 440.46Q712.74 440.46 712.54 440.26Q712.33 440.05 712.33 439.76Q712.33 439.47 712.54 439.26Q712.74 439.06 713.03 439.06Q713.32 439.06 713.53 439.26Q713.73 439.47 713.73 439.76Q713.73 440.05 713.53 440.26Q713.32 440.46 713.03 440.46ZM718.06 450.23Q717.30 450.23 716.73 450.01Q716.16 449.80 715.82 449.41Q715.49 449.02 715.40 448.50L715.42 448.50L716.47 448.50L716.48 448.50Q716.56 448.86 716.97 449.09Q717.38 449.32 718.06 449.32Q718.91 449.32 719.39 448.94Q719.86 448.56 719.86 447.86L719.86 446.58L719.77 446.58Q719.57 446.93 719.27 447.17Q718.97 447.42 718.60 447.55Q718.22 447.67 717.79 447.67Q716.97 447.67 716.38 447.28Q715.79 446.89 715.46 446.21Q715.14 445.52 715.14 444.64L715.14 444.62Q715.14 443.74 715.47 443.05Q715.79 442.36 716.39 441.97Q716.99 441.57 717.81 441.57Q718.26 441.57 718.63 441.71Q719.01 441.85 719.30 442.11Q719.59 442.37 719.78 442.73L719.85 442.73L719.85 441.68L720.87 441.68L720.87 447.91Q720.87 448.62 720.53 449.14Q720.19 449.66 719.55 449.94Q718.92 450.23 718.06 450.23ZM718.01 446.77Q718.60 446.77 719.02 446.50Q719.44 446.22 719.66 445.74Q719.89 445.26 719.89 444.64L719.89 444.62Q719.89 444.00 719.66 443.51Q719.44 443.03 719.02 442.75Q718.60 442.47 718.01 442.47Q717.43 442.47 717.02 442.75Q716.61 443.03 716.40 443.51Q716.18 444.00 716.18 444.62L716.18 444.64Q716.18 445.26 716.40 445.74Q716.61 446.22 717.02 446.50Q717.43 446.77 718.01 446.77ZM722.83 448.00L722.83 439.18L723.85 439.18L723.85 442.63L723.94 442.63Q724.18 442.13 724.63 441.85Q725.08 441.57 725.78 441.57Q726.49 441.57 726.98 441.84Q727.47 442.12 727.73 442.64Q727.99 443.16 727.99 443.91L727.99 448.00L726.97 448.00L726.97 444.16Q726.97 443.30 726.61 442.89Q726.25 442.47 725.49 442.47Q724.99 442.47 724.62 442.69Q724.25 442.91 724.05 443.31Q723.85 443.71 723.85 444.26L723.85 448.00ZM732.97 448.11Q732.53 448.11 732.16 447.98Q731.78 447.84 731.49 447.59Q731.20 447.34 731.00 446.99L730.91 446.99L730.91 448.00L729.89 448.00L729.89 439.18L730.91 439.18L730.91 442.68L731.00 442.68Q731.18 442.34 731.47 442.09Q731.77 441.85 732.15 441.71Q732.54 441.57 732.97 441.57Q733.77 441.57 734.37 441.98Q734.96 442.38 735.29 443.11Q735.62 443.85 735.62 444.84L735.62 444.85Q735.62 445.83 735.29 446.57Q734.96 447.30 734.37 447.71Q733.77 448.11 732.97 448.11ZM732.74 447.21Q733.32 447.21 733.73 446.92Q734.14 446.64 734.36 446.11Q734.58 445.58 734.58 444.85L734.58 444.84Q734.58 444.10 734.36 443.57Q734.14 443.04 733.73 442.76Q733.32 442.47 732.74 442.47Q732.16 442.47 731.75 442.76Q731.33 443.05 731.11 443.58Q730.88 444.10 730.88 444.84L730.88 444.85Q730.88 445.57 731.11 446.10Q731.33 446.63 731.75 446.92Q732.16 447.21 732.74 447.21ZM739.80 448.11Q738.90 448.11 738.25 447.72Q737.59 447.32 737.24 446.59Q736.88 445.86 736.88 444.85L736.88 444.84Q736.88 443.82 737.24 443.09Q737.59 442.36 738.25 441.96Q738.90 441.57 739.80 441.57Q740.70 441.57 741.35 441.96Q742.00 442.36 742.35 443.09Q742.71 443.82 742.71 444.84L742.71 444.85Q742.71 445.86 742.35 446.59Q742.00 447.32 741.35 447.72Q740.70 448.11 739.80 448.11ZM739.80 447.21Q740.39 447.21 740.81 446.93Q741.23 446.65 741.45 446.12Q741.67 445.59 741.67 444.85L741.67 444.84Q741.67 444.09 741.45 443.56Q741.23 443.03 740.81 442.75Q740.39 442.47 739.80 442.47Q739.20 442.47 738.78 442.75Q738.37 443.03 738.15 443.56Q737.93 444.09 737.93 444.84L737.93 444.85Q737.93 445.59 738.15 446.12Q738.37 446.65 738.78 446.93Q739.20 447.21 739.80 447.21ZM744.29 448.00L744.29 441.68L745.31 441.68L745.31 442.62L745.40 442.62Q745.59 442.12 746.02 441.85Q746.45 441.57 747.09 441.57Q747.24 441.57 747.38 441.59Q747.53 441.60 747.60 441.61L747.60 442.60Q747.44 442.57 747.29 442.56Q747.14 442.54 746.97 442.54Q746.49 442.54 746.11 442.74Q745.74 442.93 745.52 443.28Q745.31 443.62 745.31 444.09L745.31 448.00Z"/>

  <!-- One traveling pulse: greedy descent, then beam on layer 0 -->
  <circle r="4.5" fill="#0A84FF">
    <animateMotion dur="8s" repeatCount="indefinite"
      keyPoints="0;0;1;1" keyTimes="0;0.10;0.62;1" calcMode="linear"
      path="M150 158 L430 144 L430 292 L570 266 L510 400 L620 436 L700 392"/>
    <animate attributeName="opacity" dur="8s" repeatCount="indefinite"
      values="0;0;1;1;0;0" keyTimes="0;0.04;0.10;0.64;0.74;1"/>
  </circle>

  <!-- Nearest neighbor: static star, logo treatment -->
  <g>
    <circle cx="700" cy="392" r="18" fill="#0A84FF" opacity="0.12"/>
    <path fill="#f5f5f7" d="M700 378 L703.2 388.8 L714 392 L703.2 395.2 L700 406 L696.8 395.2 L686 392 L696.8 388.8 Z"/>
  </g>
</svg>
