<svg xmlns="http://www.w3.org/2000/svg" viewBox="0 0 880 440" role="img" aria-label="Hybrid retrieval — one query fans to dense HNSW and BM25 legs, ranked results fused into one list">
  <style>
    .box { fill: none; stroke: #2c2c2e; stroke-width: 1; }
    .lane { fill: none; stroke: #2c2c2e; stroke-width: 1; }
  </style>

  <rect width="880" height="440" rx="20" fill="#000000"/>

  <!-- Title -->
  <path fill="#f5f5f7" d="M41.62 64.00L41.62 49.91L44.14 49.91L44.14 55.77L50.99 55.77L50.99 49.91L53.50 49.91L53.50 64.00L50.99 64.00L50.99 57.89L44.14 57.89L44.14 64.00ZM57.25 67.68Q57.00 67.68 56.73 67.66Q56.47 67.65 56.24 67.62L56.24 65.76Q56.39 65.78 56.59 65.79Q56.78 65.80 56.99 65.80Q57.72 65.80 58.17 65.50Q58.61 65.19 58.82 64.48L58.96 64.01L55.16 53.40L57.81 53.40L60.57 62.70L59.98 61.73L60.73 61.73L60.15 62.70L62.91 53.40L65.47 53.40L61.67 64.26Q61.23 65.55 60.64 66.29Q60.05 67.04 59.23 67.36Q58.40 67.68 57.25 67.68ZM72.77 64.18Q72.02 64.18 71.40 63.96Q70.77 63.73 70.30 63.31Q69.83 62.90 69.53 62.31L69.39 62.31L69.39 64.00L66.96 64.00L66.96 49.36L69.39 49.36L69.39 55.12L69.53 55.12Q69.82 54.53 70.30 54.11Q70.78 53.68 71.41 53.45Q72.04 53.22 72.77 53.22Q74.11 53.22 75.09 53.88Q76.07 54.55 76.60 55.77Q77.13 57.00 77.13 58.69L77.13 58.71Q77.13 60.39 76.59 61.62Q76.06 62.85 75.08 63.52Q74.11 64.18 72.77 64.18ZM72.02 62.14Q72.84 62.14 73.43 61.72Q74.02 61.31 74.34 60.54Q74.65 59.77 74.65 58.71L74.65 58.69Q74.65 57.63 74.34 56.86Q74.02 56.10 73.43 55.68Q72.84 55.27 72.02 55.27Q71.21 55.27 70.61 55.69Q70.02 56.10 69.69 56.87Q69.36 57.63 69.36 58.70L69.36 58.71Q69.36 59.77 69.69 60.54Q70.01 61.31 70.61 61.72Q71.21 62.14 72.02 62.14ZM78.91 64.00L78.91 53.40L81.34 53.40L81.34 55.07L81.48 55.07Q81.74 54.20 82.43 53.71Q83.12 53.22 84.14 53.22Q84.40 53.22 84.65 53.25Q84.90 53.28 85.07 53.33L85.07 55.51Q84.81 55.45 84.52 55.41Q84.23 55.37 83.91 55.37Q83.13 55.37 82.55 55.67Q81.97 55.97 81.65 56.53Q81.34 57.08 81.34 57.84L81.34 64.00ZM86.46 64.00L86.46 53.40L88.89 53.40L88.89 64.00ZM87.68 51.69Q87.09 51.69 86.67 51.27Q86.25 50.86 86.25 50.28Q86.25 49.69 86.67 49.28Q87.09 48.87 87.68 48.87Q88.27 48.87 88.69 49.28Q89.10 49.69 89.10 50.28Q89.10 50.86 88.69 51.27Q88.27 51.69 87.68 51.69ZM95.06 64.18Q93.74 64.18 92.75 63.52Q91.77 62.85 91.24 61.62Q90.71 60.39 90.71 58.71L90.71 58.69Q90.71 57.00 91.24 55.77Q91.77 54.55 92.74 53.88Q93.72 53.22 95.06 53.22Q95.79 53.22 96.43 53.45Q97.06 53.68 97.54 54.11Q98.02 54.53 98.30 55.12L98.44 55.12L98.44 49.36L100.87 49.36L100.87 64.00L98.44 64.00L98.44 62.31L98.30 62.31Q98.01 62.90 97.54 63.31Q97.06 63.73 96.44 63.96Q95.81 64.18 95.06 64.18ZM95.82 62.14Q96.63 62.14 97.22 61.72Q97.82 61.31 98.14 60.54Q98.47 59.77 98.47 58.71L98.47 58.70Q98.47 57.63 98.14 56.87Q97.82 56.10 97.22 55.69Q96.63 55.27 95.82 55.27Q95.00 55.27 94.41 55.68Q93.82 56.10 93.50 56.86Q93.18 57.63 93.18 58.69L93.18 58.71Q93.18 59.77 93.50 60.54Q93.82 61.31 94.41 61.72Q95.00 62.14 95.82 62.14ZM107.81 64.00L107.81 53.40L110.24 53.40L110.24 55.07L110.38 55.07Q110.65 54.20 111.34 53.71Q112.03 53.22 113.04 53.22Q113.31 53.22 113.56 53.25Q113.81 53.28 113.98 53.33L113.98 55.51Q113.71 55.45 113.42 55.41Q113.13 55.37 112.82 55.37Q112.04 55.37 111.46 55.67Q110.88 55.97 110.56 56.53Q110.24 57.08 110.24 57.84L110.24 64.00ZM119.60 64.21Q118.02 64.21 116.88 63.54Q115.75 62.87 115.14 61.64Q114.53 60.41 114.53 58.73L114.53 58.72Q114.53 57.05 115.14 55.81Q115.75 54.57 116.86 53.88Q117.98 53.19 119.48 53.19Q120.99 53.19 122.09 53.86Q123.18 54.52 123.78 55.72Q124.37 56.91 124.37 58.51L124.37 59.31L115.75 59.31L115.75 57.68L123.18 57.68L122.03 59.20L122.03 58.24Q122.03 57.19 121.71 56.49Q121.39 55.79 120.82 55.45Q120.25 55.10 119.51 55.10Q118.77 55.10 118.19 55.46Q117.62 55.82 117.28 56.52Q116.95 57.23 116.95 58.24L116.95 59.21Q116.95 60.19 117.28 60.88Q117.61 61.57 118.21 61.94Q118.82 62.31 119.65 62.31Q120.30 62.31 120.76 62.12Q121.23 61.93 121.53 61.65Q121.82 61.38 121.94 61.11L121.97 61.04L124.26 61.04L124.24 61.13Q124.11 61.67 123.77 62.21Q123.43 62.75 122.86 63.21Q122.29 63.66 121.48 63.94Q120.67 64.21 119.60 64.21ZM130.26 64.09Q128.48 64.09 127.67 63.41Q126.87 62.73 126.87 61.17L126.87 55.28L125.25 55.28L125.25 53.40L126.87 53.40L126.87 50.78L129.34 50.78L129.34 53.40L131.51 53.40L131.51 55.28L129.34 55.28L129.34 60.69Q129.34 61.47 129.67 61.82Q130.01 62.16 130.75 62.16Q130.98 62.16 131.15 62.15Q131.32 62.14 131.51 62.12L131.51 63.98Q131.26 64.02 130.94 64.06Q130.62 64.09 130.26 64.09ZM133.31 64.00L133.31 53.40L135.74 53.40L135.74 55.07L135.88 55.07Q136.14 54.20 136.83 53.71Q137.52 53.22 138.54 53.22Q138.80 53.22 139.05 53.25Q139.30 53.28 139.47 53.33L139.47 55.51Q139.21 55.45 138.92 55.41Q138.63 55.37 138.31 55.37Q137.53 55.37 136.95 55.67Q136.37 55.97 136.05 56.53Q135.74 57.08 135.74 57.84L135.74 64.00ZM140.86 64.00L140.86 53.40L143.29 53.40L143.29 64.00ZM142.08 51.69Q141.49 51.69 141.07 51.27Q140.65 50.86 140.65 50.28Q140.65 49.69 141.07 49.28Q141.49 48.87 142.08 48.87Q142.67 48.87 143.09 49.28Q143.50 49.69 143.50 50.28Q143.50 50.86 143.09 51.27Q142.67 51.69 142.08 51.69ZM150.18 64.21Q148.60 64.21 147.46 63.54Q146.33 62.87 145.72 61.64Q145.10 60.41 145.10 58.73L145.10 58.72Q145.10 57.05 145.72 55.81Q146.33 54.57 147.44 53.88Q148.55 53.19 150.06 53.19Q151.57 53.19 152.67 53.86Q153.76 54.52 154.35 55.72Q154.94 56.91 154.94 58.51L154.94 59.31L146.32 59.31L146.32 57.68L153.76 57.68L152.60 59.20L152.60 58.24Q152.60 57.19 152.28 56.49Q151.96 55.79 151.40 55.45Q150.83 55.10 150.09 55.10Q149.35 55.10 148.77 55.46Q148.19 55.82 147.86 56.52Q147.53 57.23 147.53 58.24L147.53 59.21Q147.53 60.19 147.86 60.88Q148.18 61.57 148.79 61.94Q149.39 62.31 150.23 62.31Q150.87 62.31 151.34 62.12Q151.81 61.93 152.11 61.65Q152.40 61.38 152.51 61.11L152.54 61.04L154.84 61.04L154.82 61.13Q154.69 61.67 154.35 62.21Q154.01 62.75 153.44 63.21Q152.87 63.66 152.06 63.94Q151.24 64.21 150.18 64.21ZM159.29 64.00L155.52 53.40L158.11 53.40L160.57 61.66L160.71 61.66L163.15 53.40L165.70 53.40L161.95 64.00ZM169.70 64.18Q168.68 64.18 167.89 63.78Q167.10 63.39 166.65 62.67Q166.20 61.96 166.20 61.00L166.20 60.98Q166.20 60.03 166.66 59.35Q167.13 58.67 168.03 58.29Q168.93 57.90 170.22 57.82L174.17 57.58L174.17 59.18L170.56 59.42Q169.57 59.47 169.09 59.84Q168.60 60.22 168.60 60.87L168.60 60.89Q168.60 61.55 169.11 61.94Q169.62 62.32 170.43 62.32Q171.16 62.32 171.73 62.02Q172.30 61.73 172.63 61.23Q172.96 60.73 172.96 60.10L172.96 56.79Q172.96 55.99 172.45 55.56Q171.94 55.13 170.97 55.13Q170.13 55.13 169.60 55.43Q169.08 55.74 168.91 56.28L168.89 56.33L166.61 56.33L166.62 56.24Q166.73 55.33 167.30 54.65Q167.88 53.96 168.84 53.58Q169.80 53.19 171.08 53.19Q172.44 53.19 173.40 53.62Q174.35 54.05 174.86 54.85Q175.37 55.64 175.37 56.75L175.37 64.00L172.96 64.00L172.96 62.50L172.81 62.50Q172.52 63.02 172.06 63.40Q171.59 63.78 170.99 63.98Q170.40 64.18 169.70 64.18ZM177.69 64.00L177.69 49.36L180.12 49.36L180.12 64.00Z"/>

  <!-- Query -->
  <rect class="box" x="40" y="192" width="168" height="48" rx="10"/>
  <path fill="#f5f5f7" d="M81.74 211.34L81.19 214.95L79.92 214.95L80.92 211.34ZM83.84 211.34L83.29 214.95L82.03 214.95L83.03 211.34ZM84.84 222.85Q84.80 222.85 84.75 222.85Q84.70 222.85 84.65 222.85L84.65 221.87Q84.70 221.87 84.73 221.87Q84.77 221.87 84.82 221.87Q85.37 221.87 85.61 221.65Q85.84 221.42 85.84 220.86L85.84 213.66L86.94 213.66L86.94 220.84Q86.94 221.89 86.43 222.37Q85.92 222.85 84.84 222.85ZM86.39 212.34Q86.08 212.34 85.85 212.11Q85.63 211.89 85.63 211.58Q85.63 211.26 85.85 211.04Q86.08 210.81 86.39 210.81Q86.71 210.81 86.93 211.04Q87.15 211.26 87.15 211.58Q87.15 211.89 86.93 212.11Q86.71 212.34 86.39 212.34ZM90.83 220.62Q90.18 220.62 89.66 220.37Q89.15 220.13 88.84 219.67Q88.54 219.21 88.54 218.59L88.54 218.58Q88.54 217.97 88.83 217.53Q89.13 217.10 89.68 216.85Q90.24 216.60 91.04 216.56L93.55 216.41L93.55 217.29L91.17 217.44Q90.39 217.48 90.03 217.76Q89.67 218.04 89.67 218.55L89.67 218.56Q89.67 219.08 90.07 219.37Q90.46 219.66 91.06 219.66Q91.62 219.66 92.06 219.44Q92.50 219.21 92.75 218.82Q93.00 218.44 93.00 217.95L93.00 215.82Q93.00 215.18 92.61 214.85Q92.23 214.51 91.46 214.51Q90.85 214.51 90.45 214.73Q90.06 214.95 89.93 215.35L89.92 215.37L88.82 215.37L88.82 215.33Q88.91 214.79 89.27 214.39Q89.63 213.99 90.20 213.76Q90.77 213.54 91.50 213.54Q92.34 213.54 92.92 213.81Q93.50 214.08 93.80 214.59Q94.10 215.10 94.10 215.82L94.10 220.50L93.00 220.50L93.00 219.49L92.90 219.49Q92.68 219.85 92.37 220.11Q92.07 220.36 91.68 220.49Q91.29 220.62 90.83 220.62ZM98.86 222.91Q98.04 222.91 97.42 222.68Q96.81 222.45 96.44 222.03Q96.08 221.60 95.99 221.05L96.00 221.04L97.14 221.04L97.15 221.05Q97.24 221.43 97.68 221.68Q98.13 221.93 98.86 221.93Q99.78 221.93 100.30 221.52Q100.82 221.10 100.82 220.35L100.82 218.96L100.72 218.96Q100.50 219.34 100.18 219.60Q99.85 219.87 99.45 220.01Q99.04 220.14 98.57 220.14Q97.69 220.14 97.04 219.72Q96.40 219.30 96.05 218.56Q95.70 217.81 95.70 216.86L95.70 216.84Q95.70 215.89 96.05 215.14Q96.41 214.39 97.05 213.97Q97.70 213.54 98.60 213.54Q99.08 213.54 99.49 213.69Q99.89 213.84 100.21 214.12Q100.52 214.40 100.73 214.79L100.81 214.79L100.81 213.66L101.91 213.66L101.91 220.40Q101.91 221.17 101.54 221.73Q101.17 222.30 100.48 222.60Q99.80 222.91 98.86 222.91ZM98.81 219.17Q99.45 219.17 99.90 218.87Q100.36 218.58 100.60 218.06Q100.84 217.54 100.84 216.86L100.84 216.84Q100.84 216.16 100.60 215.64Q100.36 215.11 99.90 214.81Q99.45 214.51 98.81 214.51Q98.18 214.51 97.74 214.81Q97.30 215.11 97.06 215.64Q96.83 216.16 96.83 216.84L96.83 216.86Q96.83 217.54 97.06 218.06Q97.30 218.58 97.74 218.87Q98.18 219.17 98.81 219.17ZM106.18 220.62Q105.41 220.62 104.88 220.33Q104.35 220.03 104.09 219.46Q103.83 218.89 103.83 218.09L103.83 213.66L104.93 213.66L104.93 217.82Q104.93 218.74 105.29 219.19Q105.65 219.64 106.47 219.64Q106.92 219.64 107.26 219.51Q107.61 219.38 107.85 219.13Q108.08 218.88 108.20 218.52Q108.32 218.16 108.32 217.71L108.32 213.66L109.42 213.66L109.42 220.50L108.32 220.50L108.32 219.48L108.21 219.48Q108.05 219.84 107.76 220.10Q107.48 220.35 107.08 220.49Q106.68 220.62 106.18 220.62ZM113.28 220.62Q112.63 220.62 112.11 220.37Q111.60 220.13 111.30 219.67Q110.99 219.21 110.99 218.59L110.99 218.58Q110.99 217.97 111.29 217.53Q111.58 217.10 112.14 216.85Q112.69 216.60 113.49 216.56L116.00 216.41L116.00 217.29L113.62 217.44Q112.84 217.48 112.48 217.76Q112.12 218.04 112.12 218.55L112.12 218.56Q112.12 219.08 112.52 219.37Q112.91 219.66 113.51 219.66Q114.07 219.66 114.51 219.44Q114.95 219.21 115.20 218.82Q115.45 218.44 115.45 217.95L115.45 215.82Q115.45 215.18 115.07 214.85Q114.68 214.51 113.91 214.51Q113.30 214.51 112.90 214.73Q112.51 214.95 112.38 215.35L112.37 215.37L111.27 215.37L111.27 215.33Q111.36 214.79 111.72 214.39Q112.08 213.99 112.65 213.76Q113.22 213.54 113.95 213.54Q114.79 213.54 115.37 213.81Q115.95 214.08 116.25 214.59Q116.55 215.10 116.55 215.82L116.55 220.50L115.45 220.50L115.45 219.49L115.35 219.49Q115.13 219.85 114.82 220.11Q114.52 220.36 114.13 220.49Q113.74 220.62 113.28 220.62ZM118.50 220.50L118.50 213.66L119.60 213.66L119.60 214.67L119.70 214.67Q119.90 214.13 120.37 213.83Q120.84 213.54 121.53 213.54Q121.69 213.54 121.85 213.55Q122.00 213.57 122.08 213.58L122.08 214.65Q121.91 214.62 121.75 214.61Q121.59 214.59 121.40 214.59Q120.88 214.59 120.47 214.80Q120.06 215.01 119.83 215.38Q119.60 215.76 119.60 216.26L119.60 220.50ZM129.30 220.62Q128.54 220.62 127.95 220.39Q127.37 220.16 127.02 219.74Q126.67 219.32 126.60 218.75L126.60 218.75L127.73 218.75L127.73 218.75Q127.87 219.18 128.28 219.44Q128.68 219.70 129.34 219.70Q129.80 219.70 130.15 219.56Q130.51 219.43 130.71 219.19Q130.91 218.95 130.91 218.64L130.91 218.63Q130.91 218.28 130.63 218.03Q130.35 217.79 129.72 217.64L128.66 217.38Q128.02 217.23 127.61 216.99Q127.19 216.74 127.00 216.38Q126.80 216.02 126.80 215.54L126.80 215.53Q126.80 214.96 127.13 214.51Q127.47 214.06 128.04 213.80Q128.62 213.54 129.34 213.54Q130.06 213.54 130.62 213.76Q131.17 213.99 131.51 214.40Q131.85 214.81 131.93 215.37L131.93 215.37L130.84 215.37L130.84 215.37Q130.73 214.96 130.35 214.71Q129.96 214.46 129.34 214.46Q128.93 214.46 128.61 214.59Q128.30 214.72 128.11 214.95Q127.93 215.17 127.93 215.48L127.93 215.49Q127.93 215.72 128.05 215.90Q128.17 216.08 128.42 216.21Q128.68 216.34 129.08 216.44L130.13 216.70Q130.78 216.85 131.20 217.10Q131.62 217.35 131.83 217.70Q132.04 218.06 132.04 218.54L132.04 218.56Q132.04 219.17 131.68 219.63Q131.32 220.10 130.70 220.36Q130.08 220.62 129.30 220.62ZM133.68 222.79L133.68 213.66L134.78 213.66L134.78 214.75L134.89 214.75Q135.10 214.37 135.41 214.10Q135.73 213.83 136.14 213.68Q136.54 213.54 137.02 213.54Q137.89 213.54 138.53 213.98Q139.18 214.42 139.53 215.21Q139.89 216.01 139.89 217.07L139.89 217.08Q139.89 218.16 139.53 218.95Q139.18 219.74 138.53 220.18Q137.89 220.62 137.02 220.62Q136.55 220.62 136.13 220.47Q135.72 220.32 135.40 220.06Q135.08 219.79 134.89 219.42L134.78 219.42L134.78 222.79ZM136.77 219.64Q137.39 219.64 137.84 219.34Q138.28 219.03 138.52 218.45Q138.76 217.88 138.76 217.08L138.76 217.07Q138.76 216.27 138.52 215.70Q138.28 215.13 137.84 214.82Q137.39 214.51 136.77 214.51Q136.14 214.51 135.69 214.83Q135.24 215.14 135.00 215.71Q134.76 216.28 134.76 217.07L134.76 217.08Q134.76 217.87 135.00 218.45Q135.24 219.02 135.69 219.33Q136.14 219.64 136.77 219.64ZM144.33 220.62Q143.35 220.62 142.65 220.19Q141.95 219.76 141.57 218.97Q141.20 218.18 141.20 217.10L141.20 217.10Q141.20 216.04 141.57 215.24Q141.95 214.44 142.64 213.99Q143.34 213.54 144.26 213.54Q145.19 213.54 145.86 213.97Q146.53 214.40 146.89 215.17Q147.25 215.94 147.25 216.96L147.25 217.40L141.77 217.40L141.77 216.51L146.69 216.51L146.14 217.32L146.14 216.88Q146.14 216.08 145.90 215.56Q145.66 215.03 145.23 214.78Q144.81 214.52 144.26 214.52Q143.70 214.52 143.27 214.79Q142.83 215.06 142.58 215.59Q142.33 216.11 142.33 216.88L142.33 217.32Q142.33 218.05 142.57 218.57Q142.82 219.08 143.28 219.36Q143.73 219.64 144.36 219.64Q144.82 219.64 145.16 219.51Q145.51 219.38 145.73 219.19Q145.95 218.99 146.04 218.79L146.06 218.73L147.17 218.73L147.16 218.78Q147.07 219.13 146.84 219.46Q146.62 219.78 146.26 220.05Q145.91 220.31 145.42 220.47Q144.93 220.62 144.33 220.62ZM151.68 220.62Q150.70 220.62 150.00 220.19Q149.30 219.76 148.92 218.97Q148.55 218.18 148.55 217.10L148.55 217.10Q148.55 216.04 148.92 215.24Q149.30 214.44 149.99 213.99Q150.69 213.54 151.61 213.54Q152.55 213.54 153.22 213.97Q153.88 214.40 154.24 215.17Q154.60 215.94 154.60 216.96L154.60 217.40L149.12 217.40L149.12 216.51L154.04 216.51L153.49 217.32L153.49 216.88Q153.49 216.08 153.25 215.56Q153.01 215.03 152.58 214.78Q152.16 214.52 151.61 214.52Q151.05 214.52 150.62 214.79Q150.18 215.06 149.93 215.59Q149.68 216.11 149.68 216.88L149.68 217.32Q149.68 218.05 149.92 218.57Q150.17 219.08 150.63 219.36Q151.09 219.64 151.71 219.64Q152.17 219.64 152.51 219.51Q152.86 219.38 153.08 219.19Q153.30 218.99 153.39 218.79L153.42 218.73L154.52 218.73L154.51 218.78Q154.42 219.13 154.19 219.46Q153.97 219.78 153.61 220.05Q153.26 220.31 152.77 220.47Q152.29 220.62 151.68 220.62ZM158.77 220.62Q157.90 220.62 157.26 220.18Q156.61 219.74 156.25 218.95Q155.90 218.15 155.90 217.08L155.90 217.07Q155.90 216.00 156.25 215.21Q156.61 214.41 157.25 213.97Q157.90 213.54 158.77 213.54Q159.24 213.54 159.65 213.69Q160.07 213.83 160.39 214.10Q160.71 214.37 160.90 214.74L161.00 214.74L161.00 210.94L162.11 210.94L162.11 220.50L161.00 220.50L161.00 219.41L160.90 219.41Q160.69 219.79 160.37 220.06Q160.05 220.33 159.65 220.47Q159.24 220.62 158.77 220.62ZM159.02 219.64Q159.64 219.64 160.09 219.33Q160.54 219.02 160.78 218.45Q161.03 217.87 161.03 217.08L161.03 217.07Q161.03 216.28 160.78 215.71Q160.54 215.14 160.09 214.83Q159.64 214.51 159.02 214.51Q158.40 214.51 157.95 214.82Q157.50 215.13 157.26 215.70Q157.03 216.27 157.03 217.07L157.03 217.08Q157.03 217.88 157.26 218.45Q157.50 219.03 157.95 219.34Q158.40 219.64 159.02 219.64ZM164.14 214.95L164.69 211.34L165.96 211.34L164.96 214.95ZM166.25 214.95L166.80 211.34L168.07 211.34L167.07 214.95Z"/>

  <!-- Lanes: query fans out, legs converge into fusion -->
  <path class="lane" d="M208 216 C 254 216, 254 148, 300 148"/>
  <path class="lane" d="M208 216 C 254 216, 254 284, 300 284"/>
  <path class="lane" d="M520 148 C 570 148, 570 190, 620 190"/>
  <path class="lane" d="M520 284 C 570 284, 570 242, 620 242"/>
  <circle cx="208" cy="216" r="2.5" fill="#48484a"/>

  <!-- Primary animation: one pulse splits and travels both lanes -->
  <circle r="3" fill="#0A84FF">
    <animateMotion dur="8s" repeatCount="indefinite"
      keyPoints="0;0;1;1" keyTimes="0;0.2;0.55;1" calcMode="linear"
      path="M208 216 C 254 216, 254 148, 300 148"/>
    <animate attributeName="opacity" dur="8s" repeatCount="indefinite"
      values="0;0;1;1;0;0" keyTimes="0;0.2;0.26;0.55;0.62;1"/>
  </circle>
  <circle r="3" fill="#30D158">
    <animateMotion dur="8s" repeatCount="indefinite"
      keyPoints="0;0;1;1" keyTimes="0;0.2;0.55;1" calcMode="linear"
      path="M208 216 C 254 216, 254 284, 300 284"/>
    <animate attributeName="opacity" dur="8s" repeatCount="indefinite"
      values="0;0;1;1;0;0" keyTimes="0;0.2;0.26;0.55;0.62;1"/>
  </circle>

  <!-- Dense leg -->
  <rect class="box" x="300" y="96" width="220" height="104" rx="10"/>
  <path fill="#0A84FF" d="M321.17 124.00L321.17 114.84L324.31 114.84Q325.67 114.84 326.64 115.38Q327.60 115.93 328.12 116.95Q328.63 117.97 328.63 119.41L328.63 119.42Q328.63 120.86 328.12 121.89Q327.60 122.91 326.64 123.46Q325.67 124.00 324.31 124.00ZM322.31 122.97L324.23 122.97Q325.26 122.97 325.98 122.55Q326.70 122.13 327.08 121.34Q327.46 120.55 327.46 119.44L327.46 119.42Q327.46 118.31 327.08 117.51Q326.70 116.71 325.97 116.29Q325.25 115.87 324.23 115.87L322.31 115.87ZM333.19 124.12Q332.21 124.12 331.51 123.69Q330.81 123.26 330.43 122.47Q330.05 121.68 330.05 120.60L330.05 120.60Q330.05 119.54 330.43 118.74Q330.81 117.94 331.50 117.49Q332.19 117.04 333.12 117.04Q334.05 117.04 334.72 117.47Q335.39 117.90 335.75 118.67Q336.11 119.44 336.11 120.46L336.11 120.90L330.63 120.90L330.63 120.01L335.55 120.01L335.00 120.82L335.00 120.38Q335.00 119.58 334.76 119.06Q334.52 118.53 334.09 118.28Q333.67 118.02 333.11 118.02Q332.56 118.02 332.13 118.29Q331.69 118.56 331.44 119.09Q331.18 119.61 331.18 120.38L331.18 120.82Q331.18 121.55 331.43 122.07Q331.68 122.58 332.14 122.86Q332.59 123.14 333.22 123.14Q333.68 123.14 334.02 123.01Q334.36 122.88 334.59 122.69Q334.81 122.49 334.90 122.29L334.92 122.23L336.03 122.23L336.02 122.28Q335.93 122.63 335.70 122.96Q335.48 123.28 335.12 123.55Q334.76 123.81 334.28 123.97Q333.79 124.12 333.19 124.12ZM337.75 124.00L337.75 117.16L338.85 117.16L338.85 118.19L338.95 118.19Q339.21 117.64 339.70 117.34Q340.19 117.04 340.95 117.04Q342.10 117.04 342.72 117.69Q343.34 118.35 343.34 119.57L343.34 124.00L342.24 124.00L342.24 119.84Q342.24 118.91 341.85 118.46Q341.46 118.01 340.64 118.01Q340.09 118.01 339.69 118.25Q339.29 118.48 339.07 118.92Q338.85 119.35 338.85 119.95L338.85 124.00ZM347.61 124.12Q346.84 124.12 346.26 123.89Q345.68 123.66 345.32 123.24Q344.97 122.82 344.91 122.25L344.91 122.25L346.04 122.25L346.04 122.25Q346.18 122.68 346.58 122.94Q346.99 123.20 347.64 123.20Q348.11 123.20 348.46 123.06Q348.81 122.93 349.02 122.69Q349.22 122.45 349.22 122.14L349.22 122.13Q349.22 121.78 348.94 121.53Q348.66 121.29 348.02 121.14L346.96 120.88Q346.32 120.73 345.91 120.49Q345.50 120.24 345.30 119.88Q345.10 119.52 345.10 119.04L345.10 119.03Q345.10 118.46 345.44 118.01Q345.77 117.56 346.35 117.30Q346.93 117.04 347.65 117.04Q348.37 117.04 348.92 117.26Q349.48 117.49 349.82 117.90Q350.16 118.31 350.23 118.87L350.23 118.87L349.15 118.87L349.15 118.87Q349.04 118.46 348.65 118.21Q348.27 117.96 347.64 117.96Q347.24 117.96 346.92 118.09Q346.60 118.22 346.42 118.45Q346.23 118.67 346.23 118.98L346.23 118.99Q346.23 119.22 346.36 119.40Q346.48 119.58 346.73 119.71Q346.98 119.84 347.38 119.94L348.44 120.20Q349.08 120.35 349.51 120.60Q349.93 120.85 350.14 121.20Q350.35 121.56 350.35 122.04L350.35 122.06Q350.35 122.67 349.99 123.13Q349.62 123.60 349.01 123.86Q348.39 124.12 347.61 124.12ZM354.78 124.12Q353.80 124.12 353.10 123.69Q352.40 123.26 352.02 122.47Q351.64 121.68 351.64 120.60L351.64 120.60Q351.64 119.54 352.02 118.74Q352.40 117.94 353.09 117.49Q353.78 117.04 354.71 117.04Q355.64 117.04 356.31 117.47Q356.98 117.90 357.34 118.67Q357.70 119.44 357.70 120.46L357.70 120.90L352.21 120.90L352.21 120.01L357.13 120.01L356.59 120.82L356.59 120.38Q356.59 119.58 356.35 119.06Q356.11 118.53 355.68 118.28Q355.25 118.02 354.70 118.02Q354.15 118.02 353.72 118.29Q353.28 118.56 353.03 119.09Q352.77 119.61 352.77 120.38L352.77 120.82Q352.77 121.55 353.02 122.07Q353.27 122.58 353.73 122.86Q354.18 123.14 354.80 123.14Q355.27 123.14 355.61 123.01Q355.95 122.88 356.18 122.69Q356.40 122.49 356.49 122.29L356.51 122.23L357.62 122.23L357.60 122.28Q357.51 122.63 357.29 122.96Q357.06 123.28 356.71 123.55Q356.35 123.81 355.87 123.97Q355.38 124.12 354.78 124.12ZM363.82 121.14Q363.48 121.14 363.24 120.89Q362.99 120.65 362.99 120.31Q362.99 119.97 363.24 119.73Q363.48 119.49 363.82 119.49Q364.16 119.49 364.40 119.73Q364.64 119.97 364.64 120.31Q364.64 120.65 364.40 120.89Q364.16 121.14 363.82 121.14ZM370.42 124.00L370.42 114.84L371.56 114.84L371.56 118.80L376.59 118.80L376.59 114.84L377.73 114.84L377.73 124.00L376.59 124.00L376.59 119.83L371.56 119.83L371.56 124.00ZM379.99 124.00L379.99 114.84L381.10 114.84L386.35 122.37L385.59 121.97L386.17 121.97L386.17 114.84L387.30 114.84L387.30 124.00L386.19 124.00L380.94 116.50L381.71 116.90L381.12 116.90L381.12 124.00ZM392.57 124.22Q391.56 124.22 390.82 123.89Q390.07 123.56 389.64 122.99Q389.20 122.41 389.13 121.67L389.13 121.60L390.27 121.60L390.27 121.67Q390.32 122.13 390.63 122.46Q390.94 122.79 391.45 122.98Q391.97 123.16 392.63 123.16Q393.25 123.16 393.74 122.96Q394.22 122.76 394.50 122.41Q394.78 122.05 394.78 121.59L394.78 121.58Q394.78 121.01 394.36 120.62Q393.94 120.23 393.00 120.02L391.98 119.80Q391.07 119.59 390.49 119.24Q389.91 118.89 389.63 118.39Q389.35 117.88 389.35 117.22L389.35 117.21Q389.36 116.45 389.77 115.87Q390.18 115.28 390.91 114.95Q391.63 114.62 392.58 114.62Q393.49 114.62 394.20 114.95Q394.90 115.28 395.32 115.83Q395.73 116.38 395.78 117.07L395.78 117.16L394.64 117.16L394.63 117.07Q394.57 116.67 394.30 116.35Q394.03 116.04 393.59 115.86Q393.14 115.67 392.55 115.68Q391.98 115.68 391.52 115.86Q391.06 116.03 390.79 116.37Q390.52 116.70 390.52 117.18L390.52 117.19Q390.52 117.55 390.70 117.84Q390.88 118.13 391.26 118.34Q391.65 118.55 392.27 118.69L393.28 118.92Q394.24 119.12 394.83 119.46Q395.41 119.80 395.68 120.28Q395.95 120.77 395.95 121.43L395.95 121.44Q395.95 122.29 395.53 122.91Q395.11 123.54 394.35 123.88Q393.59 124.22 392.57 124.22ZM399.54 124.00L397.05 114.84L398.24 114.84L400.06 122.29L400.14 122.29L402.19 114.84L403.34 114.84L405.40 122.29L405.47 122.29L407.29 114.84L408.49 114.84L405.99 124.00L404.91 124.00L402.81 116.77L402.73 116.77L400.62 124.00Z"/>
  <rect x="320" y="140" width="152" height="6" rx="3" fill="#0A84FF"/>
  <rect x="320" y="154" width="112" height="6" rx="3" fill="#0A84FF" opacity="0.65"/>
  <rect x="320" y="168" width="72"  height="6" rx="3" fill="#0A84FF" opacity="0.4"/>

  <!-- Sparse leg -->
  <rect class="box" x="300" y="232" width="220" height="104" rx="10"/>
  <path fill="#30D158" d="M322.18 256.94L322.12 255.29L322.41 255.29L326.42 250.84L327.86 250.84L324.07 254.93L323.54 255.45ZM321.17 260.00L321.17 250.84L322.31 250.84L322.31 260.00ZM326.72 260.00L323.29 255.44L324.08 254.64L328.19 260.00ZM331.80 260.12Q330.82 260.12 330.12 259.69Q329.42 259.26 329.04 258.47Q328.66 257.68 328.66 256.60L328.66 256.60Q328.66 255.54 329.04 254.74Q329.42 253.94 330.11 253.49Q330.80 253.04 331.73 253.04Q332.66 253.04 333.33 253.47Q334.00 253.90 334.36 254.67Q334.72 255.44 334.72 256.46L334.72 256.90L329.24 256.90L329.24 256.01L334.16 256.01L333.61 256.82L333.61 256.38Q333.61 255.58 333.37 255.06Q333.13 254.53 332.70 254.28Q332.28 254.02 331.72 254.02Q331.17 254.02 330.74 254.29Q330.30 254.56 330.05 255.09Q329.79 255.61 329.79 256.38L329.79 256.82Q329.79 257.55 330.04 258.07Q330.29 258.58 330.75 258.86Q331.20 259.14 331.83 259.14Q332.29 259.14 332.63 259.01Q332.97 258.88 333.20 258.69Q333.42 258.49 333.51 258.29L333.53 258.23L334.64 258.23L334.62 258.28Q334.54 258.63 334.31 258.96Q334.09 259.28 333.73 259.55Q333.37 259.81 332.89 259.97Q332.40 260.12 331.80 260.12ZM336.81 262.40Q336.71 262.40 336.57 262.39Q336.44 262.38 336.33 262.36L336.33 261.45Q336.43 261.47 336.55 261.48Q336.67 261.49 336.78 261.49Q337.25 261.49 337.55 261.24Q337.86 261.00 338.04 260.41L338.17 260.01L335.63 253.16L336.81 253.16L338.92 259.48L338.48 258.79L339.00 258.79L338.57 259.48L340.67 253.16L341.83 253.16L339.16 260.42Q338.88 261.19 338.57 261.62Q338.26 262.05 337.84 262.22Q337.42 262.40 336.81 262.40ZM344.53 260.00L342.62 253.16L343.72 253.16L345.07 258.63L345.17 258.63L346.70 253.16L347.75 253.16L349.28 258.63L349.38 258.63L350.72 253.16L351.82 253.16L349.90 260.00L348.79 260.00L347.26 254.71L347.16 254.71L345.64 260.00ZM355.76 260.12Q354.79 260.12 354.08 259.69Q353.38 259.26 352.99 258.47Q352.61 257.68 352.61 256.58L352.61 256.57Q352.61 255.47 352.99 254.68Q353.38 253.89 354.08 253.46Q354.79 253.04 355.76 253.04Q356.74 253.04 357.44 253.46Q358.15 253.89 358.53 254.68Q358.92 255.47 358.92 256.57L358.92 256.58Q358.92 257.68 358.53 258.47Q358.15 259.26 357.44 259.69Q356.74 260.12 355.76 260.12ZM355.76 259.14Q356.41 259.14 356.86 258.84Q357.31 258.53 357.55 257.96Q357.79 257.39 357.79 256.58L357.79 256.57Q357.79 255.76 357.55 255.19Q357.31 254.62 356.86 254.32Q356.41 254.01 355.76 254.01Q355.12 254.01 354.66 254.32Q354.21 254.62 353.98 255.19Q353.74 255.76 353.74 256.57L353.74 256.58Q353.74 257.39 353.98 257.96Q354.21 258.53 354.66 258.84Q355.12 259.14 355.76 259.14ZM360.56 260.00L360.56 253.16L361.66 253.16L361.66 254.17L361.76 254.17Q361.96 253.63 362.43 253.33Q362.90 253.04 363.59 253.04Q363.75 253.04 363.90 253.05Q364.06 253.07 364.14 253.08L364.14 254.15Q363.97 254.12 363.81 254.11Q363.65 254.09 363.46 254.09Q362.94 254.09 362.53 254.30Q362.12 254.51 361.89 254.88Q361.66 255.26 361.66 255.76L361.66 260.00ZM367.77 260.12Q366.90 260.12 366.26 259.68Q365.61 259.24 365.25 258.45Q364.90 257.65 364.90 256.58L364.90 256.57Q364.90 255.50 365.25 254.71Q365.61 253.91 366.25 253.47Q366.90 253.04 367.77 253.04Q368.24 253.04 368.65 253.19Q369.07 253.33 369.39 253.60Q369.71 253.87 369.90 254.24L370.00 254.24L370.00 250.44L371.10 250.44L371.10 260.00L370.00 260.00L370.00 258.91L369.90 258.91Q369.69 259.29 369.37 259.56Q369.05 259.83 368.65 259.97Q368.24 260.12 367.77 260.12ZM368.02 259.14Q368.64 259.14 369.09 258.83Q369.54 258.52 369.78 257.95Q370.03 257.37 370.03 256.58L370.03 256.57Q370.03 255.78 369.78 255.21Q369.54 254.64 369.09 254.33Q368.64 254.01 368.02 254.01Q367.40 254.01 366.95 254.32Q366.50 254.63 366.26 255.20Q366.03 255.77 366.03 256.57L366.03 256.58Q366.03 257.38 366.26 257.95Q366.50 258.53 366.95 258.84Q367.40 259.14 368.02 259.14ZM377.63 257.14Q377.29 257.14 377.05 256.89Q376.81 256.65 376.81 256.31Q376.81 255.97 377.05 255.73Q377.29 255.49 377.63 255.49Q377.97 255.49 378.21 255.73Q378.46 255.97 378.46 256.31Q378.46 256.65 378.21 256.89Q377.97 257.14 377.63 257.14ZM384.80 260.00L384.80 258.99L387.63 258.99Q388.67 258.99 389.20 258.58Q389.74 258.17 389.74 257.38L389.74 257.37Q389.74 256.84 389.49 256.48Q389.24 256.13 388.75 255.95Q388.26 255.77 387.53 255.77L384.80 255.77L384.80 254.79L387.20 254.79Q388.24 254.79 388.77 254.42Q389.29 254.05 389.29 253.33L389.29 253.32Q389.29 252.62 388.82 252.23Q388.35 251.85 387.49 251.85L384.80 251.85L384.80 250.84L387.74 250.84Q388.58 250.84 389.19 251.12Q389.79 251.40 390.12 251.91Q390.45 252.42 390.45 253.12L390.45 253.13Q390.45 253.61 390.23 254.03Q390.02 254.45 389.67 254.73Q389.31 255.02 388.87 255.10L388.87 255.20Q389.49 255.28 389.95 255.58Q390.41 255.87 390.66 256.35Q390.91 256.82 390.91 257.42L390.91 257.44Q390.91 258.24 390.54 258.81Q390.17 259.38 389.48 259.69Q388.78 260.00 387.81 260.00ZM384.23 260.00L384.23 250.84L385.37 250.84L385.37 260.00ZM392.70 260.00L392.70 250.84L394.03 250.84L397.16 258.48L397.26 258.48L400.40 250.84L401.73 250.84L401.73 260.00L400.66 260.00L400.66 253.00L400.10 253.00L401.38 251.09L397.70 260.00L396.73 260.00L393.05 251.09L394.32 253.00L393.77 253.00L393.77 260.00ZM403.84 260.00L403.84 259.21L406.94 255.86Q407.52 255.23 407.85 254.81Q408.18 254.40 408.31 254.06Q408.45 253.72 408.45 253.32L408.45 253.31Q408.45 252.83 408.24 252.45Q408.03 252.07 407.64 251.84Q407.25 251.62 406.72 251.62Q406.17 251.62 405.76 251.85Q405.34 252.07 405.12 252.47Q404.89 252.88 404.89 253.42L404.88 253.43L403.79 253.42L403.78 253.42Q403.78 252.60 404.17 251.97Q404.56 251.34 405.24 250.98Q405.92 250.62 406.79 250.62Q407.59 250.62 408.23 250.96Q408.87 251.29 409.24 251.87Q409.62 252.45 409.62 253.19L409.62 253.20Q409.62 253.72 409.44 254.20Q409.25 254.69 408.80 255.27Q408.34 255.86 407.51 256.72L405.14 259.16L405.43 258.64L405.43 259.16L405.15 258.97L409.77 258.97L409.77 260.00ZM414.62 260.22Q413.77 260.22 413.10 259.88Q412.43 259.54 412.03 258.96Q411.63 258.38 411.56 257.65L411.55 257.58L412.65 257.58L412.66 257.63Q412.71 258.07 412.98 258.43Q413.24 258.79 413.67 259.00Q414.10 259.21 414.63 259.21Q415.24 259.21 415.70 258.94Q416.17 258.67 416.43 258.19Q416.69 257.71 416.69 257.10L416.69 257.09Q416.69 256.48 416.42 256.00Q416.16 255.53 415.70 255.26Q415.25 255.00 414.65 255.00Q414.19 255.00 413.81 255.14Q413.42 255.28 413.13 255.56Q413.01 255.67 412.90 255.80Q412.80 255.94 412.71 256.10L411.72 256.10L412.20 250.84L417.30 250.84L417.30 251.86L413.10 251.86L412.79 254.96L412.89 254.96Q413.09 254.65 413.39 254.44Q413.69 254.23 414.06 254.12Q414.43 254.01 414.85 254.01Q415.71 254.01 416.38 254.40Q417.04 254.80 417.42 255.49Q417.80 256.18 417.80 257.07L417.80 257.08Q417.80 258.00 417.40 258.71Q416.99 259.42 416.27 259.82Q415.55 260.22 414.62 260.22Z"/>
  <rect x="320" y="276" width="140" height="6" rx="3" fill="#30D158"/>
  <rect x="320" y="290" width="116" height="6" rx="3" fill="#30D158" opacity="0.65"/>
  <rect x="320" y="304" width="64"  height="6" rx="3" fill="#30D158" opacity="0.4"/>

  <!-- Fused output -->
  <rect class="box" x="620" y="140" width="220" height="152" rx="10"/>
  <path fill="#BF5AF2" d="M641.17 168.00L641.17 158.84L646.73 158.84L646.73 159.87L642.31 159.87L642.31 163.02L646.37 163.02L646.37 164.03L642.31 164.03L642.31 168.00ZM650.68 168.12Q649.91 168.12 649.38 167.83Q648.85 167.53 648.59 166.96Q648.33 166.39 648.33 165.59L648.33 161.16L649.43 161.16L649.43 165.32Q649.43 166.24 649.79 166.69Q650.15 167.14 650.97 167.14Q651.42 167.14 651.77 167.01Q652.11 166.88 652.35 166.63Q652.58 166.38 652.70 166.02Q652.82 165.66 652.82 165.21L652.82 161.16L653.92 161.16L653.92 168.00L652.82 168.00L652.82 166.98L652.71 166.98Q652.55 167.34 652.26 167.60Q651.98 167.85 651.58 167.99Q651.18 168.12 650.68 168.12ZM658.25 168.12Q657.49 168.12 656.90 167.89Q656.32 167.66 655.97 167.24Q655.62 166.82 655.55 166.25L655.55 166.25L656.68 166.25L656.68 166.25Q656.82 166.68 657.23 166.94Q657.63 167.20 658.29 167.20Q658.75 167.20 659.10 167.06Q659.46 166.93 659.66 166.69Q659.86 166.45 659.86 166.14L659.86 166.13Q659.86 165.78 659.58 165.53Q659.30 165.29 658.67 165.14L657.61 164.88Q656.97 164.73 656.55 164.49Q656.14 164.24 655.95 163.88Q655.75 163.52 655.75 163.04L655.75 163.03Q655.75 162.46 656.08 162.01Q656.42 161.56 656.99 161.30Q657.57 161.04 658.29 161.04Q659.01 161.04 659.57 161.26Q660.12 161.49 660.46 161.90Q660.80 162.31 660.88 162.87L660.88 162.87L659.79 162.87L659.79 162.87Q659.68 162.46 659.30 162.21Q658.91 161.96 658.29 161.96Q657.88 161.96 657.56 162.09Q657.25 162.22 657.06 162.45Q656.88 162.67 656.88 162.98L656.88 162.99Q656.88 163.22 657.00 163.40Q657.12 163.58 657.37 163.71Q657.63 163.84 658.03 163.94L659.08 164.20Q659.73 164.35 660.15 164.60Q660.57 164.85 660.78 165.20Q660.99 165.56 660.99 166.04L660.99 166.06Q660.99 166.67 660.63 167.13Q660.27 167.60 659.65 167.86Q659.03 168.12 658.25 168.12ZM662.65 168.00L662.65 161.16L663.76 161.16L663.76 168.00ZM663.21 159.84Q662.90 159.84 662.68 159.61Q662.45 159.39 662.45 159.08Q662.45 158.76 662.68 158.54Q662.90 158.31 663.21 158.31Q663.53 158.31 663.75 158.54Q663.98 158.76 663.98 159.08Q663.98 159.39 663.75 159.61Q663.53 159.84 663.21 159.84ZM668.58 168.12Q667.61 168.12 666.90 167.69Q666.19 167.26 665.81 166.47Q665.42 165.68 665.42 164.58L665.42 164.57Q665.42 163.47 665.81 162.68Q666.19 161.89 666.90 161.46Q667.61 161.04 668.58 161.04Q669.55 161.04 670.26 161.46Q670.96 161.89 671.35 162.68Q671.73 163.47 671.73 164.57L671.73 164.58Q671.73 165.68 671.35 166.47Q670.96 167.26 670.26 167.69Q669.55 168.12 668.58 168.12ZM668.58 167.14Q669.22 167.14 669.68 166.84Q670.13 166.53 670.36 165.96Q670.60 165.39 670.60 164.58L670.60 164.57Q670.60 163.76 670.36 163.19Q670.13 162.62 669.68 162.32Q669.22 162.01 668.58 162.01Q667.93 162.01 667.48 162.32Q667.03 162.62 666.79 163.19Q666.55 163.76 666.55 164.57L666.55 164.58Q666.55 165.39 666.79 165.96Q667.03 166.53 667.48 166.84Q667.93 167.14 668.58 167.14ZM673.37 168.00L673.37 161.16L674.47 161.16L674.47 162.19L674.58 162.19Q674.84 161.64 675.32 161.34Q675.81 161.04 676.57 161.04Q677.72 161.04 678.34 161.69Q678.96 162.35 678.96 163.57L678.96 168.00L677.86 168.00L677.86 163.84Q677.86 162.91 677.47 162.46Q677.08 162.01 676.26 162.01Q675.71 162.01 675.31 162.25Q674.91 162.48 674.69 162.92Q674.47 163.35 674.47 163.95L674.47 168.00Z"/>
  <path fill="#86868b" d="M641.08 186.00L641.08 177.54L644.31 177.54Q645.12 177.54 645.73 177.86Q646.33 178.17 646.67 178.73Q647.00 179.30 647.00 180.06L647.00 180.07Q647.00 180.95 646.55 181.59Q646.10 182.24 645.30 182.49L647.26 186.00L646.02 186.00L644.21 182.65Q644.20 182.65 644.18 182.65Q644.17 182.65 644.15 182.65L642.13 182.65L642.13 186.00ZM642.13 181.72L644.21 181.72Q645.03 181.72 645.47 181.30Q645.91 180.88 645.91 180.11L645.91 180.09Q645.91 179.34 645.45 178.91Q644.99 178.48 644.17 178.48L642.13 178.48ZM648.92 186.00L648.92 177.54L652.15 177.54Q652.96 177.54 653.57 177.86Q654.17 178.17 654.51 178.73Q654.84 179.30 654.84 180.06L654.84 180.07Q654.84 180.95 654.39 181.59Q653.94 182.24 653.14 182.49L655.10 186.00L653.86 186.00L652.05 182.65Q652.04 182.65 652.02 182.65Q652.01 182.65 651.99 182.65L649.97 182.65L649.97 186.00ZM649.97 181.72L652.05 181.72Q652.87 181.72 653.31 181.30Q653.75 180.88 653.75 180.11L653.75 180.09Q653.75 179.34 653.29 178.91Q652.83 178.48 652.01 178.48L649.97 178.48ZM656.76 186.00L656.76 177.54L661.89 177.54L661.89 178.49L657.81 178.49L657.81 181.40L661.56 181.40L661.56 182.34L657.81 182.34L657.81 186.00ZM669.47 186.11Q668.57 186.11 667.92 185.72Q667.26 185.32 666.91 184.59Q666.55 183.86 666.55 182.85L666.55 182.84Q666.55 181.82 666.91 181.09Q667.26 180.36 667.92 179.96Q668.57 179.57 669.47 179.57Q670.37 179.57 671.02 179.96Q671.67 180.36 672.02 181.09Q672.38 181.82 672.38 182.84L672.38 182.85Q672.38 183.86 672.02 184.59Q671.67 185.32 671.02 185.72Q670.37 186.11 669.47 186.11ZM669.47 185.21Q670.06 185.21 670.48 184.93Q670.90 184.65 671.12 184.12Q671.34 183.59 671.34 182.85L671.34 182.84Q671.34 182.09 671.12 181.56Q670.90 181.03 670.48 180.75Q670.06 180.47 669.47 180.47Q668.87 180.47 668.45 180.75Q668.04 181.03 667.82 181.56Q667.60 182.09 667.60 182.84L667.60 182.85Q667.60 183.59 667.82 184.12Q668.04 184.65 668.45 184.93Q668.87 185.21 669.47 185.21ZM673.96 186.00L673.96 179.68L674.98 179.68L674.98 180.62L675.07 180.62Q675.26 180.12 675.69 179.85Q676.12 179.57 676.76 179.57Q676.91 179.57 677.05 179.59Q677.20 179.60 677.27 179.61L677.27 180.60Q677.11 180.57 676.96 180.56Q676.81 180.54 676.64 180.54Q676.16 180.54 675.78 180.74Q675.41 180.93 675.19 181.28Q674.98 181.62 674.98 182.09L674.98 186.00ZM683.12 186.00L681.36 179.68L682.38 179.68L683.62 184.73L683.71 184.73L685.12 179.68L686.09 179.68L687.50 184.73L687.60 184.73L688.84 179.68L689.85 179.68L688.08 186.00L687.06 186.00L685.64 181.11L685.55 181.11L684.14 186.00ZM693.54 186.11Q692.64 186.11 691.99 185.71Q691.35 185.31 691.00 184.58Q690.65 183.86 690.65 182.87L690.65 182.86Q690.65 181.88 691.00 181.14Q691.35 180.40 691.98 179.99Q692.62 179.57 693.48 179.57Q694.34 179.57 694.96 179.97Q695.58 180.37 695.91 181.08Q696.24 181.79 696.24 182.74L696.24 183.13L691.18 183.13L691.18 182.32L695.72 182.32L695.21 183.06L695.21 182.66Q695.21 181.92 694.99 181.44Q694.77 180.96 694.38 180.72Q693.98 180.48 693.47 180.48Q692.96 180.48 692.56 180.73Q692.16 180.98 691.93 181.46Q691.69 181.95 691.69 182.66L691.69 183.06Q691.69 183.74 691.92 184.22Q692.15 184.69 692.57 184.95Q692.99 185.20 693.57 185.20Q693.99 185.20 694.31 185.09Q694.63 184.97 694.83 184.79Q695.04 184.61 695.12 184.42L695.14 184.37L696.16 184.37L696.15 184.41Q696.07 184.73 695.86 185.04Q695.65 185.34 695.32 185.58Q695.00 185.82 694.55 185.97Q694.10 186.11 693.54 186.11ZM697.84 186.00L697.84 179.68L698.86 179.68L698.86 186.00ZM698.36 178.46Q698.07 178.46 697.86 178.26Q697.66 178.05 697.66 177.76Q697.66 177.47 697.86 177.26Q698.07 177.06 698.36 177.06Q698.65 177.06 698.86 177.26Q699.06 177.47 699.06 177.76Q699.06 178.05 698.86 178.26Q698.65 178.46 698.36 178.46ZM703.39 188.23Q702.62 188.23 702.06 188.01Q701.49 187.80 701.15 187.41Q700.81 187.02 700.73 186.50L700.74 186.50L701.80 186.50L701.80 186.50Q701.89 186.86 702.30 187.09Q702.71 187.32 703.39 187.32Q704.24 187.32 704.71 186.94Q705.19 186.56 705.19 185.86L705.19 184.58L705.10 184.58Q704.90 184.93 704.60 185.17Q704.30 185.42 703.93 185.55Q703.55 185.67 703.12 185.67Q702.30 185.67 701.71 185.28Q701.11 184.89 700.79 184.21Q700.47 183.52 700.47 182.64L700.47 182.62Q700.47 181.74 700.79 181.05Q701.12 180.36 701.72 179.97Q702.31 179.57 703.14 179.57Q703.59 179.57 703.96 179.71Q704.34 179.85 704.63 180.11Q704.92 180.37 705.11 180.73L705.18 180.73L705.18 179.68L706.20 179.68L706.20 185.91Q706.20 186.62 705.86 187.14Q705.51 187.66 704.88 187.94Q704.25 188.23 703.39 188.23ZM703.34 184.77Q703.93 184.77 704.34 184.50Q704.76 184.22 704.99 183.74Q705.21 183.26 705.21 182.64L705.21 182.62Q705.21 182.00 704.99 181.51Q704.76 181.03 704.34 180.75Q703.93 180.47 703.34 180.47Q702.75 180.47 702.35 180.75Q701.94 181.03 701.73 181.51Q701.51 182.00 701.51 182.62L701.51 182.64Q701.51 183.26 701.73 183.74Q701.94 184.22 702.35 184.50Q702.75 184.77 703.34 184.77ZM708.16 186.00L708.16 177.18L709.18 177.18L709.18 180.63L709.27 180.63Q709.51 180.13 709.96 179.85Q710.41 179.57 711.11 179.57Q711.82 179.57 712.31 179.84Q712.80 180.12 713.06 180.64Q713.32 181.16 713.32 181.91L713.32 186.00L712.30 186.00L712.30 182.16Q712.30 181.30 711.94 180.89Q711.58 180.47 710.82 180.47Q710.32 180.47 709.95 180.69Q709.58 180.91 709.38 181.31Q709.18 181.71 709.18 182.26L709.18 186.00ZM717.40 186.05Q716.43 186.05 715.99 185.65Q715.56 185.26 715.56 184.36L715.56 180.53L714.56 180.53L714.56 179.68L715.56 179.68L715.56 178.05L716.61 178.05L716.61 179.68L717.99 179.68L717.99 180.53L716.61 180.53L716.61 184.10Q716.61 184.66 716.82 184.90Q717.03 185.14 717.53 185.14Q717.66 185.14 717.76 185.14Q717.85 185.13 717.99 185.12L717.99 185.99Q717.85 186.01 717.70 186.03Q717.55 186.05 717.40 186.05ZM722.01 186.11Q721.11 186.11 720.46 185.71Q719.81 185.31 719.46 184.58Q719.11 183.86 719.11 182.87L719.11 182.86Q719.11 181.88 719.46 181.14Q719.81 180.40 720.45 179.99Q721.09 179.57 721.94 179.57Q722.80 179.57 723.42 179.97Q724.04 180.37 724.37 181.08Q724.70 181.79 724.70 182.74L724.70 183.13L719.64 183.13L719.64 182.32L724.18 182.32L723.68 183.06L723.68 182.66Q723.68 181.92 723.46 181.44Q723.23 180.96 722.84 180.72Q722.45 180.48 721.94 180.48Q721.43 180.48 721.03 180.73Q720.62 180.98 720.39 181.46Q720.16 181.95 720.16 182.66L720.16 183.06Q720.16 183.74 720.38 184.22Q720.61 184.69 721.04 184.95Q721.46 185.20 722.03 185.20Q722.46 185.20 722.78 185.09Q723.09 184.97 723.30 184.79Q723.50 184.61 723.58 184.42L723.61 184.37L724.63 184.37L724.62 184.41Q724.53 184.73 724.33 185.04Q724.12 185.34 723.79 185.58Q723.46 185.82 723.01 185.97Q722.56 186.11 722.01 186.11ZM728.62 186.11Q727.82 186.11 727.22 185.71Q726.62 185.30 726.30 184.57Q725.97 183.83 725.97 182.85L725.97 182.84Q725.97 181.85 726.30 181.11Q726.62 180.38 727.22 179.98Q727.81 179.57 728.62 179.57Q729.05 179.57 729.43 179.71Q729.82 179.85 730.12 180.09Q730.42 180.34 730.59 180.68L730.68 180.68L730.68 177.18L731.70 177.18L731.70 186.00L730.68 186.00L730.68 184.99L730.59 184.99Q730.39 185.34 730.10 185.59Q729.81 185.84 729.43 185.98Q729.06 186.11 728.62 186.11ZM728.85 185.21Q729.43 185.21 729.84 184.92Q730.26 184.63 730.48 184.10Q730.70 183.57 730.70 182.85L730.70 182.84Q730.70 182.10 730.48 181.58Q730.26 181.05 729.84 180.76Q729.43 180.47 728.85 180.47Q728.28 180.47 727.86 180.76Q727.45 181.04 727.23 181.57Q727.01 182.10 727.01 182.84L727.01 182.85Q727.01 183.58 727.23 184.11Q727.45 184.64 727.86 184.92Q728.28 185.21 728.85 185.21ZM733.57 183.07L733.57 182.12L737.51 182.12L737.51 183.07ZM741.48 186.11Q740.78 186.11 740.24 185.90Q739.70 185.68 739.38 185.30Q739.05 184.91 738.99 184.39L738.99 184.39L740.04 184.39L740.04 184.39Q740.17 184.78 740.54 185.02Q740.92 185.26 741.52 185.26Q741.95 185.26 742.27 185.14Q742.60 185.01 742.79 184.79Q742.97 184.57 742.97 184.28L742.97 184.27Q742.97 183.95 742.71 183.72Q742.46 183.50 741.87 183.36L740.89 183.12Q740.30 182.98 739.92 182.76Q739.54 182.53 739.36 182.20Q739.18 181.87 739.18 181.42L739.18 181.41Q739.18 180.88 739.48 180.47Q739.79 180.05 740.32 179.81Q740.86 179.57 741.53 179.57Q742.19 179.57 742.70 179.78Q743.21 179.99 743.53 180.37Q743.84 180.75 743.91 181.27L743.91 181.27L742.91 181.27L742.91 181.27Q742.81 180.89 742.45 180.66Q742.09 180.42 741.52 180.42Q741.14 180.42 740.85 180.54Q740.56 180.66 740.39 180.87Q740.22 181.08 740.22 181.37L740.22 181.38Q740.22 181.59 740.33 181.75Q740.44 181.92 740.68 182.04Q740.91 182.16 741.28 182.26L742.25 182.49Q742.85 182.63 743.24 182.86Q743.63 183.09 743.82 183.42Q744.02 183.74 744.02 184.20L744.02 184.21Q744.02 184.77 743.68 185.20Q743.35 185.63 742.78 185.87Q742.21 186.11 741.48 186.11ZM747.71 186.11Q747.00 186.11 746.51 185.84Q746.03 185.57 745.78 185.04Q745.54 184.52 745.54 183.77L745.54 179.68L746.56 179.68L746.56 183.53Q746.56 184.38 746.89 184.79Q747.22 185.21 747.98 185.21Q748.39 185.21 748.71 185.09Q749.03 184.96 749.25 184.73Q749.46 184.50 749.57 184.17Q749.68 183.84 749.68 183.42L749.68 179.68L750.70 179.68L750.70 186.00L749.68 186.00L749.68 185.06L749.59 185.06Q749.44 185.39 749.17 185.63Q748.91 185.87 748.54 185.99Q748.18 186.11 747.71 186.11ZM752.60 186.00L752.60 179.68L753.62 179.68L753.62 180.64L753.71 180.64Q753.92 180.13 754.36 179.85Q754.80 179.57 755.42 179.57Q755.85 179.57 756.19 179.71Q756.53 179.85 756.77 180.10Q757.02 180.35 757.16 180.68L757.26 180.68Q757.43 180.35 757.71 180.10Q758.00 179.85 758.38 179.71Q758.76 179.57 759.19 179.57Q759.84 179.57 760.28 179.81Q760.73 180.05 760.97 180.51Q761.20 180.97 761.20 181.63L761.20 186.00L760.18 186.00L760.18 181.87Q760.18 181.40 760.04 181.09Q759.89 180.79 759.60 180.63Q759.31 180.47 758.86 180.47Q758.42 180.47 758.10 180.67Q757.77 180.87 757.59 181.20Q757.40 181.54 757.40 181.94L757.40 186.00L756.38 186.00L756.38 181.71Q756.38 181.34 756.22 181.06Q756.06 180.78 755.77 180.63Q755.47 180.47 755.07 180.47Q754.66 180.47 754.33 180.69Q754.00 180.91 753.81 181.27Q753.62 181.64 753.62 182.09L753.62 186.00Z"/>
  <rect x="640" y="202" width="164" height="6" rx="3" fill="#BF5AF2"/>
  <rect x="640" y="218" width="130" height="6" rx="3" fill="#BF5AF2" opacity="0.75"/>
  <rect x="640" y="234" width="96"  height="6" rx="3" fill="#BF5AF2" opacity="0.5"/>
  <rect x="640" y="250" width="62"  height="6" rx="3" fill="#BF5AF2" opacity="0.3"/>

  <!-- Caption -->
  <path fill="#86868b" d="M41.08 404.00L41.08 395.54L43.98 395.54Q45.23 395.54 46.13 396.05Q47.02 396.55 47.49 397.49Q47.97 398.43 47.97 399.76L47.97 399.78Q47.97 401.11 47.49 402.05Q47.02 403.00 46.13 403.50Q45.24 404.00 43.98 404.00ZM42.13 403.05L43.91 403.05Q44.85 403.05 45.52 402.66Q46.19 402.28 46.54 401.54Q46.89 400.81 46.89 399.79L46.89 399.78Q46.89 398.74 46.54 398.01Q46.18 397.27 45.51 396.88Q44.85 396.49 43.91 396.49L42.13 396.49ZM52.25 404.11Q51.34 404.11 50.70 403.71Q50.05 403.31 49.70 402.58Q49.35 401.86 49.35 400.87L49.35 400.86Q49.35 399.88 49.70 399.14Q50.05 398.40 50.69 397.99Q51.33 397.57 52.18 397.57Q53.04 397.57 53.66 397.97Q54.28 398.37 54.61 399.08Q54.94 399.79 54.94 400.74L54.94 401.13L49.88 401.13L49.88 400.32L54.42 400.32L53.92 401.06L53.92 400.66Q53.92 399.92 53.69 399.44Q53.47 398.96 53.08 398.72Q52.69 398.48 52.18 398.48Q51.67 398.48 51.26 398.73Q50.86 398.98 50.63 399.46Q50.39 399.95 50.39 400.66L50.39 401.06Q50.39 401.74 50.62 402.22Q50.85 402.69 51.27 402.95Q51.70 403.20 52.27 403.20Q52.70 403.20 53.01 403.09Q53.33 402.97 53.54 402.79Q53.74 402.61 53.82 402.42L53.85 402.37L54.87 402.37L54.85 402.41Q54.77 402.73 54.56 403.04Q54.36 403.34 54.03 403.58Q53.70 403.82 53.25 403.97Q52.80 404.11 52.25 404.11ZM56.52 404.00L56.52 397.68L57.54 397.68L57.54 398.63L57.64 398.63Q57.88 398.13 58.33 397.85Q58.78 397.57 59.48 397.57Q60.54 397.57 61.11 398.18Q61.69 398.79 61.69 399.91L61.69 404.00L60.67 404.00L60.67 400.16Q60.67 399.30 60.31 398.89Q59.95 398.47 59.19 398.47Q58.69 398.47 58.32 398.69Q57.95 398.91 57.75 399.31Q57.54 399.71 57.54 400.26L57.54 404.00ZM65.69 404.11Q64.99 404.11 64.45 403.90Q63.91 403.68 63.59 403.30Q63.26 402.91 63.20 402.39L63.20 402.39L64.25 402.39L64.25 402.39Q64.38 402.78 64.75 403.02Q65.12 403.26 65.73 403.26Q66.16 403.26 66.48 403.14Q66.81 403.01 66.99 402.79Q67.18 402.57 67.18 402.28L67.18 402.27Q67.18 401.95 66.92 401.72Q66.67 401.50 66.08 401.36L65.10 401.12Q64.51 400.98 64.13 400.76Q63.75 400.53 63.57 400.20Q63.38 399.87 63.38 399.42L63.38 399.41Q63.38 398.88 63.69 398.47Q64.00 398.05 64.53 397.81Q65.07 397.57 65.73 397.57Q66.40 397.57 66.91 397.78Q67.42 397.99 67.74 398.37Q68.05 398.75 68.12 399.27L68.12 399.27L67.12 399.27L67.12 399.27Q67.02 398.89 66.66 398.66Q66.30 398.42 65.73 398.42Q65.35 398.42 65.06 398.54Q64.77 398.66 64.60 398.87Q64.43 399.08 64.43 399.37L64.43 399.38Q64.43 399.59 64.54 399.75Q64.65 399.92 64.88 400.04Q65.12 400.16 65.49 400.26L66.46 400.49Q67.06 400.63 67.45 400.86Q67.84 401.09 68.03 401.42Q68.22 401.74 68.22 402.20L68.22 402.21Q68.22 402.77 67.89 403.20Q67.56 403.63 66.99 403.87Q66.41 404.11 65.69 404.11ZM72.38 404.11Q71.48 404.11 70.83 403.71Q70.19 403.31 69.84 402.58Q69.49 401.86 69.49 400.87L69.49 400.86Q69.49 399.88 69.84 399.14Q70.19 398.40 70.83 397.99Q71.46 397.57 72.32 397.57Q73.18 397.57 73.80 397.97Q74.42 398.37 74.75 399.08Q75.08 399.79 75.08 400.74L75.08 401.13L70.02 401.13L70.02 400.32L74.56 400.32L74.05 401.06L74.05 400.66Q74.05 399.92 73.83 399.44Q73.61 398.96 73.22 398.72Q72.82 398.48 72.31 398.48Q71.80 398.48 71.40 398.73Q71.00 398.98 70.77 399.46Q70.53 399.95 70.53 400.66L70.53 401.06Q70.53 401.74 70.76 402.22Q70.99 402.69 71.41 402.95Q71.83 403.20 72.41 403.20Q72.84 403.20 73.15 403.09Q73.47 402.97 73.67 402.79Q73.88 402.61 73.96 402.42L73.98 402.37L75.00 402.37L74.99 402.41Q74.91 402.73 74.70 403.04Q74.49 403.34 74.17 403.58Q73.84 403.82 73.39 403.97Q72.94 404.11 72.38 404.11ZM80.04 404.00L80.04 397.68L81.06 397.68L81.06 398.62L81.15 398.62Q81.33 398.12 81.77 397.85Q82.20 397.57 82.84 397.57Q82.98 397.57 83.13 397.59Q83.27 397.60 83.35 397.61L83.35 398.60Q83.19 398.57 83.04 398.56Q82.89 398.54 82.72 398.54Q82.23 398.54 81.86 398.74Q81.48 398.93 81.27 399.28Q81.06 399.62 81.06 400.09L81.06 404.00ZM87.01 404.11Q86.11 404.11 85.46 403.71Q84.81 403.31 84.46 402.58Q84.12 401.86 84.12 400.87L84.12 400.86Q84.12 399.88 84.46 399.14Q84.81 398.40 85.45 397.99Q86.09 397.57 86.95 397.57Q87.81 397.57 88.42 397.97Q89.04 398.37 89.37 399.08Q89.71 399.79 89.71 400.74L89.71 401.13L84.64 401.13L84.64 400.32L89.18 400.32L88.68 401.06L88.68 400.66Q88.68 399.92 88.46 399.44Q88.23 398.96 87.84 398.72Q87.45 398.48 86.94 398.48Q86.43 398.48 86.03 398.73Q85.63 398.98 85.39 399.46Q85.16 399.95 85.16 400.66L85.16 401.06Q85.16 401.74 85.39 402.22Q85.62 402.69 86.04 402.95Q86.46 403.20 87.03 403.20Q87.46 403.20 87.78 403.09Q88.09 402.97 88.30 402.79Q88.50 402.61 88.59 402.42L88.61 402.37L89.63 402.37L89.62 402.41Q89.54 402.73 89.33 403.04Q89.12 403.34 88.79 403.58Q88.46 403.82 88.01 403.97Q87.57 404.11 87.01 404.11ZM93.87 404.11Q92.99 404.11 92.34 403.71Q91.69 403.30 91.33 402.56Q90.97 401.83 90.97 400.82L90.97 400.81Q90.97 399.83 91.33 399.10Q91.68 398.38 92.33 397.97Q92.98 397.57 93.87 397.57Q94.63 397.57 95.19 397.84Q95.75 398.11 96.08 398.57Q96.41 399.02 96.51 399.58L96.51 399.62L95.50 399.62L95.49 399.60Q95.38 399.13 94.96 398.80Q94.54 398.47 93.87 398.47Q93.30 398.47 92.88 398.76Q92.46 399.05 92.24 399.57Q92.01 400.10 92.01 400.81L92.01 400.82Q92.01 401.55 92.24 402.09Q92.47 402.62 92.89 402.92Q93.30 403.21 93.87 403.21Q94.50 403.21 94.91 402.93Q95.31 402.66 95.49 402.13L95.50 402.10L96.51 402.09L96.50 402.15Q96.37 402.72 96.04 403.17Q95.71 403.61 95.17 403.86Q94.63 404.11 93.87 404.11ZM99.74 404.11Q99.14 404.11 98.66 403.88Q98.18 403.65 97.91 403.23Q97.63 402.81 97.63 402.24L97.63 402.22Q97.63 401.66 97.90 401.26Q98.17 400.86 98.68 400.63Q99.20 400.40 99.93 400.36L102.25 400.22L102.25 401.04L100.05 401.18Q99.33 401.22 99.00 401.47Q98.67 401.73 98.67 402.20L98.67 402.21Q98.67 402.69 99.03 402.96Q99.40 403.23 99.95 403.23Q100.47 403.23 100.87 403.02Q101.28 402.81 101.51 402.45Q101.74 402.10 101.74 401.64L101.74 399.68Q101.74 399.09 101.39 398.78Q101.03 398.47 100.32 398.47Q99.75 398.47 99.39 398.68Q99.03 398.88 98.90 399.25L98.90 399.27L97.88 399.27L97.88 399.23Q97.97 398.73 98.30 398.36Q98.63 397.99 99.16 397.78Q99.68 397.57 100.36 397.57Q101.13 397.57 101.67 397.82Q102.20 398.08 102.48 398.55Q102.76 399.02 102.76 399.68L102.76 404.00L101.74 404.00L101.74 403.07L101.65 403.07Q101.45 403.40 101.16 403.64Q100.88 403.87 100.52 403.99Q100.16 404.11 99.74 404.11ZM104.68 404.00L104.68 395.18L105.70 395.18L105.70 404.00ZM107.72 404.00L107.72 395.18L108.74 395.18L108.74 404.00ZM114.49 404.00L114.49 398.53L113.44 398.53L113.44 397.68L114.49 397.68L114.49 396.98Q114.49 396.35 114.70 395.93Q114.91 395.52 115.32 395.32Q115.73 395.12 116.32 395.12Q116.51 395.12 116.68 395.13Q116.85 395.15 117.00 395.18L117.00 395.99Q116.91 395.97 116.79 395.97Q116.66 395.96 116.53 395.96Q115.98 395.96 115.75 396.22Q115.51 396.49 115.51 397.01L115.51 397.68L116.95 397.68L116.95 398.53L115.51 398.53L115.51 404.00ZM120.74 404.11Q119.85 404.11 119.19 403.72Q118.54 403.32 118.18 402.59Q117.83 401.86 117.83 400.85L117.83 400.84Q117.83 399.82 118.18 399.09Q118.54 398.36 119.19 397.96Q119.85 397.57 120.74 397.57Q121.64 397.57 122.29 397.96Q122.95 398.36 123.30 399.09Q123.65 399.82 123.65 400.84L123.65 400.85Q123.65 401.86 123.30 402.59Q122.95 403.32 122.29 403.72Q121.64 404.11 120.74 404.11ZM120.74 403.21Q121.34 403.21 121.76 402.93Q122.17 402.65 122.39 402.12Q122.61 401.59 122.61 400.85L122.61 400.84Q122.61 400.09 122.39 399.56Q122.17 399.03 121.76 398.75Q121.34 398.47 120.74 398.47Q120.14 398.47 119.73 398.75Q119.31 399.03 119.09 399.56Q118.87 400.09 118.87 400.84L118.87 400.85Q118.87 401.59 119.09 402.12Q119.31 402.65 119.73 402.93Q120.14 403.21 120.74 403.21ZM125.24 404.00L125.24 397.68L126.26 397.68L126.26 398.62L126.35 398.62Q126.53 398.12 126.96 397.85Q127.40 397.57 128.04 397.57Q128.18 397.57 128.33 397.59Q128.47 397.60 128.55 397.61L128.55 398.60Q128.39 398.57 128.24 398.56Q128.09 398.54 127.92 398.54Q127.43 398.54 127.06 398.74Q126.68 398.93 126.47 399.28Q126.26 399.62 126.26 400.09L126.26 404.00ZM133.18 404.00L133.18 397.68L134.20 397.68L134.20 398.64L134.29 398.64Q134.51 398.13 134.94 397.85Q135.38 397.57 136.00 397.57Q136.43 397.57 136.77 397.71Q137.11 397.85 137.35 398.10Q137.60 398.35 137.75 398.68L137.84 398.68Q138.01 398.35 138.30 398.10Q138.58 397.85 138.96 397.71Q139.34 397.57 139.77 397.57Q140.42 397.57 140.87 397.81Q141.31 398.05 141.55 398.51Q141.78 398.97 141.78 399.63L141.78 404.00L140.76 404.00L140.76 399.87Q140.76 399.40 140.62 399.09Q140.48 398.79 140.18 398.63Q139.89 398.47 139.45 398.47Q139.01 398.47 138.68 398.67Q138.35 398.87 138.17 399.20Q137.99 399.54 137.99 399.94L137.99 404.00L136.97 404.00L136.97 399.71Q136.97 399.34 136.81 399.06Q136.64 398.78 136.35 398.63Q136.05 398.47 135.65 398.47Q135.24 398.47 134.91 398.69Q134.58 398.91 134.39 399.27Q134.20 399.64 134.20 400.09L134.20 404.00ZM146.20 404.11Q145.30 404.11 144.65 403.71Q144.00 403.31 143.66 402.58Q143.31 401.86 143.31 400.87L143.31 400.86Q143.31 399.88 143.66 399.14Q144.00 398.40 144.64 397.99Q145.28 397.57 146.14 397.57Q147.00 397.57 147.62 397.97Q148.23 398.37 148.57 399.08Q148.90 399.79 148.90 400.74L148.90 401.13L143.83 401.13L143.83 400.32L148.38 400.32L147.87 401.06L147.87 400.66Q147.87 399.92 147.65 399.44Q147.43 398.96 147.03 398.72Q146.64 398.48 146.13 398.48Q145.62 398.48 145.22 398.73Q144.82 398.98 144.58 399.46Q144.35 399.95 144.35 400.66L144.35 401.06Q144.35 401.74 144.58 402.22Q144.81 402.69 145.23 402.95Q145.65 403.20 146.22 403.20Q146.65 403.20 146.97 403.09Q147.29 402.97 147.49 402.79Q147.70 402.61 147.78 402.42L147.80 402.37L148.82 402.37L148.81 402.41Q148.73 402.73 148.52 403.04Q148.31 403.34 147.98 403.58Q147.65 403.82 147.21 403.97Q146.76 404.11 146.20 404.11ZM152.21 404.11Q151.62 404.11 151.14 403.88Q150.66 403.65 150.38 403.23Q150.10 402.81 150.10 402.24L150.10 402.22Q150.10 401.66 150.37 401.26Q150.64 400.86 151.16 400.63Q151.67 400.40 152.41 400.36L154.73 400.22L154.73 401.04L152.53 401.18Q151.81 401.22 151.48 401.47Q151.15 401.73 151.15 402.20L151.15 402.21Q151.15 402.69 151.51 402.96Q151.87 403.23 152.42 403.23Q152.95 403.23 153.35 403.02Q153.75 402.81 153.99 402.45Q154.22 402.10 154.22 401.64L154.22 399.68Q154.22 399.09 153.86 398.78Q153.51 398.47 152.80 398.47Q152.23 398.47 151.87 398.68Q151.50 398.88 151.38 399.25L151.38 399.27L150.36 399.27L150.36 399.23Q150.44 398.73 150.77 398.36Q151.11 397.99 151.63 397.78Q152.16 397.57 152.83 397.57Q153.61 397.57 154.14 397.82Q154.68 398.08 154.96 398.55Q155.24 399.02 155.24 399.68L155.24 404.00L154.22 404.00L154.22 403.07L154.12 403.07Q153.92 403.40 153.64 403.64Q153.36 403.87 153.00 403.99Q152.64 404.11 152.21 404.11ZM157.10 404.00L157.10 397.68L158.12 397.68L158.12 398.63L158.21 398.63Q158.45 398.13 158.90 397.85Q159.36 397.57 160.05 397.57Q161.12 397.57 161.69 398.18Q162.26 398.79 162.26 399.91L162.26 404.00L161.24 404.00L161.24 400.16Q161.24 399.30 160.88 398.89Q160.52 398.47 159.77 398.47Q159.26 398.47 158.89 398.69Q158.52 398.91 158.32 399.31Q158.12 399.71 158.12 400.26L158.12 404.00ZM164.12 404.00L164.12 397.68L165.14 397.68L165.14 404.00ZM164.64 396.46Q164.35 396.46 164.15 396.26Q163.94 396.05 163.94 395.76Q163.94 395.47 164.15 395.26Q164.35 395.06 164.64 395.06Q164.93 395.06 165.14 395.26Q165.34 395.47 165.34 395.76Q165.34 396.05 165.14 396.26Q164.93 396.46 164.64 396.46ZM167.07 404.00L167.07 397.68L168.09 397.68L168.09 398.63L168.18 398.63Q168.42 398.13 168.87 397.85Q169.32 397.57 170.02 397.57Q171.09 397.57 171.66 398.18Q172.23 398.79 172.23 399.91L172.23 404.00L171.21 404.00L171.21 400.16Q171.21 399.30 170.85 398.89Q170.49 398.47 169.73 398.47Q169.23 398.47 168.86 398.69Q168.49 398.91 168.29 399.31Q168.09 399.71 168.09 400.26L168.09 404.00ZM176.67 406.23Q175.91 406.23 175.34 406.01Q174.77 405.80 174.43 405.41Q174.10 405.02 174.02 404.50L174.03 404.50L175.08 404.50L175.09 404.50Q175.17 404.86 175.58 405.09Q175.99 405.32 176.67 405.32Q177.52 405.32 178.00 404.94Q178.47 404.56 178.47 403.86L178.47 402.58L178.38 402.58Q178.18 402.93 177.88 403.17Q177.58 403.42 177.21 403.55Q176.83 403.67 176.40 403.67Q175.59 403.67 174.99 403.28Q174.40 402.89 174.07 402.21Q173.75 401.52 173.75 400.64L173.75 400.62Q173.75 399.74 174.08 399.05Q174.40 398.36 175.00 397.97Q175.60 397.57 176.42 397.57Q176.87 397.57 177.24 397.71Q177.62 397.85 177.91 398.11Q178.20 398.37 178.39 398.73L178.46 398.73L178.46 397.68L179.48 397.68L179.48 403.91Q179.48 404.62 179.14 405.14Q178.80 405.66 178.16 405.94Q177.53 406.23 176.67 406.23ZM176.62 402.77Q177.21 402.77 177.63 402.50Q178.05 402.22 178.27 401.74Q178.50 401.26 178.50 400.64L178.50 400.62Q178.50 400.00 178.27 399.51Q178.05 399.03 177.63 398.75Q177.21 398.47 176.62 398.47Q176.04 398.47 175.63 398.75Q175.22 399.03 175.01 399.51Q174.79 400.00 174.79 400.62L174.79 400.64Q174.79 401.26 175.01 401.74Q175.22 402.22 175.63 402.50Q176.04 402.77 176.62 402.77ZM181.12 406.15L181.63 402.82L182.80 402.82L181.88 406.15ZM188.97 404.00L188.97 403.07L191.59 403.07Q192.54 403.07 193.04 402.69Q193.53 402.31 193.53 401.58L193.53 401.57Q193.53 401.08 193.30 400.75Q193.07 400.43 192.62 400.26Q192.16 400.10 191.49 400.10L188.97 400.10L188.97 399.19L191.19 399.19Q192.15 399.19 192.63 398.85Q193.12 398.51 193.12 397.84L193.12 397.83Q193.12 397.19 192.68 396.83Q192.24 396.48 191.46 396.48L188.97 396.48L188.97 395.54L191.68 395.54Q192.46 395.54 193.02 395.80Q193.58 396.06 193.88 396.53Q194.18 397.00 194.18 397.65L194.18 397.66Q194.18 398.10 193.99 398.49Q193.79 398.87 193.46 399.14Q193.13 399.40 192.72 399.48L192.72 399.57Q193.30 399.64 193.73 399.92Q194.15 400.19 194.38 400.63Q194.61 401.06 194.61 401.62L194.61 401.63Q194.61 402.37 194.27 402.90Q193.93 403.43 193.29 403.72Q192.65 404.00 191.75 404.00ZM188.45 404.00L188.45 395.54L189.50 395.54L189.50 404.00ZM196.33 404.00L196.33 395.54L197.56 395.54L200.45 402.60L200.55 402.60L203.44 395.54L204.67 395.54L204.67 404.00L203.68 404.00L203.68 397.54L203.17 397.54L204.35 395.78L200.95 404.00L200.05 404.00L196.66 395.78L197.83 397.54L197.32 397.54L197.32 404.00ZM206.69 404.00L206.69 403.27L209.55 400.18Q210.09 399.59 210.39 399.21Q210.70 398.83 210.82 398.52Q210.94 398.21 210.94 397.84L210.94 397.82Q210.94 397.38 210.75 397.03Q210.55 396.68 210.20 396.47Q209.84 396.27 209.34 396.27Q208.84 396.27 208.46 396.47Q208.08 396.68 207.87 397.05Q207.65 397.43 207.65 397.92L207.65 397.94L206.64 397.93L206.63 397.92Q206.63 397.17 206.99 396.59Q207.35 396.01 207.98 395.68Q208.60 395.35 209.41 395.35Q210.15 395.35 210.74 395.65Q211.33 395.96 211.68 396.49Q212.02 397.03 212.02 397.71L212.02 397.72Q212.02 398.21 211.85 398.65Q211.69 399.10 211.26 399.64Q210.84 400.18 210.07 400.97L207.89 403.23L208.15 402.74L208.15 403.23L207.89 403.05L212.16 403.05L212.16 404.00ZM216.71 404.20Q215.92 404.20 215.31 403.89Q214.69 403.58 214.32 403.04Q213.95 402.51 213.88 401.83L213.88 401.77L214.89 401.77L214.90 401.81Q214.95 402.22 215.19 402.55Q215.44 402.88 215.83 403.07Q216.23 403.27 216.72 403.27Q217.28 403.27 217.71 403.02Q218.14 402.77 218.38 402.33Q218.62 401.89 218.62 401.32L218.62 401.31Q218.62 400.75 218.37 400.31Q218.13 399.88 217.71 399.63Q217.29 399.38 216.74 399.38Q216.31 399.38 215.96 399.51Q215.61 399.64 215.33 399.90Q215.22 400.00 215.12 400.13Q215.03 400.25 214.94 400.40L214.03 400.40L214.47 395.54L219.18 395.54L219.18 396.49L215.31 396.49L215.02 399.35L215.11 399.35Q215.30 399.06 215.58 398.87Q215.85 398.67 216.19 398.57Q216.54 398.47 216.92 398.47Q217.71 398.47 218.33 398.83Q218.95 399.20 219.30 399.84Q219.65 400.47 219.65 401.29L219.65 401.30Q219.65 402.15 219.27 402.81Q218.89 403.46 218.23 403.83Q217.57 404.20 216.71 404.20ZM224.73 406.11L224.73 397.68L225.75 397.68L225.75 398.69L225.84 398.69Q226.04 398.34 226.33 398.09Q226.62 397.84 227.00 397.71Q227.37 397.57 227.81 397.57Q228.61 397.57 229.21 397.98Q229.80 398.39 230.13 399.12Q230.46 399.85 230.46 400.84L230.46 400.85Q230.46 401.84 230.13 402.57Q229.80 403.30 229.21 403.71Q228.61 404.11 227.81 404.11Q227.38 404.11 226.99 403.97Q226.61 403.84 226.31 403.59Q226.02 403.34 225.84 403.00L225.75 403.00L225.75 406.11ZM227.58 403.21Q228.16 403.21 228.57 402.92Q228.98 402.64 229.20 402.11Q229.42 401.58 229.42 400.85L229.42 400.84Q229.42 400.10 229.20 399.57Q228.98 399.04 228.57 398.76Q228.16 398.47 227.58 398.47Q227.00 398.47 226.59 398.76Q226.17 399.05 225.95 399.58Q225.72 400.10 225.72 400.84L225.72 400.85Q225.72 401.57 225.95 402.10Q226.17 402.63 226.59 402.92Q227.00 403.21 227.58 403.21ZM232.05 404.00L232.05 397.68L233.07 397.68L233.07 398.62L233.17 398.62Q233.35 398.12 233.78 397.85Q234.21 397.57 234.85 397.57Q235.00 397.57 235.14 397.59Q235.29 397.60 235.36 397.61L235.36 398.60Q235.21 398.57 235.06 398.56Q234.91 398.54 234.74 398.54Q234.25 398.54 233.88 398.74Q233.50 398.93 233.29 399.28Q233.07 399.62 233.07 400.09L233.07 404.00ZM239.03 404.11Q238.12 404.11 237.48 403.71Q236.83 403.31 236.48 402.58Q236.13 401.86 236.13 400.87L236.13 400.86Q236.13 399.88 236.48 399.14Q236.83 398.40 237.47 397.99Q238.11 397.57 238.96 397.57Q239.82 397.57 240.44 397.97Q241.06 398.37 241.39 399.08Q241.72 399.79 241.72 400.74L241.72 401.13L236.66 401.13L236.66 400.32L241.20 400.32L240.70 401.06L240.70 400.66Q240.70 399.92 240.47 399.44Q240.25 398.96 239.86 398.72Q239.46 398.48 238.96 398.48Q238.45 398.48 238.04 398.73Q237.64 398.98 237.41 399.46Q237.17 399.95 237.17 400.66L237.17 401.06Q237.17 401.74 237.40 402.22Q237.63 402.69 238.05 402.95Q238.47 403.20 239.05 403.20Q239.48 403.20 239.79 403.09Q240.11 402.97 240.31 402.79Q240.52 402.61 240.60 402.42L240.62 402.37L241.64 402.37L241.63 402.41Q241.55 402.73 241.34 403.04Q241.13 403.34 240.81 403.58Q240.48 403.82 240.03 403.97Q239.58 404.11 239.03 404.11ZM245.89 404.11Q245.00 404.11 244.35 403.71Q243.70 403.30 243.34 402.56Q242.99 401.83 242.99 400.82L242.99 400.81Q242.99 399.83 243.34 399.10Q243.70 398.38 244.35 397.97Q245.00 397.57 245.88 397.57Q246.65 397.57 247.21 397.84Q247.76 398.11 248.10 398.57Q248.43 399.02 248.52 399.58L248.53 399.62L247.52 399.62L247.51 399.60Q247.39 399.13 246.98 398.80Q246.56 398.47 245.88 398.47Q245.31 398.47 244.90 398.76Q244.48 399.05 244.25 399.57Q244.03 400.10 244.03 400.81L244.03 400.82Q244.03 401.55 244.26 402.09Q244.49 402.62 244.90 402.92Q245.32 403.21 245.88 403.21Q246.52 403.21 246.92 402.93Q247.33 402.66 247.50 402.13L247.52 402.10L248.52 402.09L248.51 402.15Q248.38 402.72 248.05 403.17Q247.73 403.61 247.19 403.86Q246.65 404.11 245.89 404.11ZM250.04 404.00L250.04 397.68L251.06 397.68L251.06 404.00ZM250.56 396.46Q250.27 396.46 250.06 396.26Q249.85 396.05 249.85 395.76Q249.85 395.47 250.06 395.26Q250.27 395.06 250.56 395.06Q250.85 395.06 251.05 395.26Q251.26 395.47 251.26 395.76Q251.26 396.05 251.05 396.26Q250.85 396.46 250.56 396.46ZM255.15 404.11Q254.45 404.11 253.91 403.90Q253.37 403.68 253.04 403.30Q252.72 402.91 252.66 402.39L252.66 402.39L253.70 402.39L253.70 402.39Q253.83 402.78 254.21 403.02Q254.58 403.26 255.19 403.26Q255.61 403.26 255.94 403.14Q256.26 403.01 256.45 402.79Q256.64 402.57 256.64 402.28L256.64 402.27Q256.64 401.95 256.38 401.72Q256.12 401.50 255.54 401.36L254.56 401.12Q253.97 400.98 253.59 400.76Q253.21 400.53 253.02 400.20Q252.84 399.87 252.84 399.42L252.84 399.41Q252.84 398.88 253.15 398.47Q253.46 398.05 253.99 397.81Q254.52 397.57 255.19 397.57Q255.85 397.57 256.37 397.78Q256.88 397.99 257.19 398.37Q257.51 398.75 257.58 399.27L257.58 399.27L256.57 399.27L256.57 399.27Q256.47 398.89 256.12 398.66Q255.76 398.42 255.19 398.42Q254.81 398.42 254.52 398.54Q254.22 398.66 254.05 398.87Q253.88 399.08 253.88 399.37L253.88 399.38Q253.88 399.59 254.00 399.75Q254.11 399.92 254.34 400.04Q254.58 400.16 254.95 400.26L255.92 400.49Q256.52 400.63 256.91 400.86Q257.29 401.09 257.49 401.42Q257.68 401.74 257.68 402.20L257.68 402.21Q257.68 402.77 257.35 403.20Q257.01 403.63 256.44 403.87Q255.87 404.11 255.15 404.11ZM259.29 404.00L259.29 397.68L260.31 397.68L260.31 404.00ZM259.80 396.46Q259.52 396.46 259.31 396.26Q259.10 396.05 259.10 395.76Q259.10 395.47 259.31 395.26Q259.52 395.06 259.80 395.06Q260.10 395.06 260.30 395.26Q260.51 395.47 260.51 395.76Q260.51 396.05 260.30 396.26Q260.10 396.46 259.80 396.46ZM264.82 404.11Q263.93 404.11 263.27 403.72Q262.62 403.32 262.27 402.59Q261.91 401.86 261.91 400.85L261.91 400.84Q261.91 399.82 262.27 399.09Q262.62 398.36 263.27 397.96Q263.93 397.57 264.82 397.57Q265.73 397.57 266.38 397.96Q267.03 398.36 267.38 399.09Q267.74 399.82 267.74 400.84L267.74 400.85Q267.74 401.86 267.38 402.59Q267.03 403.32 266.38 403.72Q265.73 404.11 264.82 404.11ZM264.82 403.21Q265.42 403.21 265.84 402.93Q266.25 402.65 266.47 402.12Q266.69 401.59 266.69 400.85L266.69 400.84Q266.69 400.09 266.47 399.56Q266.25 399.03 265.84 398.75Q265.42 398.47 264.82 398.47Q264.23 398.47 263.81 398.75Q263.39 399.03 263.17 399.56Q262.96 400.09 262.96 400.84L262.96 400.85Q262.96 401.59 263.17 402.12Q263.39 402.65 263.81 402.93Q264.23 403.21 264.82 403.21ZM269.32 404.00L269.32 397.68L270.34 397.68L270.34 398.63L270.43 398.63Q270.67 398.13 271.12 397.85Q271.57 397.57 272.27 397.57Q273.34 397.57 273.91 398.18Q274.48 398.79 274.48 399.91L274.48 404.00L273.46 404.00L273.46 400.16Q273.46 399.30 273.10 398.89Q272.74 398.47 271.98 398.47Q271.48 398.47 271.11 398.69Q270.74 398.91 270.54 399.31Q270.34 399.71 270.34 400.26L270.34 404.00ZM280.12 404.00L280.12 398.53L279.07 398.53L279.07 397.68L280.12 397.68L280.12 396.98Q280.12 396.35 280.33 395.93Q280.53 395.52 280.94 395.32Q281.35 395.12 281.95 395.12Q282.14 395.12 282.31 395.13Q282.47 395.15 282.63 395.18L282.63 395.99Q282.54 395.97 282.41 395.97Q282.29 395.96 282.16 395.96Q281.61 395.96 281.37 396.22Q281.14 396.49 281.14 397.01L281.14 397.68L282.57 397.68L282.57 398.53L281.14 398.53L281.14 404.00ZM286.37 404.11Q285.47 404.11 284.82 403.72Q284.17 403.32 283.81 402.59Q283.46 401.86 283.46 400.85L283.46 400.84Q283.46 399.82 283.81 399.09Q284.17 398.36 284.82 397.96Q285.47 397.57 286.37 397.57Q287.27 397.57 287.92 397.96Q288.57 398.36 288.93 399.09Q289.28 399.82 289.28 400.84L289.28 400.85Q289.28 401.86 288.93 402.59Q288.57 403.32 287.92 403.72Q287.27 404.11 286.37 404.11ZM286.37 403.21Q286.97 403.21 287.38 402.93Q287.80 402.65 288.02 402.12Q288.24 401.59 288.24 400.85L288.24 400.84Q288.24 400.09 288.02 399.56Q287.80 399.03 287.38 398.75Q286.97 398.47 286.37 398.47Q285.77 398.47 285.36 398.75Q284.94 399.03 284.72 399.56Q284.50 400.09 284.50 400.84L284.50 400.85Q284.50 401.59 284.72 402.12Q284.94 402.65 285.36 402.93Q285.77 403.21 286.37 403.21ZM290.86 404.00L290.86 397.68L291.88 397.68L291.88 398.62L291.98 398.62Q292.16 398.12 292.59 397.85Q293.03 397.57 293.66 397.57Q293.81 397.57 293.95 397.59Q294.10 397.60 294.17 397.61L294.17 398.60Q294.02 398.57 293.87 398.56Q293.72 398.54 293.55 398.54Q293.06 398.54 292.69 398.74Q292.31 398.93 292.10 399.28Q291.88 399.62 291.88 400.09L291.88 404.00ZM301.39 404.11Q300.48 404.11 299.84 403.71Q299.19 403.31 298.84 402.58Q298.49 401.86 298.49 400.87L298.49 400.86Q298.49 399.88 298.84 399.14Q299.19 398.40 299.83 397.99Q300.47 397.57 301.32 397.57Q302.18 397.57 302.80 397.97Q303.42 398.37 303.75 399.08Q304.08 399.79 304.08 400.74L304.08 401.13L299.02 401.13L299.02 400.32L303.56 400.32L303.06 401.06L303.06 400.66Q303.06 399.92 302.83 399.44Q302.61 398.96 302.22 398.72Q301.83 398.48 301.32 398.48Q300.81 398.48 300.41 398.73Q300.00 398.98 299.77 399.46Q299.54 399.95 299.54 400.66L299.54 401.06Q299.54 401.74 299.76 402.22Q299.99 402.69 300.41 402.95Q300.84 403.20 301.41 403.20Q301.84 403.20 302.15 403.09Q302.47 402.97 302.68 402.79Q302.88 402.61 302.96 402.42L302.99 402.37L304.01 402.37L303.99 402.41Q303.91 402.73 303.70 403.04Q303.50 403.34 303.17 403.58Q302.84 403.82 302.39 403.97Q301.94 404.11 301.39 404.11ZM304.93 404.00L307.09 400.84L304.90 397.68L306.10 397.68L307.60 400.03L307.70 400.03L309.18 397.68L310.32 397.68L308.18 400.80L310.35 404.00L309.16 404.00L307.66 401.62L307.57 401.62L306.07 404.00ZM313.46 404.11Q312.86 404.11 312.38 403.88Q311.90 403.65 311.63 403.23Q311.35 402.81 311.35 402.24L311.35 402.22Q311.35 401.66 311.62 401.26Q311.89 400.86 312.40 400.63Q312.92 400.40 313.65 400.36L315.97 400.22L315.97 401.04L313.77 401.18Q313.05 401.22 312.72 401.47Q312.39 401.73 312.39 402.20L312.39 402.21Q312.39 402.69 312.75 402.96Q313.12 403.23 313.67 403.23Q314.19 403.23 314.59 403.02Q315.00 402.81 315.23 402.45Q315.46 402.10 315.46 401.64L315.46 399.68Q315.46 399.09 315.11 398.78Q314.75 398.47 314.04 398.47Q313.47 398.47 313.11 398.68Q312.75 398.88 312.62 399.25L312.62 399.27L311.60 399.27L311.61 399.23Q311.69 398.73 312.02 398.36Q312.35 397.99 312.88 397.78Q313.40 397.57 314.08 397.57Q314.85 397.57 315.39 397.82Q315.92 398.08 316.20 398.55Q316.48 399.02 316.48 399.68L316.48 404.00L315.46 404.00L315.46 403.07L315.37 403.07Q315.17 403.40 314.88 403.64Q314.60 403.87 314.24 403.99Q313.88 404.11 313.46 404.11ZM320.93 404.11Q320.04 404.11 319.39 403.71Q318.74 403.30 318.38 402.56Q318.03 401.83 318.03 400.82L318.03 400.81Q318.03 399.83 318.38 399.10Q318.74 398.38 319.39 397.97Q320.04 397.57 320.92 397.57Q321.69 397.57 322.25 397.84Q322.80 398.11 323.14 398.57Q323.47 399.02 323.56 399.58L323.57 399.62L322.56 399.62L322.55 399.60Q322.43 399.13 322.02 398.80Q321.60 398.47 320.92 398.47Q320.35 398.47 319.94 398.76Q319.52 399.05 319.30 399.57Q319.07 400.10 319.07 400.81L319.07 400.82Q319.07 401.55 319.30 402.09Q319.53 402.62 319.94 402.92Q320.36 403.21 320.92 403.21Q321.56 403.21 321.96 402.93Q322.37 402.66 322.54 402.13L322.56 402.10L323.56 402.09L323.55 402.15Q323.42 402.72 323.10 403.17Q322.77 403.61 322.23 403.86Q321.69 404.11 320.93 404.11ZM327.42 404.05Q326.45 404.05 326.01 403.65Q325.57 403.26 325.57 402.36L325.57 398.53L324.58 398.53L324.58 397.68L325.57 397.68L325.57 396.05L326.63 396.05L326.63 397.68L328.01 397.68L328.01 398.53L326.63 398.53L326.63 402.10Q326.63 402.66 326.84 402.90Q327.05 403.14 327.54 403.14Q327.68 403.14 327.77 403.14Q327.87 403.13 328.01 403.12L328.01 403.99Q327.87 404.01 327.72 404.03Q327.57 404.05 327.42 404.05ZM335.15 404.05Q334.18 404.05 333.75 403.65Q333.31 403.26 333.31 402.36L333.31 398.53L332.31 398.53L332.31 397.68L333.31 397.68L333.31 396.05L334.36 396.05L334.36 397.68L335.75 397.68L335.75 398.53L334.36 398.53L334.36 402.10Q334.36 402.66 334.57 402.90Q334.79 403.14 335.28 403.14Q335.41 403.14 335.51 403.14Q335.61 403.13 335.75 403.12L335.75 403.99Q335.60 404.01 335.45 404.03Q335.31 404.05 335.15 404.05ZM339.76 404.11Q338.86 404.11 338.21 403.71Q337.56 403.31 337.21 402.58Q336.87 401.86 336.87 400.87L336.87 400.86Q336.87 399.88 337.21 399.14Q337.56 398.40 338.20 397.99Q338.84 397.57 339.70 397.57Q340.56 397.57 341.17 397.97Q341.79 398.37 342.12 399.08Q342.46 399.79 342.46 400.74L342.46 401.13L337.39 401.13L337.39 400.32L341.93 400.32L341.43 401.06L341.43 400.66Q341.43 399.92 341.21 399.44Q340.98 398.96 340.59 398.72Q340.20 398.48 339.69 398.48Q339.18 398.48 338.78 398.73Q338.38 398.98 338.14 399.46Q337.91 399.95 337.91 400.66L337.91 401.06Q337.91 401.74 338.14 402.22Q338.37 402.69 338.79 402.95Q339.21 403.20 339.78 403.20Q340.21 403.20 340.53 403.09Q340.84 402.97 341.05 402.79Q341.25 402.61 341.34 402.42L341.36 402.37L342.38 402.37L342.37 402.41Q342.29 402.73 342.08 403.04Q341.87 403.34 341.54 403.58Q341.21 403.82 340.76 403.97Q340.32 404.11 339.76 404.11ZM344.04 404.00L344.04 397.68L345.06 397.68L345.06 398.62L345.15 398.62Q345.33 398.12 345.77 397.85Q346.20 397.57 346.84 397.57Q346.98 397.57 347.13 397.59Q347.27 397.60 347.35 397.61L347.35 398.60Q347.19 398.57 347.04 398.56Q346.89 398.54 346.72 398.54Q346.23 398.54 345.86 398.74Q345.48 398.93 345.27 399.28Q345.06 399.62 345.06 400.09L345.06 404.00ZM348.72 404.00L348.72 397.68L349.74 397.68L349.74 398.64L349.84 398.64Q350.05 398.13 350.49 397.85Q350.92 397.57 351.54 397.57Q351.97 397.57 352.31 397.71Q352.65 397.85 352.90 398.10Q353.14 398.35 353.29 398.68L353.38 398.68Q353.55 398.35 353.84 398.10Q354.13 397.85 354.50 397.71Q354.88 397.57 355.32 397.57Q355.96 397.57 356.41 397.81Q356.86 398.05 357.09 398.51Q357.33 398.97 357.33 399.63L357.33 404.00L356.31 404.00L356.31 399.87Q356.31 399.40 356.16 399.09Q356.02 398.79 355.73 398.63Q355.43 398.47 354.99 398.47Q354.55 398.47 354.22 398.67Q353.89 398.87 353.71 399.20Q353.53 399.54 353.53 399.94L353.53 404.00L352.51 404.00L352.51 399.71Q352.51 399.34 352.35 399.06Q352.19 398.78 351.89 398.63Q351.60 398.47 351.20 398.47Q350.79 398.47 350.46 398.69Q350.12 398.91 349.93 399.27Q349.74 399.64 349.74 400.09L349.74 404.00ZM361.33 404.11Q360.63 404.11 360.09 403.90Q359.55 403.68 359.23 403.30Q358.90 402.91 358.84 402.39L358.84 402.39L359.89 402.39L359.89 402.39Q360.02 402.78 360.39 403.02Q360.77 403.26 361.37 403.26Q361.80 403.26 362.12 403.14Q362.45 403.01 362.63 402.79Q362.82 402.57 362.82 402.28L362.82 402.27Q362.82 401.95 362.56 401.72Q362.31 401.50 361.72 401.36L360.74 401.12Q360.15 400.98 359.77 400.76Q359.39 400.53 359.21 400.20Q359.03 399.87 359.03 399.42L359.03 399.41Q359.03 398.88 359.33 398.47Q359.64 398.05 360.17 397.81Q360.71 397.57 361.38 397.57Q362.04 397.57 362.55 397.78Q363.06 397.99 363.38 398.37Q363.69 398.75 363.76 399.27L363.76 399.27L362.76 399.27L362.76 399.27Q362.66 398.89 362.30 398.66Q361.94 398.42 361.37 398.42Q360.99 398.42 360.70 398.54Q360.41 398.66 360.24 398.87Q360.07 399.08 360.07 399.37L360.07 399.38Q360.07 399.59 360.18 399.75Q360.29 399.92 360.53 400.04Q360.76 400.16 361.13 400.26L362.10 400.49Q362.70 400.63 363.09 400.86Q363.48 401.09 363.67 401.42Q363.87 401.74 363.87 402.20L363.87 402.21Q363.87 402.77 363.53 403.20Q363.20 403.63 362.63 403.87Q362.05 404.11 361.33 404.11ZM368.35 401.07L368.35 400.12L377.89 400.12L377.89 401.07ZM385.28 404.11Q384.38 404.11 383.73 403.72Q383.08 403.32 382.72 402.59Q382.37 401.86 382.37 400.85L382.37 400.84Q382.37 399.82 382.72 399.09Q383.08 398.36 383.73 397.96Q384.38 397.57 385.28 397.57Q386.18 397.57 386.83 397.96Q387.48 398.36 387.84 399.09Q388.19 399.82 388.19 400.84L388.19 400.85Q388.19 401.86 387.84 402.59Q387.48 403.32 386.83 403.72Q386.18 404.11 385.28 404.11ZM385.28 403.21Q385.88 403.21 386.29 402.93Q386.71 402.65 386.93 402.12Q387.15 401.59 387.15 400.85L387.15 400.84Q387.15 400.09 386.93 399.56Q386.71 399.03 386.29 398.75Q385.88 398.47 385.28 398.47Q384.68 398.47 384.27 398.75Q383.85 399.03 383.63 399.56Q383.41 400.09 383.41 400.84L383.41 400.85Q383.41 401.59 383.63 402.12Q383.85 402.65 384.27 402.93Q384.68 403.21 385.28 403.21ZM389.78 404.00L389.78 397.68L390.79 397.68L390.79 398.63L390.89 398.63Q391.13 398.13 391.58 397.85Q392.03 397.57 392.73 397.57Q393.79 397.57 394.37 398.18Q394.94 398.79 394.94 399.91L394.94 404.00L393.92 404.00L393.92 400.16Q393.92 399.30 393.56 398.89Q393.20 398.47 392.44 398.47Q391.94 398.47 391.57 398.69Q391.20 398.91 391.00 399.31Q390.79 399.71 390.79 400.26L390.79 404.00ZM399.36 404.11Q398.45 404.11 397.81 403.71Q397.16 403.31 396.81 402.58Q396.46 401.86 396.46 400.87L396.46 400.86Q396.46 399.88 396.81 399.14Q397.16 398.40 397.80 397.99Q398.44 397.57 399.29 397.57Q400.15 397.57 400.77 397.97Q401.39 398.37 401.72 399.08Q402.05 399.79 402.05 400.74L402.05 401.13L396.99 401.13L396.99 400.32L401.53 400.32L401.03 401.06L401.03 400.66Q401.03 399.92 400.80 399.44Q400.58 398.96 400.19 398.72Q399.79 398.48 399.29 398.48Q398.78 398.48 398.37 398.73Q397.97 398.98 397.74 399.46Q397.50 399.95 397.50 400.66L397.50 401.06Q397.50 401.74 397.73 402.22Q397.96 402.69 398.38 402.95Q398.80 403.20 399.38 403.20Q399.81 403.20 400.12 403.09Q400.44 402.97 400.64 402.79Q400.85 402.61 400.93 402.42L400.96 402.37L401.97 402.37L401.96 402.41Q401.88 402.73 401.67 403.04Q401.46 403.34 401.14 403.58Q400.81 403.82 400.36 403.97Q399.91 404.11 399.36 404.11ZM407.01 404.00L407.01 397.68L408.03 397.68L408.03 398.62L408.12 398.62Q408.30 398.12 408.74 397.85Q409.17 397.57 409.81 397.57Q409.96 397.57 410.10 397.59Q410.24 397.60 410.32 397.61L410.32 398.60Q410.16 398.57 410.01 398.56Q409.86 398.54 409.69 398.54Q409.21 398.54 408.83 398.74Q408.46 398.93 408.24 399.28Q408.03 399.62 408.03 400.09L408.03 404.00ZM413.31 404.11Q412.71 404.11 412.24 403.88Q411.76 403.65 411.48 403.23Q411.20 402.81 411.20 402.24L411.20 402.22Q411.20 401.66 411.47 401.26Q411.74 400.86 412.26 400.63Q412.77 400.40 413.51 400.36L415.83 400.22L415.83 401.04L413.63 401.18Q412.91 401.22 412.58 401.47Q412.25 401.73 412.25 402.20L412.25 402.21Q412.25 402.69 412.61 402.96Q412.97 403.23 413.52 403.23Q414.04 403.23 414.45 403.02Q414.85 402.81 415.08 402.45Q415.32 402.10 415.32 401.64L415.32 399.68Q415.32 399.09 414.96 398.78Q414.61 398.47 413.90 398.47Q413.33 398.47 412.97 398.68Q412.60 398.88 412.48 399.25L412.47 399.27L411.46 399.27L411.46 399.23Q411.54 398.73 411.87 398.36Q412.21 397.99 412.73 397.78Q413.26 397.57 413.93 397.57Q414.71 397.57 415.24 397.82Q415.78 398.08 416.06 398.55Q416.34 399.02 416.34 399.68L416.34 404.00L415.32 404.00L415.32 403.07L415.22 403.07Q415.02 403.40 414.74 403.64Q414.46 403.87 414.10 403.99Q413.74 404.11 413.31 404.11ZM418.20 404.00L418.20 397.68L419.22 397.68L419.22 398.63L419.31 398.63Q419.55 398.13 420.00 397.85Q420.46 397.57 421.15 397.57Q422.22 397.57 422.79 398.18Q423.36 398.79 423.36 399.91L423.36 404.00L422.34 404.00L422.34 400.16Q422.34 399.30 421.98 398.89Q421.62 398.47 420.87 398.47Q420.36 398.47 419.99 398.69Q419.62 398.91 419.42 399.31Q419.22 399.71 419.22 400.26L419.22 404.00ZM425.26 404.00L425.26 395.18L426.28 395.18L426.28 404.00ZM429.24 404.00L426.77 400.91L427.52 400.26L430.52 404.00ZM426.15 401.73L426.10 400.44L426.37 400.44L429.10 397.68L430.34 397.68L427.34 400.58L427.09 400.82ZM434.00 404.11Q433.10 404.11 432.45 403.71Q431.80 403.31 431.46 402.58Q431.11 401.86 431.11 400.87L431.11 400.86Q431.11 399.88 431.46 399.14Q431.80 398.40 432.44 397.99Q433.08 397.57 433.94 397.57Q434.80 397.57 435.42 397.97Q436.04 398.37 436.37 399.08Q436.70 399.79 436.70 400.74L436.70 401.13L431.63 401.13L431.63 400.32L436.18 400.32L435.67 401.06L435.67 400.66Q435.67 399.92 435.45 399.44Q435.23 398.96 434.83 398.72Q434.44 398.48 433.93 398.48Q433.42 398.48 433.02 398.73Q432.62 398.98 432.38 399.46Q432.15 399.95 432.15 400.66L432.15 401.06Q432.15 401.74 432.38 402.22Q432.61 402.69 433.03 402.95Q433.45 403.20 434.03 403.20Q434.45 403.20 434.77 403.09Q435.09 402.97 435.29 402.79Q435.50 402.61 435.58 402.42L435.60 402.37L436.62 402.37L436.61 402.41Q436.53 402.73 436.32 403.04Q436.11 403.34 435.78 403.58Q435.46 403.82 435.01 403.97Q434.56 404.11 434.00 404.11ZM440.61 404.11Q439.81 404.11 439.22 403.71Q438.62 403.30 438.29 402.57Q437.96 401.83 437.96 400.85L437.96 400.84Q437.96 399.85 438.29 399.11Q438.62 398.38 439.21 397.98Q439.81 397.57 440.61 397.57Q441.04 397.57 441.43 397.71Q441.81 397.85 442.11 398.09Q442.41 398.34 442.58 398.68L442.67 398.68L442.67 395.18L443.69 395.18L443.69 404.00L442.67 404.00L442.67 402.99L442.58 402.99Q442.39 403.34 442.09 403.59Q441.80 403.84 441.43 403.98Q441.05 404.11 440.61 404.11ZM440.85 403.21Q441.42 403.21 441.84 402.92Q442.25 402.63 442.47 402.10Q442.70 401.57 442.70 400.85L442.70 400.84Q442.70 400.10 442.47 399.58Q442.25 399.05 441.84 398.76Q441.42 398.47 440.85 398.47Q440.27 398.47 439.86 398.76Q439.45 399.04 439.23 399.57Q439.01 400.10 439.01 400.84L439.01 400.85Q439.01 401.58 439.23 402.11Q439.45 402.64 439.86 402.92Q440.27 403.21 440.85 403.21ZM449.08 404.00L449.08 395.18L450.10 395.18L450.10 404.00ZM452.08 404.00L452.08 397.68L453.10 397.68L453.10 404.00ZM452.60 396.46Q452.31 396.46 452.10 396.26Q451.90 396.05 451.90 395.76Q451.90 395.47 452.10 395.26Q452.31 395.06 452.60 395.06Q452.89 395.06 453.10 395.26Q453.30 395.47 453.30 395.76Q453.30 396.05 453.10 396.26Q452.89 396.46 452.60 396.46ZM457.19 404.11Q456.49 404.11 455.95 403.90Q455.41 403.68 455.09 403.30Q454.76 402.91 454.70 402.39L454.70 402.39L455.75 402.39L455.75 402.39Q455.88 402.78 456.25 403.02Q456.62 403.26 457.23 403.26Q457.66 403.26 457.98 403.14Q458.31 403.01 458.49 402.79Q458.68 402.57 458.68 402.28L458.68 402.27Q458.68 401.95 458.42 401.72Q458.17 401.50 457.58 401.36L456.60 401.12Q456.01 400.98 455.63 400.76Q455.25 400.53 455.07 400.20Q454.88 399.87 454.88 399.42L454.88 399.41Q454.88 398.88 455.19 398.47Q455.50 398.05 456.03 397.81Q456.57 397.57 457.23 397.57Q457.90 397.57 458.41 397.78Q458.92 397.99 459.24 398.37Q459.55 398.75 459.62 399.27L459.62 399.27L458.62 399.27L458.62 399.27Q458.52 398.89 458.16 398.66Q457.80 398.42 457.23 398.42Q456.85 398.42 456.56 398.54Q456.27 398.66 456.10 398.87Q455.93 399.08 455.93 399.37L455.93 399.38Q455.93 399.59 456.04 399.75Q456.15 399.92 456.38 400.04Q456.62 400.16 456.99 400.26L457.96 400.49Q458.56 400.63 458.95 400.86Q459.34 401.09 459.53 401.42Q459.72 401.74 459.72 402.20L459.72 402.21Q459.72 402.77 459.39 403.20Q459.06 403.63 458.49 403.87Q457.91 404.11 457.19 404.11ZM463.49 404.05Q462.52 404.05 462.08 403.65Q461.65 403.26 461.65 402.36L461.65 398.53L460.65 398.53L460.65 397.68L461.65 397.68L461.65 396.05L462.70 396.05L462.70 397.68L464.08 397.68L464.08 398.53L462.70 398.53L462.70 402.10Q462.70 402.66 462.91 402.90Q463.12 403.14 463.62 403.14Q463.75 403.14 463.85 403.14Q463.94 403.13 464.08 403.12L464.08 403.99Q463.94 404.01 463.79 404.03Q463.64 404.05 463.49 404.05ZM466.44 404.06Q466.13 404.06 465.90 403.83Q465.68 403.61 465.68 403.30Q465.68 402.98 465.90 402.76Q466.13 402.54 466.44 402.54Q466.76 402.54 466.98 402.76Q467.20 402.98 467.20 403.30Q467.20 403.61 466.98 403.83Q466.76 404.06 466.44 404.06Z"/>
</svg>
