<svg xmlns="http://www.w3.org/2000/svg" viewBox="0 0 880 240" role="img" aria-label="ProximaKit — search by meaning, on device">
  <style>
    .edge { stroke: #2c2c2e; stroke-width: 1; fill: none; }
    .node { fill: #48484a; }
    .star { animation: breathe 9s cubic-bezier(0.4, 0, 0.2, 1) infinite; transform-origin: 184px 96px; }
    @keyframes breathe {
      0%, 40%   { opacity: 0.45; transform: scale(0.92); }
      62%, 80%  { opacity: 1;    transform: scale(1.0); }
      100%      { opacity: 0.45; transform: scale(0.92); }
    }
  </style>

  <rect width="880" height="240" rx="28" fill="#000000"/>

  <!-- Mark: six stars, one quiet path, one destination -->
  <g>
    <path class="edge" d="M96 168 L150 132 L122 84 L184 96"/>
    <path class="edge" d="M150 132 L196 156"/>
    <path class="edge" d="M122 84 L92 60"/>

    <circle class="node" cx="96"  cy="168" r="3.5"/>
    <circle class="node" cx="150" cy="132" r="3"/>
    <circle class="node" cx="122" cy="84"  r="3"/>
    <circle class="node" cx="196" cy="156" r="2.5"/>
    <circle class="node" cx="92"  cy="60"  r="2.5"/>

    <circle r="3" fill="#0A84FF">
      <animateMotion dur="9s" repeatCount="indefinite"
        keyPoints="0;0;1;1" keyTimes="0;0.18;0.58;1" calcMode="linear"
        path="M96 168 L150 132 L122 84 L184 96"/>
      <animate attributeName="opacity" dur="9s" repeatCount="indefinite"
        values="0;0;1;1;0;0" keyTimes="0;0.18;0.24;0.58;0.66;1"/>
    </circle>

    <g class="star">
      <circle cx="184" cy="96" r="18" fill="#0A84FF" opacity="0.12"/>
      <path fill="#f5f5f7" d="M184 82 L187.2 92.8 L198 96 L187.2 99.2 L184 110 L180.8 99.2 L170 96 L180.8 92.8 Z"/>
    </g>
  </g>

  <!-- Wordmark: genuine SF Pro (.SFNS-Semibold) outlines via CoreText -->
  <path fill="#f5f5f7" d="M287.01 110.97L287.01 105.27L296.94 105.27Q300.74 105.27 302.85 103.31Q304.95 101.35 304.95 97.80L304.95 97.75Q304.95 94.18 302.85 92.24Q300.74 90.29 296.94 90.29L287.01 90.29L287.01 84.54L298.67 84.54Q302.68 84.54 305.69 86.19Q308.70 87.84 310.40 90.80Q312.09 93.77 312.09 97.71L312.09 97.77Q312.09 101.71 310.40 104.69Q308.70 107.66 305.69 109.31Q302.68 110.97 298.67 110.97ZM283.48 124.00L283.48 84.54L290.52 84.54L290.52 124.00ZM316.84 124.00L316.84 95.01L323.64 95.01L323.64 100.01L323.78 100.01Q324.45 97.39 326.19 95.91Q327.92 94.43 330.43 94.43Q331.08 94.43 331.64 94.51Q332.21 94.59 332.59 94.70L332.59 100.84Q332.18 100.67 331.44 100.56Q330.70 100.46 329.82 100.46Q327.90 100.46 326.51 101.24Q325.12 102.03 324.38 103.53Q323.64 105.03 323.64 107.17L323.64 124.00ZM348.09 124.58Q343.83 124.58 340.68 122.76Q337.53 120.95 335.80 117.56Q334.06 114.18 334.06 109.51L334.06 109.46Q334.06 104.80 335.81 101.43Q337.56 98.06 340.72 96.24Q343.87 94.43 348.07 94.43Q352.31 94.43 355.46 96.24Q358.61 98.05 360.36 101.42Q362.11 104.78 362.11 109.46L362.11 109.51Q362.11 114.21 360.37 117.58Q358.64 120.96 355.49 122.77Q352.35 124.58 348.09 124.58ZM348.12 119.07Q350.28 119.07 351.86 117.95Q353.44 116.83 354.31 114.69Q355.18 112.55 355.18 109.51L355.18 109.46Q355.18 106.43 354.30 104.30Q353.43 102.17 351.83 101.05Q350.23 99.94 348.07 99.94Q345.96 99.94 344.36 101.06Q342.76 102.19 341.87 104.31Q340.99 106.43 340.99 109.46L340.99 109.51Q340.99 112.55 341.87 114.69Q342.75 116.83 344.35 117.95Q345.95 119.07 348.12 119.07ZM362.69 124.00L372.05 109.54L362.79 95.01L370.43 95.01L376.27 105.20L376.42 105.20L382.19 95.01L389.64 95.01L380.31 109.34L389.54 124.00L382.11 124.00L376.09 113.60L375.94 113.60L369.94 124.00ZM393.60 124.00L393.60 95.01L400.41 95.01L400.41 124.00ZM397.00 90.86Q395.42 90.86 394.31 89.76Q393.21 88.66 393.21 87.14Q393.21 85.59 394.31 84.50Q395.42 83.41 397.00 83.41Q398.61 83.41 399.70 84.50Q400.80 85.59 400.80 87.14Q400.80 88.66 399.70 89.76Q398.61 90.86 397.00 90.86ZM406.47 124.00L406.47 95.01L413.27 95.01L413.27 99.66L413.41 99.66Q414.33 97.29 416.46 95.86Q418.59 94.43 421.46 94.43Q423.48 94.43 425.09 95.11Q426.71 95.80 427.84 97.10Q428.98 98.40 429.50 100.27L429.65 100.27Q430.35 98.46 431.67 97.16Q433.00 95.85 434.79 95.14Q436.58 94.43 438.67 94.43Q441.53 94.43 443.66 95.64Q445.78 96.85 446.97 99.02Q448.15 101.19 448.15 104.11L448.15 124.00L441.35 124.00L441.35 105.78Q441.35 103.98 440.74 102.73Q440.14 101.47 438.98 100.82Q437.83 100.16 436.15 100.16Q434.51 100.16 433.26 100.91Q432.01 101.67 431.31 103.00Q430.62 104.34 430.62 106.09L430.62 124.00L424.00 124.00L424.00 105.43Q424.00 103.80 423.37 102.62Q422.75 101.44 421.61 100.80Q420.46 100.16 418.87 100.16Q417.22 100.16 415.96 100.95Q414.70 101.74 413.99 103.11Q413.27 104.48 413.27 106.26L413.27 124.00ZM462.45 124.49Q459.57 124.49 457.38 123.39Q455.19 122.28 453.96 120.30Q452.74 118.31 452.74 115.74L452.74 115.69Q452.74 113.10 454.03 111.25Q455.33 109.39 457.79 108.31Q460.25 107.23 463.75 107.02L474.85 106.35L474.85 110.84L464.71 111.49Q462.21 111.63 460.87 112.67Q459.53 113.71 459.53 115.43L459.53 115.48Q459.53 117.25 460.88 118.27Q462.23 119.29 464.48 119.29Q466.44 119.29 467.98 118.50Q469.52 117.72 470.43 116.35Q471.33 114.97 471.33 113.26L471.33 104.55Q471.33 102.36 469.95 101.10Q468.57 99.84 465.98 99.84Q463.57 99.84 462.12 100.86Q460.67 101.88 460.32 103.48L460.27 103.74L453.96 103.74L453.99 103.42Q454.22 100.84 455.72 98.81Q457.22 96.77 459.88 95.60Q462.55 94.43 466.22 94.43Q469.85 94.43 472.52 95.62Q475.19 96.82 476.66 98.98Q478.13 101.15 478.13 104.06L478.13 124.00L471.33 124.00L471.33 119.54L471.18 119.54Q470.35 121.06 469.03 122.17Q467.71 123.29 466.04 123.89Q464.37 124.49 462.45 124.49Z"/>
  <path fill="#86868b" d="M491.25 111.72L491.25 103.07L491.80 103.07L507.09 84.54L515.17 84.54L500.25 102.37L499.13 102.37ZM484.58 124.00L484.58 84.54L491.62 84.54L491.62 124.00ZM507.79 124.00L494.52 105.27L499.58 100.55L516.35 124.00ZM519.88 124.00L519.88 95.01L526.68 95.01L526.68 124.00ZM523.28 90.86Q521.69 90.86 520.59 89.76Q519.49 88.66 519.49 87.14Q519.49 85.59 520.59 84.50Q521.69 83.41 523.28 83.41Q524.88 83.41 525.98 84.50Q527.07 85.59 527.07 87.14Q527.07 88.66 525.98 89.76Q524.88 90.86 523.28 90.86ZM543.51 124.58Q538.98 124.58 536.79 122.61Q534.59 120.63 534.59 116.16L534.59 100.26L530.49 100.26L530.49 95.01L534.59 95.01L534.59 87.66L541.50 87.66L541.50 95.01L546.88 95.01L546.88 100.26L541.50 100.26L541.50 115.59Q541.50 117.72 542.44 118.53Q543.38 119.33 545.23 119.33Q545.73 119.33 546.13 119.29Q546.54 119.25 546.88 119.21L546.88 124.32Q546.30 124.41 545.43 124.50Q544.56 124.58 543.51 124.58Z"/>
  <!-- Tagline: .SFNS-Regular outlines -->
  <path fill="#86868b" d="M286.13 160.27Q284.90 160.27 283.98 159.86Q283.06 159.46 282.53 158.75Q281.99 158.05 281.91 157.13L281.90 157.05L283.30 157.05L283.31 157.13Q283.37 157.70 283.75 158.11Q284.12 158.52 284.76 158.74Q285.40 158.97 286.21 158.97Q286.98 158.97 287.57 158.72Q288.17 158.48 288.52 158.04Q288.86 157.60 288.86 157.03L288.86 157.02Q288.86 156.32 288.34 155.84Q287.83 155.36 286.66 155.10L285.41 154.83Q284.29 154.58 283.57 154.14Q282.86 153.71 282.52 153.09Q282.18 152.47 282.18 151.66L282.18 151.65Q282.19 150.71 282.69 149.99Q283.20 149.27 284.09 148.87Q284.98 148.46 286.15 148.46Q287.27 148.46 288.14 148.86Q289.01 149.27 289.52 149.95Q290.03 150.62 290.09 151.47L290.09 151.58L288.69 151.58L288.67 151.48Q288.59 150.98 288.27 150.59Q287.94 150.20 287.39 149.98Q286.84 149.75 286.11 149.76Q285.41 149.76 284.84 149.98Q284.28 150.20 283.95 150.61Q283.62 151.02 283.62 151.61L283.62 151.62Q283.62 152.06 283.84 152.42Q284.05 152.77 284.53 153.03Q285.00 153.29 285.77 153.46L287.02 153.74Q288.20 154.00 288.91 154.41Q289.63 154.83 289.96 155.43Q290.30 156.02 290.30 156.84L290.30 156.84Q290.30 157.90 289.78 158.66Q289.27 159.43 288.33 159.85Q287.39 160.27 286.13 160.27ZM295.59 160.15Q294.38 160.15 293.52 159.62Q292.66 159.09 292.19 158.11Q291.73 157.14 291.73 155.82L291.73 155.81Q291.73 154.51 292.19 153.52Q292.66 152.54 293.51 151.98Q294.36 151.43 295.50 151.43Q296.65 151.43 297.47 151.96Q298.30 152.49 298.74 153.44Q299.18 154.39 299.18 155.65L299.18 156.18L292.43 156.18L292.43 155.09L298.48 155.09L297.81 156.09L297.81 155.55Q297.81 154.55 297.52 153.91Q297.22 153.27 296.70 152.96Q296.17 152.64 295.49 152.64Q294.81 152.64 294.28 152.97Q293.74 153.30 293.43 153.95Q293.12 154.60 293.12 155.55L293.12 156.09Q293.12 156.98 293.42 157.62Q293.73 158.26 294.29 158.60Q294.85 158.94 295.62 158.94Q296.19 158.94 296.61 158.78Q297.03 158.62 297.30 158.38Q297.58 158.14 297.69 157.89L297.72 157.82L299.08 157.82L299.06 157.88Q298.95 158.31 298.68 158.71Q298.40 159.12 297.96 159.44Q297.52 159.77 296.93 159.96Q296.33 160.15 295.59 160.15ZM303.29 160.15Q302.49 160.15 301.86 159.84Q301.22 159.54 300.85 158.98Q300.48 158.41 300.48 157.65L300.48 157.63Q300.48 156.88 300.84 156.35Q301.20 155.81 301.88 155.51Q302.57 155.20 303.55 155.15L306.64 154.96L306.64 156.05L303.71 156.23Q302.75 156.29 302.31 156.63Q301.87 156.98 301.87 157.60L301.87 157.62Q301.87 158.26 302.35 158.61Q302.84 158.97 303.57 158.97Q304.27 158.97 304.80 158.69Q305.34 158.41 305.65 157.94Q305.96 157.46 305.96 156.86L305.96 154.23Q305.96 153.45 305.49 153.04Q305.02 152.63 304.07 152.63Q303.31 152.63 302.83 152.90Q302.34 153.17 302.18 153.66L302.17 153.69L300.81 153.69L300.82 153.64Q300.93 152.98 301.37 152.48Q301.81 151.98 302.52 151.71Q303.22 151.43 304.12 151.43Q305.15 151.43 305.86 151.77Q306.58 152.10 306.95 152.73Q307.32 153.36 307.32 154.23L307.32 160.00L305.96 160.00L305.96 158.76L305.84 158.76Q305.57 159.20 305.19 159.52Q304.81 159.83 304.34 159.99Q303.86 160.15 303.29 160.15ZM309.49 160.00L309.49 151.58L310.85 151.58L310.85 152.83L310.98 152.83Q311.22 152.16 311.80 151.80Q312.38 151.43 313.23 151.43Q313.42 151.43 313.61 151.45Q313.80 151.47 313.91 151.48L313.91 152.80Q313.70 152.77 313.50 152.75Q313.30 152.73 313.07 152.73Q312.42 152.73 311.92 152.98Q311.42 153.24 311.14 153.70Q310.85 154.16 310.85 154.78L310.85 160.00ZM318.48 160.15Q317.30 160.15 316.44 159.61Q315.57 159.07 315.09 158.09Q314.62 157.10 314.62 155.77L314.62 155.75Q314.62 154.44 315.09 153.47Q315.56 152.50 316.43 151.96Q317.30 151.43 318.48 151.43Q319.50 151.43 320.24 151.79Q320.98 152.15 321.43 152.75Q321.88 153.36 322.00 154.11L322.01 154.16L320.66 154.16L320.65 154.13Q320.49 153.51 319.94 153.07Q319.38 152.63 318.48 152.63Q317.72 152.63 317.16 153.02Q316.61 153.40 316.31 154.10Q316.01 154.80 316.01 155.75L316.01 155.77Q316.01 156.73 316.31 157.45Q316.62 158.16 317.17 158.55Q317.73 158.95 318.48 158.95Q319.33 158.95 319.87 158.58Q320.41 158.21 320.64 157.51L320.66 157.46L322.00 157.45L321.98 157.54Q321.81 158.30 321.38 158.89Q320.94 159.48 320.22 159.81Q319.50 160.15 318.48 160.15ZM323.76 160.00L323.76 148.23L325.12 148.23L325.12 152.84L325.24 152.84Q325.56 152.17 326.16 151.80Q326.77 151.43 327.70 151.43Q328.64 151.43 329.30 151.79Q329.95 152.16 330.30 152.85Q330.64 153.55 330.64 154.55L330.64 160.00L329.28 160.00L329.28 154.88Q329.28 153.73 328.80 153.18Q328.32 152.63 327.31 152.63Q326.64 152.63 326.15 152.92Q325.66 153.21 325.39 153.74Q325.12 154.27 325.12 155.02L325.12 160.00ZM341.16 160.15Q340.57 160.15 340.07 159.97Q339.57 159.79 339.18 159.46Q338.79 159.12 338.53 158.66L338.41 158.66L338.41 160.00L337.05 160.00L337.05 148.23L338.41 148.23L338.41 152.91L338.53 152.91Q338.77 152.45 339.16 152.12Q339.55 151.80 340.07 151.61Q340.58 151.43 341.16 151.43Q342.23 151.43 343.02 151.97Q343.81 152.51 344.25 153.48Q344.69 154.46 344.69 155.78L344.69 155.80Q344.69 157.11 344.25 158.09Q343.81 159.07 343.02 159.61Q342.23 160.15 341.16 160.15ZM340.84 158.95Q341.62 158.95 342.16 158.57Q342.71 158.19 343.00 157.48Q343.30 156.77 343.30 155.80L343.30 155.78Q343.30 154.80 343.00 154.09Q342.71 153.39 342.16 153.01Q341.62 152.63 340.84 152.63Q340.08 152.63 339.52 153.02Q338.97 153.40 338.67 154.10Q338.38 154.80 338.38 155.78L338.38 155.80Q338.38 156.77 338.67 157.47Q338.97 158.18 339.52 158.56Q340.08 158.95 340.84 158.95ZM346.89 162.95Q346.76 162.95 346.59 162.94Q346.43 162.93 346.29 162.91L346.29 161.79Q346.41 161.81 346.56 161.82Q346.71 161.83 346.85 161.83Q347.43 161.83 347.80 161.53Q348.17 161.23 348.40 160.51L348.55 160.01L345.44 151.58L346.89 151.58L349.48 159.36L348.95 158.51L349.59 158.51L349.05 159.36L351.63 151.58L353.06 151.58L349.77 160.52Q349.43 161.46 349.05 161.99Q348.66 162.52 348.15 162.74Q347.64 162.95 346.89 162.95ZM358.73 160.00L358.73 151.58L360.09 151.58L360.09 152.86L360.22 152.86Q360.50 152.18 361.08 151.80Q361.66 151.43 362.49 151.43Q363.06 151.43 363.52 151.62Q363.97 151.80 364.30 152.14Q364.62 152.47 364.82 152.91L364.95 152.91Q365.17 152.46 365.55 152.13Q365.94 151.80 366.44 151.61Q366.95 151.43 367.52 151.43Q368.38 151.43 368.98 151.75Q369.58 152.07 369.89 152.68Q370.20 153.30 370.20 154.18L370.20 160.00L368.84 160.00L368.84 154.49Q368.84 153.87 368.65 153.46Q368.46 153.05 368.07 152.84Q367.68 152.63 367.09 152.63Q366.50 152.63 366.06 152.90Q365.62 153.16 365.38 153.61Q365.14 154.05 365.14 154.59L365.14 160.00L363.78 160.00L363.78 154.28Q363.78 153.78 363.57 153.41Q363.35 153.04 362.96 152.84Q362.56 152.63 362.03 152.63Q361.48 152.63 361.04 152.92Q360.60 153.21 360.35 153.70Q360.09 154.19 360.09 154.78L360.09 160.00ZM375.78 160.15Q374.58 160.15 373.71 159.62Q372.85 159.09 372.39 158.11Q371.92 157.14 371.92 155.82L371.92 155.81Q371.92 154.51 372.39 153.52Q372.85 152.54 373.70 151.98Q374.55 151.43 375.70 151.43Q376.84 151.43 377.67 151.96Q378.49 152.49 378.93 153.44Q379.38 154.39 379.38 155.65L379.38 156.18L372.62 156.18L372.62 155.09L378.68 155.09L378.01 156.09L378.01 155.55Q378.01 154.55 377.71 153.91Q377.41 153.27 376.89 152.96Q376.37 152.64 375.69 152.64Q375.01 152.64 374.47 152.97Q373.94 153.30 373.62 153.95Q373.31 154.60 373.31 155.55L373.31 156.09Q373.31 156.98 373.62 157.62Q373.92 158.26 374.48 158.60Q375.05 158.94 375.81 158.94Q376.38 158.94 376.80 158.78Q377.23 158.62 377.50 158.38Q377.77 158.14 377.88 157.89L377.91 157.82L379.27 157.82L379.26 157.88Q379.15 158.31 378.87 158.71Q378.59 159.12 378.16 159.44Q377.72 159.77 377.12 159.96Q376.52 160.15 375.78 160.15ZM383.48 160.15Q382.69 160.15 382.05 159.84Q381.41 159.54 381.04 158.98Q380.67 158.41 380.67 157.65L380.67 157.63Q380.67 156.88 381.03 156.35Q381.39 155.81 382.08 155.51Q382.77 155.20 383.74 155.15L386.84 154.96L386.84 156.05L383.91 156.23Q382.95 156.29 382.50 156.63Q382.06 156.98 382.06 157.60L382.06 157.62Q382.06 158.26 382.55 158.61Q383.03 158.97 383.77 158.97Q384.46 158.97 385.00 158.69Q385.54 158.41 385.85 157.94Q386.16 157.46 386.16 156.86L386.16 154.23Q386.16 153.45 385.68 153.04Q385.21 152.63 384.27 152.63Q383.51 152.63 383.02 152.90Q382.54 153.17 382.38 153.66L382.37 153.69L381.01 153.69L381.02 153.64Q381.12 152.98 381.57 152.48Q382.01 151.98 382.71 151.71Q383.41 151.43 384.31 151.43Q385.34 151.43 386.06 151.77Q386.77 152.10 387.14 152.73Q387.52 153.36 387.52 154.23L387.52 160.00L386.16 160.00L386.16 158.76L386.03 158.76Q385.77 159.20 385.39 159.52Q385.01 159.83 384.53 159.99Q384.05 160.15 383.48 160.15ZM389.69 160.00L389.69 151.58L391.05 151.58L391.05 152.84L391.17 152.84Q391.49 152.17 392.09 151.80Q392.70 151.43 393.62 151.43Q395.05 151.43 395.81 152.24Q396.57 153.05 396.57 154.55L396.57 160.00L395.21 160.00L395.21 154.88Q395.21 153.73 394.73 153.18Q394.25 152.63 393.24 152.63Q392.57 152.63 392.08 152.92Q391.59 153.21 391.32 153.74Q391.05 154.27 391.05 155.02L391.05 160.00ZM398.74 160.00L398.74 151.58L400.10 151.58L400.10 160.00ZM399.43 149.95Q399.05 149.95 398.77 149.68Q398.49 149.40 398.49 149.02Q398.49 148.62 398.77 148.35Q399.05 148.08 399.43 148.08Q399.82 148.08 400.09 148.35Q400.37 148.62 400.37 149.02Q400.37 149.40 400.09 149.68Q399.82 149.95 399.43 149.95ZM402.35 160.00L402.35 151.58L403.71 151.58L403.71 152.84L403.84 152.84Q404.16 152.17 404.76 151.80Q405.36 151.43 406.29 151.43Q407.71 151.43 408.47 152.24Q409.23 153.05 409.23 154.55L409.23 160.00L407.88 160.00L407.88 154.88Q407.88 153.73 407.39 153.18Q406.91 152.63 405.91 152.63Q405.23 152.63 404.74 152.92Q404.25 153.21 403.98 153.74Q403.71 154.27 403.71 155.02L403.71 160.00ZM414.84 162.97Q413.83 162.97 413.07 162.68Q412.31 162.40 411.86 161.88Q411.41 161.36 411.30 160.67L411.32 160.66L412.73 160.66L412.73 160.67Q412.84 161.15 413.39 161.46Q413.94 161.77 414.84 161.77Q415.98 161.77 416.61 161.25Q417.25 160.74 417.25 159.81L417.25 158.11L417.12 158.11Q416.86 158.57 416.46 158.90Q416.06 159.23 415.56 159.39Q415.06 159.56 414.48 159.56Q413.40 159.56 412.61 159.04Q411.81 158.52 411.38 157.61Q410.95 156.70 410.95 155.52L410.95 155.50Q410.95 154.32 411.39 153.40Q411.82 152.48 412.62 151.96Q413.41 151.43 414.52 151.43Q415.11 151.43 415.61 151.62Q416.11 151.80 416.50 152.15Q416.88 152.49 417.14 152.97L417.23 152.97L417.23 151.58L418.59 151.58L418.59 159.88Q418.59 160.82 418.14 161.52Q417.68 162.21 416.84 162.59Q415.99 162.97 414.84 162.97ZM414.78 158.36Q415.56 158.36 416.12 158.00Q416.68 157.63 416.98 156.99Q417.28 156.35 417.28 155.52L417.28 155.50Q417.28 154.66 416.98 154.02Q416.68 153.37 416.12 153.00Q415.56 152.63 414.78 152.63Q414.00 152.63 413.46 153.00Q412.91 153.37 412.63 154.02Q412.34 154.66 412.34 155.50L412.34 155.52Q412.34 156.35 412.63 156.99Q412.91 157.63 413.46 158.00Q414.00 158.36 414.78 158.36ZM421.92 160.08Q421.51 160.08 421.21 159.78Q420.91 159.48 420.91 159.06Q420.91 158.64 421.21 158.34Q421.51 158.05 421.92 158.05Q422.34 158.05 422.64 158.34Q422.94 158.64 422.94 159.06Q422.94 159.48 422.64 159.78Q422.34 160.08 421.92 160.08ZM434.34 160.27Q432.73 160.27 431.57 159.54Q430.41 158.82 429.79 157.49Q429.17 156.16 429.17 154.37L429.17 154.35Q429.17 152.54 429.80 151.22Q430.43 149.90 431.59 149.18Q432.75 148.46 434.34 148.46Q435.95 148.46 437.11 149.18Q438.27 149.90 438.89 151.22Q439.52 152.55 439.52 154.35L439.52 154.37Q439.52 156.16 438.89 157.49Q438.27 158.81 437.11 159.54Q435.95 160.27 434.34 160.27ZM434.34 158.97Q435.50 158.97 436.34 158.40Q437.17 157.83 437.62 156.79Q438.08 155.76 438.08 154.37L438.08 154.35Q438.08 152.95 437.62 151.91Q437.17 150.88 436.34 150.32Q435.50 149.76 434.34 149.76Q433.20 149.76 432.36 150.32Q431.52 150.88 431.07 151.91Q430.61 152.95 430.61 154.35L430.61 154.37Q430.61 155.76 431.05 156.79Q431.50 157.83 432.34 158.40Q433.17 158.97 434.34 158.97ZM441.47 160.00L441.47 151.58L442.83 151.58L442.83 152.84L442.95 152.84Q443.27 152.17 443.88 151.80Q444.48 151.43 445.41 151.43Q446.83 151.43 447.59 152.24Q448.35 153.05 448.35 154.55L448.35 160.00L446.99 160.00L446.99 154.88Q446.99 153.73 446.51 153.18Q446.03 152.63 445.02 152.63Q444.35 152.63 443.86 152.92Q443.37 153.21 443.10 153.74Q442.83 154.27 442.83 155.02L442.83 160.00ZM457.79 160.15Q456.73 160.15 455.93 159.61Q455.13 159.07 454.70 158.09Q454.26 157.11 454.26 155.80L454.26 155.78Q454.26 154.46 454.70 153.48Q455.13 152.51 455.93 151.97Q456.72 151.43 457.79 151.43Q458.37 151.43 458.88 151.61Q459.39 151.80 459.79 152.12Q460.19 152.45 460.41 152.91L460.54 152.91L460.54 148.23L461.90 148.23L461.90 160.00L460.54 160.00L460.54 158.66L460.41 158.66Q460.16 159.12 459.77 159.46Q459.38 159.79 458.88 159.97Q458.38 160.15 457.79 160.15ZM458.10 158.95Q458.87 158.95 459.42 158.56Q459.98 158.18 460.27 157.47Q460.57 156.77 460.57 155.80L460.57 155.78Q460.57 154.80 460.27 154.10Q459.98 153.40 459.42 153.02Q458.87 152.63 458.10 152.63Q457.34 152.63 456.79 153.01Q456.23 153.39 455.94 154.09Q455.65 154.80 455.65 155.78L455.65 155.80Q455.65 156.77 455.94 157.48Q456.23 158.19 456.79 158.57Q457.34 158.95 458.10 158.95ZM467.63 160.15Q466.43 160.15 465.57 159.62Q464.70 159.09 464.24 158.11Q463.77 157.14 463.77 155.82L463.77 155.81Q463.77 154.51 464.24 153.52Q464.70 152.54 465.55 151.98Q466.41 151.43 467.55 151.43Q468.70 151.43 469.52 151.96Q470.34 152.49 470.79 153.44Q471.23 154.39 471.23 155.65L471.23 156.18L464.48 156.18L464.48 155.09L470.53 155.09L469.86 156.09L469.86 155.55Q469.86 154.55 469.56 153.91Q469.27 153.27 468.74 152.96Q468.22 152.64 467.54 152.64Q466.86 152.64 466.32 152.97Q465.79 153.30 465.48 153.95Q465.16 154.60 465.16 155.55L465.16 156.09Q465.16 156.98 465.47 157.62Q465.77 158.26 466.34 158.60Q466.90 158.94 467.66 158.94Q468.23 158.94 468.66 158.78Q469.08 158.62 469.35 158.38Q469.62 158.14 469.73 157.89L469.77 157.82L471.12 157.82L471.11 157.88Q471.00 158.31 470.72 158.71Q470.45 159.12 470.01 159.44Q469.57 159.77 468.97 159.96Q468.38 160.15 467.63 160.15ZM475.25 160.00L472.13 151.58L473.57 151.58L475.88 158.52L476.00 158.52L478.30 151.58L479.74 151.58L476.62 160.00ZM481.26 160.00L481.26 151.58L482.62 151.58L482.62 160.00ZM481.95 149.95Q481.56 149.95 481.29 149.68Q481.01 149.40 481.01 149.02Q481.01 148.62 481.29 148.35Q481.56 148.08 481.95 148.08Q482.34 148.08 482.61 148.35Q482.88 148.62 482.88 149.02Q482.88 149.40 482.61 149.68Q482.34 149.95 481.95 149.95ZM488.31 160.15Q487.13 160.15 486.27 159.61Q485.40 159.07 484.92 158.09Q484.45 157.10 484.45 155.77L484.45 155.75Q484.45 154.44 484.92 153.47Q485.39 152.50 486.26 151.96Q487.12 151.43 488.30 151.43Q489.33 151.43 490.07 151.79Q490.81 152.15 491.26 152.75Q491.70 153.36 491.83 154.11L491.84 154.16L490.48 154.16L490.48 154.13Q490.32 153.51 489.77 153.07Q489.21 152.63 488.30 152.63Q487.55 152.63 486.99 153.02Q486.44 153.40 486.14 154.10Q485.84 154.80 485.84 155.75L485.84 155.77Q485.84 156.73 486.14 157.45Q486.45 158.16 487.00 158.55Q487.55 158.95 488.30 158.95Q489.16 158.95 489.70 158.58Q490.23 158.21 490.47 157.51L490.48 157.46L491.83 157.45L491.81 157.54Q491.64 158.30 491.20 158.89Q490.77 159.48 490.05 159.81Q489.33 160.15 488.31 160.15ZM496.95 160.15Q495.74 160.15 494.88 159.62Q494.02 159.09 493.55 158.11Q493.09 157.14 493.09 155.82L493.09 155.81Q493.09 154.51 493.55 153.52Q494.02 152.54 494.87 151.98Q495.72 151.43 496.86 151.43Q498.01 151.43 498.83 151.96Q499.66 152.49 500.10 153.44Q500.54 154.39 500.54 155.65L500.54 156.18L493.79 156.18L493.79 155.09L499.84 155.09L499.17 156.09L499.17 155.55Q499.17 154.55 498.88 153.91Q498.58 153.27 498.05 152.96Q497.53 152.64 496.85 152.64Q496.17 152.64 495.64 152.97Q495.10 153.30 494.79 153.95Q494.48 154.60 494.48 155.55L494.48 156.09Q494.48 156.98 494.78 157.62Q495.09 158.26 495.65 158.60Q496.21 158.94 496.98 158.94Q497.55 158.94 497.97 158.78Q498.39 158.62 498.66 158.38Q498.94 158.14 499.05 157.89L499.08 157.82L500.44 157.82L500.42 157.88Q500.31 158.31 500.04 158.71Q499.76 159.12 499.32 159.44Q498.88 159.77 498.29 159.96Q497.69 160.15 496.95 160.15ZM503.45 160.08Q503.03 160.08 502.73 159.78Q502.43 159.48 502.43 159.06Q502.43 158.64 502.73 158.34Q503.03 158.05 503.45 158.05Q503.87 158.05 504.16 158.34Q504.46 158.64 504.46 159.06Q504.46 159.48 504.16 159.78Q503.87 160.08 503.45 160.08Z"/>
</svg>
