<svg xmlns="http://www.w3.org/2000/svg" viewBox="0 0 880 330" role="img" aria-label="Quantization: the same 384-dimensional vector stored at 1,536 bytes as Float32, 388 bytes as INT8 (about 3.96 times smaller), and 48 bytes as PQ codes (about 32 times smaller)">
  <rect width="880" height="330" rx="20" fill="#000000"/>

  <!-- Title + caption: genuine SF outlines via CoreText -->
  <path fill="#f5f5f7" d="M55.73 64.32Q53.66 64.32 52.17 63.43Q50.67 62.53 49.86 60.87Q49.05 59.22 49.05 56.96L49.05 56.94Q49.05 54.67 49.87 53.02Q50.69 51.38 52.18 50.48Q53.68 49.58 55.73 49.58Q57.78 49.58 59.27 50.48Q60.77 51.38 61.58 53.03Q62.39 54.68 62.39 56.94L62.39 56.96Q62.39 59.22 61.58 60.87Q60.78 62.52 59.28 63.42Q57.79 64.32 55.73 64.32ZM55.73 62.15Q56.99 62.15 57.91 61.51Q58.83 60.86 59.33 59.70Q59.83 58.53 59.83 56.96L59.83 56.94Q59.83 55.35 59.33 54.19Q58.82 53.03 57.90 52.40Q56.98 51.76 55.73 51.76Q54.47 51.76 53.55 52.40Q52.63 53.03 52.13 54.19Q51.62 55.35 51.62 56.94L51.62 56.96Q51.62 58.53 52.12 59.70Q52.62 60.87 53.54 61.51Q54.46 62.15 55.73 62.15ZM59.39 65.46L55.04 59.56L57.51 59.56L61.86 65.46ZM67.90 64.21Q66.72 64.21 65.91 63.75Q65.10 63.28 64.69 62.39Q64.28 61.51 64.28 60.26L64.28 53.40L66.71 53.40L66.71 59.72Q66.71 60.92 67.20 61.54Q67.70 62.16 68.79 62.16Q69.36 62.16 69.81 61.98Q70.25 61.80 70.56 61.46Q70.86 61.12 71.02 60.64Q71.17 60.17 71.17 59.57L71.17 53.40L73.60 53.40L73.60 64.00L71.17 64.00L71.17 62.38L71.03 62.38Q70.78 62.94 70.34 63.36Q69.90 63.77 69.29 63.99Q68.67 64.21 67.90 64.21ZM78.84 64.18Q77.82 64.18 77.03 63.78Q76.24 63.39 75.79 62.67Q75.34 61.96 75.34 61.00L75.34 60.98Q75.34 60.03 75.81 59.35Q76.27 58.67 77.17 58.29Q78.07 57.90 79.36 57.82L83.31 57.58L83.31 59.18L79.70 59.42Q78.71 59.47 78.23 59.84Q77.74 60.22 77.74 60.87L77.74 60.89Q77.74 61.55 78.25 61.94Q78.76 62.32 79.57 62.32Q80.30 62.32 80.87 62.02Q81.44 61.73 81.77 61.23Q82.10 60.73 82.10 60.10L82.10 56.79Q82.10 55.99 81.59 55.56Q81.09 55.13 80.11 55.13Q79.27 55.13 78.74 55.43Q78.22 55.74 78.05 56.28L78.03 56.33L75.75 56.33L75.76 56.24Q75.87 55.33 76.45 54.65Q77.02 53.96 77.98 53.58Q78.95 53.19 80.22 53.19Q81.58 53.19 82.54 53.62Q83.50 54.05 84.00 54.85Q84.51 55.64 84.51 56.75L84.51 64.00L82.10 64.00L82.10 62.50L81.96 62.50Q81.66 63.02 81.20 63.40Q80.73 63.78 80.14 63.98Q79.54 64.18 78.84 64.18ZM86.74 64.00L86.74 53.40L89.17 53.40L89.17 55.03L89.31 55.03Q89.70 54.18 90.47 53.69Q91.25 53.19 92.41 53.19Q94.18 53.19 95.12 54.23Q96.06 55.26 96.06 57.15L96.06 64.00L93.63 64.00L93.63 57.69Q93.63 56.48 93.11 55.86Q92.59 55.24 91.50 55.24Q90.78 55.24 90.26 55.56Q89.74 55.88 89.45 56.46Q89.17 57.04 89.17 57.83L89.17 64.00ZM102.38 64.09Q100.59 64.09 99.79 63.41Q98.98 62.73 98.98 61.17L98.98 55.28L97.37 55.28L97.37 53.40L98.98 53.40L98.98 50.78L101.45 50.78L101.45 53.40L103.63 53.40L103.63 55.28L101.45 55.28L101.45 60.69Q101.45 61.47 101.79 61.82Q102.13 62.16 102.86 62.16Q103.10 62.16 103.27 62.15Q103.43 62.14 103.63 62.12L103.63 63.98Q103.38 64.02 103.06 64.06Q102.74 64.09 102.38 64.09ZM105.46 64.00L105.46 53.40L107.89 53.40L107.89 64.00ZM106.68 51.69Q106.10 51.69 105.68 51.27Q105.26 50.86 105.26 50.28Q105.26 49.69 105.68 49.28Q106.10 48.87 106.68 48.87Q107.27 48.87 107.69 49.28Q108.11 49.69 108.11 50.28Q108.11 50.86 107.69 51.27Q107.27 51.69 106.68 51.69ZM109.98 64.00L109.98 62.52L115.60 55.42L115.60 55.28L110.03 55.28L110.03 53.40L118.45 53.40L118.45 55.02L113.03 61.98L113.03 62.12L118.54 62.12L118.54 64.00ZM123.53 64.18Q122.52 64.18 121.73 63.78Q120.94 63.39 120.48 62.67Q120.03 61.96 120.03 61.00L120.03 60.98Q120.03 60.03 120.50 59.35Q120.97 58.67 121.87 58.29Q122.77 57.90 124.05 57.82L128.01 57.58L128.01 59.18L124.40 59.42Q123.41 59.47 122.92 59.84Q122.44 60.22 122.44 60.87L122.44 60.89Q122.44 61.55 122.95 61.94Q123.46 62.32 124.27 62.32Q124.99 62.32 125.56 62.02Q126.13 61.73 126.46 61.23Q126.79 60.73 126.79 60.10L126.79 56.79Q126.79 55.99 126.29 55.56Q125.78 55.13 124.81 55.13Q123.97 55.13 123.44 55.43Q122.92 55.74 122.75 56.28L122.73 56.33L120.45 56.33L120.46 56.24Q120.57 55.33 121.14 54.65Q121.72 53.96 122.68 53.58Q123.64 53.19 124.92 53.19Q126.28 53.19 127.24 53.62Q128.19 54.05 128.70 54.85Q129.20 55.64 129.20 56.75L129.20 64.00L126.79 64.00L126.79 62.50L126.65 62.50Q126.36 63.02 125.89 63.40Q125.43 63.78 124.83 63.98Q124.24 64.18 123.53 64.18ZM135.55 64.09Q133.77 64.09 132.96 63.41Q132.16 62.73 132.16 61.17L132.16 55.28L130.55 55.28L130.55 53.40L132.16 53.40L132.16 50.78L134.63 50.78L134.63 53.40L136.80 53.40L136.80 55.28L134.63 55.28L134.63 60.69Q134.63 61.47 134.96 61.82Q135.30 62.16 136.04 62.16Q136.27 62.16 136.44 62.15Q136.61 62.14 136.80 62.12L136.80 63.98Q136.56 64.02 136.23 64.06Q135.91 64.09 135.55 64.09ZM138.64 64.00L138.64 53.40L141.06 53.40L141.06 64.00ZM139.85 51.69Q139.27 51.69 138.85 51.27Q138.43 50.86 138.43 50.28Q138.43 49.69 138.85 49.28Q139.27 48.87 139.85 48.87Q140.45 48.87 140.86 49.28Q141.28 49.69 141.28 50.28Q141.28 50.86 140.86 51.27Q140.45 51.69 139.85 51.69ZM147.99 64.21Q146.41 64.21 145.27 63.55Q144.12 62.89 143.50 61.65Q142.88 60.42 142.88 58.71L142.88 58.69Q142.88 56.98 143.51 55.75Q144.13 54.52 145.28 53.86Q146.42 53.19 147.99 53.19Q149.56 53.19 150.70 53.86Q151.85 54.52 152.47 55.75Q153.10 56.98 153.10 58.69L153.10 58.71Q153.10 60.42 152.48 61.65Q151.86 62.89 150.71 63.55Q149.57 64.21 147.99 64.21ZM147.99 62.24Q148.82 62.24 149.40 61.82Q149.99 61.40 150.30 60.61Q150.61 59.82 150.61 58.71L150.61 58.69Q150.61 57.58 150.30 56.79Q149.98 56.00 149.40 55.58Q148.81 55.16 147.99 55.16Q147.17 55.16 146.58 55.58Q145.99 56.00 145.68 56.79Q145.36 57.58 145.36 58.69L145.36 58.71Q145.36 59.83 145.68 60.62Q145.99 61.41 146.58 61.83Q147.16 62.24 147.99 62.24ZM154.87 64.00L154.87 53.40L157.30 53.40L157.30 55.03L157.44 55.03Q157.83 54.18 158.61 53.69Q159.38 53.19 160.54 53.19Q162.31 53.19 163.26 54.23Q164.20 55.26 164.20 57.15L164.20 64.00L161.77 64.00L161.77 57.69Q161.77 56.48 161.25 55.86Q160.73 55.24 159.64 55.24Q158.92 55.24 158.40 55.56Q157.87 55.88 157.59 56.46Q157.30 57.04 157.30 57.83L157.30 64.00Z"/>
  <path fill="#86868b" d="M51.85 86.20Q50.92 86.20 50.24 85.90Q49.55 85.60 49.15 85.07Q48.74 84.54 48.68 83.85L48.67 83.79L49.73 83.79L49.73 83.85Q49.78 84.27 50.06 84.58Q50.34 84.89 50.82 85.06Q51.30 85.23 51.91 85.23Q52.48 85.23 52.93 85.04Q53.38 84.86 53.64 84.53Q53.89 84.20 53.89 83.77L53.89 83.77Q53.89 83.24 53.51 82.88Q53.12 82.52 52.25 82.33L51.31 82.12Q50.47 81.93 49.93 81.61Q49.39 81.28 49.14 80.82Q48.88 80.35 48.88 79.74L48.88 79.74Q48.89 79.03 49.27 78.49Q49.65 77.96 50.32 77.65Q50.99 77.35 51.86 77.35Q52.71 77.35 53.36 77.65Q54.01 77.95 54.39 78.46Q54.77 78.97 54.81 79.60L54.82 79.68L53.77 79.68L53.75 79.61Q53.70 79.23 53.45 78.94Q53.20 78.65 52.79 78.48Q52.38 78.31 51.83 78.32Q51.30 78.32 50.88 78.48Q50.46 78.65 50.21 78.95Q49.96 79.26 49.96 79.71L49.96 79.71Q49.96 80.05 50.13 80.31Q50.29 80.58 50.65 80.77Q51.00 80.97 51.57 81.10L52.51 81.31Q53.40 81.50 53.94 81.81Q54.47 82.12 54.72 82.57Q54.97 83.02 54.97 83.63L54.97 83.63Q54.97 84.42 54.59 85.00Q54.20 85.57 53.50 85.89Q52.79 86.20 51.85 86.20ZM58.33 86.11Q57.73 86.11 57.25 85.88Q56.78 85.65 56.50 85.23Q56.22 84.81 56.22 84.24L56.22 84.22Q56.22 83.66 56.49 83.26Q56.76 82.86 57.28 82.63Q57.79 82.40 58.52 82.36L60.84 82.22L60.84 83.04L58.65 83.18Q57.93 83.22 57.59 83.47Q57.26 83.73 57.26 84.20L57.26 84.21Q57.26 84.69 57.63 84.96Q57.99 85.23 58.54 85.23Q59.06 85.23 59.47 85.02Q59.87 84.81 60.10 84.45Q60.33 84.10 60.33 83.64L60.33 81.68Q60.33 81.09 59.98 80.78Q59.62 80.47 58.92 80.47Q58.35 80.47 57.98 80.68Q57.62 80.88 57.50 81.25L57.49 81.27L56.47 81.27L56.48 81.23Q56.56 80.73 56.89 80.36Q57.22 79.99 57.75 79.78Q58.28 79.57 58.95 79.57Q59.72 79.57 60.26 79.82Q60.80 80.08 61.08 80.55Q61.35 81.02 61.35 81.68L61.35 86.00L60.33 86.00L60.33 85.07L60.24 85.07Q60.04 85.40 59.76 85.64Q59.47 85.87 59.12 85.99Q58.76 86.11 58.33 86.11ZM63.22 86.00L63.22 79.68L64.24 79.68L64.24 80.64L64.33 80.64Q64.54 80.13 64.98 79.85Q65.41 79.57 66.04 79.57Q66.46 79.57 66.80 79.71Q67.14 79.85 67.39 80.10Q67.63 80.35 67.78 80.68L67.88 80.68Q68.04 80.35 68.33 80.10Q68.62 79.85 69.00 79.71Q69.38 79.57 69.81 79.57Q70.45 79.57 70.90 79.81Q71.35 80.05 71.58 80.51Q71.82 80.97 71.82 81.63L71.82 86.00L70.80 86.00L70.80 81.87Q70.80 81.40 70.66 81.09Q70.51 80.79 70.22 80.63Q69.93 80.47 69.48 80.47Q69.04 80.47 68.71 80.67Q68.38 80.87 68.20 81.20Q68.02 81.54 68.02 81.94L68.02 86.00L67.00 86.00L67.00 81.71Q67.00 81.34 66.84 81.06Q66.68 80.78 66.38 80.63Q66.09 80.47 65.69 80.47Q65.28 80.47 64.95 80.69Q64.62 80.91 64.43 81.27Q64.24 81.64 64.24 82.09L64.24 86.00ZM76.24 86.11Q75.33 86.11 74.69 85.71Q74.04 85.31 73.69 84.58Q73.34 83.86 73.34 82.87L73.34 82.86Q73.34 81.88 73.69 81.14Q74.04 80.40 74.68 79.99Q75.32 79.57 76.17 79.57Q77.03 79.57 77.65 79.97Q78.27 80.37 78.60 81.08Q78.93 81.79 78.93 82.74L78.93 83.13L73.87 83.13L73.87 82.32L78.41 82.32L77.91 83.06L77.91 82.66Q77.91 81.92 77.68 81.44Q77.46 80.96 77.07 80.72Q76.68 80.48 76.17 80.48Q75.66 80.48 75.25 80.73Q74.85 80.98 74.62 81.46Q74.38 81.95 74.38 82.66L74.38 83.06Q74.38 83.74 74.61 84.22Q74.84 84.69 75.26 84.95Q75.69 85.20 76.26 85.20Q76.69 85.20 77.00 85.09Q77.32 84.97 77.53 84.79Q77.73 84.61 77.81 84.42L77.84 84.37L78.86 84.37L78.84 84.41Q78.76 84.73 78.55 85.04Q78.35 85.34 78.02 85.58Q77.69 85.82 77.24 85.97Q76.79 86.11 76.24 86.11ZM86.76 86.14Q85.89 86.14 85.24 85.84Q84.59 85.54 84.21 85.02Q83.83 84.50 83.77 83.83L83.77 83.76L84.78 83.76L84.79 83.82Q84.83 84.24 85.08 84.55Q85.34 84.87 85.77 85.05Q86.20 85.23 86.76 85.23Q87.32 85.23 87.74 85.03Q88.15 84.84 88.39 84.50Q88.62 84.15 88.62 83.71L88.62 83.70Q88.62 82.92 88.10 82.50Q87.59 82.08 86.70 82.08L85.63 82.08L85.63 81.19L86.65 81.19Q87.15 81.19 87.54 81.00Q87.93 80.81 88.14 80.48Q88.36 80.15 88.36 79.72L88.36 79.71Q88.36 79.27 88.17 78.96Q87.98 78.65 87.62 78.48Q87.26 78.32 86.75 78.32Q86.25 78.32 85.86 78.49Q85.47 78.65 85.24 78.96Q85.00 79.27 84.96 79.70L84.95 79.76L83.94 79.76L83.94 79.70Q84.01 79.01 84.38 78.49Q84.74 77.98 85.35 77.69Q85.96 77.40 86.75 77.40Q87.56 77.40 88.16 77.68Q88.76 77.96 89.09 78.45Q89.42 78.94 89.42 79.58L89.42 79.60Q89.42 80.12 89.19 80.52Q88.96 80.93 88.56 81.20Q88.15 81.46 87.63 81.58L87.63 81.60Q88.55 81.68 89.12 82.22Q89.70 82.77 89.70 83.67L89.70 83.69Q89.70 84.39 89.31 84.95Q88.93 85.50 88.27 85.82Q87.61 86.14 86.76 86.14ZM94.29 86.14Q93.40 86.14 92.71 85.83Q92.02 85.52 91.62 84.97Q91.22 84.42 91.22 83.71L91.22 83.70Q91.22 83.18 91.45 82.74Q91.68 82.29 92.09 81.98Q92.50 81.66 93.04 81.54L93.04 81.52Q92.35 81.30 91.94 80.80Q91.53 80.30 91.53 79.64L91.53 79.62Q91.53 78.99 91.89 78.49Q92.24 77.98 92.87 77.69Q93.50 77.40 94.29 77.40Q95.10 77.40 95.72 77.69Q96.35 77.98 96.70 78.49Q97.06 78.99 97.06 79.62L97.06 79.64Q97.06 80.30 96.65 80.80Q96.25 81.30 95.55 81.52L95.55 81.54Q96.09 81.66 96.50 81.98Q96.91 82.29 97.14 82.74Q97.37 83.18 97.37 83.70L97.37 83.71Q97.37 84.42 96.97 84.97Q96.58 85.52 95.89 85.83Q95.19 86.14 94.29 86.14ZM94.29 85.22Q94.88 85.22 95.33 85.02Q95.78 84.82 96.04 84.46Q96.29 84.11 96.29 83.65L96.29 83.64Q96.29 83.18 96.04 82.82Q95.78 82.46 95.33 82.26Q94.88 82.05 94.29 82.05Q93.71 82.05 93.26 82.26Q92.81 82.46 92.55 82.82Q92.30 83.18 92.30 83.64L92.30 83.65Q92.30 84.11 92.55 84.46Q92.81 84.82 93.26 85.02Q93.71 85.22 94.29 85.22ZM94.29 81.12Q94.80 81.12 95.19 80.95Q95.58 80.77 95.79 80.45Q96.01 80.13 96.01 79.72L96.01 79.71Q96.01 79.30 95.79 78.99Q95.58 78.67 95.19 78.49Q94.80 78.31 94.29 78.31Q93.79 78.31 93.40 78.49Q93.01 78.67 92.79 78.99Q92.58 79.30 92.58 79.71L92.58 79.72Q92.58 80.13 92.79 80.45Q93.01 80.77 93.40 80.95Q93.79 81.12 94.29 81.12ZM102.93 86.00L102.93 84.25L98.81 84.25L98.81 83.29Q99.16 82.71 99.52 82.12Q99.87 81.54 100.24 80.95Q100.61 80.36 100.97 79.78Q101.34 79.20 101.71 78.63Q102.08 78.07 102.43 77.54L103.96 77.54L103.96 83.30L105.16 83.30L105.16 84.25L103.96 84.25L103.96 86.00ZM99.89 83.31L102.94 83.31L102.94 78.52L102.87 78.52Q102.58 78.95 102.28 79.41Q101.98 79.87 101.67 80.35Q101.37 80.83 101.06 81.32Q100.76 81.80 100.46 82.29Q100.17 82.77 99.89 83.24ZM106.71 83.07L106.71 82.12L110.65 82.12L110.65 83.07ZM114.79 86.11Q113.99 86.11 113.40 85.71Q112.80 85.30 112.47 84.57Q112.14 83.83 112.14 82.85L112.14 82.84Q112.14 81.85 112.47 81.11Q112.80 80.38 113.39 79.98Q113.99 79.57 114.79 79.57Q115.22 79.57 115.61 79.71Q115.99 79.85 116.29 80.09Q116.59 80.34 116.76 80.68L116.85 80.68L116.85 77.18L117.87 77.18L117.87 86.00L116.85 86.00L116.85 84.99L116.76 84.99Q116.57 85.34 116.27 85.59Q115.98 85.84 115.61 85.98Q115.23 86.11 114.79 86.11ZM115.03 85.21Q115.60 85.21 116.02 84.92Q116.43 84.63 116.65 84.10Q116.88 83.57 116.88 82.85L116.88 82.84Q116.88 82.10 116.65 81.58Q116.43 81.05 116.02 80.76Q115.60 80.47 115.03 80.47Q114.45 80.47 114.04 80.76Q113.62 81.04 113.41 81.57Q113.19 82.10 113.19 82.84L113.19 82.85Q113.19 83.58 113.41 84.11Q113.62 84.64 114.04 84.92Q114.45 85.21 115.03 85.21ZM119.85 86.00L119.85 79.68L120.87 79.68L120.87 86.00ZM120.37 78.46Q120.08 78.46 119.87 78.26Q119.67 78.05 119.67 77.76Q119.67 77.47 119.87 77.26Q120.08 77.06 120.37 77.06Q120.66 77.06 120.87 77.26Q121.07 77.47 121.07 77.76Q121.07 78.05 120.87 78.26Q120.66 78.46 120.37 78.46ZM122.79 86.00L122.79 79.68L123.81 79.68L123.81 80.64L123.91 80.64Q124.12 80.13 124.56 79.85Q124.99 79.57 125.61 79.57Q126.04 79.57 126.38 79.71Q126.72 79.85 126.97 80.10Q127.21 80.35 127.36 80.68L127.45 80.68Q127.62 80.35 127.91 80.10Q128.20 79.85 128.58 79.71Q128.95 79.57 129.39 79.57Q130.03 79.57 130.48 79.81Q130.93 80.05 131.16 80.51Q131.40 80.97 131.40 81.63L131.40 86.00L130.38 86.00L130.38 81.87Q130.38 81.40 130.23 81.09Q130.09 80.79 129.80 80.63Q129.50 80.47 129.06 80.47Q128.62 80.47 128.29 80.67Q127.96 80.87 127.78 81.20Q127.60 81.54 127.60 81.94L127.60 86.00L126.58 86.00L126.58 81.71Q126.58 81.34 126.42 81.06Q126.26 80.78 125.96 80.63Q125.67 80.47 125.27 80.47Q124.86 80.47 124.53 80.69Q124.20 80.91 124.00 81.27Q123.81 81.64 123.81 82.09L123.81 86.00ZM135.81 86.11Q134.91 86.11 134.26 85.71Q133.62 85.31 133.27 84.58Q132.92 83.86 132.92 82.87L132.92 82.86Q132.92 81.88 133.27 81.14Q133.62 80.40 134.26 79.99Q134.89 79.57 135.75 79.57Q136.61 79.57 137.23 79.97Q137.85 80.37 138.18 81.08Q138.51 81.79 138.51 82.74L138.51 83.13L133.45 83.13L133.45 82.32L137.99 82.32L137.48 83.06L137.48 82.66Q137.48 81.92 137.26 81.44Q137.04 80.96 136.65 80.72Q136.25 80.48 135.74 80.48Q135.23 80.48 134.83 80.73Q134.43 80.98 134.20 81.46Q133.96 81.95 133.96 82.66L133.96 83.06Q133.96 83.74 134.19 84.22Q134.42 84.69 134.84 84.95Q135.26 85.20 135.84 85.20Q136.27 85.20 136.58 85.09Q136.90 84.97 137.10 84.79Q137.31 84.61 137.39 84.42L137.41 84.37L138.43 84.37L138.42 84.41Q138.34 84.73 138.13 85.04Q137.92 85.34 137.60 85.58Q137.27 85.82 136.82 85.97Q136.37 86.11 135.81 86.11ZM140.09 86.00L140.09 79.68L141.11 79.68L141.11 80.63L141.21 80.63Q141.45 80.13 141.90 79.85Q142.35 79.57 143.04 79.57Q144.11 79.57 144.68 80.18Q145.25 80.79 145.25 81.91L145.25 86.00L144.23 86.00L144.23 82.16Q144.23 81.30 143.87 80.89Q143.51 80.47 142.76 80.47Q142.25 80.47 141.88 80.69Q141.52 80.91 141.31 81.31Q141.11 81.71 141.11 82.26L141.11 86.00ZM149.26 86.11Q148.56 86.11 148.02 85.90Q147.48 85.68 147.16 85.30Q146.83 84.91 146.77 84.39L146.77 84.39L147.81 84.39L147.81 84.39Q147.94 84.78 148.32 85.02Q148.69 85.26 149.30 85.26Q149.72 85.26 150.05 85.14Q150.38 85.01 150.56 84.79Q150.75 84.57 150.75 84.28L150.75 84.27Q150.75 83.95 150.49 83.72Q150.23 83.50 149.65 83.36L148.67 83.12Q148.08 82.98 147.70 82.76Q147.32 82.53 147.13 82.20Q146.95 81.87 146.95 81.42L146.95 81.41Q146.95 80.88 147.26 80.47Q147.57 80.05 148.10 79.81Q148.63 79.57 149.30 79.57Q149.96 79.57 150.48 79.78Q150.99 79.99 151.30 80.37Q151.62 80.75 151.69 81.27L151.69 81.27L150.69 81.27L150.69 81.27Q150.59 80.89 150.23 80.66Q149.87 80.42 149.30 80.42Q148.92 80.42 148.63 80.54Q148.34 80.66 148.17 80.87Q148.00 81.08 148.00 81.37L148.00 81.38Q148.00 81.59 148.11 81.75Q148.22 81.92 148.45 82.04Q148.69 82.16 149.06 82.26L150.03 82.49Q150.63 82.63 151.02 82.86Q151.41 83.09 151.60 83.42Q151.79 83.74 151.79 84.20L151.79 84.21Q151.79 84.77 151.46 85.20Q151.12 85.63 150.55 85.87Q149.98 86.11 149.26 86.11ZM153.40 86.00L153.40 79.68L154.42 79.68L154.42 86.00ZM153.91 78.46Q153.63 78.46 153.42 78.26Q153.21 78.05 153.21 77.76Q153.21 77.47 153.42 77.26Q153.63 77.06 153.91 77.06Q154.21 77.06 154.41 77.26Q154.62 77.47 154.62 77.76Q154.62 78.05 154.41 78.26Q154.21 78.46 153.91 78.46ZM158.94 86.11Q158.04 86.11 157.39 85.72Q156.73 85.32 156.38 84.59Q156.02 83.86 156.02 82.85L156.02 82.84Q156.02 81.82 156.38 81.09Q156.73 80.36 157.39 79.96Q158.04 79.57 158.94 79.57Q159.84 79.57 160.49 79.96Q161.14 80.36 161.49 81.09Q161.85 81.82 161.85 82.84L161.85 82.85Q161.85 83.86 161.49 84.59Q161.14 85.32 160.49 85.72Q159.84 86.11 158.94 86.11ZM158.94 85.21Q159.53 85.21 159.95 84.93Q160.37 84.65 160.58 84.12Q160.80 83.59 160.80 82.85L160.80 82.84Q160.80 82.09 160.58 81.56Q160.37 81.03 159.95 80.75Q159.53 80.47 158.94 80.47Q158.34 80.47 157.92 80.75Q157.51 81.03 157.29 81.56Q157.07 82.09 157.07 82.84L157.07 82.85Q157.07 83.59 157.29 84.12Q157.51 84.65 157.92 84.93Q158.34 85.21 158.94 85.21ZM163.43 86.00L163.43 79.68L164.45 79.68L164.45 80.63L164.54 80.63Q164.78 80.13 165.23 79.85Q165.69 79.57 166.38 79.57Q167.45 79.57 168.02 80.18Q168.59 80.79 168.59 81.91L168.59 86.00L167.57 86.00L167.57 82.16Q167.57 81.30 167.21 80.89Q166.85 80.47 166.10 80.47Q165.59 80.47 165.22 80.69Q164.85 80.91 164.65 81.31Q164.45 81.71 164.45 82.26L164.45 86.00ZM172.17 86.11Q171.57 86.11 171.09 85.88Q170.61 85.65 170.33 85.23Q170.06 84.81 170.06 84.24L170.06 84.22Q170.06 83.66 170.33 83.26Q170.60 82.86 171.11 82.63Q171.63 82.40 172.36 82.36L174.68 82.22L174.68 83.04L172.48 83.18Q171.76 83.22 171.43 83.47Q171.10 83.73 171.10 84.20L171.10 84.21Q171.10 84.69 171.46 84.96Q171.83 85.23 172.38 85.23Q172.90 85.23 173.30 85.02Q173.71 84.81 173.94 84.45Q174.17 84.10 174.17 83.64L174.17 81.68Q174.17 81.09 173.82 80.78Q173.46 80.47 172.75 80.47Q172.18 80.47 171.82 80.68Q171.46 80.88 171.33 81.25L171.33 81.27L170.31 81.27L170.31 81.23Q170.40 80.73 170.73 80.36Q171.06 79.99 171.59 79.78Q172.11 79.57 172.79 79.57Q173.56 79.57 174.10 79.82Q174.63 80.08 174.91 80.55Q175.19 81.02 175.19 81.68L175.19 86.00L174.17 86.00L174.17 85.07L174.08 85.07Q173.88 85.40 173.59 85.64Q173.31 85.87 172.95 85.99Q172.59 86.11 172.17 86.11ZM177.11 86.00L177.11 77.18L178.13 77.18L178.13 86.00ZM185.25 86.00L182.91 79.68L183.99 79.68L185.72 84.89L185.81 84.89L187.54 79.68L188.62 79.68L186.28 86.00ZM192.31 86.11Q191.41 86.11 190.76 85.71Q190.11 85.31 189.76 84.58Q189.42 83.86 189.42 82.87L189.42 82.86Q189.42 81.88 189.76 81.14Q190.11 80.40 190.75 79.99Q191.39 79.57 192.25 79.57Q193.11 79.57 193.73 79.97Q194.34 80.37 194.67 81.08Q195.01 81.79 195.01 82.74L195.01 83.13L189.94 83.13L189.94 82.32L194.48 82.32L193.98 83.06L193.98 82.66Q193.98 81.92 193.76 81.44Q193.54 80.96 193.14 80.72Q192.75 80.48 192.24 80.48Q191.73 80.48 191.33 80.73Q190.93 80.98 190.69 81.46Q190.46 81.95 190.46 82.66L190.46 83.06Q190.46 83.74 190.69 84.22Q190.92 84.69 191.34 84.95Q191.76 85.20 192.33 85.20Q192.76 85.20 193.08 85.09Q193.39 84.97 193.60 84.79Q193.80 84.61 193.89 84.42L193.91 84.37L194.93 84.37L194.92 84.41Q194.84 84.73 194.63 85.04Q194.42 85.34 194.09 85.58Q193.76 85.82 193.32 85.97Q192.87 86.11 192.31 86.11ZM199.17 86.11Q198.29 86.11 197.64 85.71Q196.99 85.30 196.63 84.56Q196.27 83.83 196.27 82.82L196.27 82.81Q196.27 81.83 196.63 81.10Q196.98 80.38 197.63 79.97Q198.28 79.57 199.17 79.57Q199.93 79.57 200.49 79.84Q201.05 80.11 201.38 80.57Q201.71 81.02 201.81 81.58L201.81 81.62L200.80 81.62L200.79 81.60Q200.68 81.13 200.26 80.80Q199.85 80.47 199.17 80.47Q198.60 80.47 198.18 80.76Q197.77 81.05 197.54 81.57Q197.31 82.10 197.31 82.81L197.31 82.82Q197.31 83.55 197.54 84.09Q197.77 84.62 198.19 84.92Q198.60 85.21 199.17 85.21Q199.80 85.21 200.21 84.93Q200.61 84.66 200.79 84.13L200.80 84.10L201.81 84.09L201.80 84.15Q201.67 84.72 201.34 85.17Q201.01 85.61 200.47 85.86Q199.93 86.11 199.17 86.11ZM205.66 86.05Q204.69 86.05 204.25 85.65Q203.82 85.26 203.82 84.36L203.82 80.53L202.82 80.53L202.82 79.68L203.82 79.68L203.82 78.05L204.87 78.05L204.87 79.68L206.26 79.68L206.26 80.53L204.87 80.53L204.87 84.10Q204.87 84.66 205.08 84.90Q205.29 85.14 205.79 85.14Q205.92 85.14 206.02 85.14Q206.12 85.13 206.26 85.12L206.26 85.99Q206.11 86.01 205.96 86.03Q205.82 86.05 205.66 86.05ZM210.29 86.11Q209.39 86.11 208.74 85.72Q208.08 85.32 207.73 84.59Q207.38 83.86 207.38 82.85L207.38 82.84Q207.38 81.82 207.73 81.09Q208.08 80.36 208.74 79.96Q209.39 79.57 210.29 79.57Q211.19 79.57 211.84 79.96Q212.49 80.36 212.84 81.09Q213.20 81.82 213.20 82.84L213.20 82.85Q213.20 83.86 212.84 84.59Q212.49 85.32 211.84 85.72Q211.19 86.11 210.29 86.11ZM210.29 85.21Q210.88 85.21 211.30 84.93Q211.72 84.65 211.94 84.12Q212.16 83.59 212.16 82.85L212.16 82.84Q212.16 82.09 211.94 81.56Q211.72 81.03 211.30 80.75Q210.88 80.47 210.29 80.47Q209.69 80.47 209.27 80.75Q208.86 81.03 208.64 81.56Q208.42 82.09 208.42 82.84L208.42 82.85Q208.42 83.59 208.64 84.12Q208.86 84.65 209.27 84.93Q209.69 85.21 210.29 85.21ZM214.78 86.00L214.78 79.68L215.80 79.68L215.80 80.62L215.89 80.62Q216.08 80.12 216.51 79.85Q216.94 79.57 217.58 79.57Q217.73 79.57 217.87 79.59Q218.02 79.60 218.09 79.61L218.09 80.60Q217.93 80.57 217.78 80.56Q217.63 80.54 217.46 80.54Q216.98 80.54 216.60 80.74Q216.23 80.93 216.01 81.28Q215.80 81.62 215.80 82.09L215.80 86.00ZM218.33 88.15L218.84 84.82L220.01 84.82L219.09 88.15ZM227.77 86.05Q226.80 86.05 226.36 85.65Q225.93 85.26 225.93 84.36L225.93 80.53L224.93 80.53L224.93 79.68L225.93 79.68L225.93 78.05L226.98 78.05L226.98 79.68L228.36 79.68L228.36 80.53L226.98 80.53L226.98 84.10Q226.98 84.66 227.19 84.90Q227.40 85.14 227.89 85.14Q228.03 85.14 228.13 85.14Q228.22 85.13 228.36 85.12L228.36 85.99Q228.22 86.01 228.07 86.03Q227.92 86.05 227.77 86.05ZM229.95 86.00L229.95 77.18L230.96 77.18L230.96 80.63L231.06 80.63Q231.30 80.13 231.75 79.85Q232.20 79.57 232.90 79.57Q233.61 79.57 234.10 79.84Q234.59 80.12 234.85 80.64Q235.11 81.16 235.11 81.91L235.11 86.00L234.09 86.00L234.09 82.16Q234.09 81.30 233.73 80.89Q233.37 80.47 232.61 80.47Q232.11 80.47 231.74 80.69Q231.37 80.91 231.17 81.31Q230.96 81.71 230.96 82.26L230.96 86.00ZM236.95 86.00L236.95 79.68L237.97 79.68L237.97 80.62L238.06 80.62Q238.24 80.12 238.68 79.85Q239.11 79.57 239.75 79.57Q239.89 79.57 240.04 79.59Q240.18 79.60 240.26 79.61L240.26 80.60Q240.10 80.57 239.95 80.56Q239.80 80.54 239.63 80.54Q239.14 80.54 238.77 80.74Q238.39 80.93 238.18 81.28Q237.97 81.62 237.97 82.09L237.97 86.00ZM243.92 86.11Q243.02 86.11 242.37 85.71Q241.72 85.31 241.37 84.58Q241.03 83.86 241.03 82.87L241.03 82.86Q241.03 81.88 241.37 81.14Q241.72 80.40 242.36 79.99Q243.00 79.57 243.86 79.57Q244.72 79.57 245.33 79.97Q245.95 80.37 246.28 81.08Q246.62 81.79 246.62 82.74L246.62 83.13L241.55 83.13L241.55 82.32L246.09 82.32L245.59 83.06L245.59 82.66Q245.59 81.92 245.37 81.44Q245.14 80.96 244.75 80.72Q244.36 80.48 243.85 80.48Q243.34 80.48 242.94 80.73Q242.54 80.98 242.30 81.46Q242.07 81.95 242.07 82.66L242.07 83.06Q242.07 83.74 242.30 84.22Q242.53 84.69 242.95 84.95Q243.37 85.20 243.94 85.20Q244.37 85.20 244.69 85.09Q245.00 84.97 245.21 84.79Q245.41 84.61 245.50 84.42L245.52 84.37L246.54 84.37L246.53 84.41Q246.45 84.73 246.24 85.04Q246.03 85.34 245.70 85.58Q245.37 85.82 244.92 85.97Q244.48 86.11 243.92 86.11ZM250.78 86.11Q249.87 86.11 249.23 85.71Q248.58 85.31 248.23 84.58Q247.88 83.86 247.88 82.87L247.88 82.86Q247.88 81.88 248.23 81.14Q248.58 80.40 249.22 79.99Q249.86 79.57 250.71 79.57Q251.57 79.57 252.19 79.97Q252.81 80.37 253.14 81.08Q253.47 81.79 253.47 82.74L253.47 83.13L248.41 83.13L248.41 82.32L252.95 82.32L252.45 83.06L252.45 82.66Q252.45 81.92 252.22 81.44Q252.00 80.96 251.61 80.72Q251.21 80.48 250.71 80.48Q250.20 80.48 249.79 80.73Q249.39 80.98 249.16 81.46Q248.92 81.95 248.92 82.66L248.92 83.06Q248.92 83.74 249.15 84.22Q249.38 84.69 249.80 84.95Q250.22 85.20 250.80 85.20Q251.23 85.20 251.54 85.09Q251.86 84.97 252.06 84.79Q252.27 84.61 252.35 84.42L252.38 84.37L253.39 84.37L253.38 84.41Q253.30 84.73 253.09 85.04Q252.88 85.34 252.56 85.58Q252.23 85.82 251.78 85.97Q251.33 86.11 250.78 86.11ZM258.85 86.00L258.85 80.53L257.80 80.53L257.80 79.68L258.85 79.68L258.85 78.98Q258.85 78.35 259.06 77.93Q259.27 77.52 259.68 77.32Q260.09 77.12 260.68 77.12Q260.87 77.12 261.04 77.13Q261.21 77.15 261.36 77.18L261.36 77.99Q261.27 77.97 261.15 77.97Q261.02 77.96 260.89 77.96Q260.34 77.96 260.11 78.22Q259.87 78.49 259.87 79.01L259.87 79.68L261.30 79.68L261.30 80.53L259.87 80.53L259.87 86.00ZM265.10 86.11Q264.21 86.11 263.55 85.72Q262.90 85.32 262.54 84.59Q262.19 83.86 262.19 82.85L262.19 82.84Q262.19 81.82 262.54 81.09Q262.90 80.36 263.55 79.96Q264.21 79.57 265.10 79.57Q266.00 79.57 266.65 79.96Q267.30 80.36 267.66 81.09Q268.01 81.82 268.01 82.84L268.01 82.85Q268.01 83.86 267.66 84.59Q267.30 85.32 266.65 85.72Q266.00 86.11 265.10 86.11ZM265.10 85.21Q265.70 85.21 266.12 84.93Q266.53 84.65 266.75 84.12Q266.97 83.59 266.97 82.85L266.97 82.84Q266.97 82.09 266.75 81.56Q266.53 81.03 266.12 80.75Q265.70 80.47 265.10 80.47Q264.50 80.47 264.09 80.75Q263.67 81.03 263.45 81.56Q263.23 82.09 263.23 82.84L263.23 82.85Q263.23 83.59 263.45 84.12Q263.67 84.65 264.09 84.93Q264.50 85.21 265.10 85.21ZM272.19 86.11Q271.29 86.11 270.64 85.72Q269.99 85.32 269.63 84.59Q269.28 83.86 269.28 82.85L269.28 82.84Q269.28 81.82 269.63 81.09Q269.99 80.36 270.64 79.96Q271.29 79.57 272.19 79.57Q273.09 79.57 273.74 79.96Q274.39 80.36 274.75 81.09Q275.10 81.82 275.10 82.84L275.10 82.85Q275.10 83.86 274.75 84.59Q274.39 85.32 273.74 85.72Q273.09 86.11 272.19 86.11ZM272.19 85.21Q272.79 85.21 273.21 84.93Q273.62 84.65 273.84 84.12Q274.06 83.59 274.06 82.85L274.06 82.84Q274.06 82.09 273.84 81.56Q273.62 81.03 273.21 80.75Q272.79 80.47 272.19 80.47Q271.59 80.47 271.18 80.75Q270.76 81.03 270.54 81.56Q270.32 82.09 270.32 82.84L270.32 82.85Q270.32 83.59 270.54 84.12Q270.76 84.65 271.18 84.93Q271.59 85.21 272.19 85.21ZM278.93 86.05Q277.96 86.05 277.52 85.65Q277.08 85.26 277.08 84.36L277.08 80.53L276.09 80.53L276.09 79.68L277.08 79.68L277.08 78.05L278.14 78.05L278.14 79.68L279.52 79.68L279.52 80.53L278.14 80.53L278.14 84.10Q278.14 84.66 278.35 84.90Q278.56 85.14 279.05 85.14Q279.19 85.14 279.28 85.14Q279.38 85.13 279.52 85.12L279.52 85.99Q279.38 86.01 279.23 86.03Q279.08 86.05 278.93 86.05ZM281.04 88.11L281.04 79.68L282.06 79.68L282.06 80.69L282.16 80.69Q282.35 80.34 282.64 80.09Q282.94 79.84 283.31 79.71Q283.69 79.57 284.13 79.57Q284.93 79.57 285.52 79.98Q286.12 80.39 286.45 81.12Q286.78 81.85 286.78 82.84L286.78 82.85Q286.78 83.84 286.45 84.57Q286.12 85.30 285.52 85.71Q284.93 86.11 284.13 86.11Q283.69 86.11 283.31 85.97Q282.93 85.84 282.63 85.59Q282.33 85.34 282.16 85.00L282.06 85.00L282.06 88.11ZM283.89 85.21Q284.47 85.21 284.88 84.92Q285.29 84.64 285.51 84.11Q285.73 83.58 285.73 82.85L285.73 82.84Q285.73 82.10 285.51 81.57Q285.29 81.04 284.88 80.76Q284.47 80.47 283.89 80.47Q283.32 80.47 282.90 80.76Q282.49 81.05 282.26 81.58Q282.04 82.10 282.04 82.84L282.04 82.85Q282.04 83.57 282.26 84.10Q282.49 84.63 282.90 84.92Q283.32 85.21 283.89 85.21ZM288.37 86.00L288.37 79.68L289.39 79.68L289.39 80.62L289.48 80.62Q289.66 80.12 290.10 79.85Q290.53 79.57 291.17 79.57Q291.32 79.57 291.46 79.59Q291.60 79.60 291.68 79.61L291.68 80.60Q291.52 80.57 291.37 80.56Q291.22 80.54 291.05 80.54Q290.57 80.54 290.19 80.74Q289.82 80.93 289.60 81.28Q289.39 81.62 289.39 82.09L289.39 86.00ZM292.96 86.00L292.96 79.68L293.98 79.68L293.98 86.00ZM293.48 78.46Q293.19 78.46 292.98 78.26Q292.78 78.05 292.78 77.76Q292.78 77.47 292.98 77.26Q293.19 77.06 293.48 77.06Q293.77 77.06 293.98 77.26Q294.18 77.47 294.18 77.76Q294.18 78.05 293.98 78.26Q293.77 78.46 293.48 78.46ZM295.90 86.00L295.90 79.68L296.92 79.68L296.92 80.63L297.02 80.63Q297.26 80.13 297.71 79.85Q298.16 79.57 298.86 79.57Q299.92 79.57 300.50 80.18Q301.07 80.79 301.07 81.91L301.07 86.00L300.05 86.00L300.05 82.16Q300.05 81.30 299.69 80.89Q299.33 80.47 298.57 80.47Q298.07 80.47 297.70 80.69Q297.33 80.91 297.13 81.31Q296.92 81.71 296.92 82.26L296.92 86.00ZM305.15 86.05Q304.18 86.05 303.74 85.65Q303.30 85.26 303.30 84.36L303.30 80.53L302.31 80.53L302.31 79.68L303.30 79.68L303.30 78.05L304.36 78.05L304.36 79.68L305.74 79.68L305.74 80.53L304.36 80.53L304.36 84.10Q304.36 84.66 304.57 84.90Q304.78 85.14 305.27 85.14Q305.41 85.14 305.50 85.14Q305.60 85.13 305.74 85.12L305.74 85.99Q305.60 86.01 305.45 86.03Q305.30 86.05 305.15 86.05ZM309.32 86.11Q308.61 86.11 308.07 85.90Q307.54 85.68 307.21 85.30Q306.88 84.91 306.83 84.39L306.83 84.39L307.87 84.39L307.87 84.39Q308.00 84.78 308.37 85.02Q308.75 85.26 309.35 85.26Q309.78 85.26 310.10 85.14Q310.43 85.01 310.62 84.79Q310.80 84.57 310.80 84.28L310.80 84.27Q310.80 83.95 310.55 83.72Q310.29 83.50 309.70 83.36L308.72 83.12Q308.13 82.98 307.75 82.76Q307.37 82.53 307.19 82.20Q307.01 81.87 307.01 81.42L307.01 81.41Q307.01 80.88 307.32 80.47Q307.62 80.05 308.16 79.81Q308.69 79.57 309.36 79.57Q310.02 79.57 310.53 79.78Q311.04 79.99 311.36 80.37Q311.67 80.75 311.74 81.27L311.74 81.27L310.74 81.27L310.74 81.27Q310.64 80.89 310.28 80.66Q309.93 80.42 309.35 80.42Q308.98 80.42 308.68 80.54Q308.39 80.66 308.22 80.87Q308.05 81.08 308.05 81.37L308.05 81.38Q308.05 81.59 308.16 81.75Q308.27 81.92 308.51 82.04Q308.74 82.16 309.11 82.26L310.08 82.49Q310.68 82.63 311.07 82.86Q311.46 83.09 311.65 83.42Q311.85 83.74 311.85 84.20L311.85 84.21Q311.85 84.77 311.51 85.20Q311.18 85.63 310.61 85.87Q310.04 86.11 309.32 86.11Z"/>

  <!-- Float32 : 1,536 B reference -->
  <path fill="#f5f5f7" d="M49.17 134.50L49.17 125.34L54.73 125.34L54.73 126.37L50.31 126.37L50.31 129.52L54.37 129.52L54.37 130.53L50.31 130.53L50.31 134.50ZM56.46 134.50L56.46 124.94L57.56 124.94L57.56 134.50ZM62.42 134.62Q61.44 134.62 60.74 134.19Q60.03 133.76 59.64 132.97Q59.26 132.18 59.26 131.08L59.26 131.07Q59.26 129.97 59.64 129.18Q60.03 128.39 60.74 127.96Q61.44 127.54 62.42 127.54Q63.39 127.54 64.10 127.96Q64.80 128.39 65.19 129.18Q65.57 129.97 65.57 131.07L65.57 131.08Q65.57 132.18 65.19 132.97Q64.80 133.76 64.10 134.19Q63.39 134.62 62.42 134.62ZM62.42 133.64Q63.06 133.64 63.51 133.34Q63.96 133.03 64.20 132.46Q64.44 131.89 64.44 131.08L64.44 131.07Q64.44 130.26 64.20 129.69Q63.96 129.12 63.51 128.82Q63.06 128.51 62.42 128.51Q61.77 128.51 61.32 128.82Q60.87 129.12 60.63 129.69Q60.39 130.26 60.39 131.07L60.39 131.08Q60.39 131.89 60.63 132.46Q60.87 133.03 61.32 133.34Q61.77 133.64 62.42 133.64ZM69.09 134.62Q68.44 134.62 67.92 134.37Q67.40 134.13 67.10 133.67Q66.80 133.21 66.80 132.59L66.80 132.58Q66.80 131.97 67.09 131.53Q67.39 131.10 67.94 130.85Q68.50 130.60 69.30 130.56L71.81 130.41L71.81 131.29L69.43 131.44Q68.65 131.48 68.29 131.76Q67.93 132.04 67.93 132.55L67.93 132.56Q67.93 133.08 68.33 133.37Q68.72 133.66 69.32 133.66Q69.88 133.66 70.32 133.44Q70.76 133.21 71.01 132.82Q71.26 132.44 71.26 131.95L71.26 129.82Q71.26 129.18 70.87 128.85Q70.49 128.51 69.72 128.51Q69.11 128.51 68.71 128.73Q68.32 128.95 68.19 129.35L68.18 129.37L67.07 129.37L67.08 129.33Q67.17 128.79 67.53 128.39Q67.89 127.99 68.46 127.76Q69.03 127.54 69.76 127.54Q70.60 127.54 71.18 127.81Q71.76 128.08 72.06 128.59Q72.36 129.10 72.36 129.82L72.36 134.50L71.26 134.50L71.26 133.49L71.16 133.49Q70.94 133.85 70.63 134.11Q70.32 134.36 69.94 134.49Q69.55 134.62 69.09 134.62ZM76.74 134.55Q75.68 134.55 75.21 134.13Q74.74 133.70 74.74 132.72L74.74 128.57L73.66 128.57L73.66 127.66L74.74 127.66L74.74 125.89L75.88 125.89L75.88 127.66L77.38 127.66L77.38 128.57L75.88 128.57L75.88 132.44Q75.88 133.05 76.11 133.31Q76.34 133.57 76.87 133.57Q77.02 133.57 77.12 133.57Q77.22 133.56 77.38 133.55L77.38 134.49Q77.22 134.51 77.06 134.53Q76.90 134.55 76.74 134.55ZM82.06 134.65Q81.12 134.65 80.41 134.33Q79.71 134.00 79.30 133.44Q78.89 132.88 78.82 132.15L78.82 132.08L79.92 132.08L79.92 132.14Q79.97 132.59 80.24 132.93Q80.52 133.27 80.99 133.47Q81.45 133.66 82.06 133.66Q82.66 133.66 83.12 133.45Q83.57 133.24 83.83 132.87Q84.08 132.50 84.08 132.02L84.08 132.01Q84.08 131.16 83.52 130.71Q82.96 130.25 81.99 130.25L80.84 130.25L80.84 129.29L81.94 129.29Q82.49 129.29 82.91 129.08Q83.32 128.88 83.56 128.52Q83.79 128.16 83.79 127.70L83.79 127.69Q83.79 127.21 83.59 126.87Q83.39 126.53 83.00 126.36Q82.61 126.18 82.05 126.18Q81.51 126.18 81.09 126.36Q80.67 126.54 80.41 126.88Q80.16 127.21 80.11 127.68L80.10 127.74L79.00 127.74L79.01 127.68Q79.08 126.93 79.48 126.37Q79.88 125.81 80.53 125.50Q81.19 125.19 82.05 125.19Q82.92 125.19 83.58 125.49Q84.23 125.79 84.58 126.32Q84.94 126.85 84.94 127.55L84.94 127.56Q84.94 128.13 84.70 128.56Q84.45 129.00 84.01 129.29Q83.57 129.59 83.00 129.71L83.00 129.73Q84.00 129.82 84.62 130.41Q85.24 131.00 85.24 131.98L85.24 131.99Q85.24 132.75 84.83 133.36Q84.42 133.96 83.70 134.31Q82.98 134.65 82.06 134.65ZM87.02 134.50L87.02 133.71L90.12 130.36Q90.70 129.73 91.03 129.31Q91.36 128.90 91.49 128.56Q91.63 128.22 91.63 127.82L91.63 127.81Q91.63 127.33 91.42 126.95Q91.21 126.57 90.82 126.34Q90.43 126.12 89.89 126.12Q89.35 126.12 88.94 126.35Q88.52 126.57 88.29 126.97Q88.07 127.38 88.07 127.92L88.06 127.93L86.97 127.92L86.96 127.92Q86.96 127.10 87.35 126.47Q87.74 125.84 88.42 125.48Q89.09 125.12 89.97 125.12Q90.77 125.12 91.41 125.46Q92.05 125.79 92.42 126.37Q92.80 126.95 92.80 127.69L92.80 127.70Q92.80 128.22 92.61 128.70Q92.43 129.19 91.98 129.77Q91.52 130.36 90.69 131.22L88.32 133.66L88.61 133.14L88.61 133.66L88.33 133.47L92.95 133.47L92.95 134.50Z"/>
  <rect x="176" y="124" width="544" height="12" rx="6" fill="#48484a"/>
  <path fill="#f5f5f7" d="M789.97 134.50L789.97 126.61L789.87 126.61L787.54 128.30L787.54 127.09L789.98 125.34L791.12 125.34L791.12 134.50ZM793.10 136.83L793.65 133.22L794.91 133.22L793.91 136.83ZM799.75 134.72Q798.90 134.72 798.23 134.38Q797.56 134.04 797.16 133.46Q796.76 132.88 796.69 132.15L796.68 132.08L797.78 132.08L797.79 132.13Q797.84 132.57 798.11 132.93Q798.37 133.29 798.80 133.50Q799.23 133.71 799.76 133.71Q800.37 133.71 800.83 133.44Q801.30 133.17 801.56 132.69Q801.82 132.21 801.82 131.60L801.82 131.59Q801.82 130.98 801.55 130.50Q801.29 130.03 800.83 129.76Q800.38 129.50 799.78 129.50Q799.32 129.50 798.94 129.64Q798.55 129.78 798.26 130.06Q798.14 130.17 798.03 130.30Q797.93 130.44 797.84 130.60L796.85 130.60L797.33 125.34L802.43 125.34L802.43 126.36L798.23 126.36L797.92 129.46L798.02 129.46Q798.22 129.15 798.52 128.94Q798.82 128.73 799.19 128.62Q799.56 128.51 799.98 128.51Q800.84 128.51 801.51 128.90Q802.17 129.30 802.55 129.99Q802.93 130.68 802.93 131.57L802.93 131.58Q802.93 132.50 802.53 133.21Q802.12 133.92 801.40 134.32Q800.68 134.72 799.75 134.72ZM807.82 134.65Q806.87 134.65 806.17 134.33Q805.46 134.00 805.05 133.44Q804.64 132.88 804.58 132.15L804.57 132.08L805.67 132.08L805.68 132.14Q805.72 132.59 806.00 132.93Q806.27 133.27 806.74 133.47Q807.21 133.66 807.82 133.66Q808.42 133.66 808.87 133.45Q809.33 133.24 809.58 132.87Q809.83 132.50 809.83 132.02L809.83 132.01Q809.83 131.16 809.27 130.71Q808.71 130.25 807.75 130.25L806.60 130.25L806.60 129.29L807.70 129.29Q808.24 129.29 808.66 129.08Q809.08 128.88 809.31 128.52Q809.55 128.16 809.55 127.70L809.55 127.69Q809.55 127.21 809.35 126.87Q809.14 126.53 808.75 126.36Q808.36 126.18 807.80 126.18Q807.26 126.18 806.84 126.36Q806.42 126.54 806.17 126.88Q805.91 127.21 805.86 127.68L805.85 127.74L804.76 127.74L804.76 127.68Q804.84 126.93 805.24 126.37Q805.63 125.81 806.29 125.50Q806.95 125.19 807.80 125.19Q808.68 125.19 809.33 125.49Q809.98 125.79 810.34 126.32Q810.70 126.85 810.70 127.55L810.70 127.56Q810.70 128.13 810.45 128.56Q810.20 129.00 809.76 129.29Q809.33 129.59 808.76 129.71L808.76 129.73Q809.76 129.82 810.38 130.41Q811.00 131.00 811.00 131.98L811.00 131.99Q811.00 132.75 810.58 133.36Q810.17 133.96 809.45 134.31Q808.74 134.65 807.82 134.65ZM816.01 134.72Q815.38 134.72 814.77 134.47Q814.16 134.23 813.66 133.69Q813.16 133.15 812.86 132.27Q812.56 131.38 812.56 130.09L812.56 130.08Q812.56 128.51 812.98 127.41Q813.40 126.30 814.19 125.71Q814.98 125.12 816.09 125.12Q816.86 125.12 817.47 125.41Q818.09 125.69 818.51 126.19Q818.92 126.70 819.08 127.38L819.10 127.46L817.95 127.46L817.92 127.39Q817.78 127.00 817.52 126.73Q817.27 126.45 816.90 126.30Q816.54 126.15 816.07 126.15Q815.24 126.15 814.72 126.63Q814.20 127.12 813.95 127.92Q813.70 128.72 813.66 129.68Q813.66 129.76 813.66 129.85Q813.66 129.94 813.66 130.02L813.93 131.55Q813.93 132.15 814.20 132.64Q814.48 133.13 814.95 133.42Q815.42 133.71 816.00 133.71Q816.58 133.71 817.05 133.42Q817.52 133.14 817.79 132.66Q818.07 132.18 818.07 131.59L818.07 131.57Q818.07 130.96 817.80 130.49Q817.54 130.02 817.08 129.75Q816.61 129.48 816.02 129.48Q815.43 129.48 814.95 129.75Q814.48 130.01 814.20 130.48Q813.93 130.95 813.93 131.54L813.93 131.55L813.55 131.55L813.55 129.90L813.78 129.90Q813.95 129.52 814.28 129.20Q814.62 128.88 815.11 128.68Q815.60 128.48 816.21 128.48Q817.08 128.48 817.76 128.88Q818.44 129.28 818.83 129.97Q819.22 130.67 819.22 131.55L819.22 131.56Q819.22 132.48 818.80 133.19Q818.38 133.90 817.66 134.31Q816.94 134.72 816.01 134.72ZM825.27 134.50L825.27 133.49L828.10 133.49Q829.14 133.49 829.67 133.08Q830.20 132.67 830.20 131.88L830.20 131.87Q830.20 131.34 829.96 130.98Q829.71 130.63 829.22 130.45Q828.73 130.27 828.00 130.27L825.27 130.27L825.27 129.29L827.67 129.29Q828.71 129.29 829.24 128.92Q829.76 128.55 829.76 127.83L829.76 127.82Q829.76 127.12 829.29 126.73Q828.81 126.35 827.96 126.35L825.27 126.35L825.27 125.34L828.20 125.34Q829.05 125.34 829.66 125.62Q830.26 125.90 830.59 126.41Q830.92 126.92 830.92 127.62L830.92 127.63Q830.92 128.11 830.70 128.53Q830.49 128.95 830.13 129.23Q829.78 129.52 829.33 129.60L829.33 129.70Q829.96 129.78 830.42 130.08Q830.88 130.37 831.13 130.85Q831.38 131.32 831.38 131.92L831.38 131.94Q831.38 132.74 831.01 133.31Q830.64 133.88 829.94 134.19Q829.25 134.50 828.27 134.50ZM824.70 134.50L824.70 125.34L825.84 125.34L825.84 134.50Z"/>
  <path fill="#86868b" d="M177.08 154.00L177.08 145.54L182.21 145.54L182.21 146.49L178.13 146.49L178.13 149.40L181.88 149.40L181.88 150.34L178.13 150.34L178.13 154.00ZM185.93 154.11Q185.22 154.11 184.73 153.84Q184.24 153.57 184.00 153.04Q183.76 152.52 183.76 151.77L183.76 147.68L184.78 147.68L184.78 151.53Q184.78 152.38 185.11 152.79Q185.44 153.21 186.20 153.21Q186.61 153.21 186.93 153.09Q187.25 152.96 187.47 152.73Q187.68 152.50 187.79 152.17Q187.90 151.84 187.90 151.42L187.90 147.68L188.92 147.68L188.92 154.00L187.90 154.00L187.90 153.06L187.81 153.06Q187.65 153.39 187.39 153.63Q187.13 153.87 186.76 153.99Q186.39 154.11 185.93 154.11ZM190.88 154.00L190.88 145.18L191.90 145.18L191.90 154.00ZM193.91 154.00L193.91 145.18L194.93 145.18L194.93 154.00ZM200.26 156.11L200.26 147.68L201.28 147.68L201.28 148.69L201.38 148.69Q201.57 148.34 201.86 148.09Q202.16 147.84 202.53 147.71Q202.91 147.57 203.35 147.57Q204.15 147.57 204.74 147.98Q205.34 148.39 205.67 149.12Q205.99 149.85 205.99 150.84L205.99 150.85Q205.99 151.84 205.67 152.57Q205.34 153.30 204.74 153.71Q204.15 154.11 203.35 154.11Q202.91 154.11 202.53 153.97Q202.14 153.84 201.85 153.59Q201.55 153.34 201.38 153.00L201.28 153.00L201.28 156.11ZM203.11 153.21Q203.69 153.21 204.10 152.92Q204.51 152.64 204.73 152.11Q204.95 151.58 204.95 150.85L204.95 150.84Q204.95 150.10 204.73 149.57Q204.51 149.04 204.10 148.76Q203.69 148.47 203.11 148.47Q202.54 148.47 202.12 148.76Q201.71 149.05 201.48 149.58Q201.26 150.10 201.26 150.84L201.26 150.85Q201.26 151.57 201.48 152.10Q201.71 152.63 202.12 152.92Q202.54 153.21 203.11 153.21ZM207.59 154.00L207.59 147.68L208.61 147.68L208.61 148.62L208.70 148.62Q208.88 148.12 209.32 147.85Q209.75 147.57 210.39 147.57Q210.54 147.57 210.68 147.59Q210.82 147.60 210.90 147.61L210.90 148.60Q210.74 148.57 210.59 148.56Q210.44 148.54 210.27 148.54Q209.79 148.54 209.41 148.74Q209.04 148.93 208.82 149.28Q208.61 149.62 208.61 150.09L208.61 154.00ZM214.56 154.11Q213.66 154.11 213.01 153.71Q212.36 153.31 212.01 152.58Q211.67 151.86 211.67 150.87L211.67 150.86Q211.67 149.88 212.01 149.14Q212.36 148.40 213.00 147.99Q213.64 147.57 214.50 147.57Q215.36 147.57 215.98 147.97Q216.59 148.37 216.92 149.08Q217.26 149.79 217.26 150.74L217.26 151.13L212.19 151.13L212.19 150.32L216.73 150.32L216.23 151.06L216.23 150.66Q216.23 149.92 216.01 149.44Q215.79 148.96 215.39 148.72Q215.00 148.48 214.49 148.48Q213.98 148.48 213.58 148.73Q213.18 148.98 212.94 149.46Q212.71 149.95 212.71 150.66L212.71 151.06Q212.71 151.74 212.94 152.22Q213.17 152.69 213.59 152.95Q214.01 153.20 214.58 153.20Q215.01 153.20 215.33 153.09Q215.64 152.97 215.85 152.79Q216.05 152.61 216.14 152.42L216.16 152.37L217.18 152.37L217.17 152.41Q217.09 152.73 216.88 153.04Q216.67 153.34 216.34 153.58Q216.01 153.82 215.57 153.97Q215.12 154.11 214.56 154.11ZM221.42 154.11Q220.54 154.11 219.89 153.71Q219.24 153.30 218.88 152.56Q218.52 151.83 218.52 150.82L218.52 150.81Q218.52 149.83 218.88 149.10Q219.23 148.38 219.88 147.97Q220.53 147.57 221.42 147.57Q222.18 147.57 222.74 147.84Q223.30 148.11 223.63 148.57Q223.96 149.02 224.06 149.58L224.06 149.62L223.05 149.62L223.04 149.60Q222.93 149.13 222.51 148.80Q222.10 148.47 221.42 148.47Q220.85 148.47 220.43 148.76Q220.02 149.05 219.79 149.57Q219.56 150.10 219.56 150.81L219.56 150.82Q219.56 151.55 219.79 152.09Q220.02 152.62 220.44 152.92Q220.85 153.21 221.42 153.21Q222.05 153.21 222.46 152.93Q222.86 152.66 223.04 152.13L223.05 152.10L224.06 152.09L224.05 152.15Q223.92 152.72 223.59 153.17Q223.26 153.61 222.72 153.86Q222.18 154.11 221.42 154.11ZM225.58 154.00L225.58 147.68L226.60 147.68L226.60 154.00ZM226.09 146.46Q225.80 146.46 225.60 146.26Q225.39 146.05 225.39 145.76Q225.39 145.47 225.60 145.26Q225.80 145.06 226.09 145.06Q226.38 145.06 226.59 145.26Q226.79 145.47 226.79 145.76Q226.79 146.05 226.59 146.26Q226.38 146.46 226.09 146.46ZM230.69 154.11Q229.98 154.11 229.44 153.90Q228.90 153.68 228.58 153.30Q228.25 152.91 228.20 152.39L228.20 152.39L229.24 152.39L229.24 152.39Q229.37 152.78 229.74 153.02Q230.12 153.26 230.72 153.26Q231.15 153.26 231.47 153.14Q231.80 153.01 231.99 152.79Q232.17 152.57 232.17 152.28L232.17 152.27Q232.17 151.95 231.92 151.72Q231.66 151.50 231.07 151.36L230.09 151.12Q229.50 150.98 229.12 150.76Q228.74 150.53 228.56 150.20Q228.38 149.87 228.38 149.42L228.38 149.41Q228.38 148.88 228.68 148.47Q228.99 148.05 229.53 147.81Q230.06 147.57 230.73 147.57Q231.39 147.57 231.90 147.78Q232.41 147.99 232.73 148.37Q233.04 148.75 233.11 149.27L233.11 149.27L232.11 149.27L232.11 149.27Q232.01 148.89 231.65 148.66Q231.29 148.42 230.72 148.42Q230.35 148.42 230.05 148.54Q229.76 148.66 229.59 148.87Q229.42 149.08 229.42 149.37L229.42 149.38Q229.42 149.59 229.53 149.75Q229.64 149.92 229.88 150.04Q230.11 150.16 230.48 150.26L231.45 150.49Q232.05 150.63 232.44 150.86Q232.83 151.09 233.02 151.42Q233.22 151.74 233.22 152.20L233.22 152.21Q233.22 152.77 232.88 153.20Q232.55 153.63 231.98 153.87Q231.41 154.11 230.69 154.11ZM234.82 154.00L234.82 147.68L235.84 147.68L235.84 154.00ZM235.34 146.46Q235.05 146.46 234.84 146.26Q234.63 146.05 234.63 145.76Q234.63 145.47 234.84 145.26Q235.05 145.06 235.34 145.06Q235.63 145.06 235.84 145.26Q236.04 145.47 236.04 145.76Q236.04 146.05 235.84 146.26Q235.63 146.46 235.34 146.46ZM240.36 154.11Q239.46 154.11 238.81 153.72Q238.16 153.32 237.80 152.59Q237.45 151.86 237.45 150.85L237.45 150.84Q237.45 149.82 237.80 149.09Q238.16 148.36 238.81 147.96Q239.46 147.57 240.36 147.57Q241.26 147.57 241.91 147.96Q242.56 148.36 242.92 149.09Q243.27 149.82 243.27 150.84L243.27 150.85Q243.27 151.86 242.92 152.59Q242.56 153.32 241.91 153.72Q241.26 154.11 240.36 154.11ZM240.36 153.21Q240.96 153.21 241.37 152.93Q241.79 152.65 242.01 152.12Q242.23 151.59 242.23 150.85L242.23 150.84Q242.23 150.09 242.01 149.56Q241.79 149.03 241.37 148.75Q240.96 148.47 240.36 148.47Q239.76 148.47 239.35 148.75Q238.93 149.03 238.71 149.56Q238.49 150.09 238.49 150.84L238.49 150.85Q238.49 151.59 238.71 152.12Q238.93 152.65 239.35 152.93Q239.76 153.21 240.36 153.21ZM244.85 154.00L244.85 147.68L245.87 147.68L245.87 148.63L245.97 148.63Q246.21 148.13 246.66 147.85Q247.11 147.57 247.81 147.57Q248.87 147.57 249.44 148.18Q250.02 148.79 250.02 149.91L250.02 154.00L249.00 154.00L249.00 150.16Q249.00 149.30 248.64 148.89Q248.28 148.47 247.52 148.47Q247.02 148.47 246.65 148.69Q246.28 148.91 246.08 149.31Q245.87 149.71 245.87 150.26L245.87 154.00Z"/>

  <!-- INT8 : 388 B -->
  <path fill="#f5f5f7" d="M49.17 200.50L49.17 191.34L50.31 191.34L50.31 200.50ZM52.57 200.50L52.57 191.34L53.68 191.34L58.93 198.87L58.17 198.47L58.75 198.47L58.75 191.34L59.88 191.34L59.88 200.50L58.77 200.50L53.52 193.00L54.28 193.40L53.70 193.40L53.70 200.50ZM64.52 200.50L64.52 192.37L61.57 192.37L61.57 191.34L68.62 191.34L68.62 192.37L65.67 192.37L65.67 200.50ZM73.29 200.65Q72.32 200.65 71.57 200.32Q70.82 199.98 70.39 199.39Q69.96 198.79 69.96 198.02L69.96 198.01Q69.96 197.45 70.21 196.96Q70.46 196.48 70.90 196.14Q71.35 195.80 71.93 195.67L71.93 195.64Q71.18 195.41 70.74 194.87Q70.29 194.33 70.29 193.61L70.29 193.59Q70.29 192.90 70.68 192.36Q71.07 191.82 71.75 191.50Q72.43 191.19 73.29 191.19Q74.16 191.19 74.83 191.50Q75.51 191.82 75.90 192.36Q76.29 192.90 76.29 193.59L76.29 193.61Q76.29 194.33 75.84 194.87Q75.40 195.41 74.65 195.64L74.65 195.67Q75.24 195.80 75.68 196.14Q76.12 196.48 76.37 196.96Q76.62 197.45 76.62 198.01L76.62 198.02Q76.62 198.79 76.19 199.39Q75.76 199.98 75.01 200.32Q74.26 200.65 73.29 200.65ZM73.29 199.66Q73.92 199.66 74.41 199.44Q74.90 199.22 75.17 198.83Q75.45 198.45 75.45 197.95L75.45 197.94Q75.45 197.44 75.18 197.05Q74.90 196.67 74.41 196.44Q73.92 196.22 73.29 196.22Q72.65 196.22 72.17 196.44Q71.68 196.67 71.40 197.05Q71.12 197.44 71.12 197.94L71.12 197.95Q71.12 198.45 71.40 198.83Q71.68 199.22 72.17 199.44Q72.66 199.66 73.29 199.66ZM73.29 195.22Q73.84 195.22 74.26 195.03Q74.68 194.83 74.91 194.49Q75.15 194.15 75.15 193.70L75.15 193.69Q75.15 193.24 74.91 192.90Q74.68 192.56 74.26 192.37Q73.84 192.17 73.29 192.17Q72.74 192.17 72.32 192.37Q71.90 192.56 71.66 192.90Q71.43 193.24 71.43 193.69L71.43 193.70Q71.43 194.15 71.66 194.49Q71.90 194.83 72.32 195.03Q72.74 195.22 73.29 195.22Z"/>
  <line x1="176" y1="196.5" x2="720" y2="196.5" stroke="#2c2c2e" stroke-width="1"/>
  <rect x="176" y="190" width="137.4167" height="12" rx="6" fill="#0A84FF">
    <animate attributeName="width" dur="8s" repeatCount="indefinite" calcMode="spline"
      values="137.4167;137.4167;544;544;137.4167;137.4167" keyTimes="0;0.55;0.68;0.78;0.92;1"
      keySplines="0 0 1 1; 0.4 0 0.2 1; 0 0 1 1; 0.4 0 0.2 1"/>
  </rect>
  <path fill="#f5f5f7" d="M799.56 200.65Q798.61 200.65 797.91 200.33Q797.20 200.00 796.79 199.44Q796.38 198.88 796.32 198.15L796.32 198.08L797.41 198.08L797.42 198.14Q797.46 198.59 797.74 198.93Q798.02 199.27 798.48 199.47Q798.95 199.66 799.56 199.66Q800.16 199.66 800.62 199.45Q801.07 199.24 801.32 198.87Q801.58 198.50 801.58 198.02L801.58 198.01Q801.58 197.16 801.02 196.71Q800.45 196.25 799.49 196.25L798.34 196.25L798.34 195.29L799.44 195.29Q799.98 195.29 800.40 195.08Q800.82 194.88 801.06 194.52Q801.29 194.16 801.29 193.70L801.29 193.69Q801.29 193.21 801.09 192.87Q800.89 192.53 800.49 192.36Q800.10 192.18 799.55 192.18Q799.01 192.18 798.58 192.36Q798.16 192.54 797.91 192.88Q797.65 193.21 797.60 193.68L797.60 193.74L796.50 193.74L796.51 193.68Q796.58 192.93 796.98 192.37Q797.38 191.81 798.03 191.50Q798.69 191.19 799.55 191.19Q800.42 191.19 801.07 191.49Q801.72 191.79 802.08 192.32Q802.44 192.85 802.44 193.55L802.44 193.56Q802.44 194.13 802.19 194.56Q801.95 195.00 801.51 195.29Q801.07 195.59 800.50 195.71L800.50 195.73Q801.50 195.82 802.12 196.41Q802.74 197.00 802.74 197.98L802.74 197.99Q802.74 198.75 802.33 199.36Q801.91 199.96 801.20 200.31Q800.48 200.65 799.56 200.65ZM807.65 200.65Q806.67 200.65 805.93 200.32Q805.18 199.98 804.75 199.39Q804.32 198.79 804.32 198.02L804.32 198.01Q804.32 197.45 804.57 196.96Q804.81 196.48 805.26 196.14Q805.70 195.80 806.29 195.67L806.29 195.64Q805.54 195.41 805.09 194.87Q804.65 194.33 804.65 193.61L804.65 193.59Q804.65 192.90 805.04 192.36Q805.42 191.82 806.10 191.50Q806.78 191.19 807.65 191.19Q808.52 191.19 809.19 191.50Q809.87 191.82 810.25 192.36Q810.64 192.90 810.64 193.59L810.64 193.61Q810.64 194.33 810.20 194.87Q809.76 195.41 809.00 195.64L809.00 195.67Q809.59 195.80 810.04 196.14Q810.48 196.48 810.72 196.96Q810.97 197.45 810.97 198.01L810.97 198.02Q810.97 198.79 810.55 199.39Q810.12 199.98 809.37 200.32Q808.62 200.65 807.65 200.65ZM807.65 199.66Q808.28 199.66 808.77 199.44Q809.25 199.22 809.53 198.83Q809.81 198.45 809.81 197.95L809.81 197.94Q809.81 197.44 809.53 197.05Q809.26 196.67 808.77 196.44Q808.28 196.22 807.65 196.22Q807.01 196.22 806.52 196.44Q806.03 196.67 805.76 197.05Q805.48 197.44 805.48 197.94L805.48 197.95Q805.48 198.45 805.76 198.83Q806.04 199.22 806.53 199.44Q807.02 199.66 807.65 199.66ZM807.65 195.22Q808.20 195.22 808.62 195.03Q809.04 194.83 809.27 194.49Q809.51 194.15 809.51 193.70L809.51 193.69Q809.51 193.24 809.27 192.90Q809.04 192.56 808.62 192.37Q808.20 192.17 807.65 192.17Q807.09 192.17 806.67 192.37Q806.26 192.56 806.02 192.90Q805.79 193.24 805.79 193.69L805.79 193.70Q805.79 194.15 806.02 194.49Q806.26 194.83 806.67 195.03Q807.09 195.22 807.65 195.22ZM815.87 200.65Q814.90 200.65 814.15 200.32Q813.40 199.98 812.97 199.39Q812.55 198.79 812.55 198.02L812.55 198.01Q812.55 197.45 812.79 196.96Q813.04 196.48 813.49 196.14Q813.93 195.80 814.51 195.67L814.51 195.64Q813.76 195.41 813.32 194.87Q812.88 194.33 812.88 193.61L812.88 193.59Q812.88 192.90 813.26 192.36Q813.65 191.82 814.33 191.50Q815.01 191.19 815.87 191.19Q816.74 191.19 817.42 191.50Q818.09 191.82 818.48 192.36Q818.87 192.90 818.87 193.59L818.87 193.61Q818.87 194.33 818.43 194.87Q817.99 195.41 817.23 195.64L817.23 195.67Q817.82 195.80 818.26 196.14Q818.70 196.48 818.95 196.96Q819.20 197.45 819.20 198.01L819.20 198.02Q819.20 198.79 818.77 199.39Q818.35 199.98 817.60 200.32Q816.84 200.65 815.87 200.65ZM815.87 199.66Q816.51 199.66 816.99 199.44Q817.48 199.22 817.76 198.83Q818.04 198.45 818.04 197.95L818.04 197.94Q818.04 197.44 817.76 197.05Q817.48 196.67 817.00 196.44Q816.51 196.22 815.87 196.22Q815.24 196.22 814.75 196.44Q814.26 196.67 813.98 197.05Q813.71 197.44 813.71 197.94L813.71 197.95Q813.71 198.45 813.99 198.83Q814.27 199.22 814.75 199.44Q815.24 199.66 815.87 199.66ZM815.87 195.22Q816.42 195.22 816.84 195.03Q817.26 194.83 817.50 194.49Q817.73 194.15 817.73 193.70L817.73 193.69Q817.73 193.24 817.50 192.90Q817.26 192.56 816.84 192.37Q816.42 192.17 815.87 192.17Q815.32 192.17 814.90 192.37Q814.48 192.56 814.25 192.90Q814.01 193.24 814.01 193.69L814.01 193.70Q814.01 194.15 814.25 194.49Q814.48 194.83 814.90 195.03Q815.32 195.22 815.87 195.22ZM825.27 200.50L825.27 199.49L828.10 199.49Q829.13 199.49 829.67 199.08Q830.20 198.67 830.20 197.88L830.20 197.87Q830.20 197.34 829.95 196.98Q829.70 196.63 829.21 196.45Q828.72 196.27 827.99 196.27L825.27 196.27L825.27 195.29L827.67 195.29Q828.71 195.29 829.23 194.92Q829.75 194.55 829.75 193.83L829.75 193.82Q829.75 193.12 829.28 192.73Q828.81 192.35 827.96 192.35L825.27 192.35L825.27 191.34L828.20 191.34Q829.04 191.34 829.65 191.62Q830.26 191.90 830.58 192.41Q830.91 192.92 830.91 193.62L830.91 193.63Q830.91 194.11 830.70 194.53Q830.48 194.95 830.13 195.23Q829.77 195.52 829.33 195.60L829.33 195.70Q829.96 195.78 830.41 196.08Q830.87 196.37 831.12 196.85Q831.37 197.32 831.37 197.92L831.37 197.94Q831.37 198.74 831.00 199.31Q830.63 199.88 829.94 200.19Q829.25 200.50 828.27 200.50ZM824.70 200.50L824.70 191.34L825.84 191.34L825.84 200.50Z"/>
  <path fill="#86868b" d="M181.14 219.12Q180.76 219.12 180.40 218.97Q180.04 218.82 179.69 218.62Q179.35 218.43 179.01 218.28Q178.67 218.13 178.33 218.13Q177.80 218.13 177.42 218.34Q177.03 218.56 176.76 218.88L176.76 217.96Q177.03 217.64 177.44 217.44Q177.84 217.23 178.42 217.23Q178.80 217.23 179.16 217.38Q179.52 217.53 179.87 217.72Q180.22 217.91 180.56 218.06Q180.89 218.21 181.23 218.21Q181.76 218.21 182.14 218.00Q182.53 217.79 182.80 217.46L182.80 218.39Q182.53 218.70 182.13 218.91Q181.72 219.12 181.14 219.12ZM181.14 215.96Q180.76 215.96 180.40 215.81Q180.04 215.66 179.69 215.46Q179.35 215.27 179.01 215.12Q178.67 214.97 178.33 214.97Q177.80 214.97 177.42 215.19Q177.03 215.40 176.76 215.72L176.76 214.80Q177.03 214.49 177.44 214.28Q177.84 214.07 178.42 214.07Q178.80 214.07 179.16 214.22Q179.52 214.37 179.87 214.56Q180.22 214.76 180.56 214.91Q180.89 215.05 181.23 215.05Q181.76 215.05 182.14 214.84Q182.53 214.63 182.80 214.30L182.80 215.23Q182.53 215.54 182.13 215.75Q181.72 215.96 181.14 215.96ZM187.38 220.14Q186.51 220.14 185.86 219.84Q185.21 219.54 184.83 219.02Q184.45 218.50 184.39 217.83L184.38 217.76L185.40 217.76L185.40 217.82Q185.45 218.24 185.70 218.55Q185.96 218.87 186.39 219.05Q186.82 219.23 187.38 219.23Q187.94 219.23 188.35 219.03Q188.77 218.84 189.01 218.50Q189.24 218.15 189.24 217.71L189.24 217.70Q189.24 216.92 188.72 216.50Q188.21 216.08 187.31 216.08L186.25 216.08L186.25 215.19L187.27 215.19Q187.77 215.19 188.16 215.00Q188.54 214.81 188.76 214.48Q188.98 214.15 188.98 213.72L188.98 213.71Q188.98 213.27 188.79 212.96Q188.60 212.65 188.24 212.48Q187.88 212.32 187.37 212.32Q186.87 212.32 186.48 212.49Q186.09 212.65 185.86 212.96Q185.62 213.27 185.57 213.70L185.57 213.76L184.55 213.76L184.56 213.70Q184.63 213.01 185.00 212.49Q185.36 211.98 185.97 211.69Q186.58 211.40 187.37 211.40Q188.18 211.40 188.78 211.68Q189.38 211.96 189.71 212.45Q190.04 212.94 190.04 213.58L190.04 213.60Q190.04 214.12 189.81 214.52Q189.58 214.93 189.18 215.20Q188.77 215.46 188.25 215.58L188.25 215.60Q189.17 215.68 189.74 216.22Q190.31 216.77 190.31 217.67L190.31 217.69Q190.31 218.39 189.93 218.95Q189.55 219.50 188.89 219.82Q188.23 220.14 187.38 220.14ZM192.45 220.06Q192.14 220.06 191.92 219.83Q191.69 219.61 191.69 219.30Q191.69 218.98 191.92 218.76Q192.14 218.54 192.45 218.54Q192.77 218.54 192.99 218.76Q193.21 218.98 193.21 219.30Q193.21 219.61 192.99 219.83Q192.77 220.06 192.45 220.06ZM197.47 211.35Q198.05 211.35 198.62 211.57Q199.19 211.79 199.65 212.29Q200.11 212.79 200.38 213.60Q200.66 214.42 200.66 215.62L200.66 215.63Q200.66 217.07 200.27 218.09Q199.88 219.12 199.16 219.66Q198.43 220.20 197.40 220.20Q196.70 220.20 196.12 219.94Q195.55 219.68 195.17 219.21Q194.79 218.74 194.64 218.12L194.63 218.04L195.69 218.04L195.71 218.11Q195.84 218.46 196.08 218.72Q196.31 218.97 196.65 219.12Q196.99 219.26 197.42 219.26Q198.18 219.26 198.66 218.81Q199.14 218.36 199.38 217.62Q199.61 216.87 199.64 215.99Q199.65 215.91 199.65 215.83Q199.65 215.75 199.65 215.68L199.40 214.27Q199.40 213.71 199.14 213.26Q198.89 212.81 198.46 212.54Q198.03 212.28 197.49 212.28Q196.96 212.28 196.53 212.54Q196.09 212.80 195.83 213.24Q195.58 213.68 195.58 214.23L195.58 214.25Q195.58 214.81 195.82 215.25Q196.07 215.68 196.50 215.93Q196.92 216.18 197.47 216.18Q198.02 216.18 198.45 215.93Q198.89 215.69 199.14 215.26Q199.40 214.83 199.40 214.28L199.40 214.27L199.74 214.27L199.74 215.79L199.54 215.79Q199.38 216.14 199.07 216.44Q198.76 216.74 198.31 216.92Q197.86 217.10 197.29 217.10Q196.50 217.10 195.87 216.73Q195.24 216.36 194.88 215.72Q194.52 215.08 194.52 214.27L194.52 214.26Q194.52 213.41 194.90 212.75Q195.28 212.10 195.95 211.72Q196.62 211.35 197.47 211.35ZM205.34 220.20Q204.76 220.20 204.19 219.98Q203.63 219.75 203.17 219.26Q202.71 218.76 202.43 217.94Q202.16 217.12 202.16 215.93L202.16 215.92Q202.16 214.47 202.54 213.45Q202.93 212.43 203.66 211.89Q204.38 211.35 205.41 211.35Q206.12 211.35 206.69 211.61Q207.26 211.87 207.64 212.33Q208.03 212.80 208.17 213.43L208.19 213.50L207.12 213.50L207.10 213.44Q206.97 213.08 206.74 212.83Q206.50 212.57 206.16 212.43Q205.82 212.29 205.40 212.29Q204.63 212.29 204.15 212.74Q203.67 213.19 203.44 213.93Q203.21 214.67 203.17 215.55Q203.16 215.63 203.16 215.71Q203.16 215.79 203.16 215.87L203.42 217.28Q203.42 217.83 203.67 218.28Q203.93 218.73 204.36 219.00Q204.79 219.27 205.33 219.27Q205.86 219.27 206.29 219.01Q206.73 218.75 206.98 218.30Q207.24 217.86 207.24 217.31L207.24 217.30Q207.24 216.74 206.99 216.30Q206.75 215.86 206.32 215.61Q205.89 215.37 205.34 215.37Q204.80 215.37 204.36 215.61Q203.93 215.86 203.67 216.29Q203.42 216.72 203.42 217.27L203.42 217.28L203.07 217.28L203.07 215.75L203.28 215.75Q203.43 215.41 203.74 215.11Q204.05 214.81 204.51 214.63Q204.96 214.45 205.53 214.45Q206.32 214.45 206.95 214.81Q207.58 215.18 207.94 215.82Q208.30 216.46 208.30 217.28L208.30 217.29Q208.30 218.13 207.91 218.79Q207.53 219.44 206.86 219.82Q206.19 220.20 205.34 220.20ZM214.96 213.71L215.60 214.34L210.69 219.48L210.05 218.86ZM210.05 214.34L210.69 213.71L215.60 218.86L214.96 219.48ZM223.10 220.11Q222.39 220.11 221.86 219.90Q221.32 219.68 220.99 219.30Q220.67 218.91 220.61 218.39L220.61 218.39L221.65 218.39L221.65 218.39Q221.78 218.78 222.15 219.02Q222.53 219.26 223.13 219.26Q223.56 219.26 223.89 219.14Q224.21 219.01 224.40 218.79Q224.59 218.57 224.59 218.28L224.59 218.27Q224.59 217.95 224.33 217.72Q224.07 217.50 223.48 217.36L222.51 217.12Q221.91 216.98 221.53 216.76Q221.15 216.53 220.97 216.20Q220.79 215.87 220.79 215.42L220.79 215.41Q220.79 214.88 221.10 214.47Q221.40 214.05 221.94 213.81Q222.47 213.57 223.14 213.57Q223.80 213.57 224.31 213.78Q224.83 213.99 225.14 214.37Q225.45 214.75 225.52 215.27L225.52 215.27L224.52 215.27L224.52 215.27Q224.42 214.89 224.06 214.66Q223.71 214.42 223.13 214.42Q222.76 214.42 222.46 214.54Q222.17 214.66 222.00 214.87Q221.83 215.08 221.83 215.37L221.83 215.38Q221.83 215.59 221.94 215.75Q222.05 215.92 222.29 216.04Q222.52 216.16 222.89 216.26L223.87 216.49Q224.46 216.63 224.85 216.86Q225.24 217.09 225.44 217.42Q225.63 217.74 225.63 218.20L225.63 218.21Q225.63 218.77 225.29 219.20Q224.96 219.63 224.39 219.87Q223.82 220.11 223.10 220.11ZM227.21 220.00L227.21 213.68L228.23 213.68L228.23 214.64L228.32 214.64Q228.54 214.13 228.97 213.85Q229.41 213.57 230.03 213.57Q230.46 213.57 230.80 213.71Q231.14 213.85 231.38 214.10Q231.63 214.35 231.78 214.68L231.87 214.68Q232.04 214.35 232.33 214.10Q232.61 213.85 232.99 213.71Q233.37 213.57 233.80 213.57Q234.45 213.57 234.90 213.81Q235.34 214.05 235.58 214.51Q235.81 214.97 235.81 215.63L235.81 220.00L234.79 220.00L234.79 215.87Q234.79 215.40 234.65 215.09Q234.51 214.79 234.21 214.63Q233.92 214.47 233.47 214.47Q233.04 214.47 232.71 214.67Q232.38 214.87 232.20 215.20Q232.02 215.54 232.02 215.94L232.02 220.00L231.00 220.00L231.00 215.71Q231.00 215.34 230.83 215.06Q230.67 214.78 230.38 214.63Q230.08 214.47 229.68 214.47Q229.27 214.47 228.94 214.69Q228.61 214.91 228.42 215.27Q228.23 215.64 228.23 216.09L228.23 220.00ZM239.39 220.11Q238.79 220.11 238.31 219.88Q237.83 219.65 237.56 219.23Q237.28 218.81 237.28 218.24L237.28 218.22Q237.28 217.66 237.55 217.26Q237.82 216.86 238.33 216.63Q238.85 216.40 239.58 216.36L241.90 216.22L241.90 217.04L239.70 217.18Q238.98 217.22 238.65 217.47Q238.32 217.73 238.32 218.20L238.32 218.21Q238.32 218.69 238.68 218.96Q239.05 219.23 239.60 219.23Q240.12 219.23 240.52 219.02Q240.93 218.81 241.16 218.45Q241.39 218.10 241.39 217.64L241.39 215.68Q241.39 215.09 241.04 214.78Q240.68 214.47 239.97 214.47Q239.40 214.47 239.04 214.68Q238.68 214.88 238.55 215.25L238.55 215.27L237.53 215.27L237.54 215.23Q237.62 214.73 237.95 214.36Q238.28 213.99 238.81 213.78Q239.33 213.57 240.01 213.57Q240.78 213.57 241.32 213.82Q241.85 214.08 242.13 214.55Q242.41 215.02 242.41 215.68L242.41 220.00L241.39 220.00L241.39 219.07L241.30 219.07Q241.10 219.40 240.81 219.64Q240.53 219.87 240.17 219.99Q239.81 220.11 239.39 220.11ZM244.33 220.00L244.33 211.18L245.35 211.18L245.35 220.00ZM247.37 220.00L247.37 211.18L248.39 211.18L248.39 220.00ZM252.92 220.11Q252.02 220.11 251.37 219.71Q250.72 219.31 250.38 218.58Q250.03 217.86 250.03 216.87L250.03 216.86Q250.03 215.88 250.38 215.14Q250.72 214.40 251.36 213.99Q252.00 213.57 252.86 213.57Q253.72 213.57 254.34 213.97Q254.96 214.37 255.29 215.08Q255.62 215.79 255.62 216.74L255.62 217.13L250.55 217.13L250.55 216.32L255.10 216.32L254.59 217.06L254.59 216.66Q254.59 215.92 254.37 215.44Q254.15 214.96 253.75 214.72Q253.36 214.48 252.85 214.48Q252.34 214.48 251.94 214.73Q251.54 214.98 251.30 215.46Q251.07 215.95 251.07 216.66L251.07 217.06Q251.07 217.74 251.30 218.22Q251.53 218.69 251.95 218.95Q252.37 219.20 252.95 219.20Q253.37 219.20 253.69 219.09Q254.01 218.97 254.21 218.79Q254.42 218.61 254.50 218.42L254.52 218.37L255.54 218.37L255.53 218.41Q255.45 218.73 255.24 219.04Q255.03 219.34 254.70 219.58Q254.38 219.82 253.93 219.97Q253.48 220.11 252.92 220.11ZM257.20 220.00L257.20 213.68L258.22 213.68L258.22 214.62L258.31 214.62Q258.49 214.12 258.93 213.85Q259.36 213.57 260.00 213.57Q260.15 213.57 260.29 213.59Q260.43 213.60 260.51 213.61L260.51 214.60Q260.35 214.57 260.20 214.56Q260.05 214.54 259.88 214.54Q259.40 214.54 259.02 214.74Q258.65 214.93 258.43 215.28Q258.22 215.62 258.22 216.09L258.22 220.00ZM265.98 217.36Q265.67 217.36 265.44 217.13Q265.21 216.91 265.21 216.60Q265.21 216.28 265.44 216.06Q265.67 215.83 265.98 215.83Q266.29 215.83 266.52 216.06Q266.74 216.28 266.74 216.60Q266.74 216.91 266.52 217.13Q266.29 217.36 265.98 217.36ZM271.54 220.00L274.65 211.54L275.46 211.54L275.46 212.91L275.13 212.91L272.64 220.00ZM272.95 217.58L273.28 216.68L277.10 216.68L277.43 217.58ZM277.71 220.00L275.22 212.91L275.22 211.54L275.70 211.54L278.81 220.00ZM280.30 220.00L280.30 211.54L283.20 211.54Q284.45 211.54 285.34 212.05Q286.24 212.55 286.71 213.49Q287.19 214.43 287.19 215.76L287.19 215.78Q287.19 217.11 286.71 218.05Q286.24 219.00 285.35 219.50Q284.46 220.00 283.20 220.00ZM281.35 219.05L283.13 219.05Q284.07 219.05 284.74 218.66Q285.41 218.28 285.76 217.54Q286.11 216.81 286.11 215.79L286.11 215.78Q286.11 214.74 285.75 214.01Q285.40 213.27 284.73 212.88Q284.06 212.49 283.13 212.49L281.35 212.49ZM289.02 220.00L289.02 211.54L292.24 211.54Q293.06 211.54 293.67 211.86Q294.27 212.17 294.61 212.73Q294.94 213.30 294.94 214.06L294.94 214.07Q294.94 214.95 294.49 215.59Q294.04 216.24 293.24 216.49L295.20 220.00L293.96 220.00L292.15 216.65Q292.14 216.65 292.12 216.65Q292.10 216.65 292.09 216.65L290.07 216.65L290.07 220.00ZM290.07 215.72L292.15 215.72Q292.96 215.72 293.41 215.30Q293.85 214.88 293.85 214.11L293.85 214.09Q293.85 213.34 293.39 212.91Q292.92 212.48 292.10 212.48L290.07 212.48ZM296.64 217.07L296.64 216.12L300.58 216.12L300.58 217.07ZM305.21 220.20Q304.27 220.20 303.61 219.66Q302.94 219.12 302.59 218.13Q302.23 217.13 302.23 215.78L302.23 215.76Q302.23 214.40 302.59 213.41Q302.94 212.42 303.61 211.88Q304.27 211.35 305.21 211.35Q306.15 211.35 306.82 211.88Q307.48 212.42 307.84 213.41Q308.21 214.40 308.21 215.76L308.21 215.78Q308.21 217.13 307.84 218.13Q307.48 219.12 306.82 219.66Q306.15 220.20 305.21 220.20ZM305.21 219.28Q305.82 219.28 306.25 218.85Q306.68 218.42 306.91 217.64Q307.14 216.85 307.14 215.78L307.14 215.76Q307.14 214.69 306.91 213.90Q306.68 213.12 306.25 212.70Q305.82 212.27 305.21 212.27Q304.61 212.27 304.18 212.70Q303.75 213.12 303.52 213.90Q303.29 214.69 303.29 215.76L303.29 215.78Q303.29 216.85 303.52 217.64Q303.75 218.42 304.18 218.85Q304.61 219.28 305.21 219.28ZM312.77 220.20Q311.83 220.20 311.17 219.66Q310.50 219.12 310.14 218.13Q309.79 217.13 309.79 215.78L309.79 215.76Q309.79 214.40 310.14 213.41Q310.50 212.42 311.17 211.88Q311.83 211.35 312.77 211.35Q313.71 211.35 314.38 211.88Q315.04 212.42 315.40 213.41Q315.76 214.40 315.76 215.76L315.76 215.78Q315.76 217.13 315.40 218.13Q315.04 219.12 314.38 219.66Q313.71 220.20 312.77 220.20ZM312.77 219.28Q313.38 219.28 313.81 218.85Q314.24 218.42 314.47 217.64Q314.70 216.85 314.70 215.78L314.70 215.76Q314.70 214.69 314.47 213.90Q314.24 213.12 313.81 212.70Q313.38 212.27 312.77 212.27Q312.17 212.27 311.74 212.70Q311.30 213.12 311.08 213.90Q310.85 214.69 310.85 215.76L310.85 215.78Q310.85 216.85 311.08 217.64Q311.30 218.42 311.74 218.85Q312.17 219.28 312.77 219.28ZM317.62 220.00L321.41 212.57L321.41 212.49L316.89 212.49L316.89 211.54L322.48 211.54L322.48 212.52L318.72 220.00Z"/>

  <!-- PQ : 48 B -->
  <path fill="#f5f5f7" d="M49.74 263.23L49.74 262.22L52.33 262.22Q53.31 262.22 53.85 261.70Q54.39 261.19 54.39 260.29L54.39 260.28Q54.39 259.37 53.85 258.86Q53.31 258.36 52.33 258.36L49.74 258.36L49.74 257.34L52.62 257.34Q53.48 257.34 54.14 257.71Q54.80 258.08 55.18 258.74Q55.56 259.40 55.56 260.27L55.56 260.28Q55.56 261.15 55.18 261.82Q54.80 262.48 54.14 262.86Q53.48 263.23 52.62 263.23ZM49.17 266.50L49.17 257.34L50.31 257.34L50.31 266.50ZM61.20 266.72Q59.88 266.72 58.94 266.13Q58.00 265.54 57.50 264.46Q56.99 263.38 56.99 261.92L56.99 261.91Q56.99 260.44 57.51 259.37Q58.02 258.29 58.96 257.71Q59.90 257.12 61.20 257.12Q62.50 257.12 63.44 257.71Q64.38 258.29 64.89 259.37Q65.40 260.44 65.40 261.91L65.40 261.92Q65.40 263.38 64.89 264.46Q64.39 265.54 63.45 266.13Q62.50 266.72 61.20 266.72ZM61.20 265.66Q62.14 265.66 62.82 265.20Q63.49 264.74 63.86 263.89Q64.23 263.05 64.23 261.92L64.23 261.91Q64.23 260.77 63.86 259.93Q63.49 259.09 62.82 258.64Q62.14 258.18 61.20 258.18Q60.26 258.18 59.58 258.64Q58.91 259.09 58.53 259.93Q58.16 260.77 58.16 261.91L58.16 261.92Q58.16 263.05 58.52 263.89Q58.89 264.74 59.57 265.20Q60.24 265.66 61.20 265.66ZM63.69 267.53L61.03 263.88L62.31 263.88L64.97 267.53Z"/>
  <line x1="176" y1="262.5" x2="720" y2="262.5" stroke="#2c2c2e" stroke-width="1"/>
  <rect x="176" y="256" width="17" height="12" rx="6" fill="#BF5AF2">
    <animate attributeName="width" dur="8s" repeatCount="indefinite" calcMode="spline"
      values="17;17;544;544;17;17" keyTimes="0;0.55;0.68;0.78;0.92;1"
      keySplines="0 0 1 1; 0.4 0 0.2 1; 0 0 1 1; 0.4 0 0.2 1"/>
  </rect>
  <path fill="#f5f5f7" d="M808.65 266.50L808.65 264.60L804.18 264.60L804.18 263.56Q804.56 262.94 804.94 262.30Q805.33 261.66 805.73 261.03Q806.13 260.39 806.52 259.76Q806.92 259.13 807.32 258.52Q807.72 257.91 808.11 257.34L809.76 257.34L809.76 263.58L811.06 263.58L811.06 264.60L809.76 264.60L809.76 266.50ZM805.35 263.59L808.65 263.59L808.65 258.40L808.58 258.40Q808.26 258.86 807.94 259.36Q807.62 259.86 807.28 260.38Q806.95 260.90 806.62 261.43Q806.29 261.96 805.97 262.48Q805.65 263.00 805.35 263.51ZM815.88 266.65Q814.91 266.65 814.16 266.32Q813.41 265.98 812.98 265.39Q812.56 264.79 812.56 264.02L812.56 264.01Q812.56 263.45 812.80 262.96Q813.05 262.48 813.49 262.14Q813.94 261.80 814.52 261.67L814.52 261.64Q813.77 261.41 813.33 260.87Q812.89 260.33 812.89 259.61L812.89 259.59Q812.89 258.90 813.27 258.36Q813.66 257.82 814.34 257.50Q815.02 257.19 815.88 257.19Q816.75 257.19 817.43 257.50Q818.10 257.82 818.49 258.36Q818.88 258.90 818.88 259.59L818.88 259.61Q818.88 260.33 818.44 260.87Q818.00 261.41 817.24 261.64L817.24 261.67Q817.83 261.80 818.27 262.14Q818.71 262.48 818.96 262.96Q819.21 263.45 819.21 264.01L819.21 264.02Q819.21 264.79 818.78 265.39Q818.36 265.98 817.60 266.32Q816.85 266.65 815.88 266.65ZM815.88 265.66Q816.52 265.66 817.00 265.44Q817.49 265.22 817.77 264.83Q818.05 264.45 818.05 263.95L818.05 263.94Q818.05 263.44 817.77 263.05Q817.49 262.67 817.00 262.44Q816.52 262.22 815.88 262.22Q815.25 262.22 814.76 262.44Q814.27 262.67 813.99 263.05Q813.72 263.44 813.72 263.94L813.72 263.95Q813.72 264.45 814.00 264.83Q814.28 265.22 814.76 265.44Q815.25 265.66 815.88 265.66ZM815.88 261.22Q816.43 261.22 816.85 261.03Q817.27 260.83 817.51 260.49Q817.74 260.15 817.74 259.70L817.74 259.69Q817.74 259.24 817.51 258.90Q817.27 258.56 816.85 258.37Q816.43 258.17 815.88 258.17Q815.33 258.17 814.91 258.37Q814.49 258.56 814.26 258.90Q814.02 259.24 814.02 259.69L814.02 259.70Q814.02 260.15 814.26 260.49Q814.49 260.83 814.91 261.03Q815.33 261.22 815.88 261.22ZM825.28 266.50L825.28 265.49L828.11 265.49Q829.14 265.49 829.67 265.08Q830.21 264.67 830.21 263.88L830.21 263.87Q830.21 263.34 829.96 262.98Q829.71 262.63 829.22 262.45Q828.73 262.27 828.00 262.27L825.28 262.27L825.28 261.29L827.68 261.29Q828.72 261.29 829.24 260.92Q829.76 260.55 829.76 259.83L829.76 259.82Q829.76 259.12 829.29 258.73Q828.82 258.35 827.97 258.35L825.28 258.35L825.28 257.34L828.21 257.34Q829.05 257.34 829.66 257.62Q830.27 257.90 830.59 258.41Q830.92 258.92 830.92 259.62L830.92 259.63Q830.92 260.11 830.71 260.53Q830.49 260.95 830.14 261.23Q829.78 261.52 829.34 261.60L829.34 261.70Q829.97 261.78 830.42 262.08Q830.88 262.37 831.13 262.85Q831.38 263.32 831.38 263.92L831.38 263.94Q831.38 264.74 831.01 265.31Q830.64 265.88 829.95 266.19Q829.26 266.50 828.28 266.50ZM824.70 266.50L824.70 257.34L825.85 257.34L825.85 266.50Z"/>
  <path fill="#86868b" d="M181.14 285.12Q180.76 285.12 180.40 284.97Q180.04 284.82 179.69 284.62Q179.35 284.43 179.01 284.28Q178.67 284.13 178.33 284.13Q177.80 284.13 177.42 284.34Q177.03 284.56 176.76 284.88L176.76 283.96Q177.03 283.64 177.44 283.44Q177.84 283.23 178.42 283.23Q178.80 283.23 179.16 283.38Q179.52 283.53 179.87 283.72Q180.22 283.91 180.56 284.06Q180.89 284.21 181.23 284.21Q181.76 284.21 182.14 284.00Q182.53 283.79 182.80 283.46L182.80 284.39Q182.53 284.70 182.13 284.91Q181.72 285.12 181.14 285.12ZM181.14 281.96Q180.76 281.96 180.40 281.81Q180.04 281.66 179.69 281.46Q179.35 281.27 179.01 281.12Q178.67 280.97 178.33 280.97Q177.80 280.97 177.42 281.19Q177.03 281.40 176.76 281.72L176.76 280.80Q177.03 280.49 177.44 280.28Q177.84 280.07 178.42 280.07Q178.80 280.07 179.16 280.22Q179.52 280.37 179.87 280.56Q180.22 280.76 180.56 280.91Q180.89 281.05 181.23 281.05Q181.76 281.05 182.14 280.84Q182.53 280.63 182.80 280.30L182.80 281.23Q182.53 281.54 182.13 281.75Q181.72 281.96 181.14 281.96ZM187.38 286.14Q186.51 286.14 185.86 285.84Q185.21 285.54 184.83 285.02Q184.45 284.50 184.39 283.83L184.38 283.76L185.40 283.76L185.40 283.82Q185.45 284.24 185.70 284.55Q185.96 284.87 186.39 285.05Q186.82 285.23 187.38 285.23Q187.94 285.23 188.35 285.03Q188.77 284.84 189.01 284.50Q189.24 284.15 189.24 283.71L189.24 283.70Q189.24 282.92 188.72 282.50Q188.21 282.08 187.31 282.08L186.25 282.08L186.25 281.19L187.27 281.19Q187.77 281.19 188.16 281.00Q188.54 280.81 188.76 280.48Q188.98 280.15 188.98 279.72L188.98 279.71Q188.98 279.27 188.79 278.96Q188.60 278.65 188.24 278.48Q187.88 278.32 187.37 278.32Q186.87 278.32 186.48 278.49Q186.09 278.65 185.86 278.96Q185.62 279.27 185.57 279.70L185.57 279.76L184.55 279.76L184.56 279.70Q184.63 279.01 185.00 278.49Q185.36 277.98 185.97 277.69Q186.58 277.40 187.37 277.40Q188.18 277.40 188.78 277.68Q189.38 277.96 189.71 278.45Q190.04 278.94 190.04 279.58L190.04 279.60Q190.04 280.12 189.81 280.52Q189.58 280.93 189.18 281.20Q188.77 281.46 188.25 281.58L188.25 281.60Q189.17 281.68 189.74 282.22Q190.31 282.77 190.31 283.67L190.31 283.69Q190.31 284.39 189.93 284.95Q189.55 285.50 188.89 285.82Q188.23 286.14 187.38 286.14ZM192.03 286.00L192.03 285.27L194.88 282.18Q195.42 281.59 195.73 281.21Q196.03 280.83 196.16 280.52Q196.28 280.21 196.28 279.84L196.28 279.82Q196.28 279.38 196.09 279.03Q195.89 278.68 195.54 278.47Q195.18 278.27 194.68 278.27Q194.18 278.27 193.79 278.47Q193.41 278.68 193.20 279.05Q192.99 279.43 192.99 279.92L192.99 279.94L191.98 279.93L191.97 279.92Q191.97 279.17 192.33 278.59Q192.69 278.01 193.31 277.68Q193.94 277.35 194.75 277.35Q195.49 277.35 196.08 277.65Q196.67 277.96 197.01 278.49Q197.36 279.03 197.36 279.71L197.36 279.72Q197.36 280.21 197.19 280.65Q197.02 281.10 196.60 281.64Q196.18 282.18 195.41 282.97L193.23 285.23L193.49 284.74L193.49 285.23L193.23 285.05L197.50 285.05L197.50 286.00ZM204.24 279.71L204.88 280.34L199.96 285.48L199.33 284.86ZM199.33 280.34L199.96 279.71L204.88 284.86L204.24 285.48ZM212.38 286.11Q211.67 286.11 211.13 285.90Q210.59 285.68 210.27 285.30Q209.94 284.91 209.88 284.39L209.88 284.39L210.93 284.39L210.93 284.39Q211.06 284.78 211.43 285.02Q211.81 285.26 212.41 285.26Q212.84 285.26 213.16 285.14Q213.49 285.01 213.68 284.79Q213.86 284.57 213.86 284.28L213.86 284.27Q213.86 283.95 213.61 283.72Q213.35 283.50 212.76 283.36L211.78 283.12Q211.19 282.98 210.81 282.76Q210.43 282.53 210.25 282.20Q210.07 281.87 210.07 281.42L210.07 281.41Q210.07 280.88 210.37 280.47Q210.68 280.05 211.21 279.81Q211.75 279.57 212.42 279.57Q213.08 279.57 213.59 279.78Q214.10 279.99 214.42 280.37Q214.73 280.75 214.80 281.27L214.80 281.27L213.80 281.27L213.80 281.27Q213.70 280.89 213.34 280.66Q212.98 280.42 212.41 280.42Q212.04 280.42 211.74 280.54Q211.45 280.66 211.28 280.87Q211.11 281.08 211.11 281.37L211.11 281.38Q211.11 281.59 211.22 281.75Q211.33 281.92 211.57 282.04Q211.80 282.16 212.17 282.26L213.14 282.49Q213.74 282.63 214.13 282.86Q214.52 283.09 214.71 283.42Q214.91 283.74 214.91 284.20L214.91 284.21Q214.91 284.77 214.57 285.20Q214.24 285.63 213.67 285.87Q213.10 286.11 212.38 286.11ZM216.49 286.00L216.49 279.68L217.51 279.68L217.51 280.64L217.60 280.64Q217.81 280.13 218.25 279.85Q218.69 279.57 219.31 279.57Q219.73 279.57 220.07 279.71Q220.41 279.85 220.66 280.10Q220.91 280.35 221.05 280.68L221.15 280.68Q221.32 280.35 221.60 280.10Q221.89 279.85 222.27 279.71Q222.65 279.57 223.08 279.57Q223.72 279.57 224.17 279.81Q224.62 280.05 224.86 280.51Q225.09 280.97 225.09 281.63L225.09 286.00L224.07 286.00L224.07 281.87Q224.07 281.40 223.93 281.09Q223.78 280.79 223.49 280.63Q223.20 280.47 222.75 280.47Q222.31 280.47 221.98 280.67Q221.66 280.87 221.47 281.20Q221.29 281.54 221.29 281.94L221.29 286.00L220.27 286.00L220.27 281.71Q220.27 281.34 220.11 281.06Q219.95 280.78 219.66 280.63Q219.36 280.47 218.96 280.47Q218.55 280.47 218.22 280.69Q217.89 280.91 217.70 281.27Q217.51 281.64 217.51 282.09L217.51 286.00ZM228.66 286.11Q228.07 286.11 227.59 285.88Q227.11 285.65 226.83 285.23Q226.55 284.81 226.55 284.24L226.55 284.22Q226.55 283.66 226.82 283.26Q227.09 282.86 227.61 282.63Q228.12 282.40 228.86 282.36L231.18 282.22L231.18 283.04L228.98 283.18Q228.26 283.22 227.93 283.47Q227.60 283.73 227.60 284.20L227.60 284.21Q227.60 284.69 227.96 284.96Q228.32 285.23 228.88 285.23Q229.40 285.23 229.80 285.02Q230.21 284.81 230.44 284.45Q230.67 284.10 230.67 283.64L230.67 281.68Q230.67 281.09 230.31 280.78Q229.96 280.47 229.25 280.47Q228.68 280.47 228.32 280.68Q227.96 280.88 227.83 281.25L227.83 281.27L226.81 281.27L226.81 281.23Q226.89 280.73 227.23 280.36Q227.56 279.99 228.08 279.78Q228.61 279.57 229.29 279.57Q230.06 279.57 230.59 279.82Q231.13 280.08 231.41 280.55Q231.69 281.02 231.69 281.68L231.69 286.00L230.67 286.00L230.67 285.07L230.57 285.07Q230.38 285.40 230.09 285.64Q229.81 285.87 229.45 285.99Q229.09 286.11 228.66 286.11ZM233.61 286.00L233.61 277.18L234.63 277.18L234.63 286.00ZM236.64 286.00L236.64 277.18L237.66 277.18L237.66 286.00ZM242.20 286.11Q241.30 286.11 240.65 285.71Q240.00 285.31 239.65 284.58Q239.30 283.86 239.30 282.87L239.30 282.86Q239.30 281.88 239.65 281.14Q240.00 280.40 240.64 279.99Q241.28 279.57 242.13 279.57Q243.00 279.57 243.61 279.97Q244.23 280.37 244.56 281.08Q244.89 281.79 244.89 282.74L244.89 283.13L239.83 283.13L239.83 282.32L244.37 282.32L243.87 283.06L243.87 282.66Q243.87 281.92 243.65 281.44Q243.42 280.96 243.03 280.72Q242.64 280.48 242.13 280.48Q241.62 280.48 241.22 280.73Q240.82 280.98 240.58 281.46Q240.35 281.95 240.35 282.66L240.35 283.06Q240.35 283.74 240.58 284.22Q240.80 284.69 241.23 284.95Q241.65 285.20 242.22 285.20Q242.65 285.20 242.97 285.09Q243.28 284.97 243.49 284.79Q243.69 284.61 243.78 284.42L243.80 284.37L244.82 284.37L244.81 284.41Q244.72 284.73 244.52 285.04Q244.31 285.34 243.98 285.58Q243.65 285.82 243.20 285.97Q242.76 286.11 242.20 286.11ZM246.48 286.00L246.48 279.68L247.50 279.68L247.50 280.62L247.59 280.62Q247.77 280.12 248.21 279.85Q248.64 279.57 249.28 279.57Q249.42 279.57 249.57 279.59Q249.71 279.60 249.79 279.61L249.79 280.60Q249.63 280.57 249.48 280.56Q249.33 280.54 249.16 280.54Q248.67 280.54 248.30 280.74Q247.92 280.93 247.71 281.28Q247.50 281.62 247.50 282.09L247.50 286.00ZM255.25 283.36Q254.94 283.36 254.72 283.13Q254.49 282.91 254.49 282.60Q254.49 282.28 254.72 282.06Q254.94 281.83 255.25 281.83Q255.57 281.83 255.79 282.06Q256.02 282.28 256.02 282.60Q256.02 282.91 255.79 283.13Q255.57 283.36 255.25 283.36ZM260.81 286.00L263.93 277.54L264.74 277.54L264.74 278.91L264.41 278.91L261.92 286.00ZM262.23 283.58L262.55 282.68L266.38 282.68L266.70 283.58ZM266.98 286.00L264.50 278.91L264.50 277.54L264.97 277.54L268.09 286.00ZM269.57 286.00L269.57 277.54L272.47 277.54Q273.73 277.54 274.62 278.05Q275.52 278.55 275.99 279.49Q276.46 280.43 276.46 281.76L276.46 281.78Q276.46 283.11 275.99 284.05Q275.52 285.00 274.62 285.50Q273.73 286.00 272.47 286.00ZM270.63 285.05L272.40 285.05Q273.35 285.05 274.02 284.66Q274.68 284.28 275.04 283.54Q275.39 282.81 275.39 281.79L275.39 281.78Q275.39 280.74 275.03 280.01Q274.68 279.27 274.01 278.88Q273.34 278.49 272.40 278.49L270.63 278.49ZM278.29 286.00L278.29 277.54L281.52 277.54Q282.34 277.54 282.94 277.86Q283.55 278.17 283.88 278.73Q284.22 279.30 284.22 280.06L284.22 280.07Q284.22 280.95 283.77 281.59Q283.31 282.24 282.52 282.49L284.47 286.00L283.24 286.00L281.43 282.65Q281.42 282.65 281.40 282.65Q281.38 282.65 281.37 282.65L279.35 282.65L279.35 286.00ZM279.35 281.72L281.43 281.72Q282.24 281.72 282.68 281.30Q283.13 280.88 283.13 280.11L283.13 280.09Q283.13 279.34 282.66 278.91Q282.20 278.48 281.38 278.48L279.35 278.48ZM285.92 283.07L285.92 282.12L289.85 282.12L289.85 283.07ZM294.49 286.20Q293.55 286.20 292.89 285.66Q292.22 285.12 291.86 284.13Q291.51 283.13 291.51 281.78L291.51 281.76Q291.51 280.40 291.86 279.41Q292.22 278.42 292.89 277.88Q293.55 277.35 294.49 277.35Q295.43 277.35 296.09 277.88Q296.76 278.42 297.12 279.41Q297.48 280.40 297.48 281.76L297.48 281.78Q297.48 283.13 297.12 284.13Q296.76 285.12 296.09 285.66Q295.43 286.20 294.49 286.20ZM294.49 285.28Q295.10 285.28 295.53 284.85Q295.96 284.42 296.19 283.64Q296.42 282.85 296.42 281.78L296.42 281.76Q296.42 280.69 296.19 279.90Q295.96 279.12 295.53 278.70Q295.10 278.27 294.49 278.27Q293.88 278.27 293.45 278.70Q293.02 279.12 292.79 279.90Q292.57 280.69 292.57 281.76L292.57 281.78Q292.57 282.85 292.79 283.64Q293.02 284.42 293.45 284.85Q293.88 285.28 294.49 285.28ZM301.29 286.00L301.29 278.72L301.19 278.72L299.04 280.28L299.04 279.16L301.29 277.54L302.34 277.54L302.34 286.00ZM306.85 286.00L306.85 278.72L306.76 278.72L304.61 280.28L304.61 279.16L306.86 277.54L307.91 277.54L307.91 286.00Z"/>
</svg>
